<?xml version="1.0" encoding="UTF-8" standalone="no"?>
<!-- Created with Inkscape (http://www.inkscape.org/) -->

<svg
   xmlns:dc="http://purl.org/dc/elements/1.1/"
   xmlns:cc="http://creativecommons.org/ns#"
   xmlns:rdf="http://www.w3.org/1999/02/22-rdf-syntax-ns#"
   xmlns:svg="http://www.w3.org/2000/svg"
   xmlns="http://www.w3.org/2000/svg"
   xmlns:sodipodi="http://sodipodi.sourceforge.net/DTD/sodipodi-0.dtd"
   xmlns:inkscape="http://www.inkscape.org/namespaces/inkscape"
   width="100mm"
   height="70mm"
   viewBox="0 0 354.33071 248.03149"
   id="svg2"
   version="1.1"
   inkscape:version="0.91 r"
   sodipodi:docname="satshakit.svg"
   inkscape:export-filename="/home/satsha/path3887.png"
   inkscape:export-xdpi="476"
   inkscape:export-ydpi="476">
  <defs
     id="defs4">
    <pattern
       y="0"
       x="0"
       height="6"
       width="6"
       patternUnits="userSpaceOnUse"
       id="EMFhbasepattern" />
  </defs>
  <sodipodi:namedview
     id="base"
     pagecolor="#ffffff"
     bordercolor="#666666"
     borderopacity="1.0"
     inkscape:pageopacity="0.0"
     inkscape:pageshadow="2"
     inkscape:zoom="1.979899"
     inkscape:cx="153.58539"
     inkscape:cy="188.01743"
     inkscape:document-units="px"
     inkscape:current-layer="layer1"
     showgrid="false"
     inkscape:window-width="1366"
     inkscape:window-height="713"
     inkscape:window-x="-2"
     inkscape:window-y="-3"
     inkscape:window-maximized="1" />
  <metadata
     id="metadata7">
    <rdf:RDF>
      <cc:Work
         rdf:about="">
        <dc:format>image/svg+xml</dc:format>
        <dc:type
           rdf:resource="http://purl.org/dc/dcmitype/StillImage" />
        <dc:title></dc:title>
      </cc:Work>
    </rdf:RDF>
  </metadata>
  <g
     inkscape:label="Layer 1"
     inkscape:groupmode="layer"
     id="layer1"
     transform="translate(0,-804.33071)">
    <flowRoot
       xml:space="preserve"
       id="flowRoot4706-6-1"
       style="font-style:normal;font-variant:normal;font-weight:normal;font-stretch:normal;font-size:40px;line-height:125%;font-family:Purisa;-inkscape-font-specification:'Purisa, Normal';text-align:start;letter-spacing:0px;word-spacing:0px;writing-mode:lr-tb;text-anchor:start;fill:#000000;fill-opacity:1;stroke:none;stroke-width:1px;stroke-linecap:butt;stroke-linejoin:miter;stroke-opacity:1"
       transform="translate(280.00718,565.74104)"><flowRegion
         id="flowRegion4708-3-2"><rect
           id="rect4710-7-4"
           width="184.85791"
           height="101.01526"
           x="163.64471"
           y="-84.572792"
           style="font-style:normal;font-variant:normal;font-weight:normal;font-stretch:normal;font-size:40px;line-height:125%;font-family:Purisa;-inkscape-font-specification:'Purisa, Normal';text-align:start;writing-mode:lr-tb;text-anchor:start" /></flowRegion><flowPara
         id="flowPara4742-4"
         style="font-style:normal;font-variant:normal;font-weight:normal;font-stretch:normal;font-size:43.33374786px;line-height:89.99999762%;font-family:monospace;-inkscape-font-specification:'monospace, Normal';text-align:center;writing-mode:lr-tb;text-anchor:middle" /></flowRoot>    <flowRoot
       xml:space="preserve"
       id="flowRoot4706-6-1-8"
       style="font-style:normal;font-variant:normal;font-weight:normal;font-stretch:normal;font-size:40px;line-height:125%;font-family:Purisa;-inkscape-font-specification:'Purisa, Normal';text-align:start;letter-spacing:0px;word-spacing:0px;writing-mode:lr-tb;text-anchor:start;fill:#000000;fill-opacity:1;stroke:none;stroke-width:1px;stroke-linecap:butt;stroke-linejoin:miter;stroke-opacity:1"
       transform="translate(191.41694,457.15315)"><flowRegion
         id="flowRegion4708-3-2-0"><rect
           id="rect4710-7-4-9"
           width="184.85791"
           height="101.01526"
           x="163.64471"
           y="-84.572792"
           style="font-style:normal;font-variant:normal;font-weight:normal;font-stretch:normal;font-size:40px;line-height:125%;font-family:Purisa;-inkscape-font-specification:'Purisa, Normal';text-align:start;writing-mode:lr-tb;text-anchor:start" /></flowRegion><flowPara
         id="flowPara4742-4-5"
         style="font-style:normal;font-variant:normal;font-weight:normal;font-stretch:normal;font-size:43.33374786px;line-height:89.99999762%;font-family:monospace;-inkscape-font-specification:'monospace, Normal';text-align:center;writing-mode:lr-tb;text-anchor:middle" /></flowRoot>    <text
       xml:space="preserve"
       style="font-style:normal;font-weight:normal;font-size:40px;line-height:125%;font-family:sans-serif;letter-spacing:0px;word-spacing:0px;fill:#000000;fill-opacity:1;stroke:none;stroke-width:1px;stroke-linecap:butt;stroke-linejoin:miter;stroke-opacity:1"
       x="117.28183"
       y="530.58679"
       id="text4243"
       sodipodi:linespacing="125%"><tspan
         sodipodi:role="line"
         id="tspan4245"
         x="117.28183"
         y="530.58679" /></text>
    <rect
       style="fill:#ffffff;fill-opacity:1;stroke:none;stroke-width:0.35433072;stroke-miterlimit:4;stroke-dasharray:none;stroke-opacity:1"
       id="rect4835"
       width="0"
       height="123.11785"
       x="463.22394"
       y="588.73596" />
    <g
       id="g3650"
       transform="translate(-1.5152288,0.50507627)">
      <path
         id="path3887"
         transform="translate(0,804.33071)"
         d="m 2.5,0.3984375 0,154.0800825 81.947266,0 94.837894,0 0,-154.0800825 -94.837894,0 -81.947266,0 z m 50.205078,5.4902344 32.835938,0 0.195312,0.2089843 c 0.19469,0.2067202 0.195313,0.2362194 0.195313,3.8183594 l 0,3.6093754 0.261718,0.05664 c 0.39398,0.0865 1.069154,0.605152 1.408203,1.082031 0.471312,0.663452 0.50721,0.998001 0.47461,4.5 -0.02865,3.080501 -0.03475,3.159046 -0.238281,3.572266 -0.26472,0.53742 -0.810828,1.085644 -1.335938,1.339844 -0.508915,0.24636 -1.452215,0.312632 -1.984375,0.138672 -0.79827,-0.26095 -1.550756,-1.029775 -1.791016,-1.828125 -0.179209,-0.59474 -0.180437,-6.383393 -0.002,-6.976563 0.24856,-0.8259 1.051253,-1.647858 1.789063,-1.830078 l 0.248047,-0.06055 0,-3.230469 0,-3.2304682 -32.041016,0 -32.039062,0 0,4.7714842 0,4.769531 1.169921,0 1.169922,0 0,3.195313 0,3.195312 -2.925781,0 -2.923828,0 0,-3.195312 0,-3.195313 1.169922,0 1.169922,0 0,-5.175781 c 0,-5.0549998 0.0039,-5.1796386 0.179687,-5.3554686 0.17934,-0.17934 0.299362,-0.1796875 33.013672,-0.1796875 z m 2.894531,3.5097656 0.002,0 c 24.533599,0 25.448167,0.007 25.591797,0.1660156 0.13705,0.15149 0.148438,1.1607229 0.148438,12.6894529 l 0,12.525391 11.730469,0 c 11.250554,0 11.738024,0.006 11.880854,0.164062 0.13676,0.1511 0.14844,0.995218 0.14844,10.304688 0,6.70027 0.0303,10.140625 0.0898,10.140625 0.058,0 0.0898,0.976094 0.0898,2.746094 l 0,2.74414 -0.67383,0 -0.67578,0 0,-2.74414 c 0,-1.77 0.0318,-2.746094 0.0898,-2.746094 0.0594,0 0.0879,-3.328594 0.0879,-9.808594 l 0,-9.810547 -11.730474,0 c -11.250549,0 -11.738009,-0.006 -11.880859,-0.164062 -0.13705,-0.15149 -0.148438,-1.162677 -0.148438,-12.691407 l 0,-12.52539 -24.751953,0 -24.75,0 0.02344,2.578125 0.02344,2.578125 0.378907,0.111328 c 0.906368,0.26753 1.745785,1.009049 2.171874,1.917969 0.20363,0.43448 0.238282,0.631282 0.238282,1.320312 0,0.68903 -0.0346,0.885833 -0.238282,1.320313 -0.42609,0.90892 -1.265495,1.650429 -2.171874,1.917968 l -0.378907,0.111329 -0.02344,2.683593 c -0.0208,2.3398 -0.04324,2.705527 -0.171875,2.847657 -0.14078,0.15508 -0.604875,0.164062 -10.078125,0.164062 l -9.931641,0 0,4.410156 0,4.410157 1.619141,0 1.621094,0 0,3.195312 0,3.19336 -1.169922,0 -1.169922,0 0,6.300781 0,6.300781 1.708984,0 1.710938,0 0,4.09375 0,4.095703 -1.080078,0 -1.080079,0 0,7.605469 0,7.603516 1.080079,0 1.080078,0 0,4.095703 0,4.095703 -2.746094,0 -2.7441408,0 0,-4.095703 0,-4.095703 1.0800778,0 1.080079,0 0,-7.603516 0,-7.605469 -1.080079,0 -1.0800778,0 0,-4.095703 0,-4.09375 0.4492188,0 0.451172,0 0,-6.300781 0,-6.300781 -1.169922,0 -1.1699219,0 0,-3.19336 0,-3.195312 0.71875,0 0.7207031,0 0,-6.884766 0,-6.884766 -1.1699218,0 -1.1699219,0 0,-3.195312 0,-3.195313 2.9257815,0 2.923828,0 0,3.195313 0,3.195312 -1.169922,0 -1.169922,0 0,1.978516 0,1.980469 9.585938,0 9.58789,0 -0.02539,-2.351563 -0.02344,-2.353515 -0.378906,-0.111329 c -0.90636,-0.267519 -1.745795,-1.009048 -2.171875,-1.917968 -0.20364,-0.43448 -0.238281,-0.631283 -0.238281,-1.320313 0,-0.68903 0.0346,-0.885832 0.238281,-1.320312 0.42608,-0.90892 1.265485,-1.650409 2.171875,-1.917969 l 0.378906,-0.111328 0.02344,-2.910156 c 0.02083,-2.54921 0.04248,-2.929276 0.171875,-3.072266 0.14195,-0.15718 1.135942,-0.1640625 25.589843,-0.1640625 z M 40.339844,13.480469 c 0.422472,-0.002 0.843397,0.0724 1.148437,0.222656 0.5393,0.26564 1.08397,0.808356 1.34961,1.347656 0.20353,0.41322 0.209581,0.493719 0.238281,3.574219 0.03258,3.502 -0.0029,3.834597 -0.47461,4.498047 -0.33905,0.47688 -1.014223,0.997484 -1.408203,1.083984 l -0.261718,0.05664 0,3.998047 0,3.998047 5.878906,0 5.878906,0 0.197266,0.207031 0.195312,0.208984 0,9.466797 0,9.466797 14.878907,0 14.878906,0 0.195312,0.208984 0.197266,0.207032 0,6.597656 0,6.597656 5.398437,-0.06641 5.400391,-0.06836 0,0.6875 0,0.685546 -2.722656,-0.02148 c -9.647014,-0.0753 -8.812316,-0.0508 -9.041016,-0.265625 l -0.207031,-0.193359 0,-6.59961 0,-6.599609 -14.878906,0 -14.878907,0 -0.195312,-0.208985 -0.195313,-0.207031 0,-9.466797 0,-9.466796 -5.880859,0 -5.878906,0 -0.195313,-0.208985 c -0.19542,-0.20797 -0.195312,-0.214451 -0.195312,-4.582031 l 0,-4.375 L 39.5,24.207031 c -0.39398,-0.0865 -1.069143,-0.607104 -1.408203,-1.083984 -0.47131,-0.66345 -0.50721,-0.996047 -0.474609,-4.498047 0.02905,-3.12295 0.03186,-3.1545 0.248046,-3.59375 0.27759,-0.56402 0.75434,-1.040769 1.31836,-1.318359 0.31067,-0.15294 0.733777,-0.230592 1.15625,-0.232422 z m 9,0 c 0.422472,-0.002 0.843397,0.0724 1.148437,0.222656 0.5393,0.26564 1.08397,0.810309 1.34961,1.349609 0.20353,0.41322 0.209581,0.491766 0.238281,3.572266 0.03258,3.502 -0.0029,3.834597 -0.47461,4.498047 -0.33905,0.47688 -1.014223,0.997484 -1.408203,1.083984 l -0.261718,0.05664 0,2.421875 0,2.423828 2.728515,0 2.730469,0 0.195313,0.208984 0.195312,0.207032 0,9.691406 0,9.693359 15.330078,0 15.328125,0 0.197266,0.207032 0.195312,0.208984 0,6.541016 0,6.542968 0.853516,0 c 0.51,0 0.855469,-0.03614 0.855469,-0.08984 0,-0.0571 0.675703,-0.0918 1.845703,-0.0918 l 1.845703,0 0,0.765625 0,0.765625 -1.845703,0 c -1.17,0 -1.845703,-0.03274 -1.845703,-0.08984 0,-0.0557 -0.474601,-0.08984 -1.244141,-0.08984 -1.18429,0 -1.253203,-0.0107 -1.439453,-0.208984 l -0.195313,-0.208985 0,-6.541015 0,-6.541016 -15.330078,0 -15.330078,0 -0.195312,-0.208984 -0.195313,-0.208985 0,-9.691406 0,-9.691406 -2.728516,0 -2.730468,0 -0.195313,-0.208985 C 48.764341,29.865662 48.761719,29.81299 48.761719,27.0625 l 0,-2.798828 L 48.5,24.207031 c -0.39398,-0.0865 -1.069143,-0.607104 -1.408203,-1.083984 -0.47131,-0.66345 -0.507209,-0.996047 -0.474609,-4.498047 0.02905,-3.12295 0.03186,-3.1545 0.248046,-3.59375 0.27759,-0.56402 0.75434,-1.040769 1.31836,-1.318359 0.31067,-0.15294 0.733777,-0.230592 1.15625,-0.232422 z m 9,0 c 0.422472,-0.002 0.843397,0.0724 1.148437,0.222656 0.5393,0.26564 1.08397,0.810309 1.34961,1.349609 0.20353,0.41322 0.209581,0.491766 0.238281,3.572266 0.03258,3.502 -0.0029,3.834597 -0.47461,4.498047 -0.33905,0.47688 -1.014223,0.997484 -1.408203,1.083984 l -0.261718,0.05664 0,10.523437 0,10.521485 18.705078,0 18.703125,0 0.195312,0.208984 0.197266,0.208984 0,4.832032 c 0,3.16113 0.03094,4.830078 0.08984,4.830078 0.0571,0 0.08984,0.675703 0.08984,1.845703 l 0,1.845703 -0.765625,0 -0.765625,0 0,-1.845703 c 0,-1.17 0.03274,-1.845703 0.08984,-1.845703 0.0588,0 0.08984,-1.545078 0.08984,-4.455078 l 0,-4.455078 -18.703125,0 -18.705078,0 -0.195313,-0.207032 -0.195312,-0.208984 0,-10.898438 0,-10.90039 L 57.5,24.207031 c -0.39398,-0.0865 -1.069143,-0.607104 -1.408203,-1.083984 -0.47131,-0.66345 -0.507209,-0.996047 -0.474609,-4.498047 0.02905,-3.12295 0.03186,-3.1545 0.248046,-3.59375 0.27759,-0.56402 0.75434,-1.040769 1.31836,-1.318359 0.31067,-0.15294 0.733777,-0.230592 1.15625,-0.232422 z m 9,0 c 0.422472,-0.002 0.843397,0.0724 1.148437,0.222656 0.5393,0.26564 1.08397,0.810309 1.34961,1.349609 0.20353,0.41322 0.209581,0.491766 0.238281,3.572266 0.03258,3.502 -0.0029,3.834597 -0.47461,4.498047 -0.33905,0.47688 -1.014223,0.997484 -1.408203,1.083984 l -0.261718,0.05664 0,8.947266 0,8.949218 15.599609,0 15.599609,0 0.183594,0.201172 c 0.18212,0.20038 0.183428,0.299588 0.236328,9.361328 l 0.002,0 0.05273,9.15625 -0.669922,0 -0.669922,0 0.05859,-8.77539 0.05664,-8.773438 -15.613281,0 -15.615234,0 -0.195313,-0.208984 -0.195312,-0.208985 0,-9.324218 0,-9.324219 L 66.5,24.207031 c -0.39398,-0.0865 -1.069143,-0.607104 -1.408203,-1.083984 -0.47131,-0.66345 -0.50721,-0.996047 -0.474609,-4.498047 0.02905,-3.12295 0.03186,-3.1545 0.248046,-3.59375 0.27759,-0.56402 0.75434,-1.040769 1.31836,-1.318359 0.31067,-0.15294 0.733777,-0.230592 1.15625,-0.232422 z m 9,0 c 0.422472,-0.002 0.843397,0.0724 1.148437,0.222656 0.5393,0.26564 1.08397,0.810309 1.34961,1.349609 0.20353,0.41322 0.209581,0.491766 0.238281,3.572266 0.03258,3.502 -0.0029,3.834597 -0.47461,4.498047 -0.339039,0.47688 -1.014223,0.997484 -1.408203,1.083984 l -0.261718,0.05664 0,7.148437 0,7.146485 12.539062,0 12.539067,0 0.18554,0.203125 c 0.18346,0.20124 0.18492,0.271066 0.23242,11.160156 l 0.0469,10.957031 -0.6582,0 -0.66016,0 0.0527,-10.574218 0.0508,-10.576172 -12.552739,0 -12.554687,0 -0.195313,-0.207032 -0.195312,-0.208984 0,-7.523438 0,-7.52539 L 75.5,24.207031 c -0.39398,-0.0865 -1.069143,-0.607104 -1.408203,-1.083984 -0.47131,-0.66345 -0.507209,-0.996047 -0.474609,-4.498047 0.02905,-3.12295 0.03186,-3.1545 0.248046,-3.59375 0.27759,-0.56402 0.75434,-1.040769 1.31836,-1.318359 0.31067,-0.15294 0.733777,-0.230592 1.15625,-0.232422 z m 18,0 c 0.42247,-0.002 0.843397,0.0724 1.148437,0.222656 0.5393,0.26564 1.08396,0.810309 1.34961,1.349609 0.20352,0.41322 0.209681,0.491766 0.238281,3.572266 0.03258,3.502 -0.0029,3.834597 -0.47461,4.498047 -0.33905,0.47688 -1.014223,0.997484 -1.408203,1.083984 l -0.261718,0.05664 0,3.546875 0,3.548828 6.330079,0 6.32812,0 0.19532,0.208984 0.19726,0.207032 0,11.80664 c 0,7.81113 0.0303,11.806641 0.0898,11.806641 0.058,0 0.0898,0.976094 0.0898,2.746094 l 0,2.74414 -0.67578,0 -0.67578,0 0,-14.173828 0,-14.175781 -6.32813,0 -6.330076,0 -0.195313,-0.208985 C 93.762331,32.113023 93.761719,32.09306 93.761719,28.1875 l 0,-3.923828 L 93.5,24.207031 c -0.39396,-0.0865 -1.069153,-0.607104 -1.408203,-1.083984 -0.47131,-0.66345 -0.50721,-0.996047 -0.474609,-4.498047 0.02905,-3.12295 0.03186,-3.1545 0.248046,-3.59375 0.2776,-0.56402 0.75434,-1.040769 1.31836,-1.318359 0.31067,-0.15294 0.73377,-0.230592 1.15625,-0.232422 z m 8.999996,0 c 0.42247,-0.002 0.8434,0.0724 1.14844,0.222656 0.5393,0.26564 1.08396,0.810309 1.34961,1.349609 0.20352,0.41322 0.20968,0.491766 0.23828,3.572266 0.0326,3.502 -0.003,3.834597 -0.47461,4.498047 -0.33905,0.47688 -1.01422,0.997484 -1.4082,1.083984 l -0.26172,0.05664 0,1.748047 0,1.748047 3.26953,0 3.26953,0 0.18555,0.201172 0.1875,0.203124 0.0352,16.357422 0.0352,16.357422 -0.63867,0 -0.63867,0 0.0391,-15.974609 0.0391,-15.974609 -3.28125,0 -3.28125,0 -0.19531,-0.208985 c -0.18969,-0.20172 -0.19531,-0.274571 -0.19531,-2.332031 l 0,-2.125 -0.26172,-0.05664 c -0.39396,-0.0865 -1.06915,-0.607104 -1.4082,-1.083984 -0.47131,-0.66345 -0.50721,-0.996047 -0.47461,-4.498047 0.029,-3.12295 0.0319,-3.1545 0.24804,-3.59375 0.2776,-0.56402 0.75434,-1.040769 1.31836,-1.318359 0.31067,-0.15294 0.73377,-0.230592 1.15625,-0.232422 z m 9,0 c 0.42247,-0.002 0.8434,0.0724 1.14844,0.222656 0.53929,0.26564 1.08397,0.810309 1.34961,1.349609 0.20613,0.41911 0.20898,0.449547 0.20899,3.841797 0,3.4061 -0.003,3.420716 -0.2129,3.847657 -0.11611,0.23577 -0.38827,0.600816 -0.60546,0.810546 l -0.39454,0.38086 -0.002,18.472656 0,18.472656 -0.67578,0 -0.67578,0 0,-2.74414 c 0,-1.77 0.0318,-2.746094 0.0898,-2.746094 0.0597,0 0.0898,-5.230049 0.0898,-15.511719 l 0,-15.511719 -0.53711,-0.04883 c -0.96824,-0.0878 -1.83026,-0.688268 -2.26953,-1.580078 -0.20613,-0.41911 -0.20704,-0.449547 -0.20704,-3.841797 l 0,-3.419922 0.2168,-0.443359 c 0.27759,-0.56402 0.75629,-1.040769 1.32031,-1.318359 0.31067,-0.15294 0.73377,-0.230592 1.15625,-0.232422 z m 8.99805,0 0.002,0 c 0.42247,-0.002 0.8434,0.0724 1.14844,0.222656 0.5393,0.26564 1.08396,0.810309 1.34961,1.349609 0.20352,0.41322 0.20968,0.491766 0.23828,3.572266 0.0326,3.502 -0.003,3.834597 -0.47461,4.498047 -0.33905,0.47688 -1.01422,0.997484 -1.4082,1.083984 l -0.26172,0.05664 0,2.8125 0,2.8125 -0.20898,0.195312 c -0.20351,0.19069 -0.26481,0.195313 -2.69922,0.195313 l -2.49219,0 0,12.554687 c 0,8.31 0.0302,12.554688 0.0898,12.554688 0.0571,0 0.0898,0.675703 0.0898,1.845703 l 0,1.845703 -0.76367,0 -0.76563,0 0,-1.845703 c 0,-1.17 0.0327,-1.845703 0.0898,-1.845703 0.0596,0 0.0879,-4.378985 0.0879,-12.958984 0,-12.840001 9.9e-4,-12.962296 0.17968,-13.140626 0.17143,-0.171 0.30117,-0.179687 2.70117,-0.179687 l 2.51954,0 0,-2.421875 0,-2.423828 -0.26172,-0.05664 c -0.39396,-0.0865 -1.06916,-0.607104 -1.40821,-1.083984 -0.47131,-0.66345 -0.50721,-0.996047 -0.47461,-4.498047 0.029,-3.12295 0.0319,-3.1545 0.24805,-3.59375 0.2776,-0.56402 0.75434,-1.040769 1.31836,-1.318359 0.31067,-0.15294 0.73377,-0.230592 1.15625,-0.232422 z m 9.00195,0 c 0.42247,-0.002 0.8434,0.0724 1.14844,0.222656 0.5393,0.26564 1.08396,0.810309 1.34961,1.349609 0.20352,0.41322 0.20968,0.491766 0.23828,3.572266 0.0326,3.502 -0.003,3.834597 -0.47461,4.498047 -0.33905,0.47688 -1.01422,0.997484 -1.4082,1.083984 l -0.26172,0.05664 0,16.08789 0,16.085938 -0.20898,0.195312 c -0.20753,0.194971 -0.22388,0.197266 -4.27539,0.197266 l -4.06641,0 0,2.699219 0,2.699219 0.58594,0 0.58398,0 0,0.765625 0,0.765625 -1.84375,0 -1.8457,0 0,-0.765625 0,-0.765625 0.67578,0 0.67383,0 0,-3.103516 c 0,-2.985 0.007,-3.112116 0.17968,-3.285156 0.17473,-0.175 0.3004,-0.179688 4.2754,-0.179688 l 4.0957,0 0,-15.699218 0,-15.697266 -0.26172,-0.05664 c -0.39396,-0.0865 -1.06915,-0.607104 -1.4082,-1.083984 -0.47131,-0.66345 -0.50721,-0.996047 -0.47461,-4.498047 0.0291,-3.12295 0.0319,-3.1545 0.24804,-3.59375 0.2776,-0.56402 0.75434,-1.040769 1.31836,-1.318359 0.31067,-0.15294 0.73378,-0.230592 1.15625,-0.232422 z m 9,0 c 0.42247,-0.002 0.8434,0.0724 1.14844,0.222656 0.5393,0.26564 1.08396,0.810309 1.34961,1.349609 0.20352,0.41322 0.20968,0.491766 0.23828,3.572266 0.0326,3.502 -0.003,3.834597 -0.47461,4.498047 -0.33905,0.47688 -1.01422,0.997484 -1.4082,1.083984 l -0.26172,0.05664 0,17.4375 0,17.4375 -0.20898,0.195312 -0.20704,0.195313 -6.09179,0 -6.0918,0 0,3.224609 0,3.22461 -0.20508,0.191406 c -0.20083,0.1887 -0.27937,0.193759 -4.63476,0.255859 l -4.43164,0.0625 0,-0.703125 0,-0.705078 4.05078,0.05859 4.05078,0.05859 0,-3.238282 c 0,-3.11879 0.006,-3.24659 0.17969,-3.419922 0.17647,-0.176 0.29883,-0.179687 6.29882,-0.179687 l 6.1211,0 0,-17.046875 0,-17.048828 -0.26172,-0.05664 c -0.39396,-0.0865 -1.06915,-0.607104 -1.4082,-1.083984 -0.47131,-0.66345 -0.50721,-0.996047 -0.47461,-4.498047 0.0291,-3.12295 0.0319,-3.1545 0.24804,-3.59375 0.2776,-0.56402 0.75434,-1.040769 1.31836,-1.318359 0.31067,-0.15294 0.73377,-0.230592 1.15625,-0.232422 z m 9,0 c 0.42247,-0.002 0.8434,0.0724 1.14844,0.222656 0.5393,0.26564 1.08396,0.810309 1.34961,1.349609 0.20352,0.41322 0.20968,0.491766 0.23828,3.572266 0.0326,3.502 -0.003,3.834597 -0.47461,4.498047 -0.33905,0.47688 -1.01422,0.997484 -1.4082,1.083984 l -0.26172,0.05664 0,18.787109 0,18.78711 -0.20898,0.195312 -0.20704,0.195313 -8.56835,0 -8.56641,0 0,3.314453 0,3.314453 -0.20117,0.185547 c -0.1989,0.18149 -0.31747,0.186247 -6.66016,0.248047 l -6.45898,0.0625 0,-0.691407 0,-0.689453 6.07617,0.06641 6.07422,0.06641 0,-3.34375 c 0,-3.22285 0.006,-3.347945 0.17968,-3.521485 0.1775,-0.177 0.3004,-0.18164 8.7754,-0.18164 l 8.5957,0 0,-18.396485 0,-18.398437 -0.26172,-0.05664 c -0.39396,-0.0865 -1.06915,-0.607104 -1.4082,-1.083984 -0.47131,-0.66345 -0.50721,-0.996047 -0.47461,-4.498047 0.0291,-3.12295 0.0319,-3.1545 0.24804,-3.59375 0.2776,-0.56402 0.75434,-1.040769 1.31836,-1.318359 0.31067,-0.15294 0.73377,-0.230592 1.15625,-0.232422 z m 9,0 c 0.42247,-0.002 0.8434,0.0724 1.14844,0.222656 0.5393,0.26564 1.08396,0.810309 1.34961,1.349609 0.20352,0.41322 0.20968,0.491766 0.23828,3.572266 0.0326,3.502 -0.003,3.834597 -0.47461,4.498047 -0.33905,0.47688 -1.01422,0.997484 -1.4082,1.083984 l -0.26172,0.05664 0,15.248047 0,15.248047 7.00391,0 7.0039,0 0.19727,0.207031 0.19531,0.208984 0,11.070313 0,11.072265 -0.20312,0.1875 -0.20313,0.189453 -26.93164,0.0293 -26.93359,0.0293 0,-0.628906 0,-0.630859 26.55078,0.03125 26.55078,0.0293 0,-10.3125 0,-10.3125 -7.00586,0 -7.00391,0 -0.19531,-0.208985 -0.19531,-0.207031 0,-15.625 0,-15.625 -0.26172,-0.05664 c -0.39397,-0.0865 -1.06915,-0.607104 -1.4082,-1.083984 -0.47131,-0.66345 -0.50721,-0.996047 -0.47461,-4.498047 0.0291,-3.12295 0.0319,-3.1545 0.24804,-3.59375 0.2776,-0.56402 0.75434,-1.040769 1.31836,-1.318359 0.31067,-0.15294 0.73378,-0.230592 1.15625,-0.232422 z M 30.253906,17.158203 c -0.295095,0.0167 -0.59162,0.114708 -0.861328,0.304688 -1.10973,0.78166 -1.005441,2.340265 0.199219,2.984375 1.15007,0.61492 2.599174,-0.353499 2.496094,-1.667969 -0.0787,-1.00356 -0.948698,-1.671254 -1.833985,-1.621094 z m 9.990235,0 c -0.295096,0.0167 -0.591622,0.114708 -0.861329,0.304688 -1.109729,0.78166 -1.005441,2.340265 0.199219,2.984375 1.15007,0.61492 2.599174,-0.353499 2.496094,-1.667969 -0.0787,-1.00356 -0.948698,-1.671254 -1.833984,-1.621094 z m 9,0 c -0.295096,0.0167 -0.591622,0.114708 -0.861329,0.304688 -1.109729,0.78166 -1.005441,2.340265 0.199219,2.984375 1.15007,0.61492 2.599174,-0.353499 2.496094,-1.667969 -0.0787,-1.00356 -0.948698,-1.671254 -1.833984,-1.621094 z m 9,0 c -0.295096,0.0167 -0.591622,0.114708 -0.861329,0.304688 -1.109729,0.78166 -1.005441,2.340265 0.199219,2.984375 1.15007,0.61492 2.599174,-0.353499 2.496094,-1.667969 -0.0787,-1.00356 -0.948698,-1.671254 -1.833984,-1.621094 z m 9,0 c -0.295096,0.0167 -0.591622,0.114708 -0.861329,0.304688 -1.109729,0.78166 -1.005441,2.340265 0.199219,2.984375 1.15007,0.61492 2.599174,-0.353499 2.496094,-1.667969 -0.0787,-1.00356 -0.948698,-1.671254 -1.833984,-1.621094 z m 9,0 c -0.295096,0.0167 -0.591622,0.114708 -0.861329,0.304688 -1.109729,0.78166 -1.005441,2.340265 0.199219,2.984375 1.15007,0.61492 2.599174,-0.353499 2.496094,-1.667969 -0.0787,-1.00356 -0.948698,-1.671254 -1.833984,-1.621094 z m 9,0 c -0.295096,0.0167 -0.591622,0.114708 -0.861329,0.304688 -1.109719,0.78166 -1.005441,2.340265 0.199219,2.984375 1.15007,0.61492 2.599184,-0.353499 2.496094,-1.667969 -0.07871,-1.00356 -0.9487,-1.671254 -1.833984,-1.621094 z m 9,0 c -0.2951,0.0167 -0.591628,0.114708 -0.861329,0.304688 -1.109718,0.78166 -1.005441,2.340265 0.199219,2.984375 1.15007,0.61492 2.599184,-0.353499 2.496094,-1.667969 -0.0787,-1.00356 -0.948704,-1.671254 -1.833984,-1.621094 z m 8.999999,0 c -0.2951,0.0167 -0.59163,0.114708 -0.86133,0.304688 -1.10972,0.78166 -1.00544,2.340265 0.19922,2.984375 1.15007,0.61492 2.59919,-0.353499 2.49609,-1.667969 -0.0787,-1.00356 -0.9487,-1.671254 -1.83398,-1.621094 z m 9,0 c -0.2951,0.0167 -0.59163,0.114708 -0.86133,0.304688 -1.10972,0.78166 -1.00544,2.340265 0.19922,2.984375 1.15007,0.61492 2.59919,-0.353499 2.49609,-1.667969 -0.0787,-1.00356 -0.9487,-1.671254 -1.83398,-1.621094 z m 9,0 c -0.2951,0.0167 -0.59162,0.114708 -0.86133,0.304688 -1.10972,0.78166 -1.00544,2.340265 0.19922,2.984375 1.15007,0.61492 2.59919,-0.353499 2.49609,-1.667969 -0.0787,-1.00356 -0.9487,-1.671254 -1.83398,-1.621094 z m 9,0 c -0.2951,0.0167 -0.59162,0.114708 -0.86133,0.304688 -1.10972,0.78166 -1.00544,2.340265 0.19922,2.984375 1.15007,0.61492 2.59919,-0.353499 2.49609,-1.667969 -0.0787,-1.00356 -0.9487,-1.671254 -1.83398,-1.621094 z m 9,0 c -0.2951,0.0167 -0.59162,0.114708 -0.86133,0.304688 -1.10972,0.78166 -1.00544,2.340265 0.19922,2.984375 1.15007,0.61492 2.59919,-0.353499 2.49609,-1.667969 -0.0787,-1.00356 -0.9487,-1.671254 -1.83398,-1.621094 z m 9,0 c -0.2951,0.0167 -0.59162,0.114708 -0.86133,0.304688 -1.10972,0.78166 -1.00544,2.340265 0.19922,2.984375 1.15007,0.61492 2.59919,-0.353499 2.49609,-1.667969 -0.0787,-1.00356 -0.9487,-1.671254 -1.83398,-1.621094 z m 9,0 c -0.2951,0.0167 -0.59162,0.114708 -0.86133,0.304688 -1.10972,0.78166 -1.00544,2.340265 0.19922,2.984375 1.15007,0.61492 2.59919,-0.353499 2.49609,-1.667969 -0.0787,-1.00356 -0.9487,-1.671254 -1.83398,-1.621094 z m -128.703124,13.751953 7.859375,0 0.195312,0.208985 c 0.18769,0.19967 0.195313,0.282057 0.195313,2.023437 l 0,1.816406 6.15039,0 6.148438,0 0.195312,0.208985 0.197266,0.208984 0,9.916016 0,9.916015 15.103516,0 15.103515,0 0.197266,0.208985 0.195312,0.208984 0,6.240235 0,6.242187 6.97461,-0.06445 c 6.27294,-0.0576 6.974609,-0.04953 6.974609,0.07617 0,0.12535 0.88086,0.138672 8.55664,0.138672 l 8.55859,0 0.73438,0.392578 c 3.03247,1.61591 2.74631,1.495195 4.41016,1.853515 l 1.54492,0.332032 16.35742,0.02734 16.35742,0.02734 0,-0.912109 0,-0.910157 3.19531,0 3.19532,0 0,1.169922 0,1.169922 2.65429,0 2.65625,0 0,-1.169922 0,-1.169922 3.19532,0 3.19335,0 0,2.923829 0,2.925781 -3.19335,0 -3.19532,0 0,-1.169922 0,-1.169922 -2.65625,0 -2.65429,0 0,1.169922 0,1.169922 -3.19532,0 -3.19531,0 0,-1.451172 0,-1.451172 -16.22266,0.03906 c -12.54798,0.0301 -16.2429,0.01329 -16.3125,-0.07031 -0.0495,-0.0594 -0.8785,-0.279304 -1.84374,-0.490234 -1.68494,-0.3682 -1.80289,-0.408217 -2.94141,-1.003906 l -1.18555,-0.621094 -8.81445,2.433594 c -4.847963,1.338848 -8.900171,2.435546 -9.005861,2.435546 -0.11078,0 -0.193359,0.05691 -0.193359,0.134766 0,0.117 -0.364141,0.134766 -2.744141,0.134766 -1.77,0 -2.746093,-0.03184 -2.746093,-0.08984 0,-0.0593 -2.649992,-0.08984 -7.769532,-0.08984 l -7.769531,0 -0.195312,-0.208984 -0.195313,-0.207032 0,-5.642578 0,-5.640625 -6.839844,0 -6.839843,0 0,1.484375 0,1.484375 0.224609,0 0.224609,0 0,3.195313 0,3.195312 -2.923828,0 -2.925781,0 0,-1.53125 0,-1.529296 -2.738281,0 -2.738281,0 -0.216797,0.472656 c -0.31077,0.67602 -0.626047,1.008515 -1.253907,1.322265 L 46.033203,71.5 l -3.308594,0 -3.30664,0 -0.56836,-0.292969 c -1.22312,-0.63316 -1.737496,-1.968218 -1.285156,-3.330078 0.21275,-0.64054 0.906643,-1.329607 1.570313,-1.560547 0.44636,-0.15535 0.777274,-0.171875 3.552734,-0.171875 3.4158,0 3.600675,0.02511 4.328125,0.574219 0.31576,0.23838 0.5294,0.50505 0.75,0.9375 l 0.306641,0.603516 2.730468,0 2.728516,0 0,-1.080078 0,-1.080079 2.115234,0 2.115235,0 0,-1.890625 c 0,-1.77 0.01112,-1.899789 0.179687,-2.068359 0.17717,-0.177 0.300143,-0.181641 7.814453,-0.181641 l 7.634766,0 0.195313,0.208985 0.195312,0.208984 0,5.640625 0,5.638672 10.283203,0.02539 10.28125,0.02344 7.966797,-2.185547 c 4.38075,-1.20151 8.00519,-2.19975 8.05469,-2.21875 0.0495,-0.019 -6.90857,-0.0323 -15.46094,-0.0293 l -15.548828,0.0059 -0.222656,-0.208985 -0.222657,-0.210937 0,-6.238281 0,-6.240235 -15.105468,0 -15.103516,0 -0.195313,-0.207031 -0.195312,-0.208984 0,-9.916016 0,-9.917969 -2.791016,0 -2.789062,0 0,1.621094 0,1.619141 1.304687,0 1.304688,0 0,2.925781 0,2.925781 -3.195313,0 -3.195312,0 0,-2.925781 0,-2.925781 1.304687,0 1.306641,0 0,-1.619141 0,-1.621094 -2.775391,0 -2.773437,0 -0.197266,-0.207031 c -0.18769,-0.19967 -0.195312,-0.284011 -0.195312,-2.025391 l 0,-1.816406 -7.064453,0 -7.064453,0 0,2.339844 0,2.339844 1.214843,0 1.214844,0 0,1.304687 0,1.304688 5.339844,0 5.33789,0 0.195313,0.208984 0.197266,0.208984 0,9.511719 0,9.511719 3.285156,0 3.285156,0 0,-1.845703 0,-1.845703 -1.306641,0 -1.304687,0 0,-2.923829 0,-2.925781 3.195312,0 3.195313,0 0,2.925781 0,2.923829 -1.304688,0 -1.304687,0 0,1.845703 0,1.845703 17.128906,0 17.128906,0 0.195313,0.207031 0.195312,0.208984 0,5.835938 0,5.837891 8.326172,-0.06055 8.324219,-0.05859 0,0.671875 0,0.673828 -8.707031,-0.05469 c -8.60617,-0.0543 -8.710007,-0.05831 -8.910157,-0.240235 l -0.203124,-0.183593 0,-5.833985 0,-5.833984 -20.609376,0 -20.609374,0 0,8.642578 0,8.642578 1.228515,-0.02539 1.230469,-0.02539 0.134766,-0.402344 c 0.190919,-0.57328 0.919878,-1.277224 1.548828,-1.496094 0.44636,-0.15535 0.777274,-0.171875 3.552734,-0.171875 3.4158,0 3.600675,0.02511 4.328125,0.574219 0.31576,0.23838 0.5294,0.50505 0.75,0.9375 l 0.306641,0.603516 4.109375,0 4.109375,0 0.195312,0.208984 0.195313,0.207031 0,7.712891 0,7.710937 2.339843,0 2.339844,0 0,-1.169921 0,-1.169922 3.285156,0 3.285157,0 0,1.125 0,1.125 1.890625,0 1.888672,0 0,-8.054688 c 0,-7.935 0.0024,-8.057055 0.179687,-8.234375 0.17685,-0.17711 0.300549,-0.18155 7.042969,-0.181641 3.77438,-9.9e-5 8.71585,-0.02579 10.980468,-0.05859 3.620081,-0.0523 4.117188,-0.04408 4.117188,0.07422 0,0.142848 0.337108,0.218483 7.53125,1.689453 l 3.43359,0.703125 5.16602,-2.361328 5.16601,-2.361329 1.34376,-0.193359 c 0.73917,-0.10682 1.35849,-0.234503 1.375,-0.283203 0.0188,-0.0555 1.05196,-0.08789 2.76757,-0.08789 l 2.73633,0 0,0.673828 0,0.675782 -2.73633,0 c -1.79266,0 -2.74933,-0.0313 -2.76953,-0.0918 -0.0202,-0.0606 -0.44003,-0.03227 -1.21875,0.08203 l -1.1875,0.173828 -3.98633,1.822266 c -2.19251,1.00192 -4.20822,1.922895 -4.48046,2.046875 l -0.4961,0.224609 0.76563,0.16211 c 0.68136,0.144098 1.30456,0.162015 5.69336,0.166015 4.10896,0.003 4.92773,-0.0166 4.92773,-0.119141 1e-5,-0.1036 1.97185,-0.116758 12.53125,-0.08008 14.58562,0.0507 12.9375,-0.0965 12.9375,1.164063 l 0,0.75 3.50977,0 3.50976,0 0,-1.169922 0,-1.169922 3.19531,0 3.19532,0 0,1.169922 0,1.169922 2.65429,0 2.65625,0 0,-1.169922 0,-1.169922 3.19532,0 3.19335,0 0,2.923828 0,2.925781 -3.19335,0 -3.19532,0 0,-1.169921 0,-1.169922 -2.65625,0 -2.65429,0 0,1.169922 0,1.169921 -3.19532,0 -3.19531,0 0,-1.169921 0,-1.169922 -3.89844,0 -3.90039,0 -0.19531,-0.208985 c -0.16799,-0.17877 -0.19531,-0.312429 -0.19531,-0.943359 l 0,-0.734375 -17.03321,0.0078 -17.03124,0.0078 -2.38477,-0.46875 c -1.31175,-0.25768 -4.40977,-0.892396 -6.884766,-1.410156 l -4.5,-0.941407 -10.824219,-0.05273 -10.822266,-0.05273 0,8.052734 0,8.050781 -0.207031,0.197266 c -0.20248,0.19069 -0.273152,0.195313 -2.476562,0.195313 l -2.265625,0 0,1.214843 0,1.214844 -3.285157,0 -3.285156,0 0,-1.169922 0,-1.169922 -2.728516,0 -2.730468,0 -0.195313,-0.208984 -0.195312,-0.207031 0,-7.712891 0,-7.710937 -3.728516,0 -3.728515,0 -0.216797,0.472656 c -0.31077,0.67602 -0.626047,1.008515 -1.253907,1.322265 L 46.033203,80.5 l -3.308594,0 -3.30664,0 -0.56836,-0.294922 c -0.6067,-0.31407 -1.158433,-0.925149 -1.308593,-1.449219 l -0.08203,-0.28125 -1.611328,-0.02539 c -1.50886,-0.0231 -1.627632,-0.03581 -1.820312,-0.216797 l -0.205078,-0.195313 0,-18.748047 0,-18.75 -4.951172,0 -4.949219,0 0,1.304688 0,1.304688 -1.214844,0 -1.214843,0 0,2.65625 0,2.654296 4.529296,0 4.529297,0 0.195313,0.208985 c 0.19369,0.20636 0.195312,0.239861 0.195312,3.644531 0,2.99484 0.01713,3.4375 0.134766,3.4375 0.118,0 0.134766,0.51375 0.134766,4.09375 l 0,4.095703 -1.080079,0 -1.080078,0 0,7.605469 0,7.603516 1.080078,0 1.080079,0 0,4.095703 0,4.095703 -1.080079,0 -1.080078,0 0,2.773437 0,2.775391 -0.207031,0.195312 -0.208984,0.195313 -9.871094,0 -9.873047,0 0,2.025391 0,2.02539 0.6308594,0 0.6308596,0 0,3.285152 0,3.28321 -0.7207034,0 -0.7207031,0 0,13.86133 0,13.85937 0.9003906,0 0.9003909,0 0,3.28516 0,3.28515 -0.7207034,0 -0.71875,0 0,4.85938 0,4.86133 27.0449224,0 27.044921,0 0,-2.07032 c 0,-1.95 0.01012,-2.08043 0.179688,-2.25 0.17947,-0.1791 0.299687,-0.17968 40.679683,-0.17968 l 40.5,0 0,-1.30664 0,-1.30469 2.92579,0 2.92382,0 0,3.19531 0,3.19531 -2.92382,0 -2.92579,0 0,-1.30468 0,-1.30469 -40.0957,0 -40.093749,0 0,2.05273 c 0,2.03098 -0.0031,2.05654 -0.208984,2.25 l 0,0.002 -0.208985,0.19531 -27.810546,0 -27.8105472,0 -0.1953126,-0.20899 -0.1953124,-0.20703 0,-5.23828 0,-5.23633 -0.7207032,0 -0.7207031,0 0,-3.28515 0,-3.28516 0.5410156,0 0.5390625,0 0,-13.85937 0,-13.85938 -0.71875,0 -0.7207031,0 0,-3.28516 0,-3.285152 0.8105469,0 0.8085937,0 0,-2.429687 c 0,-2.31 0.01053,-2.440219 0.1816407,-2.611329 0.1778189,-0.177998 0.3000776,-0.179687 10.0800782,-0.179687 l 9.898437,0 0,-2.384766 0,-2.384765 -1.080078,0 -1.080078,0 0,-4.095703 0,-4.09375 1.080078,0 1.080078,0 0,-7.605469 0,-7.605469 -1.080078,0 -1.080078,0 0,-4.09375 0,-4.095703 2.025391,0 2.02539,0 0,-3.060547 0,-3.058594 -4.529296,0 -4.529297,0 -0.195313,-0.208984 c -0.19269,-0.20536 -0.195312,-0.251384 -0.195312,-3.240234 l 0,-3.03125 -1.125,0 -1.125,0 0,-3.195313 0,-3.195312 1.125,0 1.125,0 0,-2.744141 c 0,-2.625 0.0076,-2.753651 0.179687,-2.925781 0.17725,-0.177 0.299753,-0.179688 8.039063,-0.179688 z m 34.980468,35.189453 2.925782,0 2.923828,0 0,3.195313 0,3.195312 -2.070313,0 -2.068359,0 0,4.09375 0,4.095704 1.349609,0 1.34961,0 0,2.923828 0,2.925781 -3.285157,0 -3.285156,0 0,-2.925781 0,-2.923828 1.34961,0 1.349609,0 0,-4.095704 0,-4.09375 -0.269531,0 -0.269532,0 0,-3.195312 0,-3.195313 z m -20.847656,1.009766 c -0.295095,0.0167 -0.59162,0.112764 -0.861328,0.302734 -1.10973,0.78166 -1.005441,2.340265 0.199219,2.984375 1.15007,0.61492 2.599173,-0.353498 2.496093,-1.667968 -0.07871,-1.00356 -0.948697,-1.669301 -1.833984,-1.619141 z m 0,9 c -0.295095,0.0167 -0.59162,0.112764 -0.861328,0.302734 -1.10973,0.78166 -1.005441,2.340265 0.199219,2.984375 1.15007,0.61492 2.599173,-0.353498 2.496093,-1.667968 -0.07871,-1.00356 -0.948697,-1.669301 -1.833984,-1.619141 z m 48.613281,3.220703 2.744141,0 0,0.673828 0,0.675782 -8.099609,0 -8.09961,0 0,10.378906 0,10.378906 -0.208984,0.19531 -0.208985,0.19727 -15.585937,0 -15.585937,0 0,4.58984 0,4.58985 -3.556641,0 -3.554688,0 0,-4.58985 0,-4.58984 -9.179687,0 -9.179688,0 0,1.03515 0,1.03321 -2.02539,0 -2.025391,0 0,-3.28321 0,-3.285152 2.025391,0 2.02539,0 0,1.664063 0,1.666019 9.179688,0 9.179687,0 0,-4.589848 0,-4.591796 3.554688,0 3.556641,0 0,4.591796 0,4.589848 15.208984,0 15.210937,0 0,-10.396488 c 0,-10.275 0.0018,-10.396299 0.179688,-10.574219 0.17625,-0.176 0.299453,-0.179687 5.939453,-0.179687 3.780005,0 5.759766,-0.03074 5.759766,-0.08984 0,-0.058 0.976093,-0.08984 2.746093,-0.08984 z m -0.90039,2.699219 1.845703,0 0,0.765625 0,0.763672 -1.845703,0 c -1.17,0 -1.845703,-0.03264 -1.845703,-0.08984 0,-0.0585 -1.244681,-0.08984 -3.554688,-0.08984 l -3.554687,0 0,25.859374 0,25.85938 -0.208985,0.19531 -0.207031,0.19726 -17.386719,0 -17.386718,0 0,4.58985 0,4.58984 -3.556641,0 -3.554688,0 0,-4.58984 0,-4.58985 -9,0 -9,0 0,1.34961 0,1.34961 -2.023437,0 -2.025391,0 0,-3.28515 0,-3.28516 2.025391,0 2.023437,0 0,1.34961 0,1.35156 9,0 9,0 0,-4.59179 0,-4.58985 3.554688,0 3.556641,0 0,4.58985 0,4.59179 17.009765,0 17.009766,0 0,-25.875 c 0,-25.754986 5.27e-4,-25.877478 0.179687,-26.056638 0.17454,-0.175 0.300625,-0.179688 4.140625,-0.179688 2.580004,0 3.958985,-0.03124 3.958985,-0.08984 0,-0.0571 0.675703,-0.08984 1.845703,-0.08984 z m 29.474611,0 1.8457,0 c 1.17,0 1.84375,0.03264 1.84375,0.08984 0,0.0575 0.77499,0.08984 2.14453,0.08984 2.12506,0 2.14592,0.003 2.33985,0.208985 0.19469,0.20673 0.19726,0.234739 0.19726,3.824219 l 0,3.617187 1.79883,0 1.80078,0 0,-1.349609 0,-1.34961 2.92383,0 2.92578,0 0,3.285156 0,3.283204 -2.92578,0 -2.92383,0 0,-1.34961 0,-1.349609 -1.80078,0 -1.79883,0 0,3.240234 0,3.240235 16.9043,0 16.9043,0 0.19531,0.207031 0.19531,0.208984 0,11.402339 c 0,10.79874 0.009,11.40033 0.1582,11.4004 0.32486,1.5e-4 1.25211,0.53669 1.66016,0.95898 0.23268,0.24079 0.53525,0.67956 0.67383,0.97656 l 0.25195,0.54102 0,4.13867 0,4.14063 -0.2539,0.54882 c -0.31956,0.69146 -1.0182,1.39083 -1.70313,1.70313 -0.57892,0.26396 -1.58245,0.36664 -2.16016,0.2207 -0.95037,-0.24008 -1.85838,-1.00635 -2.29101,-1.93359 l -0.25196,-0.53906 0,-4.14063 0,-4.13867 0.2793,-0.58594 c 0.15318,-0.32175 0.45771,-0.76268 0.67578,-0.98047 0.38936,-0.38888 1.32285,-0.91015 1.63282,-0.91015 0.1495,-7e-5 0.1582,-0.58347 0.1582,-11.02344 l 0,-11.025392 -16.9043,0 -16.9043,0 -0.19531,-0.208985 -0.19726,-0.207031 0,-7.44336 0,-7.441406 -1.75391,0 c -1.11,0 -1.75586,0.03294 -1.75586,0.08984 0,0.0571 -0.67375,0.08984 -1.84375,0.08984 l -1.8457,0 0,-0.763672 0,-0.765625 z m -21.558596,2.880859 0.634766,0 0.632812,0 -0.03516,17.910154 c -0.0296,15.10973 -0.01601,17.90815 0.08789,17.90821 0.2947,1.7e-4 1.238733,0.55721 1.626953,0.95898 0.23267,0.24079 0.53525,0.67956 0.67383,0.97656 l 0.25195,0.54102 0,4.13867 0,4.14063 -0.2539,0.54882 c -0.31956,0.69146 -1.01821,1.39083 -1.70313,1.70313 -0.578921,0.26396 -1.582446,0.36664 -2.160156,0.2207 -0.950371,-0.24008 -1.856433,-1.00635 -2.289063,-1.93359 l -0.251953,-0.53906 0,-4.14063 0,-4.13867 0.277344,-0.58594 c 0.15318,-0.32175 0.457711,-0.76268 0.675781,-0.98047 0.41858,-0.41805 1.330693,-0.91015 1.689453,-0.91015 l 0.212891,0 -0.03516,-17.90821 -0.03516,-17.910154 z m 2.874996,0 0.63868,0 0.64062,0 -0.0391,15.750004 -0.0391,15.75 2.60547,0 2.60546,0 0.19532,0.20703 c 0.18769,0.20024 0.19726,0.28247 0.19726,2.10351 l 0,1.89453 0.48828,0.0977 c 1.05865,0.2126 1.98596,0.94993 2.45313,1.95117 l 0.25195,0.54102 0,4.13867 0,4.14063 -0.2539,0.54882 c -0.31956,0.69146 -1.01821,1.39083 -1.70313,1.70313 -0.57893,0.26396 -1.58245,0.36664 -2.16016,0.2207 -0.95037,-0.24008 -1.85838,-1.00635 -2.29101,-1.93359 l -0.25196,-0.53906 0,-4.14063 0,-4.13867 0.2793,-0.58594 c 0.33002,-0.69498 0.93943,-1.32638 1.56446,-1.61914 l 0.45117,-0.21094 0,-1.60547 0,-1.60351 -2.59375,0 c -2.57519,0 -2.59631,-0.002 -2.78125,-0.20313 l -0.18555,-0.20312 -0.0352,-16.13281 -0.0371,-16.130864 z m 2.78516,0 0.64453,0 0.64453,0 -0.043,14.173828 -0.043,14.175786 5.9375,0 5.9375,0 0.19531,0.20703 c 0.19369,0.20655 0.19531,0.23925 0.19531,3.73632 0,3.29874 0.0109,3.52534 0.1582,3.5254 0.32486,1.5e-4 1.25211,0.53669 1.66016,0.95898 0.23268,0.24079 0.53525,0.67956 0.67383,0.97656 l 0.25195,0.54102 0,4.13867 0,4.14063 -0.2539,0.54882 c -0.31956,0.69146 -1.0182,1.39083 -1.70313,1.70313 -0.57892,0.26396 -1.58245,0.36664 -2.16016,0.2207 -0.95037,-0.24008 -1.85838,-1.00635 -2.29101,-1.93359 l -0.25196,-0.53906 0,-4.14063 0,-4.13867 0.2793,-0.58594 c 0.15318,-0.32175 0.45771,-0.76268 0.67578,-0.98047 0.38936,-0.38888 1.32285,-0.91015 1.63282,-0.91015 0.147,-6e-5 0.1582,-0.20846 0.1582,-3.14844 l 0,-3.15039 -5.92383,0 -5.92578,0 -0.18555,-0.20313 c -0.18584,-0.20249 -0.18551,-0.20262 -0.22461,-14.759763 l -0.0391,-14.556641 z m 2.875,0 0.64844,0 0.65039,0 -0.0449,12.59961 -0.0469,12.599614 8.99805,0 8.99805,0 0.19531,0.20898 0.19531,0.20703 0,5.10156 c 0,4.79873 0.0101,5.1015 0.1582,5.10157 0.32486,1.5e-4 1.25211,0.53669 1.66016,0.95898 0.23268,0.24079 0.53525,0.67956 0.67383,0.97656 l 0.25195,0.54102 0,4.13867 0,4.14063 -0.2539,0.54882 c -0.31956,0.69146 -1.0182,1.39083 -1.70313,1.70313 -0.57893,0.26396 -1.58245,0.36664 -2.16016,0.2207 -0.95037,-0.24008 -1.85838,-1.00635 -2.29101,-1.93359 l -0.25196,-0.53906 0,-4.14063 0,-4.13867 0.2793,-0.58594 c 0.15318,-0.32175 0.45771,-0.76268 0.67578,-0.98047 0.38936,-0.38888 1.32285,-0.91015 1.63282,-0.91015 0.1475,-7e-5 0.1582,-0.28464 0.1582,-4.72461 l 0,-4.72461 -8.98438,0 -8.98437,0 -0.18555,-0.20313 c -0.1848,-0.202 -0.18611,-0.23266 -0.22851,-13.183592 l -0.041,-12.982422 z m 2.7832,0 0.65625,0 0.65625,0 -0.0488,11.023438 -0.0508,11.025386 12.10352,0 12.10352,0 0.19531,0.20899 0.19531,0.20703 0,6.67773 c 0,6.29873 0.01,6.67572 0.1582,6.67579 0.32486,1.5e-4 1.25211,0.53669 1.66016,0.95898 0.23268,0.24079 0.53525,0.67956 0.67383,0.97656 l 0.25195,0.54102 0,4.13867 0,4.14063 -0.2539,0.54882 c -0.31956,0.69146 -1.0182,1.39083 -1.70313,1.70313 -0.57893,0.26396 -1.58245,0.36664 -2.16016,0.2207 -0.95037,-0.24008 -1.85838,-1.00635 -2.29101,-1.93359 l -0.25196,-0.53906 0,-4.14063 0,-4.13867 0.2793,-0.58594 c 0.15318,-0.32175 0.45771,-0.76268 0.67578,-0.98047 0.38936,-0.38888 1.32285,-0.91015 1.63282,-0.91015 0.1485,-7e-5 0.1582,-0.35886 0.1582,-6.29883 l 0,-6.30078 -12.08984,0 -12.08985,0 -0.18359,-0.20118 c -0.18375,-0.20142 -0.18612,-0.26447 -0.23242,-11.611324 l -0.0449,-11.40625 z m 2.86133,0 0.67383,0 0.67578,0 0,9.449219 0,9.449215 14.87891,0 14.8789,0 0.19532,0.20899 0.19726,0.20898 0,8.19336 0,8.19531 0.48828,0.0977 c 1.05865,0.2126 1.98596,0.94993 2.45313,1.95117 l 0.25195,0.54102 0,4.13867 0,4.14063 -0.2539,0.54882 c -0.31956,0.69146 -1.0182,1.39083 -1.70313,1.70313 -0.57893,0.26396 -1.58245,0.36664 -2.16016,0.2207 -0.95037,-0.24008 -1.85838,-1.00635 -2.29101,-1.93359 l -0.25196,-0.53906 0,-4.14063 0,-4.13867 0.2793,-0.58594 c 0.33002,-0.69498 0.93943,-1.32638 1.56446,-1.61914 l 0.45117,-0.21094 0,-7.90429 0,-7.90625 -14.87891,0 -14.87891,0 -0.19531,-0.20704 -0.19531,-0.20898 0,-7.082031 c 0,-4.66113 -0.0306,-7.082031 -0.0898,-7.082031 -0.058,0 -0.0898,-0.974141 -0.0898,-2.744141 l 0,-2.744141 z m -17.101561,1.798828 0.765625,0 0.765625,0 0,1.845704 c 0,1.169999 -0.03274,1.84375 -0.08984,1.84375 -0.0595,0 -0.08984,3.476564 -0.08984,10.246092 l 0,10.24414 -0.208984,0.19531 c -0.205101,0.19269 -0.253941,0.19532 -3.150391,0.19532 l -2.941406,0 0,4.72461 c 0,4.43997 0.0102,4.72454 0.158203,4.72461 0.32486,1.5e-4 1.252106,0.53669 1.660156,0.95898 0.23267,0.24079 0.535248,0.67956 0.673828,0.97656 l 0.251953,0.54102 0,4.13867 0,4.14063 -0.253906,0.54882 c -0.31956,0.69146 -1.018205,1.39083 -1.703125,1.70313 -0.57892,0.26396 -1.582446,0.36664 -2.160156,0.2207 -0.95037,-0.24008 -1.858386,-1.00635 -2.291016,-1.93359 l -0.251953,-0.53906 0,-4.14063 0,-4.13867 0.279297,-0.58594 c 0.15318,-0.32175 0.457711,-0.76268 0.675781,-0.98047 0.38936,-0.38888 1.322843,-0.91015 1.632813,-0.91015 0.1485,-7e-5 0.158203,-0.30323 0.158203,-5.12891 0,-5.01 0.0039,-5.13476 0.179687,-5.31055 0.17273,-0.173 0.300391,-0.17969 3.150391,-0.17968 l 2.96875,0 0,-9.85547 c 0,-6.510008 -0.03044,-9.855473 -0.08984,-9.855472 -0.0571,0 -0.08984,-0.673751 -0.08984,-1.84375 l 0,-1.845704 z m 19.800781,0 0.76563,0 0.76367,0 0,1.845704 c 0,1.169999 -0.0327,1.84375 -0.0898,1.84375 -0.059,0 -0.0898,1.770859 -0.0898,5.130859 l 0,5.130863 18.25391,0 18.25586,0 0.19531,0.20703 0.19531,0.20898 0,9.82617 c 0,9.29873 0.009,9.82611 0.1582,9.82618 0.32486,1.5e-4 1.25211,0.53669 1.66016,0.95898 0.23268,0.24079 0.53525,0.67956 0.67383,0.97656 l 0.25195,0.54102 0,4.13867 0,4.14063 -0.2539,0.54882 c -0.31956,0.69146 -1.0182,1.39083 -1.70313,1.70313 -0.57893,0.26396 -1.58245,0.36664 -2.16016,0.2207 -0.95037,-0.24008 -1.85838,-1.00635 -2.29101,-1.93359 l -0.25196,-0.53906 0,-4.14063 0,-4.13867 0.2793,-0.58594 c 0.15318,-0.32175 0.45771,-0.76268 0.67578,-0.98047 0.38936,-0.38888 1.32285,-0.91015 1.63282,-0.91015 0.1495,-7e-5 0.1582,-0.50925 0.1582,-9.44922 l 0,-9.44922 -18.25391,0 -18.25586,0 -0.19531,-0.20899 -0.19531,-0.20898 0,-5.50586 c 0,-3.61114 -0.0309,-5.507812 -0.0898,-5.507812 -0.0571,0 -0.0898,-0.673751 -0.0898,-1.84375 l 0,-1.845704 z m 26.73047,0.451172 2.92383,0 2.92578,0 0,1.34961 0,1.349609 11.63867,0 11.64063,0 0.19531,0.208984 0.19531,0.207032 0,26.957029 0,26.95508 -0.20898,0.19531 -0.20704,0.19727 -5.37304,0 -5.3711,0 0,1.30469 0,1.30468 -2.92578,0 -2.92382,0 0,-3.19531 0,-3.19531 2.92382,0 2.92578,0 0,1.30469 0,1.30664 4.99414,0 4.9961,0 0,-26.19141 0,-26.189453 -11.25,0 -11.25,0 0,1.349609 0,1.34961 -2.92578,0 -2.92383,0 0,-3.283204 0,-3.285156 z M 89.744141,125.60938 c -0.2951,0.0167 -0.591628,0.11275 -0.861329,0.30273 -1.109718,0.78167 -1.005441,2.34026 0.199219,2.98437 1.15007,0.61492 2.599184,-0.35347 2.496094,-1.66796 -0.07871,-1.00356 -0.948704,-1.66932 -1.833984,-1.61914 z m 9,0 c -0.2951,0.0167 -0.591628,0.11275 -0.861329,0.30273 -1.109719,0.78167 -1.005442,2.34026 0.199219,2.98437 1.15007,0.61492 2.599189,-0.35347 2.496089,-1.66796 -0.0787,-1.00356 -0.948699,-1.66932 -1.833979,-1.61914 z m 8.999999,0 c -0.2951,0.0167 -0.59163,0.11275 -0.86133,0.30273 -1.10972,0.78167 -1.00544,2.34026 0.19922,2.98437 1.15007,0.61492 2.59919,-0.35347 2.49609,-1.66796 -0.0787,-1.00356 -0.9487,-1.66932 -1.83398,-1.61914 z m 9,0 c -0.2951,0.0167 -0.59162,0.11275 -0.86133,0.30273 -1.10972,0.78167 -1.00544,2.34026 0.19922,2.98437 1.15007,0.61492 2.59919,-0.35347 2.49609,-1.66796 -0.0787,-1.00356 -0.9487,-1.66932 -1.83398,-1.61914 z m 9,0 c -0.2951,0.0167 -0.59162,0.11275 -0.86133,0.30273 -1.10972,0.78167 -1.00544,2.34026 0.19922,2.98437 1.15007,0.61492 2.59919,-0.35347 2.49609,-1.66796 -0.0787,-1.00356 -0.9487,-1.66932 -1.83398,-1.61914 z m 9,0 c -0.2951,0.0167 -0.59162,0.11275 -0.86133,0.30273 -1.10972,0.78167 -1.00544,2.34026 0.19922,2.98437 1.15007,0.61492 2.59918,-0.35347 2.49609,-1.66796 -0.0787,-1.00356 -0.9487,-1.66932 -1.83398,-1.61914 z m 9,0 c -0.2951,0.0167 -0.59162,0.11275 -0.86133,0.30273 -1.10972,0.78167 -1.00544,2.34026 0.19922,2.98437 1.15007,0.61492 2.59918,-0.35347 2.49609,-1.66796 -0.0787,-1.00356 -0.9487,-1.66932 -1.83398,-1.61914 z m 9,0 c -0.2951,0.0167 -0.59162,0.11275 -0.86133,0.30273 -1.10972,0.78167 -1.00544,2.34026 0.19922,2.98437 1.15007,0.61492 2.59918,-0.35347 2.49609,-1.66796 -0.0787,-1.00356 -0.9487,-1.66932 -1.83398,-1.61914 z m 9,0 c -0.2951,0.0167 -0.59162,0.11275 -0.86133,0.30273 -1.10972,0.78167 -1.00544,2.34026 0.19922,2.98437 1.15007,0.61492 2.59918,-0.35347 2.49609,-1.66796 -0.0787,-1.00356 -0.9487,-1.66932 -1.83398,-1.61914 z"
         style="fill:#000000"
         inkscape:connector-curvature="0" />
      <rect
         y="807.39209"
         x="3.8971784"
         height="149.29774"
         width="173.94058"
         id="rect3892"
         style="fill:none;fill-rule:evenodd;stroke:#0000ff;stroke-width:0.98797667px;stroke-linecap:butt;stroke-linejoin:miter;stroke-opacity:1" />
      <text
         transform="matrix(0,1.0063425,-0.99369747,0,0,0)"
         sodipodi:linespacing="125%"
         id="text4247-0-8-5"
         y="-166.34502"
         x="809.62183"
         style="font-style:normal;font-variant:normal;font-weight:normal;font-stretch:normal;font-size:6.96545219px;line-height:125%;font-family:monospace;-inkscape-font-specification:'monospace, Normal';text-align:start;letter-spacing:0px;word-spacing:0px;writing-mode:lr-tb;text-anchor:start;fill:#ffffff;fill-opacity:1;stroke:none;stroke-width:1px;stroke-linecap:butt;stroke-linejoin:miter;stroke-opacity:1"
         xml:space="preserve"><tspan
           y="-166.34502"
           x="809.62183"
           id="tspan4249-2-0-1"
           sodipodi:role="line">satshakit</tspan></text>
      <ellipse
         ry="0.85769105"
         rx="0.82470292"
         cy="823.224"
         cx="30.376402"
         id="path4232-2-0-4-46-0"
         style="fill:none;fill-opacity:1;stroke:#ff0000;stroke-width:0.37027922;stroke-miterlimit:4;stroke-dasharray:none;stroke-opacity:1" />
      <ellipse
         ry="0.85769105"
         rx="0.82470292"
         cy="823.29102"
         cx="40.3764"
         id="path4232-2-0-4-46-04"
         style="fill:none;fill-opacity:1;stroke:#ff0000;stroke-width:0.37027922;stroke-miterlimit:4;stroke-dasharray:none;stroke-opacity:1" />
      <ellipse
         ry="0.85769105"
         rx="0.82470292"
         cy="823.31329"
         cx="49.438904"
         id="path4232-2-0-4-46-1"
         style="fill:none;fill-opacity:1;stroke:#ff0000;stroke-width:0.37027922;stroke-miterlimit:4;stroke-dasharray:none;stroke-opacity:1" />
      <ellipse
         ry="0.85769105"
         rx="0.82470292"
         cy="823.26868"
         cx="58.45676"
         id="path4232-2-0-4-46-9"
         style="fill:none;fill-opacity:1;stroke:#ff0000;stroke-width:0.37027922;stroke-miterlimit:4;stroke-dasharray:none;stroke-opacity:1" />
      <ellipse
         ry="0.85769105"
         rx="0.82470292"
         cy="823.26868"
         cx="67.363007"
         id="path4232-2-0-4-46-6"
         style="fill:none;fill-opacity:1;stroke:#ff0000;stroke-width:0.37027922;stroke-miterlimit:4;stroke-dasharray:none;stroke-opacity:1" />
      <ellipse
         ry="0.85769105"
         rx="0.82470292"
         cy="823.26868"
         cx="76.380867"
         id="path4232-2-0-4-46-05"
         style="fill:none;fill-opacity:1;stroke:#ff0000;stroke-width:0.37027922;stroke-miterlimit:4;stroke-dasharray:none;stroke-opacity:1" />
      <ellipse
         ry="0.85769105"
         rx="0.82470292"
         cy="823.26862"
         cx="85.376404"
         id="path4232-2-0-4-46-2"
         style="fill:none;fill-opacity:1;stroke:#ff0000;stroke-width:0.37027922;stroke-miterlimit:4;stroke-dasharray:none;stroke-opacity:1" />
      <ellipse
         ry="0.85769105"
         rx="0.82470292"
         cy="823.224"
         cx="94.394257"
         id="path4232-2-0-4-46-91"
         style="fill:none;fill-opacity:1;stroke:#ff0000;stroke-width:0.37027922;stroke-miterlimit:4;stroke-dasharray:none;stroke-opacity:1" />
      <ellipse
         ry="0.85769105"
         rx="0.82470292"
         cy="823.24634"
         cx="103.41212"
         id="path4232-2-0-4-46-07"
         style="fill:none;fill-opacity:1;stroke:#ff0000;stroke-width:0.37027922;stroke-miterlimit:4;stroke-dasharray:none;stroke-opacity:1" />
      <ellipse
         ry="0.85769105"
         rx="0.82470292"
         cy="823.24634"
         cx="112.40765"
         id="path4232-2-0-4-46-01"
         style="fill:none;fill-opacity:1;stroke:#ff0000;stroke-width:0.37027922;stroke-miterlimit:4;stroke-dasharray:none;stroke-opacity:1" />
      <ellipse
         ry="0.85769105"
         rx="0.82470292"
         cy="823.29095"
         cx="121.38087"
         id="path4232-2-0-4-46-5"
         style="fill:none;fill-opacity:1;stroke:#ff0000;stroke-width:0.37027922;stroke-miterlimit:4;stroke-dasharray:none;stroke-opacity:1" />
      <ellipse
         ry="0.85769105"
         rx="0.82470292"
         cy="823.24634"
         cx="130.37642"
         id="path4232-2-0-4-46-69"
         style="fill:none;fill-opacity:1;stroke:#ff0000;stroke-width:0.37027922;stroke-miterlimit:4;stroke-dasharray:none;stroke-opacity:1" />
      <ellipse
         ry="0.85769105"
         rx="0.82470292"
         cy="823.31329"
         cx="139.4166"
         id="path4232-2-0-4-46-3"
         style="fill:none;fill-opacity:1;stroke:#ff0000;stroke-width:0.37027922;stroke-miterlimit:4;stroke-dasharray:none;stroke-opacity:1" />
      <ellipse
         ry="0.85769105"
         rx="0.82470292"
         cy="823.29095"
         cx="148.41212"
         id="path4232-2-0-4-46-18"
         style="fill:none;fill-opacity:1;stroke:#ff0000;stroke-width:0.37027922;stroke-miterlimit:4;stroke-dasharray:none;stroke-opacity:1" />
      <ellipse
         ry="0.85769105"
         rx="0.82470292"
         cy="823.224"
         cx="157.40767"
         id="path4232-2-0-4-46-8"
         style="fill:none;fill-opacity:1;stroke:#ff0000;stroke-width:0.37027922;stroke-miterlimit:4;stroke-dasharray:none;stroke-opacity:1" />
      <ellipse
         ry="0.85769105"
         rx="0.82470292"
         cy="931.7121"
         cx="89.887794"
         id="path4232-2-0-4-46-68"
         style="fill:none;fill-opacity:1;stroke:#ff0000;stroke-width:0.37027922;stroke-miterlimit:4;stroke-dasharray:none;stroke-opacity:1" />
      <ellipse
         ry="0.85769105"
         rx="0.82470292"
         cy="931.75946"
         cx="98.852898"
         id="path4232-2-0-4-46-7"
         style="fill:none;fill-opacity:1;stroke:#ff0000;stroke-width:0.37027922;stroke-miterlimit:4;stroke-dasharray:none;stroke-opacity:1" />
      <ellipse
         ry="0.85769105"
         rx="0.82470292"
         cy="931.69635"
         cx="107.9127"
         id="path4232-2-0-4-46-86"
         style="fill:none;fill-opacity:1;stroke:#ff0000;stroke-width:0.37027922;stroke-miterlimit:4;stroke-dasharray:none;stroke-opacity:1" />
      <ellipse
         ry="0.85769105"
         rx="0.82470292"
         cy="931.66473"
         cx="116.8936"
         id="path4232-2-0-4-46-90"
         style="fill:none;fill-opacity:1;stroke:#ff0000;stroke-width:0.37027922;stroke-miterlimit:4;stroke-dasharray:none;stroke-opacity:1" />
      <ellipse
         ry="0.85769105"
         rx="0.82470292"
         cy="931.69635"
         cx="125.92182"
         id="path4232-2-0-4-46-4"
         style="fill:none;fill-opacity:1;stroke:#ff0000;stroke-width:0.37027922;stroke-miterlimit:4;stroke-dasharray:none;stroke-opacity:1" />
      <ellipse
         ry="0.85769105"
         rx="0.82470292"
         cy="931.64899"
         cx="134.85536"
         id="path4232-2-0-4-46-21"
         style="fill:none;fill-opacity:1;stroke:#ff0000;stroke-width:0.37027922;stroke-miterlimit:4;stroke-dasharray:none;stroke-opacity:1" />
      <ellipse
         ry="0.85769105"
         rx="0.82470292"
         cy="931.69635"
         cx="143.88361"
         id="path4232-2-0-4-46-67"
         style="fill:none;fill-opacity:1;stroke:#ff0000;stroke-width:0.37027922;stroke-miterlimit:4;stroke-dasharray:none;stroke-opacity:1" />
      <ellipse
         ry="0.85769105"
         rx="0.82470292"
         cy="931.62799"
         cx="152.84293"
         id="path4232-2-0-4-46-47"
         style="fill:none;fill-opacity:1;stroke:#ff0000;stroke-width:0.37027922;stroke-miterlimit:4;stroke-dasharray:none;stroke-opacity:1" />
      <ellipse
         ry="0.85769105"
         rx="0.82470292"
         cy="931.68378"
         cx="161.91658"
         id="path4232-2-0-4-46-57"
         style="fill:none;fill-opacity:1;stroke:#ff0000;stroke-width:0.37027922;stroke-miterlimit:4;stroke-dasharray:none;stroke-opacity:1" />
      <ellipse
         ry="0.85769105"
         rx="0.82470292"
         cy="873.26862"
         cx="42.787117"
         id="path4232-2-0-4-46-40"
         style="fill:none;fill-opacity:1;stroke:#ff0000;stroke-width:0.37027922;stroke-miterlimit:4;stroke-dasharray:none;stroke-opacity:1" />
      <ellipse
         ry="0.85769105"
         rx="0.82470292"
         cy="882.24622"
         cx="42.852562"
         id="path4232-2-0-4-46-85"
         style="fill:none;fill-opacity:1;stroke:#ff0000;stroke-width:0.37027922;stroke-miterlimit:4;stroke-dasharray:none;stroke-opacity:1" />
    </g>
  </g>
</svg>
