<?xml version="1.0" encoding="UTF-8" standalone="no"?>
<!-- Created with Inkscape (http://www.inkscape.org/) -->

<svg
   xmlns:dc="http://purl.org/dc/elements/1.1/"
   xmlns:cc="http://creativecommons.org/ns#"
   xmlns:rdf="http://www.w3.org/1999/02/22-rdf-syntax-ns#"
   xmlns:svg="http://www.w3.org/2000/svg"
   xmlns="http://www.w3.org/2000/svg"
   xmlns:sodipodi="http://sodipodi.sourceforge.net/DTD/sodipodi-0.dtd"
   xmlns:inkscape="http://www.inkscape.org/namespaces/inkscape"
   width="100mm"
   height="70mm"
   viewBox="0 0 354.33071 248.03149"
   id="svg2"
   version="1.1"
   inkscape:version="0.91 r"
   sodipodi:docname="satshakit.svg"
   inkscape:export-filename="/home/satsha/path3887.png"
   inkscape:export-xdpi="476"
   inkscape:export-ydpi="476">
  <defs
     id="defs4">
    <pattern
       y="0"
       x="0"
       height="6"
       width="6"
       patternUnits="userSpaceOnUse"
       id="EMFhbasepattern" />
  </defs>
  <sodipodi:namedview
     id="base"
     pagecolor="#ffffff"
     bordercolor="#666666"
     borderopacity="1.0"
     inkscape:pageopacity="0.0"
     inkscape:pageshadow="2"
     inkscape:zoom="2.8"
     inkscape:cx="82.815476"
     inkscape:cy="176.76566"
     inkscape:document-units="px"
     inkscape:current-layer="layer1"
     showgrid="false"
     inkscape:window-width="1366"
     inkscape:window-height="713"
     inkscape:window-x="-2"
     inkscape:window-y="-3"
     inkscape:window-maximized="1" />
  <metadata
     id="metadata7">
    <rdf:RDF>
      <cc:Work
         rdf:about="">
        <dc:format>image/svg+xml</dc:format>
        <dc:type
           rdf:resource="http://purl.org/dc/dcmitype/StillImage" />
        <dc:title />
      </cc:Work>
    </rdf:RDF>
  </metadata>
  <g
     inkscape:label="Layer 1"
     inkscape:groupmode="layer"
     id="layer1"
     transform="translate(0,-804.33071)">
    <path
       style="fill:#000000"
       d="M 1.0722656 2.3164062 L 1.0722656 155.04297 L 81.142578 155.04297 L 175.71484 155.04297 L 175.71484 2.3164062 L 1.0722656 2.3164062 z M 51.201172 6.453125 L 84.035156 6.453125 L 84.232422 6.6601562 C 84.426709 6.8668764 84.427734 6.8963748 84.427734 10.478516 L 84.427734 14.087891 L 84.689453 14.146484 C 85.083428 14.233014 85.758608 14.751636 86.097656 15.228516 C 86.569374 15.891966 86.604846 16.226516 86.572266 19.728516 C 86.54361 22.809016 86.537519 22.887561 86.333984 23.300781 C 86.069267 23.838201 85.523161 24.386425 84.998047 24.640625 C 84.489133 24.886985 83.545833 24.951304 83.013672 24.777344 C 82.215408 24.516394 81.46292 23.749522 81.222656 22.951172 C 81.043645 22.356432 81.042179 16.567779 81.220703 15.974609 C 81.469265 15.148709 82.271955 14.326751 83.009766 14.144531 L 83.257812 14.083984 L 83.257812 10.853516 L 83.257812 7.6230469 L 51.216797 7.6230469 L 19.177734 7.6230469 L 19.177734 12.392578 L 19.177734 17.162109 L 20.347656 17.162109 L 21.517578 17.162109 L 21.517578 20.357422 L 21.517578 23.552734 L 18.591797 23.552734 L 15.667969 23.552734 L 15.667969 20.357422 L 15.667969 17.162109 L 16.837891 17.162109 L 18.007812 17.162109 L 18.007812 11.988281 C 18.007812 6.9332816 18.01167 6.8086425 18.1875 6.6328125 C 18.36684 6.4534725 18.486865 6.453125 51.201172 6.453125 z M 54.097656 9.9628906 C 78.63125 9.9628906 79.543869 9.9682433 79.6875 10.126953 C 79.8246 10.278443 79.837891 11.289629 79.837891 22.818359 L 79.837891 35.34375 L 91.568359 35.34375 C 102.81891 35.34375 103.30442 35.349962 103.44727 35.507812 C 103.58402 35.658912 103.59766 36.50303 103.59766 45.8125 C 103.59766 52.51277 103.628 55.953125 103.6875 55.953125 C 103.7455 55.953125 103.77734 56.927266 103.77734 58.697266 L 103.77734 61.443359 L 103.10156 61.443359 L 102.42773 61.443359 L 102.42773 58.697266 C 102.42773 56.927266 102.45958 55.953125 102.51758 55.953125 C 102.57708 55.953125 102.60742 52.622578 102.60742 46.142578 L 102.60742 36.332031 L 90.876953 36.332031 C 79.626404 36.332031 79.138942 36.325819 78.996094 36.167969 C 78.858994 36.016479 78.847656 35.007246 78.847656 23.478516 L 78.847656 10.953125 L 54.095703 10.953125 L 29.34375 10.953125 L 29.369141 13.53125 L 29.392578 16.107422 L 29.771484 16.220703 C 30.677859 16.488233 31.517275 17.227799 31.943359 18.136719 C 32.147035 18.571199 32.181641 18.768001 32.181641 19.457031 C 32.181641 20.146061 32.147038 20.344817 31.943359 20.779297 C 31.517276 21.688217 30.677863 22.427772 29.771484 22.695312 L 29.392578 22.808594 L 29.369141 25.492188 C 29.348341 27.831987 29.325899 28.197714 29.197266 28.339844 C 29.056486 28.494924 28.592387 28.501953 19.119141 28.501953 L 9.1875 28.501953 L 9.1875 32.912109 L 9.1875 37.322266 L 10.806641 37.322266 L 12.427734 37.322266 L 12.427734 40.517578 L 12.427734 43.712891 L 11.257812 43.712891 L 10.087891 43.712891 L 10.087891 50.013672 L 10.087891 56.3125 L 11.796875 56.3125 L 13.507812 56.3125 L 13.507812 60.408203 L 13.507812 64.501953 L 12.427734 64.501953 L 11.347656 64.501953 L 11.347656 72.107422 L 11.347656 79.712891 L 12.427734 79.712891 L 13.507812 79.712891 L 13.507812 83.808594 L 13.507812 87.902344 L 10.761719 87.902344 L 8.0175781 87.902344 L 8.0175781 83.808594 L 8.0175781 79.712891 L 9.0976562 79.712891 L 10.177734 79.712891 L 10.177734 72.107422 L 10.177734 64.501953 L 9.0976562 64.501953 L 8.0175781 64.501953 L 8.0175781 60.408203 L 8.0175781 56.3125 L 8.4667969 56.3125 L 8.9179688 56.3125 L 8.9179688 50.013672 L 8.9179688 43.712891 L 7.7480469 43.712891 L 6.5761719 43.712891 L 6.5761719 40.517578 L 6.5761719 37.322266 L 7.296875 37.322266 L 8.0175781 37.322266 L 8.0175781 30.4375 L 8.0175781 23.552734 L 6.8476562 23.552734 L 5.6777344 23.552734 L 5.6777344 20.357422 L 5.6777344 17.162109 L 8.6015625 17.162109 L 11.527344 17.162109 L 11.527344 20.357422 L 11.527344 23.552734 L 10.357422 23.552734 L 9.1875 23.552734 L 9.1875 25.533203 L 9.1875 27.513672 L 18.773438 27.513672 L 28.359375 27.513672 L 28.335938 25.160156 L 28.3125 22.808594 L 27.933594 22.695312 C 27.027234 22.427793 26.187804 21.688217 25.761719 20.779297 C 25.558042 20.344817 25.521484 20.146061 25.521484 19.457031 C 25.521484 18.768001 25.55804 18.571199 25.761719 18.136719 C 26.1878 17.227799 27.027204 16.488263 27.933594 16.220703 L 28.3125 16.107422 L 28.335938 13.199219 C 28.356763 10.650009 28.378415 10.269943 28.507812 10.126953 C 28.649755 9.9697733 29.643758 9.9628906 54.097656 9.9628906 z M 38.835938 14.042969 C 39.258409 14.04114 39.679338 14.115375 39.984375 14.265625 C 40.523679 14.531265 41.068344 15.075934 41.333984 15.615234 C 41.537514 16.028454 41.543606 16.107 41.572266 19.1875 C 41.604843 22.6895 41.569352 23.02405 41.097656 23.6875 C 40.758606 24.16438 40.08343 24.683031 39.689453 24.769531 L 39.427734 24.826172 L 39.427734 28.824219 L 39.427734 32.822266 L 45.306641 32.822266 L 51.185547 32.822266 L 51.380859 33.03125 L 51.578125 33.240234 L 51.578125 42.707031 L 51.578125 52.171875 L 66.457031 52.171875 L 81.335938 52.171875 L 81.53125 52.380859 L 81.726562 52.589844 L 81.726562 59.1875 L 81.726562 65.783203 L 87.126953 65.716797 L 92.527344 65.650391 L 92.527344 66.335938 L 92.527344 67.023438 L 89.804688 67.001953 C 80.157677 66.926613 80.992371 66.951178 80.763672 66.736328 L 80.556641 66.541016 L 80.556641 59.941406 L 80.556641 53.34375 L 65.677734 53.34375 L 50.798828 53.34375 L 50.603516 53.134766 L 50.40625 52.925781 L 50.40625 43.458984 L 50.40625 33.992188 L 44.527344 33.992188 L 38.648438 33.992188 L 38.453125 33.785156 C 38.257707 33.577186 38.257812 33.568752 38.257812 29.201172 L 38.257812 24.828125 L 37.996094 24.769531 C 37.602117 24.683001 36.926942 24.16438 36.587891 23.6875 C 36.116172 23.02405 36.080701 22.6895 36.113281 19.1875 C 36.142332 16.06455 36.143186 16.034953 36.359375 15.595703 C 36.636968 15.031683 37.115671 14.552981 37.679688 14.275391 C 37.990358 14.122456 38.413465 14.044798 38.835938 14.042969 z M 47.835938 14.042969 C 48.258411 14.04114 48.679338 14.115375 48.984375 14.265625 C 49.523678 14.531265 50.068343 15.075934 50.333984 15.615234 C 50.537514 16.028454 50.543606 16.107 50.572266 19.1875 C 50.604843 22.6895 50.569351 23.02405 50.097656 23.6875 C 49.758605 24.16438 49.083429 24.683031 48.689453 24.769531 L 48.427734 24.826172 L 48.427734 27.25 L 48.427734 29.671875 L 51.15625 29.671875 L 53.886719 29.671875 L 54.082031 29.880859 L 54.277344 30.089844 L 54.277344 39.78125 L 54.277344 49.472656 L 69.607422 49.472656 L 84.935547 49.472656 L 85.130859 49.681641 L 85.326172 49.888672 L 85.326172 56.431641 L 85.326172 62.972656 L 86.181641 62.972656 C 86.691644 62.972656 87.037109 62.936513 87.037109 62.882812 C 87.037109 62.825713 87.712814 62.792969 88.882812 62.792969 L 90.726562 62.792969 L 90.726562 63.558594 L 90.726562 64.322266 L 88.882812 64.322266 C 87.712812 64.322266 87.037109 64.289522 87.037109 64.232422 C 87.037109 64.176722 86.562514 64.142578 85.792969 64.142578 C 84.608677 64.142578 84.539771 64.133797 84.353516 63.935547 L 84.15625 63.726562 L 84.15625 57.185547 L 84.15625 50.642578 L 68.828125 50.642578 L 53.498047 50.642578 L 53.302734 50.435547 L 53.107422 50.226562 L 53.107422 40.535156 L 53.107422 30.84375 L 50.376953 30.84375 L 47.648438 30.84375 L 47.453125 30.634766 C 47.260837 30.430116 47.257812 30.377443 47.257812 27.626953 L 47.257812 24.828125 L 46.996094 24.769531 C 46.602117 24.683001 45.926941 24.16438 45.587891 23.6875 C 45.116172 23.02405 45.080701 22.6895 45.113281 19.1875 C 45.142332 16.06455 45.143186 16.034953 45.359375 15.595703 C 45.636967 15.031683 46.11567 14.552981 46.679688 14.275391 C 46.990358 14.122456 47.413463 14.044798 47.835938 14.042969 z M 56.835938 14.042969 C 57.258411 14.04114 57.679339 14.115375 57.984375 14.265625 C 58.523679 14.531265 59.068344 15.075934 59.333984 15.615234 C 59.537514 16.028454 59.543606 16.107 59.572266 19.1875 C 59.604843 22.6895 59.569352 23.02405 59.097656 23.6875 C 58.758606 24.16438 58.08343 24.683031 57.689453 24.769531 L 57.427734 24.826172 L 57.427734 35.349609 L 57.427734 45.873047 L 76.130859 45.873047 L 94.835938 45.873047 L 95.03125 46.082031 L 95.226562 46.289062 L 95.226562 51.121094 C 95.226562 54.282224 95.257526 55.953125 95.316406 55.953125 C 95.373476 55.953125 95.40625 56.626875 95.40625 57.796875 L 95.40625 57.798828 L 95.40625 59.642578 L 94.642578 59.642578 L 93.876953 59.642578 L 93.876953 57.798828 C 93.876953 56.628828 93.909727 55.953125 93.966797 55.953125 C 94.025587 55.953125 94.056641 54.408047 94.056641 51.498047 L 94.056641 47.042969 L 75.353516 47.042969 L 56.648438 47.042969 L 56.453125 46.833984 L 56.257812 46.626953 L 56.257812 35.726562 L 56.257812 24.828125 L 55.996094 24.769531 C 55.602117 24.683001 54.926942 24.16438 54.587891 23.6875 C 54.116172 23.02405 54.080701 22.6895 54.113281 19.1875 C 54.142332 16.06455 54.143186 16.034953 54.359375 15.595703 C 54.636968 15.031683 55.115671 14.552981 55.679688 14.275391 C 55.990358 14.122456 56.413463 14.044798 56.835938 14.042969 z M 65.835938 14.042969 C 66.258409 14.04114 66.679338 14.115375 66.984375 14.265625 C 67.523678 14.531265 68.068343 15.075934 68.333984 15.615234 C 68.537514 16.028454 68.543606 16.107 68.572266 19.1875 C 68.604843 22.6895 68.569351 23.02405 68.097656 23.6875 C 67.758605 24.16438 67.08343 24.683031 66.689453 24.769531 L 66.427734 24.826172 L 66.427734 33.775391 L 66.427734 42.722656 L 82.027344 42.722656 L 97.625 42.722656 L 97.810547 42.925781 C 97.992716 43.126161 97.994005 43.223416 98.046875 52.285156 L 98.101562 61.443359 L 97.431641 61.443359 L 96.761719 61.443359 L 96.818359 52.667969 L 96.876953 43.892578 L 81.261719 43.892578 L 65.648438 43.892578 L 65.453125 43.685547 L 65.257812 43.476562 L 65.257812 34.152344 L 65.257812 24.828125 L 64.996094 24.769531 C 64.602117 24.683001 63.926941 24.16438 63.587891 23.6875 C 63.116172 23.02405 63.080701 22.6895 63.113281 19.1875 C 63.142332 16.06455 63.143186 16.034953 63.359375 15.595703 C 63.636967 15.031683 64.115668 14.552981 64.679688 14.275391 C 64.990358 14.122456 65.413465 14.044798 65.835938 14.042969 z M 74.835938 14.042969 C 75.258409 14.04114 75.679338 14.115375 75.984375 14.265625 C 76.523673 14.531265 77.06834 15.075934 77.333984 15.615234 C 77.537523 16.028454 77.543606 16.107 77.572266 19.1875 C 77.604846 22.6895 77.569346 23.02405 77.097656 23.6875 C 76.758608 24.16438 76.083428 24.683031 75.689453 24.769531 L 75.427734 24.826172 L 75.427734 31.974609 L 75.427734 39.123047 L 87.966797 39.123047 L 100.50586 39.123047 L 100.68945 39.326172 C 100.87291 39.527412 100.87437 39.595285 100.92188 50.484375 L 100.92188 50.486328 L 100.9707 61.443359 L 100.31055 61.443359 L 99.652344 61.443359 L 99.703125 50.867188 L 99.755859 40.292969 L 87.201172 40.292969 L 74.648438 40.292969 L 74.453125 40.083984 L 74.257812 39.876953 L 74.257812 32.351562 L 74.257812 24.828125 L 73.996094 24.769531 C 73.602119 24.683001 72.926937 24.16438 72.587891 23.6875 C 72.116172 23.02405 72.080701 22.6895 72.113281 19.1875 C 72.142332 16.06455 72.143186 16.034953 72.359375 15.595703 C 72.636968 15.031683 73.115667 14.552981 73.679688 14.275391 C 73.990358 14.122456 74.413464 14.044798 74.835938 14.042969 z M 92.835938 14.042969 C 93.258409 14.04114 93.679338 14.115375 93.984375 14.265625 C 94.523673 14.531265 95.06834 15.075934 95.333984 15.615234 C 95.537523 16.028454 95.543606 16.107 95.572266 19.1875 C 95.604846 22.6895 95.569346 23.02405 95.097656 23.6875 C 94.758608 24.16438 94.083428 24.683031 93.689453 24.769531 L 93.427734 24.826172 L 93.427734 28.375 L 93.427734 31.921875 L 99.755859 31.921875 L 106.08594 31.921875 L 106.28125 32.130859 L 106.47656 32.339844 L 106.47656 44.146484 C 106.47656 51.957614 106.50681 55.953125 106.56641 55.953125 C 106.62441 55.953125 106.65625 56.927266 106.65625 58.697266 L 106.65625 61.443359 L 105.98242 61.443359 L 105.30664 61.443359 L 105.30664 47.267578 L 105.30664 33.09375 L 98.978516 33.09375 L 92.648438 33.09375 L 92.453125 32.884766 C 92.258428 32.677476 92.257812 32.657513 92.257812 28.751953 L 92.257812 24.828125 L 91.996094 24.769531 C 91.602119 24.683001 90.926939 24.16438 90.587891 23.6875 C 90.116173 23.02405 90.080701 22.6895 90.113281 19.1875 C 90.142333 16.06455 90.143186 16.034953 90.359375 15.595703 C 90.636971 15.031683 91.115667 14.552981 91.679688 14.275391 C 91.990358 14.122456 92.413463 14.044798 92.835938 14.042969 z M 101.83594 14.042969 C 102.25841 14.04114 102.67933 14.115375 102.98438 14.265625 C 103.52366 14.531265 104.06834 15.075934 104.33398 15.615234 C 104.53751 16.028454 104.54357 16.107 104.57227 19.1875 C 104.60485 22.6895 104.56935 23.02405 104.09766 23.6875 C 103.75861 24.16438 103.08342 24.683031 102.68945 24.769531 L 102.42773 24.826172 L 102.42773 26.574219 L 102.42773 28.322266 L 105.69727 28.322266 L 108.96484 28.322266 L 109.15234 28.525391 L 109.33789 28.728516 L 109.375 45.085938 L 109.41016 61.443359 L 108.77148 61.443359 L 108.13281 61.443359 L 108.17188 45.46875 L 108.21094 29.492188 L 104.92969 29.492188 L 101.64844 29.492188 L 101.45312 29.285156 C 101.26346 29.083436 101.25781 29.008632 101.25781 26.951172 L 101.25781 24.828125 L 100.99609 24.769531 C 100.60211 24.683001 99.926941 24.16438 99.587891 23.6875 C 99.116175 23.02405 99.080701 22.6895 99.113281 19.1875 C 99.142333 16.06455 99.143186 16.034953 99.359375 15.595703 C 99.636976 15.031683 100.11566 14.552981 100.67969 14.275391 C 100.99036 14.122456 101.41347 14.044798 101.83594 14.042969 z M 110.83594 14.042969 C 111.25841 14.04114 111.67933 14.115375 111.98438 14.265625 C 112.52366 14.531265 113.06833 15.075934 113.33398 15.615234 C 113.5401 16.034344 113.54102 16.064781 113.54102 19.457031 C 113.54102 22.863131 113.54032 22.879701 113.33008 23.306641 C 113.21397 23.542411 112.94181 23.907456 112.72461 24.117188 L 112.33008 24.498047 L 112.32812 42.970703 L 112.32617 61.443359 L 111.65234 61.443359 L 110.97656 61.443359 L 110.97656 58.697266 C 110.97656 56.927266 111.00841 55.953125 111.06641 55.953125 C 111.12611 55.953125 111.15625 50.723076 111.15625 40.441406 L 111.15625 24.927734 L 110.61719 24.878906 C 109.64895 24.791106 108.78888 24.192591 108.34961 23.300781 C 108.14349 22.881671 108.14258 22.849281 108.14258 19.457031 L 108.14258 16.037109 L 108.35938 15.595703 C 108.63697 15.031683 109.11371 14.552981 109.67773 14.275391 C 109.9884 14.122456 110.41346 14.044798 110.83594 14.042969 z M 119.83594 14.042969 C 120.25841 14.04114 120.67933 14.115375 120.98438 14.265625 C 121.52366 14.531265 122.06834 15.075934 122.33398 15.615234 C 122.53751 16.028454 122.54357 16.107 122.57227 19.1875 C 122.60485 22.6895 122.56935 23.02405 122.09766 23.6875 C 121.75861 24.16438 121.08343 24.683031 120.68945 24.769531 L 120.42773 24.826172 L 120.42773 27.638672 L 120.42773 30.451172 L 120.21875 30.646484 C 120.01524 30.837174 119.95395 30.84375 117.51953 30.84375 L 115.02734 30.84375 L 115.02734 43.398438 C 115.02734 51.708437 115.05759 55.953125 115.11719 55.953125 C 115.17429 55.953125 115.20703 56.626875 115.20703 57.796875 L 115.20703 57.798828 L 115.20703 59.642578 L 114.44141 59.642578 L 113.67773 59.642578 L 113.67773 57.798828 C 113.67773 56.628828 113.71048 55.953125 113.76758 55.953125 C 113.82718 55.953125 113.85742 51.572186 113.85742 42.992188 C 113.85742 30.152187 113.85877 30.031846 114.03711 29.853516 C 114.20854 29.682516 114.33632 29.673828 116.73633 29.673828 L 119.25781 29.673828 L 119.25781 27.25 L 119.25781 24.828125 L 118.99609 24.769531 C 118.60211 24.683001 117.92694 24.16438 117.58789 23.6875 C 117.11657 23.02405 117.08068 22.6895 117.11328 19.1875 C 117.14233 16.06455 117.14319 16.034953 117.35938 15.595703 C 117.63696 15.031683 118.11567 14.552981 118.67969 14.275391 C 118.99036 14.122456 119.41346 14.044798 119.83594 14.042969 z M 128.83594 14.042969 C 129.25841 14.04114 129.67933 14.115375 129.98438 14.265625 C 130.52367 14.531265 131.06834 15.075934 131.33398 15.615234 C 131.53751 16.028454 131.54357 16.107 131.57227 19.1875 C 131.60485 22.6895 131.56935 23.02405 131.09766 23.6875 C 130.75861 24.16438 130.08343 24.683031 129.68945 24.769531 L 129.42773 24.826172 L 129.42773 40.914062 L 129.42773 57.001953 L 129.21875 57.197266 C 129.01123 57.392236 128.99487 57.392578 124.94336 57.392578 L 120.87695 57.392578 L 120.87695 60.09375 L 120.87695 62.792969 L 121.46289 62.792969 L 122.04688 62.792969 L 122.04688 63.558594 L 122.04688 64.322266 L 120.20312 64.322266 L 118.35742 64.322266 L 118.35742 63.558594 L 118.35742 62.792969 L 119.03125 62.792969 L 119.70703 62.792969 L 119.70703 59.6875 C 119.70703 56.7025 119.71367 56.575384 119.88672 56.402344 C 120.06144 56.227344 120.18711 56.222656 124.16211 56.222656 L 128.25781 56.222656 L 128.25781 40.525391 L 128.25781 24.828125 L 127.99609 24.769531 C 127.60212 24.683001 126.92694 24.16438 126.58789 23.6875 C 126.11657 23.02405 126.08068 22.6895 126.11328 19.1875 C 126.14233 16.06455 126.14319 16.034953 126.35938 15.595703 C 126.63696 15.031683 127.11567 14.552981 127.67969 14.275391 C 127.99036 14.122456 128.41346 14.044798 128.83594 14.042969 z M 137.83594 14.042969 C 138.25841 14.04114 138.67933 14.115375 138.98438 14.265625 C 139.52367 14.531265 140.06834 15.075934 140.33398 15.615234 C 140.53751 16.028454 140.54357 16.107 140.57227 19.1875 C 140.60485 22.6895 140.56935 23.02405 140.09766 23.6875 C 139.75861 24.16438 139.08343 24.683031 138.68945 24.769531 L 138.42773 24.826172 L 138.42773 42.263672 L 138.42773 59.701172 L 138.21875 59.896484 L 138.00977 60.09375 L 131.91797 60.09375 L 125.82617 60.09375 L 125.82617 63.316406 L 125.82617 66.541016 L 125.62305 66.732422 L 125.62305 66.734375 C 125.42221 66.923075 125.34366 66.926181 120.98828 66.988281 L 116.55664 67.052734 L 116.55664 66.347656 L 116.55664 65.644531 L 120.60742 65.701172 L 124.65625 65.759766 L 124.65625 62.521484 C 124.65625 59.402694 124.66456 59.276846 124.83789 59.103516 C 125.01437 58.927516 125.13672 58.923828 131.13672 58.923828 L 137.25781 58.923828 L 137.25781 41.875 L 137.25781 24.828125 L 136.99609 24.769531 C 136.60212 24.683001 135.92694 24.16438 135.58789 23.6875 C 135.11657 23.02405 135.08068 22.6895 135.11328 19.1875 C 135.14233 16.06455 135.14316 16.034953 135.35938 15.595703 C 135.63696 15.031683 136.11567 14.552981 136.67969 14.275391 C 136.99036 14.122456 137.41346 14.044798 137.83594 14.042969 z M 146.83594 14.042969 C 147.25841 14.04114 147.67934 14.115375 147.98438 14.265625 C 148.52367 14.531265 149.06833 15.075934 149.33398 15.615234 C 149.53751 16.028454 149.54357 16.107 149.57227 19.1875 C 149.60485 22.6895 149.56935 23.02405 149.09766 23.6875 C 148.75861 24.16438 148.08343 24.683031 147.68945 24.769531 L 147.42773 24.826172 L 147.42773 43.615234 L 147.42773 62.402344 L 147.21875 62.597656 L 147.00977 62.792969 L 138.44336 62.792969 L 129.87695 62.792969 L 129.87695 66.107422 L 129.87695 69.421875 L 129.67383 69.605469 C 129.47493 69.786959 129.35636 69.791716 123.01367 69.853516 L 116.55664 69.916016 L 116.55664 69.226562 L 116.55664 68.535156 L 122.63281 68.601562 L 128.70703 68.667969 L 128.70703 65.326172 C 128.70703 62.103322 128.71319 61.976274 128.88672 61.802734 C 129.06421 61.625734 129.18711 61.623047 137.66211 61.623047 L 146.25781 61.623047 L 146.25781 43.224609 L 146.25781 24.828125 L 145.99609 24.769531 C 145.60212 24.683001 144.92694 24.16438 144.58789 23.6875 C 144.11657 23.02405 144.08068 22.6895 144.11328 19.1875 C 144.14233 16.06455 144.14317 16.034953 144.35938 15.595703 C 144.63697 15.031683 145.11567 14.552981 145.67969 14.275391 C 145.99036 14.122456 146.41346 14.044798 146.83594 14.042969 z M 155.83594 14.042969 C 156.25841 14.04114 156.67934 14.115375 156.98438 14.265625 C 157.52367 14.531265 158.06833 15.075934 158.33398 15.615234 C 158.53751 16.028454 158.54357 16.107 158.57227 19.1875 C 158.60485 22.6895 158.56935 23.02405 158.09766 23.6875 C 157.75861 24.16438 157.08343 24.683031 156.68945 24.769531 L 156.42773 24.826172 L 156.42773 40.074219 L 156.42773 55.322266 L 163.43164 55.322266 L 170.43555 55.322266 L 170.63086 55.53125 L 170.82617 55.740234 L 170.82617 66.810547 L 170.82617 77.880859 L 170.625 78.070312 L 170.42188 78.259766 L 143.49023 78.289062 L 116.55664 78.318359 L 116.55664 77.6875 L 116.55664 77.058594 L 143.10742 77.087891 L 169.65625 77.119141 L 169.65625 66.806641 L 169.65625 56.492188 L 162.65234 56.492188 L 155.64844 56.492188 L 155.45312 56.285156 L 155.25781 56.076172 L 155.25781 40.451172 L 155.25781 24.828125 L 154.99609 24.769531 C 154.60212 24.683001 153.92694 24.16438 153.58789 23.6875 C 153.11657 23.02405 153.08068 22.6895 153.11328 19.1875 C 153.14233 16.06455 153.14317 16.034953 153.35938 15.595703 C 153.63698 15.031683 154.11567 14.552981 154.67969 14.275391 C 154.99036 14.122456 155.41346 14.044798 155.83594 14.042969 z M 28.75 17.722656 C 28.454905 17.739375 28.158378 17.835416 27.888672 18.025391 C 26.778939 18.807051 26.883231 20.365656 28.087891 21.009766 C 29.237962 21.624686 30.68707 20.656267 30.583984 19.341797 C 30.505282 18.338237 29.635285 17.672499 28.75 17.722656 z M 38.740234 17.722656 C 38.445139 17.739375 38.148612 17.835416 37.878906 18.025391 C 36.769174 18.807051 36.873465 20.365656 38.078125 21.009766 C 39.228196 21.624686 40.677304 20.656267 40.574219 19.341797 C 40.495517 18.338237 39.62552 17.672499 38.740234 17.722656 z M 47.740234 17.722656 C 47.445139 17.739375 47.148612 17.835416 46.878906 18.025391 C 45.769173 18.807051 45.873465 20.365656 47.078125 21.009766 C 48.228196 21.624686 49.677304 20.656267 49.574219 19.341797 C 49.495516 18.338237 48.625519 17.672499 47.740234 17.722656 z M 56.740234 17.722656 C 56.445139 17.739375 56.148612 17.835416 55.878906 18.025391 C 54.769174 18.807051 54.873465 20.365656 56.078125 21.009766 C 57.228197 21.624686 58.677304 20.656267 58.574219 19.341797 C 58.495517 18.338237 57.62552 17.672499 56.740234 17.722656 z M 65.740234 17.722656 C 65.445139 17.739375 65.148612 17.835416 64.878906 18.025391 C 63.769173 18.807051 63.873465 20.365656 65.078125 21.009766 C 66.228196 21.624686 67.677304 20.656267 67.574219 19.341797 C 67.495516 18.338237 66.625519 17.672499 65.740234 17.722656 z M 74.740234 17.722656 C 74.445139 17.739375 74.148614 17.835416 73.878906 18.025391 C 72.769176 18.807051 72.871513 20.365656 74.076172 21.009766 C 75.226246 21.624686 76.677305 20.656267 76.574219 19.341797 C 76.495514 18.338237 75.62552 17.672499 74.740234 17.722656 z M 83.740234 17.722656 C 83.445139 17.739375 83.148614 17.835416 82.878906 18.025391 C 81.769179 18.807051 81.871513 20.365656 83.076172 21.009766 C 84.226246 21.624686 85.677305 20.656267 85.574219 19.341797 C 85.495514 18.338237 84.62552 17.672499 83.740234 17.722656 z M 92.740234 17.722656 C 92.445139 17.739375 92.148614 17.835416 91.878906 18.025391 C 90.76918 18.807051 90.871514 20.365656 92.076172 21.009766 C 93.226246 21.624686 94.677305 20.656267 94.574219 19.341797 C 94.495514 18.338237 93.62552 17.672499 92.740234 17.722656 z M 101.74023 17.722656 C 101.44514 17.739375 101.14861 17.835416 100.87891 18.025391 C 99.769167 18.807051 99.873474 20.365656 101.07812 21.009766 C 102.22819 21.624686 103.67731 20.656267 103.57422 19.341797 C 103.49551 18.338237 102.62552 17.672499 101.74023 17.722656 z M 110.74023 17.722656 C 110.44514 17.739375 110.14861 17.835416 109.87891 18.025391 C 108.76918 18.807051 108.87347 20.365656 110.07812 21.009766 C 111.22819 21.624686 112.67731 20.656267 112.57422 19.341797 C 112.49551 18.338237 111.62552 17.672499 110.74023 17.722656 z M 119.74023 17.722656 C 119.44514 17.739375 119.14861 17.835416 118.87891 18.025391 C 117.76918 18.807051 117.87347 20.365656 119.07812 21.009766 C 120.22819 21.624686 121.67731 20.656267 121.57422 19.341797 C 121.49551 18.338237 120.62552 17.672499 119.74023 17.722656 z M 128.74023 17.722656 C 128.44514 17.739375 128.14861 17.835416 127.87891 18.025391 C 126.76918 18.807051 126.87152 20.365656 128.07617 21.009766 C 129.22625 21.624686 130.67731 20.656267 130.57422 19.341797 C 130.49551 18.338237 129.62552 17.672499 128.74023 17.722656 z M 137.74023 17.722656 C 137.44514 17.739375 137.14861 17.835416 136.87891 18.025391 C 135.76918 18.807051 135.87152 20.365656 137.07617 21.009766 C 138.22625 21.624686 139.67731 20.656267 139.57422 19.341797 C 139.49551 18.338237 138.62552 17.672499 137.74023 17.722656 z M 146.74023 17.722656 C 146.44514 17.739375 146.14861 17.835416 145.87891 18.025391 C 144.76918 18.807051 144.87151 20.365656 146.07617 21.009766 C 147.22625 21.624686 148.67731 20.656267 148.57422 19.341797 C 148.49551 18.338237 147.62552 17.672499 146.74023 17.722656 z M 155.74023 17.722656 C 155.44514 17.739375 155.14861 17.835416 154.87891 18.025391 C 153.76918 18.807051 153.87151 20.365656 155.07617 21.009766 C 156.22625 21.624686 157.67731 20.656267 157.57422 19.341797 C 157.49551 18.338237 156.62552 17.672499 155.74023 17.722656 z M 24.560547 31.472656 L 34.896484 31.472656 L 35.091797 31.681641 C 35.279385 31.881311 35.287109 31.965651 35.287109 33.707031 L 35.287109 35.523438 L 41.435547 35.523438 L 47.585938 35.523438 L 47.78125 35.730469 L 47.976562 35.939453 L 47.976562 45.855469 L 47.976562 55.773438 L 63.082031 55.773438 L 78.185547 55.773438 L 78.380859 55.980469 L 78.576172 56.189453 L 78.576172 62.431641 L 78.576172 68.671875 L 85.552734 68.607422 C 91.82567 68.549812 92.527344 68.557904 92.527344 68.683594 C 92.527344 68.808874 93.408325 68.823125 101.05469 68.828125 L 109.58203 68.835938 L 110.2207 69.166016 C 113.33957 70.787836 113.16978 70.717315 114.80273 71.070312 L 116.33203 71.402344 L 132.68945 71.427734 L 149.04688 71.455078 L 149.04688 70.544922 L 149.04688 69.632812 L 152.24219 69.632812 L 155.4375 69.632812 L 155.4375 70.802734 L 155.4375 71.972656 L 158.0918 71.972656 L 160.74805 71.972656 L 160.74805 70.802734 L 160.74805 69.632812 L 163.94141 69.632812 L 167.13672 69.632812 L 167.13672 72.558594 L 167.13672 75.482422 L 163.94141 75.482422 L 160.74805 75.482422 L 160.74805 74.3125 L 160.74805 73.142578 L 158.0918 73.142578 L 155.4375 73.142578 L 155.4375 74.3125 L 155.4375 75.482422 L 152.24219 75.482422 L 149.04688 75.482422 L 149.04688 74.03125 L 149.04688 72.580078 L 132.82422 72.619141 C 120.27624 72.649241 116.58132 72.634281 116.51172 72.550781 C 116.46222 72.491381 115.63322 72.27148 114.66797 72.0625 C 112.97462 71.6959 112.87098 71.660084 111.72461 71.058594 L 110.53516 70.435547 L 101.72461 72.869141 C 96.877888 74.207651 92.824446 75.302734 92.71875 75.302734 C 92.607923 75.302734 92.527344 75.3596 92.527344 75.4375 C 92.527344 75.5546 92.161245 75.572266 89.78125 75.572266 C 88.011247 75.572266 87.037109 75.540422 87.037109 75.482422 C 87.037109 75.423122 84.38712 75.392578 79.267578 75.392578 L 71.498047 75.392578 L 71.302734 75.185547 L 71.107422 74.976562 L 71.107422 69.333984 L 71.107422 63.693359 L 64.267578 63.693359 L 57.427734 63.693359 L 57.427734 65.177734 L 57.427734 66.662109 L 57.652344 66.662109 L 57.876953 66.662109 L 57.876953 69.857422 L 57.876953 73.052734 L 54.953125 73.052734 L 52.027344 73.052734 L 52.027344 71.523438 L 52.027344 69.992188 L 49.289062 69.992188 L 46.550781 69.992188 L 46.333984 70.464844 C 46.023212 71.140864 45.707938 71.473359 45.080078 71.787109 L 44.529297 72.0625 L 41.220703 72.0625 L 37.912109 72.0625 L 37.345703 71.769531 C 36.122612 71.136371 35.606256 69.803266 36.058594 68.441406 C 36.271346 67.800866 36.967191 67.109846 37.630859 66.878906 C 38.077217 66.723556 38.406183 66.707031 41.181641 66.707031 C 44.597441 66.707031 44.784267 66.73209 45.511719 67.28125 C 45.827478 67.51963 46.039172 67.7863 46.259766 68.21875 L 46.568359 68.822266 L 49.296875 68.822266 L 52.027344 68.822266 L 52.027344 67.742188 L 52.027344 66.662109 L 54.142578 66.662109 L 56.257812 66.662109 L 56.257812 64.773438 C 56.257812 63.003436 56.268928 62.871695 56.4375 62.703125 C 56.614671 62.526125 56.737641 62.523436 64.251953 62.523438 L 71.886719 62.523438 L 72.082031 62.730469 L 72.277344 62.939453 L 72.277344 68.580078 L 72.277344 74.220703 L 82.560547 74.244141 L 92.841797 74.267578 L 100.80664 72.083984 C 105.18739 70.882474 108.81183 69.884234 108.86133 69.865234 C 108.91083 69.846234 101.95471 69.830984 93.402344 69.833984 L 77.853516 69.839844 L 77.628906 69.630859 L 77.40625 69.421875 L 77.40625 63.181641 L 77.40625 56.943359 L 62.302734 56.943359 L 47.199219 56.943359 L 47.001953 56.734375 L 46.806641 56.525391 L 46.806641 46.609375 L 46.806641 36.693359 L 44.017578 36.693359 L 41.226562 36.693359 L 41.226562 38.3125 L 41.226562 39.933594 L 42.53125 39.933594 L 43.837891 39.933594 L 43.837891 42.857422 L 43.837891 45.783203 L 40.642578 45.783203 L 37.447266 45.783203 L 37.447266 42.857422 L 37.447266 39.933594 L 38.751953 39.933594 L 40.056641 39.933594 L 40.056641 38.3125 L 40.056641 36.693359 L 37.283203 36.693359 L 34.507812 36.693359 L 34.3125 36.484375 C 34.124912 36.284705 34.117188 36.200364 34.117188 34.458984 L 34.117188 32.642578 L 24.578125 32.642578 L 15.037109 32.642578 L 15.037109 40.832031 L 15.037109 49.023438 L 22.041016 49.023438 L 29.044922 49.023438 L 29.242188 49.230469 C 29.436076 49.436829 29.4375 49.472283 29.4375 52.876953 C 29.4375 55.871793 29.454622 56.3125 29.572266 56.3125 C 29.690286 56.3125 29.707031 56.828203 29.707031 60.408203 L 29.707031 64.501953 L 28.626953 64.501953 L 27.546875 64.501953 L 27.546875 72.107422 L 27.546875 79.712891 L 28.626953 79.712891 L 29.707031 79.712891 L 29.707031 83.808594 L 29.707031 87.902344 L 28.626953 87.902344 L 27.546875 87.902344 L 27.546875 90.677734 L 27.546875 93.451172 L 27.337891 93.646484 L 27.130859 93.84375 L 17.259766 93.84375 L 7.3867188 93.84375 L 7.3867188 95.867188 L 7.3867188 97.892578 L 8.0175781 97.892578 L 8.6464844 97.892578 L 8.6464844 101.17773 L 8.6464844 104.46289 L 7.9277344 104.46289 L 7.2070312 104.46289 L 7.2070312 118.32227 L 7.2070312 132.18359 L 8.1074219 132.18359 L 9.0078125 132.18359 L 9.0078125 135.46875 L 9.0078125 138.75195 L 8.2871094 138.75195 L 7.5664062 138.75195 L 7.5664062 143.61328 L 7.5664062 148.47266 L 34.611328 148.47266 L 61.65625 148.47266 L 61.65625 146.40234 C 61.65625 144.45234 61.668326 144.32191 61.837891 144.15234 C 62.017357 143.97324 62.137573 143.97266 102.51758 143.97266 L 143.01758 143.97266 L 143.01758 142.66797 L 143.01758 141.36328 L 145.94141 141.36328 L 148.86719 141.36328 L 148.86719 144.55859 L 148.86719 147.75195 L 145.94141 147.75195 L 143.01758 147.75195 L 143.01758 146.44727 L 143.01758 145.14258 L 102.92188 145.14258 L 62.828125 145.14258 L 62.828125 147.19727 C 62.828125 149.22825 62.825076 149.25381 62.619141 149.44727 L 62.410156 149.64258 L 34.599609 149.64258 L 6.7890625 149.64258 L 6.59375 149.43555 L 6.3964844 149.22656 L 6.3964844 143.99023 L 6.3964844 138.75391 L 5.6777344 138.75391 L 4.9570312 138.75391 L 4.9570312 135.46875 L 4.9570312 132.18359 L 5.4980469 132.18359 L 6.0371094 132.18359 L 6.0371094 118.32227 L 6.0371094 104.46289 L 5.3164062 104.46289 L 4.5976562 104.46289 L 4.5976562 101.17773 L 4.5976562 97.892578 L 5.40625 97.892578 L 6.2167969 97.892578 L 6.2167969 95.462891 C 6.2167969 93.152891 6.2253744 93.024626 6.3964844 92.853516 C 6.5743044 92.675516 6.6965635 92.673828 16.476562 92.673828 L 26.376953 92.673828 L 26.376953 90.289062 L 26.376953 87.902344 L 25.296875 87.902344 L 24.216797 87.902344 L 24.216797 83.808594 L 24.216797 79.712891 L 25.296875 79.712891 L 26.376953 79.712891 L 26.376953 72.107422 L 26.376953 64.503906 L 25.296875 64.503906 L 24.216797 64.503906 L 24.216797 60.408203 L 24.216797 56.3125 L 26.242188 56.3125 L 28.267578 56.3125 L 28.267578 53.253906 L 28.267578 50.193359 L 21.263672 50.193359 L 14.257812 50.193359 L 14.0625 49.984375 L 13.867188 49.777344 L 13.867188 40.804688 C 13.867188 31.952987 13.869275 31.829934 14.046875 31.652344 C 14.224785 31.474344 14.346239 31.472656 24.560547 31.472656 z M 16.566406 37.324219 L 19.492188 37.324219 L 22.417969 37.324219 L 22.417969 38.628906 L 22.417969 39.933594 L 27.755859 39.933594 L 33.095703 39.933594 L 33.291016 40.142578 L 33.486328 40.349609 L 33.486328 49.861328 L 33.486328 59.373047 L 36.771484 59.373047 L 40.056641 59.373047 L 40.056641 57.529297 L 40.056641 55.683594 L 38.751953 55.683594 L 37.447266 55.683594 L 37.447266 52.757812 L 37.447266 49.833984 L 40.642578 49.833984 L 43.837891 49.833984 L 43.837891 52.757812 L 43.837891 55.683594 L 42.53125 55.683594 L 41.226562 55.683594 L 41.226562 57.529297 L 41.226562 59.373047 L 58.357422 59.373047 L 75.486328 59.373047 L 75.681641 59.582031 L 75.876953 59.789062 L 75.876953 65.626953 L 75.876953 71.462891 L 84.201172 71.404297 L 92.527344 71.34375 L 92.527344 72.017578 L 92.527344 72.689453 L 83.820312 72.634766 C 75.214146 72.580416 75.110298 72.578364 74.910156 72.396484 L 74.707031 72.212891 L 74.707031 66.376953 L 74.707031 60.542969 L 54.097656 60.542969 L 33.486328 60.542969 L 33.486328 69.185547 L 33.486328 77.828125 L 34.716797 77.802734 L 35.947266 77.779297 L 36.082031 77.375 C 36.272948 76.80172 37.001904 76.097776 37.630859 75.878906 C 38.077217 75.723556 38.406183 75.708984 41.181641 75.708984 C 44.597441 75.708984 44.784267 75.73209 45.511719 76.28125 C 45.827478 76.51963 46.039172 76.7863 46.259766 77.21875 L 46.568359 77.824219 L 50.677734 77.824219 L 54.785156 77.824219 L 54.982422 78.03125 L 55.177734 78.240234 L 55.177734 85.951172 L 55.177734 93.664062 L 57.517578 93.664062 L 59.857422 93.664062 L 59.857422 92.494141 L 59.857422 91.324219 L 63.142578 91.324219 L 66.427734 91.324219 L 66.427734 92.449219 L 66.427734 93.574219 L 68.316406 93.574219 L 70.207031 93.574219 L 70.207031 85.517578 C 70.207031 77.582578 70.209401 77.460523 70.386719 77.283203 C 70.563569 77.106093 70.687262 77.103606 77.429688 77.103516 C 81.204063 77.103416 86.145531 77.075769 88.410156 77.042969 C 92.030234 76.990539 92.527344 77.000871 92.527344 77.119141 C 92.527344 77.261991 92.862513 77.337624 100.05664 78.808594 L 103.49219 79.509766 L 108.6582 77.150391 L 113.82422 74.789062 L 115.16797 74.595703 C 115.90714 74.488883 116.52647 74.3612 116.54297 74.3125 C 116.56177 74.257 117.59495 74.222656 119.31055 74.222656 L 122.04688 74.222656 L 122.04688 74.898438 L 122.04688 75.574219 L 119.31055 75.574219 C 117.5179 75.574219 116.56122 75.540969 116.54102 75.480469 C 116.52083 75.419879 116.101 75.44815 115.32227 75.5625 L 114.13477 75.738281 L 110.14844 77.558594 C 107.95594 78.560514 105.94022 79.481489 105.66797 79.605469 L 105.17188 79.832031 L 105.9375 79.994141 C 106.61886 80.138241 107.2401 80.156156 111.62891 80.160156 C 115.73786 80.163596 116.55664 80.143606 116.55664 80.041016 C 116.55664 79.937416 118.53045 79.924236 129.08984 79.960938 C 143.67547 80.011677 142.02734 79.8644 142.02734 81.125 L 142.02734 81.873047 L 145.53711 81.873047 L 149.04688 81.873047 L 149.04688 80.703125 L 149.04688 79.533203 L 152.24219 79.533203 L 155.4375 79.533203 L 155.4375 80.703125 L 155.4375 81.873047 L 158.0918 81.873047 L 160.74805 81.873047 L 160.74805 80.703125 L 160.74805 79.533203 L 163.94141 79.533203 L 167.13672 79.533203 L 167.13672 82.458984 L 167.13672 85.382812 L 163.94141 85.382812 L 160.74805 85.382812 L 160.74805 84.212891 L 160.74805 83.042969 L 158.0918 83.042969 L 155.4375 83.042969 L 155.4375 84.212891 L 155.4375 85.382812 L 152.24219 85.382812 L 149.04688 85.382812 L 149.04688 84.212891 L 149.04688 83.042969 L 145.14844 83.042969 L 141.24805 83.042969 L 141.05273 82.835938 C 140.88474 82.657167 140.85742 82.523508 140.85742 81.892578 L 140.85742 81.15625 L 123.82422 81.164062 L 106.79297 81.171875 L 104.40625 80.703125 C 103.0945 80.445445 99.996486 79.812682 97.521484 79.294922 L 93.021484 78.353516 L 82.199219 78.298828 L 71.376953 78.246094 L 71.376953 86.298828 L 71.376953 94.351562 L 71.167969 94.546875 C 70.965484 94.737565 70.896765 94.742188 68.693359 94.742188 L 66.427734 94.742188 L 66.427734 95.957031 L 66.427734 95.958984 L 66.427734 97.173828 L 63.142578 97.173828 L 59.857422 97.173828 L 59.857422 96.003906 L 59.857422 94.833984 L 57.126953 94.833984 L 54.398438 94.833984 L 54.203125 94.625 L 54.007812 94.416016 L 54.007812 86.705078 L 54.007812 78.994141 L 50.279297 78.994141 L 46.550781 78.994141 L 46.333984 79.466797 C 46.023212 80.142817 45.707938 80.475314 45.080078 80.789062 L 44.529297 81.0625 L 41.220703 81.0625 L 37.912109 81.0625 L 37.345703 80.769531 C 36.739002 80.455461 36.187265 79.844383 36.037109 79.320312 L 35.955078 79.039062 L 34.341797 79.013672 C 32.832944 78.990612 32.716119 78.975932 32.523438 78.794922 L 32.316406 78.601562 L 32.316406 59.853516 L 32.316406 41.103516 L 27.367188 41.103516 L 22.417969 41.103516 L 22.417969 42.408203 L 22.417969 43.712891 L 19.492188 43.712891 L 16.566406 43.712891 L 16.566406 40.517578 L 16.566406 37.324219 z M 62.017578 66.662109 L 64.941406 66.662109 L 67.867188 66.662109 L 67.867188 69.857422 L 67.867188 73.052734 L 65.796875 73.052734 L 63.726562 73.052734 L 63.726562 77.148438 L 63.726562 81.242188 L 65.078125 81.242188 L 66.427734 81.242188 L 66.427734 84.167969 L 66.427734 87.09375 L 63.142578 87.09375 L 59.857422 87.09375 L 59.857422 84.167969 L 59.857422 81.242188 L 61.207031 81.242188 L 62.556641 81.242188 L 62.556641 77.148438 L 62.556641 73.052734 L 62.287109 73.052734 L 62.017578 73.052734 L 62.017578 69.857422 L 62.017578 66.662109 z M 41.169922 67.671875 C 40.874827 67.688594 40.5783 67.784634 40.308594 67.974609 C 39.198862 68.756269 39.303154 70.316828 40.507812 70.960938 C 41.657883 71.575857 43.106991 70.607439 43.003906 69.292969 C 42.925204 68.289409 42.055207 67.621718 41.169922 67.671875 z M 41.169922 76.671875 C 40.874827 76.688594 40.5783 76.784634 40.308594 76.974609 C 39.198862 77.756269 39.303154 79.316828 40.507812 79.960938 C 41.657883 80.575857 43.106991 79.607439 43.003906 78.292969 C 42.925204 77.289409 42.055207 76.621718 41.169922 76.671875 z M 89.78125 79.892578 L 92.527344 79.892578 L 92.527344 80.568359 L 92.527344 81.242188 L 84.427734 81.242188 L 76.326172 81.242188 L 76.326172 91.623047 L 76.326172 102.00195 L 76.119141 102.19727 L 75.910156 102.39258 L 60.324219 102.39258 L 44.736328 102.39258 L 44.736328 106.98242 L 44.736328 111.57227 L 41.181641 111.57227 L 37.626953 111.57227 L 37.626953 106.98242 L 37.626953 102.39258 L 28.447266 102.39258 L 19.267578 102.39258 L 19.267578 103.42773 L 19.267578 104.46289 L 17.242188 104.46289 L 15.216797 104.46289 L 15.216797 101.17773 L 15.216797 97.892578 L 17.242188 97.892578 L 19.267578 97.892578 L 19.267578 99.558594 L 19.267578 101.22266 L 28.447266 101.22266 L 37.626953 101.22266 L 37.626953 96.632812 L 37.626953 92.042969 L 41.181641 92.042969 L 44.736328 92.042969 L 44.736328 96.632812 L 44.736328 101.22266 L 59.947266 101.22266 L 75.15625 101.22266 L 75.15625 90.828125 C 75.15625 80.553125 75.15997 80.429873 75.337891 80.251953 C 75.514138 80.075953 75.637341 80.072266 81.277344 80.072266 C 85.057344 80.072266 87.037109 80.041522 87.037109 79.982422 C 87.037109 79.924422 88.011247 79.892578 89.78125 79.892578 z M 88.882812 82.59375 L 90.726562 82.59375 L 90.726562 83.357422 L 90.726562 84.123047 L 88.882812 84.123047 C 87.712812 84.123047 87.037109 84.090303 87.037109 84.033203 C 87.037109 83.974703 85.792425 83.943359 83.482422 83.943359 L 79.927734 83.943359 L 79.927734 109.80273 L 79.927734 135.66211 L 79.71875 135.85742 L 79.509766 136.05273 L 62.123047 136.05273 L 44.736328 136.05273 L 44.736328 140.64258 L 44.736328 145.23242 L 41.181641 145.23242 L 37.626953 145.23242 L 37.626953 140.64258 L 37.626953 136.05273 L 28.626953 136.05273 L 19.626953 136.05273 L 19.626953 137.40234 L 19.626953 138.75195 L 17.601562 138.75195 L 15.578125 138.75195 L 15.578125 135.46875 L 15.578125 132.18359 L 17.601562 132.18359 L 19.626953 132.18359 L 19.626953 133.5332 L 19.626953 134.88281 L 28.626953 134.88281 L 37.626953 134.88281 L 37.626953 130.29297 L 37.626953 125.70312 L 41.181641 125.70312 L 44.736328 125.70312 L 44.736328 130.29297 L 44.736328 134.88281 L 61.748047 134.88281 L 78.757812 134.88281 L 78.757812 109.00781 C 78.757812 83.252817 78.758337 83.132285 78.9375 82.953125 C 79.112046 82.778125 79.236169 82.773438 83.076172 82.773438 C 85.656175 82.773438 87.037109 82.742194 87.037109 82.683594 C 87.037109 82.626494 87.712814 82.59375 88.882812 82.59375 z M 118.35742 82.59375 L 120.20312 82.59375 C 121.37311 82.59375 122.04686 82.626494 122.04688 82.683594 C 122.04688 82.741094 122.82187 82.773438 124.19141 82.773438 C 126.31646 82.773438 126.33732 82.774039 126.53125 82.980469 C 126.72593 83.187199 126.72656 83.217161 126.72656 86.806641 L 126.72656 90.421875 L 128.52734 90.421875 L 130.32617 90.421875 L 130.32617 89.117188 L 130.32617 87.8125 L 133.25195 87.8125 L 136.17773 87.8125 L 136.17773 91.007812 L 136.17773 94.203125 L 133.25195 94.203125 L 130.32617 94.203125 L 130.32617 92.898438 L 130.32617 91.59375 L 128.52734 91.59375 L 126.72656 91.59375 L 126.72656 94.832031 L 126.72656 98.072266 L 143.63086 98.072266 L 160.53516 98.072266 L 160.73242 98.28125 L 160.92773 98.490234 L 160.92773 109.89062 C 160.92773 120.68937 160.93481 121.2929 161.08398 121.29297 C 161.40885 121.29312 162.33805 121.82771 162.74609 122.25 C 162.97876 122.49079 163.28134 122.93152 163.41992 123.22852 L 163.67188 123.76758 L 163.67188 127.9082 L 163.67188 132.04688 L 163.41797 132.59766 C 163.0984 133.28912 162.39782 133.98848 161.71289 134.30078 C 161.13397 134.56474 160.1324 134.66742 159.55469 134.52148 C 158.60432 134.2814 157.69631 133.51513 157.26367 132.58789 L 157.01172 132.04688 L 157.01172 127.9082 L 157.01172 123.76758 L 157.29102 123.18359 C 157.44421 122.86184 157.74678 122.41896 157.96484 122.20117 C 158.35421 121.81229 159.28964 121.29297 159.59961 121.29297 C 159.74911 121.2929 159.75781 120.70755 159.75781 110.26758 L 159.75781 99.242188 L 142.85352 99.242188 L 125.94922 99.242188 L 125.75195 99.035156 L 125.55664 98.826172 L 125.55664 91.384766 L 125.55664 83.943359 L 123.80273 83.943359 C 122.69274 83.943359 122.04688 83.976303 122.04688 84.033203 C 122.04685 84.090303 121.37311 84.123047 120.20312 84.123047 L 118.35742 84.123047 L 118.35742 83.357422 L 118.35742 82.59375 z M 96.798828 85.472656 L 97.431641 85.472656 L 98.066406 85.472656 L 98.03125 103.38281 C 98.001591 118.49254 98.015263 121.29291 98.119141 121.29297 C 98.413837 121.29314 99.357882 121.84823 99.746094 122.25 C 99.978774 122.49079 100.28135 122.93152 100.41992 123.22852 L 100.67188 123.76758 L 100.67188 127.9082 L 100.67188 132.04688 L 100.41797 132.59766 C 100.09841 133.28912 99.397818 133.98848 98.712891 134.30078 C 98.133966 134.56474 97.132395 134.66742 96.554688 134.52148 C 95.604315 134.2814 94.696311 133.51513 94.263672 132.58789 L 94.011719 132.04688 L 94.011719 127.9082 L 94.011719 123.76758 L 94.291016 123.18359 C 94.444205 122.86184 94.746783 122.41896 94.964844 122.20117 C 95.383425 121.78312 96.295539 121.29297 96.654297 121.29297 L 96.869141 121.29297 L 96.833984 103.38281 L 96.798828 85.472656 z M 99.673828 85.472656 L 100.3125 85.472656 L 100.95117 85.472656 L 100.91211 101.22266 L 100.87305 116.97266 L 103.48047 116.97266 L 106.08594 116.97266 L 106.28125 117.18164 C 106.46894 117.38188 106.47656 117.46216 106.47656 119.2832 L 106.47656 121.17773 L 106.9668 121.27734 C 108.02544 121.48995 108.95276 122.22728 109.41992 123.22852 L 109.67188 123.76758 L 109.67188 127.9082 L 109.67188 132.04688 L 109.41797 132.59766 C 109.09841 133.28912 108.39781 133.98848 107.71289 134.30078 C 107.13396 134.56474 106.1324 134.66742 105.55469 134.52148 C 104.60431 134.2814 103.69631 133.51513 103.26367 132.58789 L 103.01172 132.04688 L 103.01172 127.9082 L 103.01172 123.76758 L 103.28906 123.18359 C 103.61907 122.48861 104.23044 121.85721 104.85547 121.56445 L 105.30664 121.35156 L 105.30664 119.74805 L 105.30664 118.14258 L 102.71289 118.14258 C 100.13771 118.14258 100.11658 118.14046 99.931641 117.93945 L 99.746094 117.73828 L 99.708984 101.60547 L 99.673828 85.472656 z M 102.45898 85.472656 L 103.10352 85.472656 L 103.74609 85.472656 L 103.70508 99.648438 L 103.66211 113.82227 L 109.59961 113.82227 L 115.53516 113.82227 L 115.73242 114.03125 C 115.92611 114.2378 115.92773 114.26855 115.92773 117.76562 C 115.92773 121.06437 115.93665 121.29291 116.08398 121.29297 C 116.40884 121.29312 117.33805 121.82771 117.74609 122.25 C 117.97877 122.49079 118.28135 122.93152 118.41992 123.22852 L 118.67188 123.76758 L 118.67188 127.9082 L 118.67188 132.04688 L 118.41797 132.59766 C 118.09841 133.28912 117.39781 133.98848 116.71289 134.30078 C 116.13396 134.56474 115.1324 134.66742 114.55469 134.52148 C 113.60431 134.2814 112.69631 133.51513 112.26367 132.58789 L 112.01172 132.04688 L 112.01172 127.9082 L 112.01172 123.76758 L 112.29102 123.18359 C 112.44421 122.86184 112.74678 122.41896 112.96484 122.20117 C 113.35421 121.81229 114.28964 121.29297 114.59961 121.29297 C 114.74661 121.29291 114.75781 121.08256 114.75781 118.14258 L 114.75781 114.99219 L 108.83203 114.99219 L 102.9082 114.99219 L 102.72266 114.79102 C 102.53682 114.58853 102.53715 114.58839 102.49805 100.03125 L 102.45898 85.472656 z M 105.33203 85.472656 L 105.98242 85.472656 L 106.63281 85.472656 L 106.58594 98.072266 L 106.54102 110.67188 L 115.53906 110.67188 L 124.53516 110.67188 L 124.73242 110.88086 L 124.92773 111.08984 L 124.92773 116.19141 C 124.92773 120.99014 124.93584 121.2929 125.08398 121.29297 C 125.40885 121.29312 126.33805 121.82771 126.74609 122.25 C 126.97877 122.49079 127.28135 122.93152 127.41992 123.22852 L 127.67188 123.76758 L 127.67188 127.9082 L 127.67188 132.04688 L 127.41797 132.59766 C 127.0984 133.28912 126.39782 133.98848 125.71289 134.30078 C 125.13397 134.56474 124.1324 134.66742 123.55469 134.52148 C 122.60431 134.2814 121.69631 133.51513 121.26367 132.58789 L 121.01172 132.04688 L 121.01172 127.9082 L 121.01172 123.76758 L 121.29102 123.18359 C 121.44421 122.86184 121.74678 122.41896 121.96484 122.20117 C 122.35421 121.81229 123.28965 121.29297 123.59961 121.29297 C 123.74711 121.2929 123.75781 121.00833 123.75781 116.56836 L 123.75781 111.84375 L 114.77344 111.84375 L 105.78906 111.84375 L 105.60352 111.64062 C 105.41872 111.43864 105.4174 111.40601 105.375 98.455078 L 105.33203 85.472656 z M 108.11523 85.472656 L 108.77344 85.472656 L 109.42969 85.472656 L 109.37891 96.498047 L 109.33008 107.52344 L 121.43164 107.52344 L 133.53516 107.52344 L 133.73242 107.73047 L 133.92773 107.93945 L 133.92773 114.61523 C 133.92773 120.91396 133.9354 121.2929 134.08398 121.29297 C 134.40885 121.29312 135.33805 121.82771 135.74609 122.25 C 135.97877 122.49079 136.28135 122.93152 136.41992 123.22852 L 136.67188 123.76758 L 136.67188 127.9082 L 136.67188 132.04688 L 136.41797 132.59766 C 136.0984 133.28912 135.39782 133.98848 134.71289 134.30078 C 134.13397 134.56474 133.1324 134.66742 132.55469 134.52148 C 131.60431 134.2814 130.69631 133.51513 130.26367 132.58789 L 130.01172 132.04688 L 130.01172 127.9082 L 130.01172 123.76758 L 130.29102 123.18359 C 130.44421 122.86184 130.74678 122.41896 130.96484 122.20117 C 131.35421 121.81229 132.28965 121.29297 132.59961 121.29297 C 132.74811 121.2929 132.75781 120.93216 132.75781 114.99219 L 132.75781 108.69336 L 120.66797 108.69336 L 108.57812 108.69336 L 108.39453 108.49023 C 108.21078 108.28881 108.20841 108.22771 108.16211 96.880859 L 108.11523 85.472656 z M 110.97656 85.472656 L 111.65234 85.472656 L 112.32812 85.472656 L 112.32812 94.921875 L 112.32812 104.37305 L 127.20703 104.37305 L 142.08594 104.37305 L 142.28125 104.58203 L 142.47656 104.78906 L 142.47656 112.98438 L 142.47656 121.17773 L 142.9668 121.27734 C 144.02544 121.48995 144.95276 122.22728 145.41992 123.22852 L 145.67188 123.76758 L 145.67188 127.9082 L 145.67188 132.04688 L 145.41797 132.59766 C 145.0984 133.28912 144.39782 133.98848 143.71289 134.30078 C 143.13397 134.56474 142.1324 134.66742 141.55469 134.52148 C 140.60432 134.2814 139.69631 133.51513 139.26367 132.58789 L 139.01172 132.04688 L 139.01172 127.9082 L 139.01172 123.76758 L 139.28906 123.18359 C 139.61907 122.48861 140.23044 121.85721 140.85547 121.56445 L 141.30664 121.35156 L 141.30664 113.44727 L 141.30664 105.54297 L 126.42773 105.54297 L 111.54883 105.54297 L 111.35352 105.33398 L 111.15625 105.12695 L 111.15625 98.044922 C 111.15625 93.383792 111.12561 90.962891 111.06641 90.962891 C 111.00841 90.962891 110.97656 89.98875 110.97656 88.21875 L 110.97656 85.472656 z M 93.876953 87.273438 L 94.642578 87.273438 L 95.40625 87.273438 L 95.40625 89.117188 C 95.40625 90.287188 95.373476 90.962891 95.316406 90.962891 C 95.256936 90.962891 95.226562 94.437493 95.226562 101.20703 L 95.226562 111.45117 L 95.019531 111.64648 C 94.814439 111.83917 94.765593 111.84375 91.869141 111.84375 L 88.927734 111.84375 L 88.927734 116.56836 C 88.927734 121.00833 88.935988 121.2929 89.083984 121.29297 C 89.408848 121.29312 90.338052 121.82771 90.746094 122.25 C 90.97877 122.49079 91.281349 122.93152 91.419922 123.22852 L 91.671875 123.76758 L 91.671875 127.9082 L 91.671875 132.04688 L 91.417969 132.59766 C 91.098406 133.28912 90.397818 133.98848 89.712891 134.30078 C 89.133966 134.56474 88.132395 134.66742 87.554688 134.52148 C 86.604315 134.2814 85.696311 133.51513 85.263672 132.58789 L 85.011719 132.04688 L 85.011719 127.9082 L 85.011719 123.76758 L 85.291016 123.18359 C 85.444205 122.86184 85.746783 122.41896 85.964844 122.20117 C 86.354211 121.81229 87.28964 121.29297 87.599609 121.29297 C 87.747809 121.2929 87.757814 120.98779 87.757812 116.16211 C 87.757813 111.15211 87.761712 111.02931 87.9375 110.85352 C 88.110228 110.68052 88.237889 110.67186 91.087891 110.67188 L 94.056641 110.67188 L 94.056641 100.81836 C 94.056641 94.308357 94.026247 90.962891 93.966797 90.962891 C 93.909727 90.962891 93.876953 90.287185 93.876953 89.117188 L 93.876953 87.273438 z M 113.67773 87.273438 L 114.44141 87.273438 L 115.20703 87.273438 L 115.20703 89.117188 C 115.20703 90.287188 115.17429 90.962891 115.11719 90.962891 C 115.05829 90.962891 115.02734 92.73375 115.02734 96.09375 L 115.02734 101.22266 L 133.28125 101.22266 L 151.53516 101.22266 L 151.73242 101.43164 L 151.92773 101.63867 L 151.92773 111.4668 C 151.92773 120.76552 151.93494 121.2929 152.08398 121.29297 C 152.40885 121.29312 153.33805 121.82771 153.74609 122.25 C 153.97877 122.49079 154.28135 122.93152 154.41992 123.22852 L 154.67188 123.76758 L 154.67188 127.9082 L 154.67188 132.04688 L 154.41797 132.59766 C 154.0984 133.28912 153.39782 133.98848 152.71289 134.30078 C 152.13397 134.56474 151.1324 134.66742 150.55469 134.52148 C 149.60432 134.2814 148.69631 133.51513 148.26367 132.58789 L 148.01172 132.04688 L 148.01172 127.9082 L 148.01172 123.76758 L 148.29102 123.18359 C 148.44421 122.86184 148.74678 122.41896 148.96484 122.20117 C 149.35421 121.81229 150.28964 121.29297 150.59961 121.29297 C 150.74911 121.2929 150.75781 120.78372 150.75781 111.84375 L 150.75781 102.39258 L 132.50195 102.39258 L 114.24805 102.39258 L 114.05273 102.18359 L 113.85742 101.97656 L 113.85742 96.46875 C 113.85742 92.85762 113.82658 90.962891 113.76758 90.962891 C 113.71048 90.962891 113.67773 90.287185 113.67773 89.117188 L 113.67773 87.273438 z M 140.40625 87.8125 L 143.33203 87.8125 L 146.25781 87.8125 L 146.25781 89.117188 L 146.25781 90.421875 L 157.89648 90.421875 L 169.53516 90.421875 L 169.73242 90.630859 L 169.92773 90.839844 L 169.92773 117.79492 L 169.92773 144.75195 L 169.71875 144.94727 L 169.50977 145.14258 L 164.13867 145.14258 L 158.76758 145.14258 L 158.76758 146.44727 L 158.76758 147.75195 L 155.8418 147.75195 L 152.91797 147.75195 L 152.91797 144.55859 L 152.91797 141.36328 L 155.8418 141.36328 L 158.76758 141.36328 L 158.76758 142.66797 L 158.76758 143.97266 L 163.76172 143.97266 L 168.75781 143.97266 L 168.75781 117.7832 L 168.75781 91.59375 L 157.50781 91.59375 L 146.25781 91.59375 L 146.25781 92.898438 L 146.25781 94.203125 L 143.33203 94.203125 L 140.40625 94.203125 L 140.40625 91.007812 L 140.40625 87.8125 z M 88.240234 126.17188 C 87.945139 126.18859 87.648614 126.28463 87.378906 126.47461 C 86.269179 127.25628 86.371513 128.81683 87.576172 129.46094 C 88.726246 130.07586 90.177305 129.10746 90.074219 127.79297 C 89.995514 126.78942 89.12552 126.12172 88.240234 126.17188 z M 97.240234 126.17188 C 96.945139 126.18859 96.648614 126.28463 96.378906 126.47461 C 95.269179 127.25628 95.371513 128.81683 96.576172 129.46094 C 97.726246 130.07586 99.177305 129.10746 99.074219 127.79297 C 98.995514 126.78942 98.12552 126.12172 97.240234 126.17188 z M 106.24023 126.17188 C 105.94514 126.18859 105.64861 126.28463 105.37891 126.47461 C 104.26918 127.25628 104.37347 128.81683 105.57812 129.46094 C 106.72819 130.07586 108.17731 129.10746 108.07422 127.79297 C 107.99551 126.78942 107.12552 126.12172 106.24023 126.17188 z M 115.24023 126.17188 C 114.94514 126.18859 114.64861 126.28463 114.37891 126.47461 C 113.26918 127.25628 113.37347 128.81683 114.57812 129.46094 C 115.72819 130.07586 117.17731 129.10746 117.07422 127.79297 C 116.99551 126.78942 116.12552 126.12172 115.24023 126.17188 z M 124.24023 126.17188 C 123.94514 126.18859 123.64861 126.28463 123.37891 126.47461 C 122.26918 127.25628 122.37152 128.81683 123.57617 129.46094 C 124.72625 130.07586 126.17731 129.10746 126.07422 127.79297 C 125.99551 126.78942 125.12552 126.12172 124.24023 126.17188 z M 133.24023 126.17188 C 132.94514 126.18859 132.64861 126.28463 132.37891 126.47461 C 131.26918 127.25628 131.37152 128.81683 132.57617 129.46094 C 133.72625 130.07586 135.17731 129.10746 135.07422 127.79297 C 134.99551 126.78942 134.12552 126.12172 133.24023 126.17188 z M 142.24023 126.17188 C 141.94514 126.18859 141.64861 126.28463 141.37891 126.47461 C 140.26918 127.25628 140.37151 128.81683 141.57617 129.46094 C 142.72625 130.07586 144.17731 129.10746 144.07422 127.79297 C 143.99551 126.78942 143.12552 126.12172 142.24023 126.17188 z M 151.24023 126.17188 C 150.94514 126.18859 150.64861 126.28463 150.37891 126.47461 C 149.26918 127.25628 149.37151 128.81683 150.57617 129.46094 C 151.72625 130.07586 153.17731 129.10746 153.07422 127.79297 C 152.99551 126.78942 152.12552 126.12172 151.24023 126.17188 z M 160.24023 126.17188 C 159.94514 126.18859 159.64861 126.28463 159.37891 126.47461 C 158.26918 127.25628 158.37151 128.81683 159.57617 129.46094 C 160.72625 130.07586 162.17731 129.10746 162.07422 127.79297 C 161.99551 126.78942 161.12552 126.12172 160.24023 126.17188 z "
       transform="translate(0,804.33071)"
       id="path3433" />
    <flowRoot
       xml:space="preserve"
       id="flowRoot4706-6-1"
       style="font-style:normal;font-variant:normal;font-weight:normal;font-stretch:normal;font-size:40px;line-height:125%;font-family:Purisa;-inkscape-font-specification:'Purisa, Normal';text-align:start;letter-spacing:0px;word-spacing:0px;writing-mode:lr-tb;text-anchor:start;fill:#000000;fill-opacity:1;stroke:none;stroke-width:1px;stroke-linecap:butt;stroke-linejoin:miter;stroke-opacity:1"
       transform="translate(280.00718,565.74104)"><flowRegion
         id="flowRegion4708-3-2"><rect
           id="rect4710-7-4"
           width="184.85791"
           height="101.01526"
           x="163.64471"
           y="-84.572792"
           style="font-style:normal;font-variant:normal;font-weight:normal;font-stretch:normal;font-size:40px;line-height:125%;font-family:Purisa;-inkscape-font-specification:'Purisa, Normal';text-align:start;writing-mode:lr-tb;text-anchor:start" /></flowRegion><flowPara
         id="flowPara4742-4"
         style="font-style:normal;font-variant:normal;font-weight:normal;font-stretch:normal;font-size:43.33374786px;line-height:89.99999762%;font-family:monospace;-inkscape-font-specification:'monospace, Normal';text-align:center;writing-mode:lr-tb;text-anchor:middle" /></flowRoot>    <flowRoot
       xml:space="preserve"
       id="flowRoot4706-6-1-8"
       style="font-style:normal;font-variant:normal;font-weight:normal;font-stretch:normal;font-size:40px;line-height:125%;font-family:Purisa;-inkscape-font-specification:'Purisa, Normal';text-align:start;letter-spacing:0px;word-spacing:0px;writing-mode:lr-tb;text-anchor:start;fill:#000000;fill-opacity:1;stroke:none;stroke-width:1px;stroke-linecap:butt;stroke-linejoin:miter;stroke-opacity:1"
       transform="translate(191.41694,457.15315)"><flowRegion
         id="flowRegion4708-3-2-0"><rect
           id="rect4710-7-4-9"
           width="184.85791"
           height="101.01526"
           x="163.64471"
           y="-84.572792"
           style="font-style:normal;font-variant:normal;font-weight:normal;font-stretch:normal;font-size:40px;line-height:125%;font-family:Purisa;-inkscape-font-specification:'Purisa, Normal';text-align:start;writing-mode:lr-tb;text-anchor:start" /></flowRegion><flowPara
         id="flowPara4742-4-5"
         style="font-style:normal;font-variant:normal;font-weight:normal;font-stretch:normal;font-size:43.33374786px;line-height:89.99999762%;font-family:monospace;-inkscape-font-specification:'monospace, Normal';text-align:center;writing-mode:lr-tb;text-anchor:middle" /></flowRoot>    <text
       xml:space="preserve"
       style="font-style:normal;font-weight:normal;font-size:40px;line-height:125%;font-family:sans-serif;letter-spacing:0px;word-spacing:0px;fill:#000000;fill-opacity:1;stroke:none;stroke-width:1px;stroke-linecap:butt;stroke-linejoin:miter;stroke-opacity:1"
       x="117.28183"
       y="530.58679"
       id="text4243"
       sodipodi:linespacing="125%"><tspan
         sodipodi:role="line"
         id="tspan4245"
         x="117.28183"
         y="530.58679" /></text>
    <rect
       style="fill:#ffffff;fill-opacity:1;stroke:none;stroke-width:0.35433072;stroke-miterlimit:4;stroke-dasharray:none;stroke-opacity:1"
       id="rect4835"
       width="0"
       height="123.11785"
       x="463.22394"
       y="588.73596" />
    <rect
       style="fill:none;fill-rule:evenodd;stroke:#0000ff;stroke-width:0.97990185px;stroke-linecap:butt;stroke-linejoin:miter;stroke-opacity:1"
       id="rect3892"
       width="171.50992"
       height="148.94865"
       x="2.3779123"
       y="808.25031" />
    <text
       xml:space="preserve"
       style="font-style:normal;font-variant:normal;font-weight:normal;font-stretch:normal;font-size:6.96545219px;line-height:125%;font-family:monospace;-inkscape-font-specification:'monospace, Normal';text-align:start;letter-spacing:0px;word-spacing:0px;writing-mode:lr-tb;text-anchor:start;fill:#ffffff;fill-opacity:1;stroke:none;stroke-width:1px;stroke-linecap:butt;stroke-linejoin:miter;stroke-opacity:1"
       x="810.12372"
       y="-164.82018"
       id="text4247-0-8-5"
       sodipodi:linespacing="125%"
       transform="matrix(0,1.0063425,-0.99369747,0,0,0)"><tspan
         sodipodi:role="line"
         id="tspan4249-2-0-1"
         x="810.12372"
         y="-164.82018">satshakit</tspan></text>
    <ellipse
       style="fill:none;fill-opacity:1;stroke:#ff0000;stroke-width:0.37027922;stroke-miterlimit:4;stroke-dasharray:none;stroke-opacity:1"
       id="path4232-2-0-4-46-0"
       cx="28.861174"
       cy="823.72906"
       rx="0.82470292"
       ry="0.85769105" />
    <ellipse
       style="fill:none;fill-opacity:1;stroke:#ff0000;stroke-width:0.37027922;stroke-miterlimit:4;stroke-dasharray:none;stroke-opacity:1"
       id="path4232-2-0-4-46-04"
       cx="38.861172"
       cy="823.79608"
       rx="0.82470292"
       ry="0.85769105" />
    <ellipse
       style="fill:none;fill-opacity:1;stroke:#ff0000;stroke-width:0.37027922;stroke-miterlimit:4;stroke-dasharray:none;stroke-opacity:1"
       id="path4232-2-0-4-46-1"
       cx="47.923676"
       cy="823.81836"
       rx="0.82470292"
       ry="0.85769105" />
    <ellipse
       style="fill:none;fill-opacity:1;stroke:#ff0000;stroke-width:0.37027922;stroke-miterlimit:4;stroke-dasharray:none;stroke-opacity:1"
       id="path4232-2-0-4-46-9"
       cx="56.941532"
       cy="823.77374"
       rx="0.82470292"
       ry="0.85769105" />
    <ellipse
       style="fill:none;fill-opacity:1;stroke:#ff0000;stroke-width:0.37027922;stroke-miterlimit:4;stroke-dasharray:none;stroke-opacity:1"
       id="path4232-2-0-4-46-6"
       cx="65.847778"
       cy="823.77374"
       rx="0.82470292"
       ry="0.85769105" />
    <ellipse
       style="fill:none;fill-opacity:1;stroke:#ff0000;stroke-width:0.37027922;stroke-miterlimit:4;stroke-dasharray:none;stroke-opacity:1"
       id="path4232-2-0-4-46-05"
       cx="74.865639"
       cy="823.77374"
       rx="0.82470292"
       ry="0.85769105" />
    <ellipse
       style="fill:none;fill-opacity:1;stroke:#ff0000;stroke-width:0.37027922;stroke-miterlimit:4;stroke-dasharray:none;stroke-opacity:1"
       id="path4232-2-0-4-46-2"
       cx="83.861176"
       cy="823.77368"
       rx="0.82470292"
       ry="0.85769105" />
    <ellipse
       style="fill:none;fill-opacity:1;stroke:#ff0000;stroke-width:0.37027922;stroke-miterlimit:4;stroke-dasharray:none;stroke-opacity:1"
       id="path4232-2-0-4-46-91"
       cx="92.879028"
       cy="823.72906"
       rx="0.82470292"
       ry="0.85769105" />
    <ellipse
       style="fill:none;fill-opacity:1;stroke:#ff0000;stroke-width:0.37027922;stroke-miterlimit:4;stroke-dasharray:none;stroke-opacity:1"
       id="path4232-2-0-4-46-07"
       cx="101.89689"
       cy="823.7514"
       rx="0.82470292"
       ry="0.85769105" />
    <ellipse
       style="fill:none;fill-opacity:1;stroke:#ff0000;stroke-width:0.37027922;stroke-miterlimit:4;stroke-dasharray:none;stroke-opacity:1"
       id="path4232-2-0-4-46-01"
       cx="110.89243"
       cy="823.7514"
       rx="0.82470292"
       ry="0.85769105" />
    <ellipse
       style="fill:none;fill-opacity:1;stroke:#ff0000;stroke-width:0.37027922;stroke-miterlimit:4;stroke-dasharray:none;stroke-opacity:1"
       id="path4232-2-0-4-46-5"
       cx="119.86564"
       cy="823.79602"
       rx="0.82470292"
       ry="0.85769105" />
    <ellipse
       style="fill:none;fill-opacity:1;stroke:#ff0000;stroke-width:0.37027922;stroke-miterlimit:4;stroke-dasharray:none;stroke-opacity:1"
       id="path4232-2-0-4-46-69"
       cx="128.86119"
       cy="823.7514"
       rx="0.82470292"
       ry="0.85769105" />
    <ellipse
       style="fill:none;fill-opacity:1;stroke:#ff0000;stroke-width:0.37027922;stroke-miterlimit:4;stroke-dasharray:none;stroke-opacity:1"
       id="path4232-2-0-4-46-3"
       cx="137.90137"
       cy="823.81836"
       rx="0.82470292"
       ry="0.85769105" />
    <ellipse
       style="fill:none;fill-opacity:1;stroke:#ff0000;stroke-width:0.37027922;stroke-miterlimit:4;stroke-dasharray:none;stroke-opacity:1"
       id="path4232-2-0-4-46-18"
       cx="146.8969"
       cy="823.79602"
       rx="0.82470292"
       ry="0.85769105" />
    <ellipse
       style="fill:none;fill-opacity:1;stroke:#ff0000;stroke-width:0.37027922;stroke-miterlimit:4;stroke-dasharray:none;stroke-opacity:1"
       id="path4232-2-0-4-46-8"
       cx="155.89244"
       cy="823.72906"
       rx="0.82470292"
       ry="0.85769105" />
    <ellipse
       style="fill:none;fill-opacity:1;stroke:#ff0000;stroke-width:0.37027922;stroke-miterlimit:4;stroke-dasharray:none;stroke-opacity:1"
       id="path4232-2-0-4-46-68"
       cx="88.372566"
       cy="932.21716"
       rx="0.82470292"
       ry="0.85769105" />
    <ellipse
       style="fill:none;fill-opacity:1;stroke:#ff0000;stroke-width:0.37027922;stroke-miterlimit:4;stroke-dasharray:none;stroke-opacity:1"
       id="path4232-2-0-4-46-7"
       cx="97.337669"
       cy="932.26453"
       rx="0.82470292"
       ry="0.85769105" />
    <ellipse
       style="fill:none;fill-opacity:1;stroke:#ff0000;stroke-width:0.37027922;stroke-miterlimit:4;stroke-dasharray:none;stroke-opacity:1"
       id="path4232-2-0-4-46-86"
       cx="106.39747"
       cy="932.20142"
       rx="0.82470292"
       ry="0.85769105" />
    <ellipse
       style="fill:none;fill-opacity:1;stroke:#ff0000;stroke-width:0.37027922;stroke-miterlimit:4;stroke-dasharray:none;stroke-opacity:1"
       id="path4232-2-0-4-46-90"
       cx="115.37837"
       cy="932.1698"
       rx="0.82470292"
       ry="0.85769105" />
    <ellipse
       style="fill:none;fill-opacity:1;stroke:#ff0000;stroke-width:0.37027922;stroke-miterlimit:4;stroke-dasharray:none;stroke-opacity:1"
       id="path4232-2-0-4-46-4"
       cx="124.40659"
       cy="932.20142"
       rx="0.82470292"
       ry="0.85769105" />
    <ellipse
       style="fill:none;fill-opacity:1;stroke:#ff0000;stroke-width:0.37027922;stroke-miterlimit:4;stroke-dasharray:none;stroke-opacity:1"
       id="path4232-2-0-4-46-21"
       cx="133.34013"
       cy="932.15405"
       rx="0.82470292"
       ry="0.85769105" />
    <ellipse
       style="fill:none;fill-opacity:1;stroke:#ff0000;stroke-width:0.37027922;stroke-miterlimit:4;stroke-dasharray:none;stroke-opacity:1"
       id="path4232-2-0-4-46-67"
       cx="142.36838"
       cy="932.20142"
       rx="0.82470292"
       ry="0.85769105" />
    <ellipse
       style="fill:none;fill-opacity:1;stroke:#ff0000;stroke-width:0.37027922;stroke-miterlimit:4;stroke-dasharray:none;stroke-opacity:1"
       id="path4232-2-0-4-46-47"
       cx="151.3277"
       cy="932.13306"
       rx="0.82470292"
       ry="0.85769105" />
    <ellipse
       style="fill:none;fill-opacity:1;stroke:#ff0000;stroke-width:0.37027922;stroke-miterlimit:4;stroke-dasharray:none;stroke-opacity:1"
       id="path4232-2-0-4-46-57"
       cx="160.40135"
       cy="932.18884"
       rx="0.82470292"
       ry="0.85769105" />
    <ellipse
       style="fill:none;fill-opacity:1;stroke:#ff0000;stroke-width:0.37027922;stroke-miterlimit:4;stroke-dasharray:none;stroke-opacity:1"
       id="path4232-2-0-4-46-40"
       cx="41.271889"
       cy="873.77368"
       rx="0.82470292"
       ry="0.85769105" />
    <ellipse
       style="fill:none;fill-opacity:1;stroke:#ff0000;stroke-width:0.37027922;stroke-miterlimit:4;stroke-dasharray:none;stroke-opacity:1"
       id="path4232-2-0-4-46-85"
       cx="41.337334"
       cy="882.75128"
       rx="0.82470292"
       ry="0.85769105" />
  </g>
</svg>
