<?xml version="1.0" encoding="UTF-8" standalone="no"?>
<!-- Created with Inkscape (http://www.inkscape.org/) -->

<svg
   xmlns:dc="http://purl.org/dc/elements/1.1/"
   xmlns:cc="http://creativecommons.org/ns#"
   xmlns:rdf="http://www.w3.org/1999/02/22-rdf-syntax-ns#"
   xmlns:svg="http://www.w3.org/2000/svg"
   xmlns="http://www.w3.org/2000/svg"
   xmlns:sodipodi="http://sodipodi.sourceforge.net/DTD/sodipodi-0.dtd"
   xmlns:inkscape="http://www.inkscape.org/namespaces/inkscape"
   width="150mm"
   height="100mm"
   viewBox="0 0 531.49606 354.33071"
   id="svg2"
   version="1.1"
   inkscape:version="0.91 r"
   sodipodi:docname="satshakit.svg">
  <defs
     id="defs4">
    <pattern
       id="EMFhbasepattern"
       patternUnits="userSpaceOnUse"
       width="6"
       height="6"
       x="0"
       y="0" />
  </defs>
  <sodipodi:namedview
     id="base"
     pagecolor="#ffffff"
     bordercolor="#666666"
     borderopacity="1.0"
     inkscape:pageopacity="0.0"
     inkscape:pageshadow="2"
     inkscape:zoom="3.378873"
     inkscape:cx="76.919102"
     inkscape:cy="274.95595"
     inkscape:document-units="px"
     inkscape:current-layer="layer1"
     showgrid="false"
     inkscape:window-width="1366"
     inkscape:window-height="713"
     inkscape:window-x="-2"
     inkscape:window-y="-3"
     inkscape:window-maximized="1"
     inkscape:snap-global="false" />
  <metadata
     id="metadata7">
    <rdf:RDF>
      <cc:Work
         rdf:about="">
        <dc:format>image/svg+xml</dc:format>
        <dc:type
           rdf:resource="http://purl.org/dc/dcmitype/StillImage" />
        <dc:title />
      </cc:Work>
    </rdf:RDF>
  </metadata>
  <g
     inkscape:label="Layer 1"
     inkscape:groupmode="layer"
     id="layer1"
     transform="translate(0,-698.0315)">
    <flowRoot
       xml:space="preserve"
       id="flowRoot4706-6-1"
       style="font-style:normal;font-variant:normal;font-weight:normal;font-stretch:normal;font-size:40px;line-height:125%;font-family:Purisa;-inkscape-font-specification:'Purisa, Normal';text-align:start;letter-spacing:0px;word-spacing:0px;writing-mode:lr-tb;text-anchor:start;fill:#000000;fill-opacity:1;stroke:none;stroke-width:1px;stroke-linecap:butt;stroke-linejoin:miter;stroke-opacity:1"
       transform="translate(371.99831,714.17349)"><flowRegion
         id="flowRegion4708-3-2"><rect
           id="rect4710-7-4"
           width="184.85791"
           height="101.01526"
           x="163.64471"
           y="-84.572792"
           style="font-style:normal;font-variant:normal;font-weight:normal;font-stretch:normal;font-size:40px;line-height:125%;font-family:Purisa;-inkscape-font-specification:'Purisa, Normal';text-align:start;writing-mode:lr-tb;text-anchor:start" /></flowRegion><flowPara
         id="flowPara4742-4"
         style="font-style:normal;font-variant:normal;font-weight:normal;font-stretch:normal;font-size:43.33374786px;line-height:89.99999762%;font-family:monospace;-inkscape-font-specification:'monospace, Normal';text-align:center;writing-mode:lr-tb;text-anchor:middle" /></flowRoot>    <flowRoot
       xml:space="preserve"
       id="flowRoot4706-6-1-8"
       style="font-style:normal;font-variant:normal;font-weight:normal;font-stretch:normal;font-size:40px;line-height:125%;font-family:Purisa;-inkscape-font-specification:'Purisa, Normal';text-align:start;letter-spacing:0px;word-spacing:0px;writing-mode:lr-tb;text-anchor:start;fill:#000000;fill-opacity:1;stroke:none;stroke-width:1px;stroke-linecap:butt;stroke-linejoin:miter;stroke-opacity:1"
       transform="translate(283.40808,605.5856)"><flowRegion
         id="flowRegion4708-3-2-0"><rect
           id="rect4710-7-4-9"
           width="184.85791"
           height="101.01526"
           x="163.64471"
           y="-84.572792"
           style="font-style:normal;font-variant:normal;font-weight:normal;font-stretch:normal;font-size:40px;line-height:125%;font-family:Purisa;-inkscape-font-specification:'Purisa, Normal';text-align:start;writing-mode:lr-tb;text-anchor:start" /></flowRegion><flowPara
         id="flowPara4742-4-5"
         style="font-style:normal;font-variant:normal;font-weight:normal;font-stretch:normal;font-size:43.33374786px;line-height:89.99999762%;font-family:monospace;-inkscape-font-specification:'monospace, Normal';text-align:center;writing-mode:lr-tb;text-anchor:middle" /></flowRoot>    <text
       xml:space="preserve"
       style="font-style:normal;font-weight:normal;font-size:40px;line-height:125%;font-family:sans-serif;letter-spacing:0px;word-spacing:0px;fill:#000000;fill-opacity:1;stroke:none;stroke-width:1px;stroke-linecap:butt;stroke-linejoin:miter;stroke-opacity:1"
       x="209.27296"
       y="679.01923"
       id="text4243"
       sodipodi:linespacing="125%"><tspan
         sodipodi:role="line"
         id="tspan4245"
         x="209.27296"
         y="679.01923" /></text>
    <rect
       style="fill:#ffffff;fill-opacity:1;stroke:none;stroke-width:0.35433072;stroke-miterlimit:4;stroke-dasharray:none;stroke-opacity:1"
       id="rect4835"
       width="0"
       height="123.11785"
       x="555.21509"
       y="737.1684" />
    <path
       style="fill:#000000"
       d="m 2.92786,701.11067 0,150.83984 83.0625,0 91.02344,0 0,-150.83984 -91.02344,0 -83.0625,0 z m 47.07226,5.75976 c 35.24621,2e-4 35.67671,9.9e-4 35.81836,0.0879 0.26352,0.16071 0.26076,0.12985 0.28516,2.19727 l 0.0215,1.90429 0.29493,0.10157 c 0.43789,0.15298 0.70625,0.32697 1.05664,0.67968 0.22198,0.22347 0.36516,0.4185 0.48437,0.66016 0.30649,0.62134 0.30777,0.62722 0.29297,4.08399 l -0.0137,3.08789 -0.12305,0.33593 c -0.28906,0.79363 -0.92355,1.43024 -1.68164,1.68555 l -0.31055,0.10547 -0.0117,5.35937 -0.01,5.36133 9.46094,0 c 9.3046,10e-5 9.46379,9.9e-4 9.60547,0.0879 0.2939,0.17929 0.26895,-0.896 0.29296,13.0625 l 0.0234,12.72461 -0.64648,0 -0.64649,0 0,-2.72265 c 0,-2.39 0.007,-2.72266 0.0664,-2.72266 0.0595,0 0.0684,-1.10235 0.0684,-9.65234 l 0,-9.65235 -9.46094,0 c -9.28896,-2e-4 -9.4647,-0.002 -9.60547,-0.0879 -0.0789,-0.0481 -0.16867,-0.1344 -0.20117,-0.1914 -0.0476,-0.0835 -0.0639,-1.21584 -0.082,-5.83204 l -0.0234,-5.72851 -0.29297,-0.10156 c -0.43792,-0.15303 -0.70627,-0.327 -1.05664,-0.67969 -0.36526,-0.36769 -0.61748,-0.8253 -0.7207,-1.3125 -0.0965,-0.45564 -0.0965,-6.10296 0,-6.5586 0.10322,-0.4872 0.35544,-0.94481 0.7207,-1.3125 0.35038,-0.3527 0.61874,-0.52668 1.05664,-0.67968 l 0.29297,-0.10157 0.0117,-1.5332 0.0117,-1.53125 -34.98828,0 -34.98633,0 0,13.14063 0,13.13867 0.92188,0 0.92187,0 0,3.21875 0,3.2168 -0.92187,0 -0.92188,0 0,6.30078 0,6.29882 0.13477,0 0.13476,0 0,4.07227 0,4.07422 -1.08008,0 -1.08007,0 0,7.62695 0,7.62696 1.08007,0 1.08008,0 0,4.07226 0,4.07227 -2.72265,0 -2.72266,0 0,-4.07227 0,-4.07226 1.08008,0 1.08008,0 0,-7.62696 0,-7.62695 -1.08008,0 -1.08008,0 0,-4.07422 0,-4.07227 2.02539,0 2.02539,0 0,-6.29882 0,-6.30078 -1.37305,0 -1.37304,0 0,-3.2168 0,-3.21875 1.37304,0 1.37305,0 0,-13.48828 c 2e-4,-13.29893 9.9e-4,-13.49078 0.0879,-13.63282 0.0483,-0.0792 0.14856,-0.17459 0.22266,-0.21289 0.12133,-0.0625 3.68926,-0.0705 35.81054,-0.0703 z m -9.45898,4.14063 c 1.26474,0 2.40037,0.9236 2.6582,2.16015 0.0577,0.27586 0.0659,0.7981 0.0547,3.41407 l -0.0137,3.08789 -0.12109,0.33203 c -0.29049,0.79684 -0.92418,1.435 -1.67969,1.68945 l -0.31446,0.10547 -0.0117,4.00976 -0.01,4.00977 5.86133,0.002 c 5.73413,2e-4 5.86296,0.002 6.0039,0.0879 0.30713,0.1873 0.28516,-0.63523 0.28516,9.80859 l 0,9.45313 14.86133,0 c 14.66018,10e-5 14.86179,9.9e-4 15.00391,0.0879 0.30452,0.18568 0.2832,-0.33251 0.2832,6.95117 l 0,6.5957 2.67773,0 c 1.755,0 2.67774,-0.0154 2.67774,-0.0449 0,-0.0295 0.93765,-0.0449 2.72265,-0.0449 l 2.72266,0 0,0.65235 0,0.65234 -2.72266,0 c -1.785,0 -2.72265,-0.0154 -2.72265,-0.0449 0,-0.0296 -1.038,-0.0449 -3.02539,-0.0449 -2.9221,-1e-4 -3.03278,-0.003 -3.17188,-0.0879 -0.30454,-0.18568 -0.2832,0.33056 -0.2832,-6.95312 l 0,-6.59375 -14.85156,0 c -16.41686,0 -15.02031,0.0243 -15.20899,-0.28516 -0.086,-0.14168 -0.0879,-0.29911 -0.0879,-9.60351 l 0,-9.4629 -5.86133,0 c -5.72432,-1.9e-4 -5.86583,-0.002 -6.00586,-0.0879 -0.0789,-0.0481 -0.16867,-0.13245 -0.20117,-0.18945 -0.0473,-0.0829 -0.064,-0.98144 -0.082,-4.48242 l -0.0234,-4.37891 -0.29297,-0.10156 c -0.43792,-0.15302 -0.70627,-0.32699 -1.05664,-0.67969 -0.36526,-0.36769 -0.61748,-0.8253 -0.7207,-1.3125 -0.0965,-0.45564 -0.0965,-6.10295 0,-6.55859 0.25902,-1.22255 1.39964,-2.14258 2.65625,-2.14258 z m 9,0 c 1.26475,0 2.40037,0.92361 2.6582,2.16015 0.0577,0.27586 0.0659,0.79811 0.0547,3.41407 l -0.0137,3.08789 -0.12305,0.33593 c -0.28906,0.79363 -0.92356,1.43025 -1.68164,1.68555 l -0.31055,0.10547 -0.0117,2.43555 -0.0117,2.43554 2.71289,0 c 2.61007,10e-5 2.7168,0.003 2.85547,0.0879 0.30734,0.18738 0.2832,-0.65948 0.2832,10.03321 l 0,9.67773 15.30273,0 c 13.72719,0 15.31661,0.008 15.4375,0.0703 0.0741,0.0383 0.17436,0.13369 0.22266,0.21289 0.086,0.14114 0.0879,0.27828 0.0879,6.68164 l 0,6.53516 0.87695,0 c 0.8475,0 0.87696,-0.003 0.87696,-0.0898 0,-0.089 0.0298,-0.0898 1.82226,-0.0898 l 1.82227,0 0,0.74218 0,0.74219 -1.82227,0 c -1.7925,0 -1.82226,-10e-4 -1.82226,-0.0898 0,-0.088 -0.0296,-0.0898 -1.2168,-0.0898 -1.34668,0 -1.40818,-0.0109 -1.57422,-0.2832 -0.086,-0.14114 -0.0898,-0.27633 -0.0898,-6.67969 l 0,-6.53711 -15.30078,0 c -13.7272,0 -15.31661,-0.006 -15.4375,-0.0684 -0.0741,-0.0383 -0.17436,-0.13564 -0.22266,-0.21484 -0.086,-0.14171 -0.0879,-0.30252 -0.0879,-9.83008 l 0,-9.68555 -2.71094,-0.002 c -2.60525,-2e-4 -2.7177,-0.002 -2.85547,-0.0859 -0.27013,-0.16468 -0.2587,-0.0527 -0.2832,-3.09961 l -0.0234,-2.80273 -0.29297,-0.10156 c -0.4379,-0.153 -0.70627,-0.32699 -1.05664,-0.67969 -0.36526,-0.36769 -0.61748,-0.8253 -0.7207,-1.3125 -0.0965,-0.45565 -0.0965,-6.10295 0,-6.55859 0.25894,-1.22248 1.39964,-2.14258 2.65625,-2.14258 z m 9,0 c 1.26474,0 2.40037,0.9236 2.6582,2.16015 0.0577,0.27586 0.0659,0.7981 0.0547,3.41407 l -0.0137,3.08789 -0.12305,0.33593 c -0.28906,0.79363 -0.92356,1.43023 -1.68164,1.68555 l -0.31055,0.10547 -0.0117,10.53516 -0.01,10.53515 18.67578,0 c 16.7743,0 18.69148,0.008 18.8125,0.0703 0.0741,0.0383 0.17436,0.13369 0.22266,0.21289 0.086,0.14052 0.0879,0.26334 0.0879,4.97071 2e-4,4.79615 4.8e-4,4.82617 0.0898,4.82617 0.089,0 0.0918,0.0298 0.0918,1.82226 l 0,1.82227 -0.74414,0 -0.74219,0 0,-1.82227 c 0,-1.7925 0.001,-1.82226 0.0898,-1.82226 0.0894,0 0.0899,-0.031 0.0899,-4.47852 l 0,-4.47656 -18.68555,0 c -18.42335,-2e-4 -18.68872,-0.002 -18.83008,-0.0879 -0.0789,-0.0481 -0.16867,-0.13441 -0.20117,-0.19141 -0.0482,-0.0845 -0.0637,-2.11521 -0.082,-11.00585 l -0.0234,-10.9043 -0.29297,-0.10156 c -0.43792,-0.15303 -0.70627,-0.327 -1.05664,-0.67969 -0.36526,-0.36769 -0.61748,-0.8253 -0.7207,-1.3125 -0.0965,-0.45564 -0.0965,-6.10296 0,-6.5586 0.25904,-1.22239 1.39964,-2.14257 2.65625,-2.14257 z m 9,0 c 1.26474,0 2.40037,0.9236 2.6582,2.16015 0.0577,0.27586 0.0659,0.7981 0.0547,3.41407 l -0.0137,3.08789 -0.12109,0.33203 c -0.29049,0.79684 -0.92418,1.435 -1.67969,1.68945 l -0.31446,0.10547 -0.01,8.95898 -0.0117,8.96094 15.59375,0 c 13.99137,0 15.60957,0.008 15.73047,0.0703 0.0741,0.0383 0.17434,0.13369 0.22265,0.21289 0.086,0.1411 0.0879,0.27741 0.0879,6.54688 1e-4,4.23739 0.0151,6.40039 0.0449,6.40039 0.0295,0 0.0449,0.93765 0.0449,2.72265 l 0,2.72266 -0.65234,0 -0.65235,0 0,-2.72266 c 0,-1.785 0.0154,-2.72265 0.0449,-2.72265 0.0298,0 0.0449,-2.04774 0.0449,-6.05274 l 0,-6.05273 -15.60352,0 c -15.37113,-2e-4 -15.60681,-0.002 -15.74805,-0.0879 -0.0789,-0.0481 -0.16867,-0.13441 -0.20117,-0.19141 -0.0481,-0.0843 -0.0637,-1.84186 -0.082,-9.43164 l -0.0234,-9.32812 -0.29297,-0.10157 c -0.43792,-0.15302 -0.70627,-0.32699 -1.05664,-0.67968 -0.36526,-0.36769 -0.61748,-0.8253 -0.7207,-1.3125 -0.0965,-0.45564 -0.0965,-6.10296 0,-6.5586 0.25899,-1.22241 1.39964,-2.14258 2.65625,-2.14258 z m 9,0 c 1.26474,0 2.40037,0.9236 2.6582,2.16015 0.0577,0.27586 0.0659,0.7981 0.0547,3.41407 l -0.0137,3.08789 -0.12109,0.33203 c -0.29049,0.79684 -0.92418,1.435 -1.67969,1.68945 l -0.31446,0.10547 -0.0117,7.16016 -0.01,7.16015 12.51172,0 c 13.82859,0 12.68091,-0.0255 12.86914,0.2832 0.086,0.1415 0.0879,0.29098 0.0879,8.34571 1e-4,5.43739 0.0151,8.20117 0.0449,8.20117 0.0295,0 0.0469,0.93766 0.0469,2.72266 l 0,2.72265 -0.6543,0 -0.65234,0 0,-2.72265 c 0,-1.785 0.0154,-2.72266 0.0449,-2.72266 0.0298,0 0.0449,-2.64852 0.0449,-7.85352 l 0,-7.85156 -12.51953,0 c -12.3189,-2e-4 -12.52496,-0.002 -12.66602,-0.0879 -0.0789,-0.0481 -0.16867,-0.1344 -0.20117,-0.1914 -0.0479,-0.084 -0.0638,-1.52784 -0.082,-7.63086 l -0.0234,-7.5293 -0.29297,-0.10156 c -0.43792,-0.15302 -0.70627,-0.327 -1.05664,-0.67969 -0.36526,-0.36769 -0.61748,-0.8253 -0.7207,-1.3125 -0.0965,-0.45564 -0.0965,-6.10295 0,-6.55859 0.25899,-1.22241 1.39964,-2.14258 2.65625,-2.14258 z m 18,0 c 1.26474,0 2.40037,0.9236 2.6582,2.16015 0.0577,0.27586 0.0659,0.7981 0.0547,3.41407 l -0.0137,3.08789 -0.12109,0.33203 c -0.29049,0.79684 -0.92419,1.435 -1.67969,1.68945 l -0.31446,0.10547 -0.0117,3.56055 -0.01,3.56054 6.30078,0 c 6.96055,0 6.47472,-0.0209 6.66016,0.28321 0.087,0.14192 0.0879,0.32007 0.0879,11.94531 2e-4,11.77115 8e-5,11.80078 0.0898,11.80078 0.089,0 0.0918,0.0302 0.0918,2.72266 l 0,2.72265 -0.6543,0 -0.65234,0 0,-14.17578 0,-14.17383 -6.31055,0 c -6.1699,-2e-4 -6.31491,-0.002 -6.45508,-0.0879 -0.0789,-0.0481 -0.16867,-0.1344 -0.20117,-0.1914 -0.0471,-0.0826 -0.0641,-0.90401 -0.082,-4.03321 l -0.0234,-3.92773 -0.29297,-0.10156 c -0.43791,-0.15301 -0.70626,-0.32699 -1.05664,-0.67969 -0.36526,-0.36769 -0.61748,-0.8253 -0.7207,-1.3125 -0.0965,-0.45564 -0.0965,-6.10295 0,-6.55859 0.25899,-1.22241 1.39964,-2.14258 2.65625,-2.14258 z m 9,0 c 1.26474,0 2.40038,0.92361 2.6582,2.16015 0.0577,0.27586 0.0659,0.79811 0.0547,3.41407 l -0.0137,3.08789 -0.12109,0.33203 c -0.29049,0.79685 -0.92421,1.43503 -1.67969,1.68945 l -0.31446,0.10547 -0.0117,1.75976 -0.0117,1.75977 3.27539,0 c 3.16809,10e-5 3.27857,0.005 3.41797,0.0898 0.30903,0.18845 0.2832,-1.07386 0.2832,13.94922 0,9.03148 0.015,13.5918 0.0449,13.5918 0.0295,0 0.0449,0.93765 0.0449,2.72265 l 0,2.72266 -0.65234,0 -0.65234,0 0,-2.72266 c 0,-1.785 0.0154,-2.72265 0.0449,-2.72265 0.0299,0 0.0449,-4.44696 0.0449,-13.25196 l 0,-13.2539 -3.27344,0 c -3.16223,-2e-4 -3.27947,-0.004 -3.41797,-0.0879 -0.26562,-0.16199 -0.2588,-0.10971 -0.2832,-2.42188 l -0.0234,-2.1289 -0.29297,-0.10157 c -0.43789,-0.15298 -0.70625,-0.32697 -1.05664,-0.67968 -0.36526,-0.36769 -0.61748,-0.8253 -0.7207,-1.3125 -0.0965,-0.45565 -0.0965,-6.10296 0,-6.5586 0.25898,-1.22241 1.39964,-2.14258 2.65625,-2.14258 z m 9,0 c 1.26474,0 2.40038,0.9236 2.6582,2.16015 0.0577,0.27586 0.0659,0.7981 0.0547,3.41407 l -0.0137,3.08789 -0.12109,0.33203 c -0.18879,0.51787 -0.55805,1.0255 -0.93555,1.28711 l -0.17969,0.125 0,18.48828 0,18.49023 -0.65234,0 -0.6543,0 0,-2.72265 c 0,-2.6925 0.003,-2.72266 0.0918,-2.72266 0.09,0 0.0898,-0.0294 0.0898,-15.54688 l 0,-15.54882 -0.30469,0 c -0.16706,-4e-4 -0.44323,-0.0304 -0.61328,-0.0664 -1.01088,-0.21417 -1.86201,-1.06529 -2.07617,-2.07618 -0.0965,-0.45564 -0.0965,-6.10295 0,-6.55859 0.25898,-1.22241 1.39964,-2.14258 2.65625,-2.14258 z m 9,0 c 1.26474,0 2.40038,0.92361 2.6582,2.16015 0.0577,0.27586 0.0659,0.79811 0.0547,3.41407 l -0.0137,3.08789 -0.12109,0.33203 c -0.29051,0.79685 -0.92421,1.43503 -1.67969,1.68945 l -0.31444,0.10547 -0.0215,2.80664 c -0.0245,3.05078 -0.0151,2.93687 -0.28516,3.10156 -0.1374,0.0836 -0.24644,0.0858 -2.6289,0.0859 l -2.48633,0.002 0,12.57617 0,12.57813 0.11328,0 0.11133,0 0,1.82226 0,1.82227 -0.74219,0 -0.74219,0 0,-1.82227 c 0,-1.59 0.008,-1.82226 0.0664,-1.82226 0.0597,0 0.0684,-1.46586 0.0684,-12.92578 2e-4,-12.74103 9.9e-4,-12.92832 0.0879,-13.07031 0.1775,-0.29143 0.10174,-0.28321 2.83594,-0.28321 l 2.47656,0 -0.0117,-2.43359 -0.0117,-2.43164 -0.29297,-0.10156 c -0.43792,-0.15301 -0.70627,-0.327 -1.05664,-0.67969 -0.36526,-0.36769 -0.61748,-0.8253 -0.7207,-1.3125 -0.0965,-0.45565 -0.0965,-6.10296 0,-6.5586 0.25898,-1.22241 1.39964,-2.14257 2.65625,-2.14257 z m 36,0 c 1.26474,0 2.40037,0.9236 2.6582,2.16015 0.0577,0.27586 0.0659,0.7981 0.0547,3.41407 l -0.0137,3.08789 -0.12305,0.33593 c -0.28905,0.79363 -0.92355,1.43023 -1.68164,1.68555 l -0.31055,0.10547 -0.01,15.25976 -0.0117,15.25977 6.97656,0 c 7.70672,0 7.14802,-0.0218 7.33399,0.2832 0.0868,0.14186 0.0879,0.31554 0.0879,11.19336 0,10.87782 -9.9e-4,11.04955 -0.0879,11.19141 -0.0483,0.0792 -0.14856,0.17459 -0.22266,0.21289 -0.12117,0.0627 -2.57007,0.0703 -24.30078,0.0703 -16.08149,0 -24.16797,0.015 -24.16797,0.0449 0,0.0295 -0.93766,0.0449 -2.72266,0.0449 l -2.72265,0 0,-0.65234 0,-0.65235 2.72265,0 c 1.785,0 2.72266,0.0154 2.72266,0.0449 0,0.03 7.97313,0.0449 23.82813,0.0449 l 23.82812,0 0,-10.35156 0,-10.34961 -6.98633,0 c -6.83827,-2e-4 -6.99052,-0.002 -7.13086,-0.0879 -0.0789,-0.0481 -0.16867,-0.13245 -0.20117,-0.18945 -0.0484,-0.0849 -0.0636,-2.93924 -0.082,-15.73242 l -0.0234,-15.62891 -0.29297,-0.10156 c -0.43793,-0.15302 -0.70628,-0.327 -1.05664,-0.67969 -0.36526,-0.36769 -0.61748,-0.8253 -0.7207,-1.3125 -0.0965,-0.45564 -0.0965,-6.10295 0,-6.55859 0.25899,-1.22241 1.39963,-2.14258 2.65625,-2.14258 z m -27,0.002 c 1.26474,0 2.40038,0.92166 2.6582,2.1582 0.0577,0.27587 0.0659,0.79809 0.0547,3.41406 l -0.0137,3.08789 -0.12109,0.33204 c -0.29049,0.79683 -0.92418,1.435 -1.67969,1.68945 l -0.31446,0.10547 -0.0215,16.08203 c -0.0184,13.16779 -0.0336,16.10064 -0.082,16.18555 -0.0325,0.057 -0.12433,0.14135 -0.20313,0.18945 -0.13917,0.0846 -0.26112,0.0879 -4.20312,0.0879 l -4.0625,0 0,2.72266 0,2.72265 0.58594,0 0.58398,0 0,0.74219 0,0.74219 -1.82227,0 -1.82226,0 0,-0.74219 0,-0.74219 0.67578,0 0.67383,0 0,-3.07031 c 2e-4,-2.96674 0.003,-3.07763 0.0879,-3.2168 0.18246,-0.29923 -0.063,-0.2832 4.41016,-0.2832 l 4.05273,0 -0.0117,-15.70703 -0.0117,-15.70703 -0.29297,-0.10157 c -0.43793,-0.15303 -0.70627,-0.32504 -1.05664,-0.67773 -0.2219,-0.22338 -0.36725,-0.42074 -0.48632,-0.66211 -0.29938,-0.6069 -0.29883,-0.6198 -0.29883,-3.93164 0,-2.42824 0.011,-3.02651 0.0645,-3.2793 0.25899,-1.22241 1.39964,-2.14062 2.65625,-2.14062 z m 9,0 c 1.26474,0 2.40037,0.92166 2.6582,2.1582 0.0577,0.27587 0.0659,0.79809 0.0547,3.41406 l -0.0137,3.08789 -0.12109,0.33204 c -0.29049,0.79683 -0.92418,1.435 -1.67969,1.68945 l -0.31446,0.10547 -0.0215,17.43164 c -0.0184,14.28278 -0.0336,17.45025 -0.082,17.53515 -0.0325,0.057 -0.12423,0.14331 -0.20313,0.19141 -0.1401,0.0856 -0.2814,0.0879 -6.22851,0.0879 l -6.08594,0 0,3.22851 c -2e-4,3.12296 -0.005,3.2337 -0.0898,3.37305 -0.17183,0.28143 -0.18231,0.2832 -2.02344,0.2832 -1.08149,0 -1.66797,0.0157 -1.66797,0.0449 0,0.0295 -0.93766,0.0449 -2.72266,0.0449 l -2.72265,0 0,-0.65234 0,-0.65234 2.72265,0 c 1.785,0 2.72266,0.0154 2.72266,0.0449 0,0.029 0.47313,0.0449 1.32813,0.0449 l 1.32812,0 0,-3.22852 c 1e-4,-3.12295 0.003,-3.2337 0.0879,-3.37304 0.18523,-0.30384 -0.27795,-0.28321 6.43359,-0.28321 l 6.07813,0 -0.0117,-17.05859 -0.0117,-17.05664 -0.29297,-0.10156 c -0.43792,-0.15304 -0.70627,-0.32505 -1.05664,-0.67774 -0.36526,-0.36769 -0.61748,-0.82725 -0.7207,-1.31445 -0.0965,-0.45565 -0.0965,-6.10296 0,-6.5586 0.25899,-1.22241 1.39964,-2.14062 2.65625,-2.14062 z m 9,0 c 1.26474,0 2.40038,0.92166 2.6582,2.1582 0.0577,0.27587 0.0659,0.79809 0.0547,3.41406 l -0.0137,3.08789 -0.12109,0.33204 c -0.29049,0.79683 -0.92419,1.435 -1.67969,1.68945 l -0.31446,0.10547 -0.0215,18.78125 c -0.0184,15.39779 -0.0335,18.79976 -0.082,18.88476 -0.0325,0.057 -0.12423,0.14331 -0.20313,0.19141 -0.14064,0.0856 -0.30532,0.0879 -8.70312,0.0879 l -8.5625,0 0,3.28711 c 0,3.62788 0.013,3.46394 -0.2832,3.64453 -0.13979,0.085 -0.25414,0.0879 -3.84571,0.0879 -2.43739,10e-5 -3.70117,0.0153 -3.70117,0.0449 0,0.0295 -0.93766,0.0449 -2.72266,0.0449 l -2.72265,0 0,-0.65235 0,-0.65234 2.72265,0 c 1.785,0 2.72266,0.0154 2.72266,0.0449 0,0.0296 1.14852,0.0449 3.35352,0.0449 l 3.35156,0 0,-3.28711 c 0,-3.62788 -0.013,-3.46394 0.2832,-3.64453 0.14155,-0.086 0.29325,-0.0879 8.70508,-0.0879 l 8.5625,0 -0.0117,-18.40625 -0.0117,-18.4082 -0.29297,-0.10157 c -0.43793,-0.15303 -0.70628,-0.32504 -1.05664,-0.67773 -0.36526,-0.36769 -0.61748,-0.82725 -0.7207,-1.31445 -0.0965,-0.45565 -0.0965,-6.10296 0,-6.5586 0.25899,-1.22241 1.39963,-2.14062 2.65625,-2.14062 z m -108,3.64257 c -0.93857,0 -1.77734,0.83878 -1.77734,1.77735 0,0.73013 0.53521,1.46057 1.23632,1.68555 1.35114,0.43355 2.65121,-0.85466 2.22852,-2.20899 -0.22278,-0.71381 -0.9489,-1.25391 -1.6875,-1.25391 z m 9,0 c -0.93857,0 -1.77734,0.83878 -1.77734,1.77735 0,0.73013 0.53521,1.46057 1.23632,1.68555 1.35114,0.43355 2.65121,-0.85466 2.22852,-2.20899 -0.22278,-0.71381 -0.9489,-1.25391 -1.6875,-1.25391 z m 9,0 c -0.93857,0 -1.77734,0.83878 -1.77734,1.77735 0,0.73013 0.53521,1.46057 1.23632,1.68555 1.35113,0.43355 2.65121,-0.85466 2.22852,-2.20899 -0.22278,-0.71381 -0.9489,-1.25391 -1.6875,-1.25391 z m 9,0 c -0.93857,0 -1.77734,0.83878 -1.77734,1.77735 0,0.73013 0.53521,1.46057 1.23632,1.68555 1.35113,0.43355 2.65121,-0.85466 2.22852,-2.20899 -0.22278,-0.71381 -0.9489,-1.25391 -1.6875,-1.25391 z m 9,0 c -0.93857,0 -1.77734,0.83878 -1.77734,1.77735 0,0.73013 0.53521,1.46057 1.23632,1.68555 1.35113,0.43355 2.65121,-0.85466 2.22852,-2.20899 -0.22278,-0.71381 -0.9489,-1.25391 -1.6875,-1.25391 z m 9,0 c -0.93857,0 -1.77734,0.83878 -1.77734,1.77735 0,0.73013 0.53521,1.46057 1.23632,1.68555 1.35113,0.43355 2.65121,-0.85466 2.22852,-2.20899 -0.22278,-0.71381 -0.9489,-1.25391 -1.6875,-1.25391 z m 9,0 c -0.93857,0 -1.77734,0.83878 -1.77734,1.77735 0,0.73013 0.53521,1.46057 1.23632,1.68555 1.35113,0.43355 2.65121,-0.85466 2.22852,-2.20899 -0.22278,-0.71381 -0.9489,-1.25391 -1.6875,-1.25391 z m 9,0 c -0.93857,0 -1.77734,0.83878 -1.77734,1.77735 0,0.73013 0.5352,1.46057 1.23632,1.68555 1.35113,0.43355 2.65121,-0.85466 2.22852,-2.20899 -0.22278,-0.71381 -0.9489,-1.25391 -1.6875,-1.25391 z m 9,0 c -0.93857,0 -1.77734,0.83878 -1.77734,1.77735 0,0.73013 0.5352,1.46057 1.23632,1.68555 1.35113,0.43355 2.6512,-0.85466 2.22852,-2.20899 -0.22278,-0.71381 -0.9489,-1.25391 -1.6875,-1.25391 z m 9,0 c -0.93857,0 -1.77734,0.83878 -1.77734,1.77735 0,0.73013 0.5352,1.46057 1.23632,1.68555 1.35113,0.43355 2.6512,-0.85466 2.22852,-2.20899 -0.22278,-0.71381 -0.9489,-1.25391 -1.6875,-1.25391 z m 9,0 c -0.93857,0 -1.77734,0.83878 -1.77734,1.77735 0,0.73013 0.5352,1.46057 1.23632,1.68555 1.35113,0.43355 2.6512,-0.85466 2.22852,-2.20899 -0.22278,-0.71381 -0.9489,-1.25391 -1.6875,-1.25391 z m 9,0 c -0.93857,0 -1.77734,0.83878 -1.77734,1.77735 0,0.73013 0.5352,1.46057 1.23632,1.68555 1.35113,0.43355 2.6512,-0.85466 2.22852,-2.20899 -0.22278,-0.71381 -0.9489,-1.25391 -1.6875,-1.25391 z m 9,0 c -0.93857,0 -1.77734,0.83878 -1.77734,1.77735 0,0.73013 0.5352,1.46057 1.23632,1.68555 1.35113,0.43355 2.6512,-0.85466 2.22852,-2.20899 -0.22278,-0.71381 -0.9489,-1.25391 -1.6875,-1.25391 z m 9,0 c -0.93857,0 -1.77734,0.83878 -1.77734,1.77735 0,0.73013 0.5352,1.46057 1.23632,1.68555 1.35113,0.43355 2.6512,-0.85466 2.22852,-2.20899 -0.22278,-0.71381 -0.9489,-1.25391 -1.6875,-1.25391 z M 27.49036,728.47004 c 10.07302,0 9.28729,-0.0218 9.47461,0.28516 0.083,0.13658 0.0879,0.23803 0.0879,1.95508 l 0,1.81054 6.07812,0 c 6.71147,0 6.24837,-0.0207 6.4336,0.28321 0.086,0.14174 0.0879,0.30592 0.0879,10.05664 l 0,9.91015 15.07812,0 c 13.52405,0 15.09006,0.008 15.21094,0.0703 0.0741,0.0383 0.17436,0.13369 0.22266,0.21289 0.086,0.14105 0.0879,0.27429 0.0879,6.36524 l 0,6.22265 4.2539,0 c 2.80499,0 4.25196,-0.0152 4.25196,-0.0449 0,-0.0295 0.93764,-0.0449 2.72265,-0.0449 l 2.72266,0 0,0.13477 0,0.13476 8.55273,0 8.55274,0 1.80859,0.95313 1.8086,0.95117 1.66406,0.37305 c 0.91575,0.20493 1.67169,0.35368 1.67969,0.33008 0.0211,-0.0603 5.45312,-0.0583 5.45312,0.002 0,0.0299 4.53001,0.0449 13.5,0.0449 l 13.5,0 0,-0.90039 0,-0.9004 3.2168,0 3.21875,0 0,1.14844 0,1.14649 2.63281,0 2.63086,0 0,-1.14649 0,-1.14844 3.21875,0 3.2168,0 0,2.85743 0,2.85937 -3.2168,0 -3.21875,0 0,-1.14844 0,-1.14843 -2.63086,0 -2.63281,0 0,1.14843 0,1.14844 -3.21875,0 -3.2168,0 0,-1.39648 0,-1.39453 -13.5,0 c -8.96999,0 -13.5,0.015 -13.5,0.0449 0,0.0295 -0.93765,0.0449 -2.72266,0.0449 l -2.72265,0 0,-0.125 0,-0.12696 -1.81055,-0.39843 -1.8125,-0.39844 -1.18945,-0.62305 c -0.65453,-0.34244 -1.20571,-0.62305 -1.22461,-0.62305 -0.0189,0 -3.99509,1.09319 -8.83594,2.42969 -5.53269,1.52752 -8.87606,2.42969 -9.00195,2.42969 -0.19226,0 -0.19922,0.007 -0.19922,0.13672 l 0,0.13476 -2.72266,0 c -2.6925,0 -2.72265,-7.9e-4 -2.72265,-0.0898 0,-0.0896 -0.03,-0.0918 -7.74219,-0.0918 -8.55263,0 -7.91314,0.0226 -8.09961,-0.28321 -0.086,-0.14086 -0.0879,-0.26857 -0.0879,-5.77929 l 0,-5.63672 -6.86328,0 -6.86133,0 0,1.48437 0,1.48633 0.24609,0 0.24805,0 0,3.2168 0,3.21679 -2.85742,0 -2.85742,0 0,-1.55273 0,-1.55273 -2.79688,0.0117 -2.79687,0.0117 -0.0762,0.22461 c -0.29538,0.86848 -0.88763,1.44821 -1.80078,1.76172 -0.23346,0.08 -0.42737,0.084 -3.41992,0.084 -2.98279,0 -3.18722,-0.005 -3.41992,-0.084 -0.77815,-0.26501 -1.31776,-0.7245 -1.64258,-1.39843 -0.29045,-0.60272 -0.35754,-1.12235 -0.22656,-1.74024 0.21123,-0.99649 1.04844,-1.83369 2.04492,-2.04492 0.37566,-0.0797 5.98715,-0.0951 6.41992,-0.0176 0.14686,0.0263 0.45006,0.13629 0.67383,0.24414 0.65727,0.3168 1.12462,0.85076 1.36719,1.56445 l 0.0801,0.23633 2.79687,0.0117 2.79688,0.0117 0,-1.10352 0,-1.10156 2.04687,0 2.04883,0 0,-1.83398 c 2e-4,-1.73937 0.005,-1.84186 0.0879,-1.97852 0.18636,-0.30566 -0.43298,-0.2832 7.9082,-0.2832 7.40979,1e-4 7.55395,0.002 7.69532,0.0879 0.30304,0.18478 0.2832,-0.22956 0.2832,5.98437 l 0,5.62696 10.125,0 c 6.71999,0 10.125,0.017 10.125,0.0469 0,0.0247 0.0549,0.0441 0.12305,0.0449 0.0681,8.4e-4 3.81707,-1.01524 8.33007,-2.25977 l 8.20508,-2.26367 -8.31836,-0.0117 c -5.53009,-0.008 -8.32203,0.003 -8.33203,0.0332 -0.0207,0.0621 -5.45312,0.0622 -5.45312,0 0,-0.0297 -1.56419,-0.0449 -4.60157,-0.0449 -4.48421,-10e-5 -4.60374,-0.002 -4.74414,-0.0879 -0.30403,-0.18535 -0.28515,0.29238 -0.28515,-6.56836 l 0,-6.21289 -15.07617,0 c -13.52405,0 -15.09202,-0.008 -15.2129,-0.0703 -0.0741,-0.0383 -0.17435,-0.13369 -0.22265,-0.21289 -0.086,-0.14173 -0.0879,-0.30397 -0.0879,-10.05469 l 0,-9.91211 -2.58594,0 -2.58789,0 0,1.89063 0,1.88867 1.32617,0 1.32813,0 0,2.85742 0,2.85742 -3.2168,0 -3.21875,0 0,-2.85742 0,-2.85742 1.32812,0 1.32813,0 0,-1.88867 0,-1.89063 -2.92773,0 c -3.23039,0 -3.10575,0.011 -3.28516,-0.2832 -0.083,-0.13658 -0.0879,-0.23803 -0.0879,-1.95508 l 0,-1.8125 -8.4375,0 -8.4375,0 0,8.21289 0,8.21289 5.85351,0 c 6.4627,0 6.02399,-0.0204 6.20899,0.28321 0.085,0.13955 0.0877,0.25238 0.0879,3.57617 l 0,3.43164 0.13476,0 0.13477,0 0,4.07226 0,4.07227 -1.08008,0 -1.08008,0 0,7.62695 0,7.62696 1.08008,0 1.08008,0 0,4.07226 0,4.07422 -1.08008,0 -1.08008,0 0,2.74609 c 0,3.03169 0.01,2.92676 -0.2832,3.10547 -0.14173,0.086 -0.30367,0.0879 -10.00976,0.0879 l -9.86719,0 0,2.07031 0,2.06836 0.63086,0 0.63086,0 0,3.21875 0,3.2168 -0.72071,0 -0.7207,0 0,13.92774 0,13.92773 0.90039,0 0.90039,0 0,3.2168 0,3.21875 -0.7207,0 -0.71875,0 0,4.90429 0,4.9043 27.02148,0 27.02344,0 0,-2.03516 c 1e-4,-1.9402 0.004,-2.04434 0.0879,-2.18164 0.0483,-0.0792 0.14856,-0.17489 0.22266,-0.21289 0.12137,-0.06 4.15527,-0.0703 40.61328,-0.0703 l 40.48047,0 0,-1.32617 0,-1.32813 2.85742,0 2.85742,0 0,3.2168 0,3.21875 -2.85742,0 -2.85742,0 0,-1.32812 0,-1.32813 -40.14063,0 -40.13867,0 0,2.03711 c -10e-5,1.9402 -0.006,2.04249 -0.0898,2.17969 -0.0483,0.0793 -0.14856,0.17684 -0.22266,0.21484 l 0,-0.002 c -0.12124,0.06 -2.9154,0.0703 -27.8457,0.0703 -27.40468,0 -27.71104,-8.8e-4 -27.85352,-0.0879 -0.30233,-0.1843 -0.2832,0.18954 -0.2832,-5.60156 l 0,-5.24414 -0.7207,0 -0.72071,0 0,-3.21875 0,-3.2168 0.54102,0 0.53906,0 0,-13.92773 0,-13.92774 -0.71875,0 -0.7207,0 0,-3.2168 0,-3.21875 0.81054,0 0.8086,0 0,-2.4082 c 0,-2.65931 -0.005,-2.59042 0.28515,-2.76758 0.14173,-0.086 0.30368,-0.0879 10.00977,-0.0879 l 9.86523,0 0,-2.4082 0,-2.40625 -1.08007,0 -1.08008,0 0,-4.07422 0,-4.07226 1.08008,0 1.08007,0 0,-7.62696 0,-7.62695 -1.08007,0 -1.08008,0 0,-4.07227 0,-4.07226 2.02539,0 2.02539,0 0,-3.08399 0,-3.08203 -5.85156,0 c -6.4627,0 -6.02593,0.0202 -6.21094,-0.2832 -0.0858,-0.14161 -0.0879,-0.29686 -0.0879,-9.05469 0,-8.75783 0.002,-8.91112 0.0879,-9.05273 0.18715,-0.30693 -0.59841,-0.28516 9.47461,-0.28516 z m -6.45703,5.80664 2.85742,0 2.85742,0 0,1.32617 0,1.32813 4.03906,0 c 3.92631,2e-4 4.04159,0.002 4.18164,0.0879 0.30724,0.18732 0.28516,-0.63813 0.28516,9.85547 l 0,9.49609 3.9375,0 3.9375,0 0,-1.66406 0,-1.66602 -1.77734,0 -1.7793,0 0,-2.85742 0,-2.85742 3.21875,0 3.2168,0 0,2.85742 0,2.85742 -0.87696,0 -0.87695,0 0,1.66602 0,1.66406 16.43555,0 c 16.22228,10e-5 16.43789,9.9e-4 16.58008,0.0879 0.30343,0.18499 0.2832,-0.25032 0.2832,6.1875 l 0,5.83008 5.60351,0 c 3.705,0 5.60157,-0.0151 5.60157,-0.0449 0,-0.0295 0.93765,-0.0449 2.72265,-0.0449 l 2.72266,0 0,0.65234 0,0.65235 -2.72266,0 c -1.785,0 -2.72265,-0.0154 -2.72265,-0.0449 0,-0.0298 -2.00992,-0.0449 -5.94141,-0.0449 -6.5622,0 -6.11568,0.0204 -6.30078,-0.28321 -0.086,-0.14093 -0.0879,-0.27084 -0.0879,-5.98242 l 0,-5.83984 -20.58789,0 -20.58594,0 0,8.66406 0,8.66211 1.2207,-0.0117 1.22071,-0.0117 0.0547,-0.17969 c 0.27001,-0.90546 1.07735,-1.65248 1.99805,-1.84765 0.37566,-0.0797 5.98715,-0.0951 6.41992,-0.0176 0.14686,0.0263 0.45006,0.13629 0.67383,0.24414 0.65727,0.3168 1.12462,0.85077 1.36719,1.56445 l 0.0801,0.23633 4.09179,0.0215 c 3.2634,0.0179 4.11066,0.0348 4.19336,0.082 0.057,0.0325 0.14331,0.12422 0.19141,0.20312 0.0856,0.1405 0.0879,0.29841 0.0879,7.84961 l 0,7.70703 2.38477,0 2.38476,0 0,-1.14843 0,-1.14649 3.2168,0 3.21875,0 0,1.10156 0,1.10157 1.93359,0 1.93555,0 0,-7.99805 c 2e-4,-7.85389 0.002,-8.00112 0.0879,-8.14258 0.18672,-0.30623 -0.49951,-0.2832 8.55078,-0.2832 5.43149,0 8.19141,-0.0151 8.19141,-0.0449 0,-0.0295 0.93501,-0.0449 2.71289,-0.0449 l 2.71094,0 0.0449,0.0977 c 0.0409,0.0906 0.38606,0.16828 4.32226,0.96094 2.35356,0.47395 4.81178,0.97798 5.46289,1.12109 0.9704,0.21296 1.2099,0.25195 1.32422,0.21484 0.0767,-0.0249 2.40825,-1.08704 5.18164,-2.36132 l 5.04297,-2.31641 1.35938,-0.19336 c 1.21665,-0.1732 1.35742,-0.20354 1.35742,-0.27734 0,-0.0794 0.11363,-0.082 2.72265,-0.082 l 2.72266,0 0,0.65234 0,0.65234 -2.72266,0 c -2.6925,0 -2.72265,-8.8e-4 -2.72265,-0.0898 0,-0.0495 -0.0146,-0.0886 -0.0332,-0.0879 -0.0186,7.4e-4 -0.57355,0.0784 -1.23243,0.17383 l -1.19726,0.17383 -4.29102,1.9707 c -2.36062,1.08303 -4.38112,2.0107 -4.48828,2.0625 l -0.19531,0.0937 0.82617,0.16797 0.82422,0.16602 4.89453,0.002 4.89258,0.002 0,-0.13477 0,-0.13476 2.72265,0 c 1.785,0 2.72266,0.0154 2.72266,0.0449 0,0.0299 3.28995,0.0449 9.77734,0.0449 9.61683,2e-4 9.77821,9.9e-4 9.91993,0.0879 0.25193,0.15359 0.2832,0.27421 0.2832,1.08007 l 0,0.72266 3.50976,0 3.50977,0 0,-1.14844 0,-1.14648 3.21875,0 3.2168,0 0,1.14648 0,1.14844 2.63281,0 2.63281,0 0,-1.14844 0,-1.14648 3.2168,0 3.2168,0 0,2.85742 0,2.85742 -3.2168,0 -3.2168,0 0,-1.14843 0,-1.14649 -2.63281,0 -2.63281,0 0,1.14649 0,1.14843 -3.2168,0 -3.21875,0 0,-1.14843 0,-1.14649 -3.85937,0 c -3.74779,-1e-4 -3.86203,-0.003 -4.00196,-0.0879 -0.25193,-0.15359 -0.2832,-0.27422 -0.2832,-1.08008 l 0,-0.72265 -9.42774,0 c -6.25499,0 -9.42773,0.015 -9.42773,0.0449 0,0.0295 -0.93766,0.0449 -2.72266,0.0449 -1.785,0 -2.72265,-0.0154 -2.72265,-0.0449 0,-0.0297 -1.66606,-0.0449 -4.91016,-0.0449 l -4.91211,0 -1.51172,-0.29493 c -0.83193,-0.16249 -2.10971,-0.42728 -2.83984,-0.58789 -1.35079,-0.29713 -9.72496,-1.99609 -9.83789,-1.99609 -0.0341,0 -0.0625,0.0293 -0.0625,0.0664 0,0.0595 -0.33266,0.0684 -2.72266,0.0684 -1.785,0 -2.72265,-0.0154 -2.72265,-0.0449 0,-0.0298 -2.64657,-0.0449 -7.85157,-0.0449 l -7.85351,0 0,7.99805 c -1e-4,7.85389 -0.002,8.00112 -0.0879,8.14258 -0.17641,0.28943 -0.12239,0.2832 -2.63281,0.2832 l -2.27344,0 0,1.19336 0,1.19336 -3.21875,0 -3.2168,0 0,-1.14844 0,-1.14648 -2.73437,0 c -2.632,-10e-5 -2.73825,-0.003 -2.87696,-0.0879 -0.30573,-0.18644 -0.2832,0.44651 -0.2832,-8.05664 l 0,-7.69727 -3.7207,0.0117 -3.71875,0.0117 -0.0762,0.22461 c -0.29538,0.86849 -0.88567,1.44626 -1.79882,1.75977 -0.23346,0.08 -0.42933,0.0859 -3.42188,0.0859 -2.98278,0 -3.18722,-0.005 -3.41992,-0.084 -0.89303,-0.30414 -1.49811,-0.89412 -1.80078,-1.75391 l -0.082,-0.23242 -1.58985,-0.0215 c -1.72654,-0.0244 -1.72443,-0.0254 -1.88281,-0.28516 -0.0866,-0.14136 -0.0877,-0.40709 -0.0879,-18.875 l 0,-18.73047 -3.69141,0 -3.68945,0 0,1.32813 0,1.32617 -2.85742,0 -2.85742,0 0,-3.2168 0,-3.21679 z m 42.75,29.33789 2.85742,0 2.85742,0 0,3.21875 0,3.2168 -2.04687,0 -2.04883,0 0,4.11719 0,4.11718 1.32812,0 1.32813,0 0,2.85938 0,2.85742 -3.21875,0 -3.2168,0 0,-2.85742 0,-2.85938 1.32813,0 1.32617,0 0,-4.11718 0,-4.11719 -0.2461,0 -0.24804,0 0,-3.2168 0,-3.21875 z m -20.8125,1.0586 c -0.36162,0 -0.43779,0.015 -0.70703,0.14257 -0.38362,0.18173 -0.67764,0.4777 -0.85938,0.86133 -0.12755,0.26923 -0.14453,0.34346 -0.14453,0.70508 0,0.36162 0.017,0.4378 0.14453,0.70703 0.22441,0.47369 0.59176,0.79048 1.11719,0.96485 0.10663,0.0354 0.31755,0.0549 0.51953,0.0469 0.6483,-0.0271 1.20974,-0.40727 1.49609,-1.01172 0.12755,-0.26923 0.14258,-0.34541 0.14258,-0.70703 0,-0.36162 -0.015,-0.43585 -0.14258,-0.70508 -0.18173,-0.38363 -0.47574,-0.6796 -0.85937,-0.86133 -0.26923,-0.12755 -0.34541,-0.14258 -0.70703,-0.14258 z m 0,9 c -0.36162,0 -0.43779,0.015 -0.70703,0.14257 -0.38362,0.18173 -0.67764,0.4777 -0.85938,0.86133 -0.12755,0.26923 -0.14453,0.34346 -0.14453,0.70508 0,0.36162 0.017,0.4378 0.14453,0.70703 0.22441,0.47369 0.59176,0.79048 1.11719,0.96485 0.10663,0.0354 0.31755,0.0549 0.51953,0.0469 0.6483,-0.0271 1.20974,-0.40727 1.49609,-1.01172 0.12755,-0.26923 0.14258,-0.34541 0.14258,-0.70703 0,-0.36162 -0.015,-0.43585 -0.14258,-0.70508 -0.18173,-0.38363 -0.47574,-0.6796 -0.85937,-0.86133 -0.26923,-0.12755 -0.34541,-0.14258 -0.70703,-0.14258 z m 48.50976,3.21679 2.72266,0 0,0.65235 0,0.65234 -8.09961,0 -8.09961,0 0,10.36133 c -1e-4,10.19704 -0.003,10.36407 -0.0898,10.50586 -0.0483,0.0792 -0.14856,0.17654 -0.22266,0.21484 -0.12089,0.0627 -1.73295,0.0684 -15.68359,0.0684 l -15.54883,0 0,4.61328 0,4.61133 -3.57813,0 -3.57812,0 0,-4.61133 0,-4.61328 -9.13477,0 -9.13476,0 0,1.01367 0,1.01172 -2.00196,0 -2.0039,0 0,-3.21679 0,-3.21875 2.0039,0 2.00196,0 0,1.64257 0,1.64258 9.13476,0 9.13477,0 0,-4.61133 0,-4.61328 3.57812,0 3.57813,0 0,4.61328 0,4.61133 15.20898,0 15.21094,0 0,-10.36133 c 2e-4,-10.19704 9.9e-4,-10.36407 0.0879,-10.50586 0.18488,-0.30323 -0.23923,-0.2832 6.07422,-0.2832 5.68723,0 5.7168,-2.9e-4 5.7168,-0.0898 0,-0.089 0.0301,-0.0898 2.72265,-0.0898 z m -0.90039,2.7461 1.82227,0 0,0.74218 0,0.74219 -1.82227,0 -1.82226,0 0,-0.11328 0,-0.11133 -3.57813,0 -3.57617,0 0,25.83985 c -1e-4,25.5503 -9.9e-4,25.84392 -0.0879,25.98632 -0.0483,0.0793 -0.14856,0.17489 -0.22266,0.21289 -0.12097,0.06 -1.90865,0.0703 -17.48437,0.0703 l -17.34961,0 0,4.61328 -0.002,0 0,4.61133 -3.57618,0 -3.57812,0 0,-4.61133 0,-4.61328 -8.95508,0 -8.95508,0 0,1.32812 0,1.32617 -2.00195,0 -2.00195,0 0,-3.21679 0,-3.2168 2.00195,0 2.00195,0 0,1.32617 0,1.32813 8.95508,0 8.95508,0 0,-4.61328 0,-4.61133 3.57812,0 3.57618,0 0,4.61133 0,4.61328 17.01171,0 17.00977,0 0,-25.83203 c 0,-23.23391 0.006,-25.84559 0.0684,-25.9668 0.0383,-0.0741 0.13564,-0.17436 0.21484,-0.22266 0.13997,-0.085 0.25559,-0.0879 4.07032,-0.0879 3.45993,-2e-4 3.92578,-0.009 3.92578,-0.0684 0,-0.0585 0.23226,-0.0664 1.82226,-0.0664 z m 29.49805,0 1.82226,0 c 1.79251,0 1.82227,9.4e-4 1.82227,0.0898 0,0.0892 0.0308,0.0898 2.12695,0.0898 2.02947,10e-5 2.13204,0.004 2.26954,0.0879 0.29755,0.1814 0.2832,-0.0135 0.2832,3.9375 l 0,3.58007 1.8457,0 1.8457,0 0,-1.32812 0,-1.32813 2.85743,0 2.85742,0 0,3.21875 0,3.2168 -2.85742,0 -2.85743,0 0,-1.32617 0,-1.32813 -1.8457,0 -1.8457,0 0,3.26172 0,3.26368 16.88672,0 c 16.66859,10e-5 16.88904,9.9e-4 17.03125,0.0879 0.30823,0.18793 0.2832,-0.83655 0.2832,11.7207 l 0,11.36133 0.19141,0.0488 c 1.034,0.2663 1.78973,0.86684 2.23437,1.77344 0.35952,0.73303 0.3418,0.47243 0.3418,4.81836 0,3.6076 -0.006,3.89136 -0.082,4.16406 -0.32837,1.1709 -1.24748,2.09535 -2.39258,2.40625 -0.38462,0.105 -1.14575,0.12785 -1.50781,0.0469 -1.27147,-0.2858 -2.18043,-1.12038 -2.57227,-2.36328 l -0.10547,-0.33789 0,-3.91407 0,-3.91601 0.10547,-0.33789 c 0.35914,-1.14696 1.18998,-1.97153 2.31641,-2.29883 l 0.3457,-0.0996 0,-11.01758 0,-11.01757 -16.88672,0 c -16.6686,-2e-4 -16.88709,-0.003 -17.0293,-0.0898 -0.30543,-0.18626 -0.28515,0.41767 -0.28515,-7.76172 l 0,-7.4043 -1.77735,0 c -1.7475,0 -1.77734,10e-4 -1.77734,0.0898 0,0.089 -0.0298,0.0898 -1.82227,0.0898 l -1.82226,0 0,-0.74219 0,-0.74218 z m -21.55469,2.83398 0.65235,0 0.65234,0 0,2.72266 c 0,1.785 -0.0154,2.72265 -0.0449,2.72265 -0.0299,0 -0.0449,5.08961 -0.0449,15.17969 l 0,15.18164 0.27343,0.0742 c 0.84576,0.2352 1.61202,0.88599 2.01758,1.71289 0.35953,0.73303 0.3418,0.47243 0.3418,4.81836 0,3.6076 -0.006,3.89136 -0.082,4.16406 -0.32837,1.1709 -1.24749,2.09535 -2.39258,2.40625 l 0,-0.002 c -0.38463,0.10501 -1.14575,0.12986 -1.50781,0.0488 -1.27146,-0.2858 -2.18043,-1.12038 -2.57227,-2.36328 l -0.10547,-0.33789 0,-3.91602 0,-3.91406 0.10547,-0.33789 c 0.35506,-1.13403 1.17964,-1.96077 2.2832,-2.28906 0.17592,-0.052 0.36497,-0.0957 0.41797,-0.0957 l 0.0957,0 0,-15.16406 c 0,-10.08 -0.015,-15.16602 -0.0449,-15.16602 -0.0295,0 -0.0449,-0.93765 -0.0449,-2.72265 l 0,-2.72266 z m 2.83399,0 0.65429,0 0.65235,0 0,2.72266 c 0,1.785 -0.0154,2.72265 -0.0449,2.72265 -0.0299,0 -0.0449,4.37235 -0.0449,13.02735 l 0,13.02734 2.56641,0 c 2.83309,0 2.7459,-0.009 2.92383,0.2832 0.083,0.13686 0.0879,0.23983 0.0879,2.04102 l 0,1.89648 0.25,0.0312 c 1.15883,0.1448 2.12713,0.8227 2.62695,1.8418 0.35953,0.73303 0.3418,0.47243 0.3418,4.81836 0,3.6076 -0.006,3.89136 -0.082,4.16406 -0.32837,1.1709 -1.24749,2.09535 -2.39258,2.40625 -0.38462,0.105 -1.14574,0.12785 -1.50781,0.0469 -1.27146,-0.2858 -2.18044,-1.12038 -2.57227,-2.36328 l -0.10547,-0.33789 0,-3.91407 0,-3.91601 0.10547,-0.33789 c 0.29608,-0.93923 0.89042,-1.65007 1.73242,-2.07227 0.19467,-0.0975 0.38367,-0.17773 0.41797,-0.17773 0.0519,0 0.0606,-0.27366 0.0606,-1.64258 l 0,-1.64258 -2.56641,0 c -2.83309,0 -2.7459,0.009 -2.92383,-0.2832 -0.087,-0.14204 -0.0879,-0.33219 -0.0879,-13.51953 -1e-4,-8.88739 -0.017,-13.37696 -0.0469,-13.37696 -0.0295,0 -0.0449,-0.93765 -0.0449,-2.72265 l 0,-2.72266 z m 2.83593,0 0.65235,0 0.65234,0 0,2.72266 c 0,1.785 -0.0154,2.72265 -0.0449,2.72265 -0.0299,0 -0.0449,3.84813 -0.0449,11.45313 l 0,11.45312 5.875,0 c 6.48758,0 6.04738,-0.0203 6.23242,0.28321 0.085,0.13962 0.0879,0.2516 0.0879,3.64062 l 0,3.4961 0.19141,0.0488 c 1.03399,0.2663 1.78973,0.86684 2.23437,1.77344 0.35953,0.73303 0.3418,0.47243 0.3418,4.81836 0,3.6076 -0.006,3.89136 -0.082,4.16406 -0.32837,1.1709 -1.24749,2.09535 -2.39258,2.40625 -0.38462,0.105 -1.14574,0.12785 -1.50781,0.0469 -1.27146,-0.2858 -2.18044,-1.12038 -2.57227,-2.36328 l -0.10547,-0.33789 0,-3.91407 0,-3.91601 0.10547,-0.33789 c 0.35914,-1.14703 1.18998,-1.97153 2.31641,-2.29883 l 0.3457,-0.0996 0,-3.14258 0,-3.14258 -5.875,0 c -6.48758,0 -6.04738,0.0183 -6.23242,-0.28515 -0.087,-0.14192 -0.0879,-0.32007 -0.0879,-11.94532 -1e-4,-7.83739 -0.015,-11.80078 -0.0449,-11.80078 -0.0295,0 -0.0449,-0.93765 -0.0449,-2.72265 l 0,-2.72266 z m 2.83399,0 0.6543,0 0.65234,0 0,2.72266 c 0,1.785 -0.0154,2.72265 -0.0449,2.72265 -0.0299,0 -0.0449,3.32196 -0.0449,9.87696 l 0,9.8789 8.95703,0 c 9.89635,0 9.12736,-0.0236 9.31445,0.28321 0.086,0.14064 0.0879,0.26372 0.0879,5.21484 l 0,5.07227 0.19141,0.0488 c 1.03399,0.2663 1.78973,0.86684 2.23437,1.77344 0.35953,0.73303 0.3418,0.47243 0.3418,4.81836 0,3.6076 -0.006,3.89136 -0.082,4.16406 -0.32837,1.1709 -1.24749,2.09535 -2.39258,2.40625 -0.38462,0.104 -1.14574,0.12785 -1.50781,0.0469 -1.27146,-0.2859 -2.18044,-1.12038 -2.57227,-2.36328 l -0.10547,-0.33789 0,-3.91602 0,-3.91406 0.10547,-0.33789 c 0.35914,-1.14704 1.18998,-1.97153 2.31641,-2.29883 l 0.3457,-0.0996 0,-4.71875 0,-4.7168 -8.9668,0 c -8.81346,-10e-5 -8.96776,-0.002 -9.10937,-0.0879 -0.30764,-0.18758 -0.2832,0.71377 -0.2832,-10.57617 0,-6.78149 -0.015,-10.2168 -0.0449,-10.2168 -0.0295,0 -0.0469,-0.93765 -0.0469,-2.72265 l 0,-2.72266 z m 2.83594,0 0.65234,0 0.65234,0 0,2.72266 c 0,1.785 -0.0154,2.72265 -0.0449,2.72265 -0.0298,0 -0.0449,2.79774 -0.0449,8.30274 l 0,8.30273 12.03906,0 c 13.3058,0 12.21033,-0.0253 12.39844,0.28321 0.086,0.14117 0.0879,0.27778 0.0879,6.79101 l 0,6.64649 0.19141,0.0488 c 1.03399,0.2663 1.78973,0.86684 2.23437,1.77344 0.35953,0.73303 0.3418,0.47243 0.3418,4.81836 0,3.6076 -0.006,3.89136 -0.082,4.16406 -0.32837,1.1709 -1.24749,2.09535 -2.39258,2.40625 -0.38462,0.104 -1.14574,0.12785 -1.50781,0.0469 -1.27146,-0.2859 -2.18044,-1.12038 -2.57227,-2.36328 l -0.10547,-0.33789 0,-3.91602 0,-3.91406 0.10547,-0.33789 c 0.35914,-1.14704 1.18998,-1.97153 2.31641,-2.29883 l 0.3457,-0.0996 0,-6.29297 0,-6.29297 -12.04883,0 c -11.87071,-1e-4 -12.05142,-9.9e-4 -12.19336,-0.0879 -0.30654,-0.18694 -0.2832,0.54797 -0.2832,-9 0,-5.7315 -0.0151,-8.64258 -0.0449,-8.64258 -0.0295,0 -0.0449,-0.93765 -0.0449,-2.72265 l 0,-2.72266 z m 2.83593,0 0.65235,0 0.65234,0 0,9.45117 0,9.44922 14.85156,0 c 16.41684,0 15.02031,-0.0262 15.20899,0.28321 0.086,0.14149 0.0879,0.29025 0.0879,8.33984 l 0,8.19726 0.25,0.0312 c 1.15884,0.1448 2.12713,0.8227 2.62695,1.8418 0.35953,0.73303 0.3418,0.47243 0.3418,4.81836 0,3.6076 -0.006,3.89136 -0.082,4.16406 -0.32837,1.1709 -1.24749,2.09535 -2.39258,2.40625 -0.38462,0.104 -1.14574,0.12785 -1.50781,0.0469 -1.27146,-0.2859 -2.18044,-1.12038 -2.57227,-2.36328 l -0.10547,-0.33789 0,-3.91602 0,-3.91406 0.10547,-0.33789 c 0.29608,-0.93914 0.89043,-1.65007 1.73242,-2.07227 0.19468,-0.0975 0.38377,-0.17773 0.41797,-0.17773 0.0533,0 0.0606,-1.20672 0.0606,-7.94141 l 0,-7.94336 -14.85938,0 c -14.66018,-10e-5 -14.86374,-9.9e-4 -15.00586,-0.0879 -0.30514,-0.18603 -0.2832,0.38233 -0.2832,-7.42383 0,-7.03724 -2.8e-4,-7.06836 -0.0898,-7.06836 -0.089,0 -0.0898,-0.0302 -0.0898,-2.72265 l 0,-2.72266 z m -17.10156,1.80078 0.74219,0 0.74414,0 0,1.82227 c 0,1.7925 -0.003,1.82226 -0.0918,1.82226 -0.0896,0 -0.0898,0.0296 -0.0898,10.2168 0,11.28995 0.0244,10.38859 -0.2832,10.57617 -0.13899,0.085 -0.24724,0.0879 -3.08008,0.0879 l -2.93555,0 0,4.72266 0,4.72266 0.19141,0.0488 c 1.034,0.2663 1.78974,0.86684 2.23437,1.77344 0.35953,0.73303 0.3418,0.47243 0.3418,4.81836 0,3.6076 -0.006,3.89136 -0.082,4.16406 -0.32837,1.1709 -1.24749,2.09535 -2.39258,2.40625 -0.38463,0.105 -1.14575,0.12785 -1.50781,0.0469 -1.27147,-0.2858 -2.18043,-1.12038 -2.57227,-2.36328 l -0.10547,-0.33789 0,-3.91407 0,-3.91601 0.10547,-0.33789 c 0.35914,-1.14692 1.18998,-1.96958 2.31641,-2.29688 l 0.3457,-0.10156 0,-5.06641 c 10e-5,-4.94596 0.002,-5.0703 0.0879,-5.21093 0.17941,-0.29423 0.0548,-0.28321 3.28516,-0.28321 l 2.92578,0 0,-9.87695 c 0,-9.84751 -1e-4,-9.87891 -0.0899,-9.87891 -0.089,0 -0.0898,-0.0298 -0.0898,-1.82226 l 0,-1.82227 z m 19.8457,0 0.74219,0 0.74219,0 0,1.82227 c 0,1.7925 -10e-4,1.82226 -0.0899,1.82226 -0.0895,0 -0.0898,0.0298 -0.0898,5.15235 l 0,5.15234 18.21289,0 c 17.98522,10e-5 18.21712,9.9e-4 18.35938,0.0879 0.30734,0.18742 0.2832,-0.66871 0.2832,10.14649 l 0,9.78711 0.19141,0.0488 c 1.03399,0.2663 1.78973,0.86684 2.23437,1.77344 0.35953,0.73303 0.3418,0.47243 0.3418,4.81836 0,3.6076 -0.006,3.89136 -0.082,4.16406 -0.32837,1.1709 -1.24749,2.09535 -2.39258,2.40625 -0.38463,0.105 -1.14575,0.12785 -1.50781,0.0469 -1.27147,-0.2858 -2.18043,-1.12038 -2.57227,-2.36328 l -0.10547,-0.33789 0,-3.91407 0,-3.91601 0.10547,-0.33789 c 0.35914,-1.14691 1.18998,-1.96958 2.31641,-2.29688 l 0.3457,-0.10156 0,-9.44336 0,-9.44336 -18.20508,0 c -16.34763,0 -18.21883,-0.006 -18.33984,-0.0684 -0.0741,-0.0383 -0.17436,-0.13564 -0.22266,-0.21484 -0.086,-0.14081 -0.0879,-0.26771 -0.0879,-5.64454 -2e-4,-5.47125 -3.8e-4,-5.50195 -0.0898,-5.50195 -0.089,0 -0.0899,-0.0298 -0.0899,-1.82226 l 0,-1.82227 z m 26.73047,0.49414 2.85742,0 2.85743,0 0,1.32813 0,1.32812 11.64257,0 c 11.46903,2e-4 11.64716,9.9e-4 11.78907,0.0879 0.0792,0.0483 0.17459,0.14855 0.21289,0.22266 0.0627,0.12121 0.0703,2.83472 0.0703,27.02539 0,24.19068 -0.008,26.90614 -0.0703,27.02734 -0.0383,0.0741 -0.13369,0.17466 -0.21289,0.22266 -0.14075,0.088 -0.26877,0.0879 -5.51172,0.0879 l -5.36524,0 0,1.32813 0,1.32812 -2.85742,0 -2.85742,0 0,-3.21875 0,-3.2168 2.85742,0 2.85742,0 0,1.32813 0,1.32617 5.01758,0 5.01758,0 0,-26.21094 0,-26.21289 -11.29492,0 -11.29492,0 0,1.32617 0,1.32813 -2.85743,0 -2.85742,0 0,-3.2168 0,-3.21875 z m -52.13281,38.33985 c -0.93857,0 -1.77734,0.83874 -1.77734,1.77734 0,0.7301 0.53521,1.4625 1.23632,1.6875 1.35113,0.4335 2.65121,-0.85664 2.22852,-2.21094 -0.22278,-0.7138 -0.9489,-1.2539 -1.6875,-1.2539 z m 9,0 c -0.93857,0 -1.77734,0.83874 -1.77734,1.77734 0,0.7301 0.5352,1.4625 1.23632,1.6875 1.35113,0.4335 2.65121,-0.85664 2.22852,-2.21094 -0.22278,-0.7138 -0.9489,-1.2539 -1.6875,-1.2539 z m 9,0 c -0.93857,0 -1.77734,0.83874 -1.77734,1.77734 0,0.7301 0.5352,1.4625 1.23632,1.6875 1.35113,0.4335 2.65121,-0.85664 2.22852,-2.21094 -0.22278,-0.7138 -0.9489,-1.2539 -1.6875,-1.2539 z m 9,0 c -0.93857,0 -1.77734,0.83874 -1.77734,1.77734 0,0.7301 0.5352,1.4625 1.23632,1.6875 1.35113,0.4335 2.6512,-0.85664 2.22852,-2.21094 -0.22278,-0.7138 -0.9489,-1.2539 -1.6875,-1.2539 z m 9,0 c -0.93857,0 -1.77734,0.83874 -1.77734,1.77734 0,0.7301 0.5352,1.4625 1.23632,1.6875 1.35113,0.4335 2.6512,-0.85664 2.22852,-2.21094 -0.22278,-0.7138 -0.9489,-1.2539 -1.6875,-1.2539 z m 9,0 c -0.93857,0 -1.77734,0.83874 -1.77734,1.77734 0,0.7301 0.5352,1.4625 1.23632,1.6875 1.35113,0.4335 2.6512,-0.85664 2.22852,-2.21094 -0.22278,-0.7138 -0.9489,-1.2539 -1.6875,-1.2539 z m 9,0 c -0.93857,0 -1.77734,0.83874 -1.77734,1.77734 0,0.7301 0.5352,1.4625 1.23632,1.6875 1.35113,0.4335 2.6512,-0.85664 2.22852,-2.21094 -0.22278,-0.7138 -0.9489,-1.2539 -1.6875,-1.2539 z m 9,0 c -0.93857,0 -1.77734,0.83874 -1.77734,1.77734 0,0.7301 0.5352,1.4625 1.23632,1.6875 1.35113,0.4335 2.6512,-0.85664 2.22852,-2.21094 -0.22278,-0.7138 -0.9489,-1.2539 -1.6875,-1.2539 z m 9,0 c -0.93857,0 -1.77734,0.83874 -1.77734,1.77734 0,0.7301 0.5352,1.4625 1.23632,1.6875 1.35113,0.4335 2.6512,-0.85664 2.22852,-2.21094 -0.22278,-0.7138 -0.9489,-1.2539 -1.6875,-1.2539 z"
       id="path4147-6-4"
       inkscape:connector-curvature="0" />
    <ellipse
       style="fill:none;fill-opacity:1;stroke:#ff0000;stroke-width:0.37027922;stroke-miterlimit:4;stroke-dasharray:none;stroke-opacity:1"
       id="path4232-45-3"
       cx="121.55737"
       cy="716.41278"
       rx="0.82470292"
       ry="0.85769105" />
    <ellipse
       style="fill:none;fill-opacity:1;stroke:#ff0000;stroke-width:0.37027922;stroke-miterlimit:4;stroke-dasharray:none;stroke-opacity:1"
       id="path4232-7-3-8"
       cx="130.5856"
       cy="716.44434"
       rx="0.82470292"
       ry="0.85769105" />
    <ellipse
       style="fill:none;fill-opacity:1;stroke:#ff0000;stroke-width:0.37027922;stroke-miterlimit:4;stroke-dasharray:none;stroke-opacity:1"
       id="path4232-0-6-2"
       cx="112.58228"
       cy="716.46857"
       rx="0.82470292"
       ry="0.85769105" />
    <ellipse
       style="fill:none;fill-opacity:1;stroke:#ff0000;stroke-width:0.37027922;stroke-miterlimit:4;stroke-dasharray:none;stroke-opacity:1"
       id="path4232-3-1-1"
       cx="103.56403"
       cy="716.47595"
       rx="0.82470292"
       ry="0.85769105" />
    <ellipse
       style="fill:none;fill-opacity:1;stroke:#ff0000;stroke-width:0.37027922;stroke-miterlimit:4;stroke-dasharray:none;stroke-opacity:1"
       id="path4232-6-4-1"
       cx="94.553925"
       cy="716.48798"
       rx="0.82470292"
       ry="0.85769105" />
    <ellipse
       style="fill:none;fill-opacity:1;stroke:#ff0000;stroke-width:0.37027922;stroke-miterlimit:4;stroke-dasharray:none;stroke-opacity:1"
       id="path4232-8-6-9"
       cx="85.61322"
       cy="716.40546"
       rx="0.82470292"
       ry="0.85769105" />
    <ellipse
       style="fill:none;fill-opacity:1;stroke:#ff0000;stroke-width:0.37027922;stroke-miterlimit:4;stroke-dasharray:none;stroke-opacity:1"
       id="path4232-82-8-9"
       cx="76.573029"
       cy="716.41663"
       rx="0.82470292"
       ry="0.85769105" />
    <ellipse
       style="fill:none;fill-opacity:1;stroke:#ff0000;stroke-width:0.37027922;stroke-miterlimit:4;stroke-dasharray:none;stroke-opacity:1"
       id="path4232-1-4-6"
       cx="67.577332"
       cy="716.38123"
       rx="0.82470292"
       ry="0.85769105" />
    <ellipse
       style="fill:none;fill-opacity:1;stroke:#ff0000;stroke-width:0.37027922;stroke-miterlimit:4;stroke-dasharray:none;stroke-opacity:1"
       id="path4232-61-5-2"
       cx="58.517551"
       cy="716.47595"
       rx="0.82470292"
       ry="0.85769105" />
    <ellipse
       style="fill:none;fill-opacity:1;stroke:#ff0000;stroke-width:0.37027922;stroke-miterlimit:4;stroke-dasharray:none;stroke-opacity:1"
       id="path4232-10-6-9"
       cx="49.583988"
       cy="716.38123"
       rx="0.82470292"
       ry="0.85769105" />
    <ellipse
       style="fill:none;fill-opacity:1;stroke:#ff0000;stroke-width:0.37027922;stroke-miterlimit:4;stroke-dasharray:none;stroke-opacity:1"
       id="path4232-5-3-4"
       cx="40.546238"
       cy="716.43896"
       rx="0.82470292"
       ry="0.85769105" />
    <ellipse
       style="fill:none;fill-opacity:1;stroke:#ff0000;stroke-width:0.37027922;stroke-miterlimit:4;stroke-dasharray:none;stroke-opacity:1"
       id="path4232-9-7-2"
       cx="157.51248"
       cy="716.47595"
       rx="0.82470292"
       ry="0.85769105" />
    <ellipse
       style="fill:none;fill-opacity:1;stroke:#ff0000;stroke-width:0.37027922;stroke-miterlimit:4;stroke-dasharray:none;stroke-opacity:1"
       id="path4232-62-3-8"
       cx="148.54739"
       cy="716.47595"
       rx="0.82470292"
       ry="0.85769105" />
    <ellipse
       style="fill:none;fill-opacity:1;stroke:#ff0000;stroke-width:0.37027922;stroke-miterlimit:4;stroke-dasharray:none;stroke-opacity:1"
       id="path4232-96-9-2"
       cx="139.52679"
       cy="716.40741"
       rx="0.82470292"
       ry="0.85769105" />
    <ellipse
       style="fill:none;fill-opacity:1;stroke:#ff0000;stroke-width:0.37027922;stroke-miterlimit:4;stroke-dasharray:none;stroke-opacity:1"
       id="path4232-95-6-0"
       cx="162.07397"
       cy="824.9884"
       rx="0.82470292"
       ry="0.85769105" />
    <ellipse
       style="fill:none;fill-opacity:1;stroke:#ff0000;stroke-width:0.37027922;stroke-miterlimit:4;stroke-dasharray:none;stroke-opacity:1"
       id="path4232-71-1-5"
       cx="153.06152"
       cy="824.9411"
       rx="0.82470292"
       ry="0.85769105" />
    <ellipse
       style="fill:none;fill-opacity:1;stroke:#ff0000;stroke-width:0.37027922;stroke-miterlimit:4;stroke-dasharray:none;stroke-opacity:1"
       id="path4232-01-1-0"
       cx="144.03326"
       cy="824.89368"
       rx="0.82470292"
       ry="0.85769105" />
    <ellipse
       style="fill:none;fill-opacity:1;stroke:#ff0000;stroke-width:0.37027922;stroke-miterlimit:4;stroke-dasharray:none;stroke-opacity:1"
       id="path4232-72-7-9"
       cx="135.06818"
       cy="824.90948"
       rx="0.82470292"
       ry="0.85769105" />
    <ellipse
       style="fill:none;fill-opacity:1;stroke:#ff0000;stroke-width:0.37027922;stroke-miterlimit:4;stroke-dasharray:none;stroke-opacity:1"
       id="path4232-93-5-2"
       cx="126.0636"
       cy="824.89362"
       rx="0.82470292"
       ry="0.85769105" />
    <ellipse
       style="fill:none;fill-opacity:1;stroke:#ff0000;stroke-width:0.37027922;stroke-miterlimit:4;stroke-dasharray:none;stroke-opacity:1"
       id="path4232-4-0-9"
       cx="117.0976"
       cy="824.99921"
       rx="0.82470292"
       ry="0.85769105" />
    <ellipse
       style="fill:none;fill-opacity:1;stroke:#ff0000;stroke-width:0.37027922;stroke-miterlimit:4;stroke-dasharray:none;stroke-opacity:1"
       id="path4232-99-4-9"
       cx="108.09088"
       cy="824.87653"
       rx="0.82470292"
       ry="0.85769105" />
    <ellipse
       style="fill:none;fill-opacity:1;stroke:#ff0000;stroke-width:0.37027922;stroke-miterlimit:4;stroke-dasharray:none;stroke-opacity:1"
       id="path4232-11-4-0"
       cx="99.039551"
       cy="824.93219"
       rx="0.82470292"
       ry="0.85769105" />
    <ellipse
       style="fill:none;fill-opacity:1;stroke:#ff0000;stroke-width:0.37027922;stroke-miterlimit:4;stroke-dasharray:none;stroke-opacity:1"
       id="path4232-2-0-4"
       cx="90.122131"
       cy="824.94342"
       rx="0.82470292"
       ry="0.85769105" />
    <rect
       style="fill:none;fill-rule:evenodd;stroke:#0000ff;stroke-width:0.99130416px;stroke-linecap:butt;stroke-linejoin:miter;stroke-opacity:1"
       id="rect4375-0-1"
       width="171.11296"
       height="147.46208"
       x="4.2408056"
       y="703.12823" />
    <ellipse
       style="fill:none;fill-opacity:1;stroke:#ff0000;stroke-width:0.37027922;stroke-miterlimit:4;stroke-dasharray:none;stroke-opacity:1"
       id="path4232-2-5-3-5"
       cx="43.065403"
       cy="766.35315"
       rx="0.82470292"
       ry="0.85769105" />
    <ellipse
       style="fill:none;fill-opacity:1;stroke:#ff0000;stroke-width:0.37027922;stroke-miterlimit:4;stroke-dasharray:none;stroke-opacity:1"
       id="path4232-2-8-7-1"
       cx="42.960758"
       cy="775.40424"
       rx="0.82470292"
       ry="0.85769105" />
    <text
       xml:space="preserve"
       style="font-style:normal;font-variant:normal;font-weight:normal;font-stretch:normal;font-size:6.96545219px;line-height:125%;font-family:monospace;-inkscape-font-specification:'monospace, Normal';text-align:start;letter-spacing:0px;word-spacing:0px;writing-mode:lr-tb;text-anchor:start;fill:#ffffff;fill-opacity:1;stroke:none;stroke-width:1px;stroke-linecap:butt;stroke-linejoin:miter;stroke-opacity:1"
       x="704.72662"
       y="-165.99013"
       id="text4247-0-8"
       sodipodi:linespacing="125%"
       transform="matrix(0,1.0063425,-0.99369747,0,0,0)"><tspan
         sodipodi:role="line"
         id="tspan4249-2-0"
         x="704.72662"
         y="-165.99013">satshakit</tspan></text>
  </g>
</svg>
