<?xml version="1.0" encoding="UTF-8" standalone="no"?>
<svg
   xmlns:dc="http://purl.org/dc/elements/1.1/"
   xmlns:cc="http://creativecommons.org/ns#"
   xmlns:rdf="http://www.w3.org/1999/02/22-rdf-syntax-ns#"
   xmlns:svg="http://www.w3.org/2000/svg"
   xmlns="http://www.w3.org/2000/svg"
   viewBox="0 0 189.72 165.69"
   height="165.69"
   width="189.72"
   version="1.1"
   id="svg2">
  <metadata
     id="metadata8">
    <rdf:RDF>
      <cc:Work
         rdf:about="">
        <dc:format>image/svg+xml</dc:format>
        <dc:type
           rdf:resource="http://purl.org/dc/dcmitype/StillImage" />
        <dc:title></dc:title>
      </cc:Work>
    </rdf:RDF>
  </metadata>
  <defs
     id="defs6">
    <pattern
       id="EMFhbasepattern"
       patternUnits="userSpaceOnUse"
       width="6"
       height="6"
       x="0"
       y="0" />
  </defs>
  <flowRoot
     xml:space="preserve"
     id="flowRoot4706-6-1"
     style="font-style:normal;font-variant:normal;font-weight:normal;font-stretch:normal;font-size:40px;line-height:125%;font-family:Purisa;-inkscape-font-specification:'Purisa, Normal';text-align:start;letter-spacing:0px;word-spacing:0px;writing-mode:lr-tb;text-anchor:start;fill:#000000;fill-opacity:1;stroke:none;stroke-width:1px;stroke-linecap:butt;stroke-linejoin:miter;stroke-opacity:1"
     transform="translate(536.70328,-331.62533)"><flowRegion
       id="flowRegion4708-3-2"><rect
         id="rect4710-7-4"
         width="184.85791"
         height="101.01526"
         x="163.64471"
         y="-84.572792"
         style="font-style:normal;font-variant:normal;font-weight:normal;font-stretch:normal;font-size:40px;line-height:125%;font-family:Purisa;-inkscape-font-specification:'Purisa, Normal';text-align:start;writing-mode:lr-tb;text-anchor:start" /></flowRegion><flowPara
       id="flowPara4742-4"
       style="font-style:normal;font-variant:normal;font-weight:normal;font-stretch:normal;font-size:43.33374786px;line-height:89.99999762%;font-family:monospace;-inkscape-font-specification:'monospace, Normal';text-align:center;writing-mode:lr-tb;text-anchor:middle" /></flowRoot>  <flowRoot
     xml:space="preserve"
     id="flowRoot4706-6-1-8"
     style="font-style:normal;font-variant:normal;font-weight:normal;font-stretch:normal;font-size:40px;line-height:125%;font-family:Purisa;-inkscape-font-specification:'Purisa, Normal';text-align:start;letter-spacing:0px;word-spacing:0px;writing-mode:lr-tb;text-anchor:start;fill:#000000;fill-opacity:1;stroke:none;stroke-width:1px;stroke-linecap:butt;stroke-linejoin:miter;stroke-opacity:1"
     transform="translate(448.11304,-440.21322)"><flowRegion
       id="flowRegion4708-3-2-0"><rect
         id="rect4710-7-4-9"
         width="184.85791"
         height="101.01526"
         x="163.64471"
         y="-84.572792"
         style="font-style:normal;font-variant:normal;font-weight:normal;font-stretch:normal;font-size:40px;line-height:125%;font-family:Purisa;-inkscape-font-specification:'Purisa, Normal';text-align:start;writing-mode:lr-tb;text-anchor:start" /></flowRegion><flowPara
       id="flowPara4742-4-5"
       style="font-style:normal;font-variant:normal;font-weight:normal;font-stretch:normal;font-size:43.33374786px;line-height:89.99999762%;font-family:monospace;-inkscape-font-specification:'monospace, Normal';text-align:center;writing-mode:lr-tb;text-anchor:middle" /></flowRoot>  <text
     xml:space="preserve"
     style="font-style:normal;font-weight:normal;font-size:40px;line-height:125%;font-family:sans-serif;letter-spacing:0px;word-spacing:0px;fill:#000000;fill-opacity:1;stroke:none;stroke-width:1px;stroke-linecap:butt;stroke-linejoin:miter;stroke-opacity:1"
     x="373.97794"
     y="-366.77957"
     id="text4243"><tspan
       id="tspan4245"
       x="373.97794"
       y="-366.77957" /></text>
  <rect
     style="fill:#ffffff;fill-opacity:1;stroke:none;stroke-width:0.35433072;stroke-miterlimit:4;stroke-dasharray:none;stroke-opacity:1"
     id="rect4835"
     width="0"
     height="123.11785"
     x="719.92004"
     y="-308.6304" />
  <g
     id="g3667">
    <path
       style="fill:#000000"
       d="M 0,82.845002 0,2.4414063e-6 l 94.86,0 94.86,0 0,82.8449995585937 0,82.844998 -94.86,0 -94.86,0 0,-82.844998 z m 153.99,69.389998 0,-3.195 -2.835,0 -2.835,0 0,1.305 0,1.305 -67.95,0 -67.95,0 0,-4.68 0,-4.68 0.72,0 0.72,0 0,-3.195 0,-3.195 -0.675,0 -0.675,0 0,-9.225 0,-9.225 0.72,0 0.72,0 0,-3.195 0,-3.195 -0.72,0 -0.72,0 0,-3.42 0,-3.42 7.99657,0 c 5.45948,0 8.08442,-0.0306 8.27347,-0.0965 0.18498,-0.0645 0.30895,-0.18846 0.37343,-0.37344 0.0587,-0.16835 0.0965,-1.15369 0.0965,-2.51347 l 0,-2.236568 1.08,0 1.08,0 0,-4.095 0,-4.095 -1.08,0 -1.08,0 0,-3.51 0,-3.51 2.115,0 c 1.99381,0 2.115,0.0095 2.115,0.165625 0,0.331109 0.55229,1.26124 0.99451,1.674882 0.24818,0.232146 0.68282,0.530625 0.96586,0.663288 0.43871,0.205619 0.63413,0.241205 1.32463,0.241205 0.6905,0 0.88593,-0.03559 1.32463,-0.241205 0.71861,-0.336814 1.36233,-0.968814 1.71366,-1.682452 0.26375,-0.535786 0.29171,-0.670573 0.29171,-1.406363 0,-0.73579 -0.028,-0.870577 -0.29172,-1.406343 -0.35132,-0.713638 -0.99504,-1.345638 -1.71365,-1.682452 -0.43871,-0.205619 -0.63413,-0.241205 -1.32463,-0.241205 -0.6905,0 -0.88593,0.03559 -1.32463,0.241205 -0.28304,0.132663 -0.71768,0.431142 -0.96586,0.663288 -0.44222,0.413642 -0.99451,1.343773 -0.99451,1.674882 0,0.156134 -0.12119,0.165625 -2.115,0.165625 l -2.115,0 0,-3.51 0,-3.51 1.08,0 1.08,0 0,-4.095 0,-4.095 -1.08,0 -1.08,0 0,-4.359141 c 0,-4.297577 -0.0279,-4.758296 -0.29813,-4.93015 -0.0588,-0.03737 -2.12175,-0.06857 -4.58437,-0.06933 l -4.4775,-0.0014 0,-8.37 0,-8.37 11.16,0 11.16,0 0,1.08 0,1.08 3.195,0 3.195,0 0,-1.305 0,-1.305 1.485,0 1.485,0 0.001,8.0775 c 7.2e-4,4.442625 0.032,8.125591 0.0693,8.18437 0.0374,0.05878 0.18114,0.149903 0.31948,0.2025 0.1739,0.06612 4.87443,0.09563 15.23067,0.09563 l 14.97914,0 10e-4,7.8075 c 7.2e-4,4.294125 0.032,7.855591 0.0693,7.91437 0.20097,0.316055 0.33504,0.318727 15.94929,0.317786 8.82087,-5.4e-4 15.2302,0.03229 15.075,0.0772 -0.1485,0.04297 -3.77325,1.04113 -8.055,2.218135 l -7.78504,2.140009 -10.1925,-0.02326 -10.1925,-0.02326 0,-6.653377 c 0,-6.596829 -0.0186,-7.046619 -0.29813,-7.224386 -0.0588,-0.03737 -5.92269,-0.06857 -13.03092,-0.06933 l -12.92405,-0.0014 -0.27605,-0.444074 c -0.15182,-0.244241 -0.44892,-0.569302 -0.66021,-0.722358 -0.72448,-0.524812 -0.98419,-0.555094 -4.50603,-0.525388 -3.01225,0.02541 -3.20117,0.03679 -3.58918,0.216329 -0.59879,0.277058 -1.03483,0.699825 -1.31932,1.279147 -0.20704,0.4216 -0.25111,0.629811 -0.25111,1.186344 0,1.124998 0.5544,1.995374 1.57043,2.465491 0.38801,0.179534 0.57693,0.19092 3.58918,0.216329 2.63837,0.02225 3.2598,0.0035 3.65074,-0.110143 0.92507,-0.268925 1.63105,-1.009621 1.85599,-1.947251 l 0.10661,-0.444426 4.13103,0 4.13102,0 0,3.735 0,3.735 -1.125,0 -1.125,0 0,3.195 0,3.195 2.835,0 2.835,0 0,-3.195 0,-3.195 -0.4275,-0.01874 c -0.23513,-0.01031 -0.74138,-0.0062 -1.125,0.0091 l -0.6975,0.02781 0,-3.744072 0,-3.744073 7.74,0 7.74,0 10e-4,6.7725 c 7.2e-4,3.724875 0.032,6.820591 0.0693,6.87937 0.1793,0.28198 0.62431,0.29813 8.21515,0.29813 5.03609,0 7.64414,0.03071 7.64414,0.09 0,0.05803 0.975,0.09 2.745,0.09 2.27515,0 2.745,-0.02128 2.745,-0.124316 0,-0.0734 0.1751,-0.167816 0.4275,-0.230525 0.23513,-0.05842 4.23572,-1.156724 8.89022,-2.440685 4.6545,-1.283961 8.53062,-2.334474 8.61362,-2.334474 0.083,0 0.68926,0.277906 1.34727,0.617568 1.14543,0.591262 1.27211,0.634045 2.97389,1.00438 1.54451,0.336109 1.7775,0.40905 1.7775,0.556452 0,0.165245 0.18598,0.168165 7.1775,0.112704 4.16414,-0.03303 7.29728,-0.09333 7.4628,-0.143624 0.20037,-0.06088 0.31423,-0.169692 0.3825,-0.365514 0.0672,-0.192694 0.0972,-3.152163 0.0972,-9.580396 l 0,-9.30157 3.105,0 3.105,0 0,1.08 0,1.08 3.195,0 3.195,0 0,-1.125 0,-1.125 3.96,0 3.96,0 0,1.17 0,1.17 3.195,0 3.195,0 0,-2.835 0,-2.835 -3.195,0 -3.195,0 0,1.08 0,1.08 -3.96,0 -3.96,0 0,-1.125 0,-1.125 -3.195,0 -3.195,0 0,1.17 0,1.17 -3.54857,0 c -3.10598,0 -3.56621,0.01764 -3.69,0.141429 -0.1268,0.126793 -0.14143,1.129416 -0.14143,9.689298 l 0,9.54787 -6.99594,-0.06424 -6.99596,-0.06424 -1.65006,-0.365643 -1.65006,-0.365643 -1.77149,-0.932881 -1.77149,-0.932882 -8.5725,-0.0015 c -7.68892,-0.0014 -8.5725,-0.01593 -8.5725,-0.141283 0,-0.125687 -0.70206,-0.133306 -6.975,-0.0757 l -6.975,0.06405 0,-7.70344 c 0,-7.650344 -0.016,-8.095068 -0.29813,-8.274448 -0.0588,-0.03737 -6.90074,-0.06857 -15.20437,-0.06933 l -15.09752,-0.0014 0,-7.959141 c 0,-7.906951 -0.0155,-8.350437 -0.29813,-8.53015 -0.0588,-0.03737 -0.94725,-0.06857 -1.97437,-0.06933 l -1.8675,-0.0014 0,-0.945 0,-0.945 -3.195,0 -3.195,0 0,1.17 0,1.17 -11.60357,0 c -10.4287,0 -11.61789,0.01432 -11.745,0.141429 -0.12675,0.126744 -0.14129,1.096247 -0.14005,9.3375 7.2e-4,5.057839 0.032,9.244162 0.0693,9.302941 0.17185,0.27027 0.63257,0.29813 4.93015,0.29813 l 4.35914,0 0,4.095 0,4.095 -1.08,0 -1.08,0 0,4.095 0,4.095 1.08,0 1.08,0 0,7.605 0,7.605 -1.08,0 -1.08,0 0,4.095 0,4.095 1.08,0 1.08,0 0,2.024999 0,2.025 -8.22857,0 c -7.36052,0 -8.24349,0.0149 -8.37,0.14143 -0.12418,0.12418 -0.14143,0.61266 -0.14143,4.005 l 0,3.86357 -0.72,0 -0.72,0 0,3.195 0,3.195 0.72,0 0.72,0 0,9.225 0,9.225 -0.765,0 -0.765,0 0,3.195 0,3.195 0.72,0 0.72,0 0.001,5.0625 c 7.2e-4,2.78437 0.032,5.11059 0.0693,5.16937 0.0374,0.0588 0.18114,0.1499 0.31948,0.2025 0.17675,0.0672 20.52986,0.0956 68.46567,0.0956 l 68.21414,0 0,1.305 0,1.305 2.835,0 2.835,0 0,-3.195 z M 36,84.757729 c -1.20466,-0.644109 -1.30848,-2.203395 -0.19875,-2.985061 1.07883,-0.759896 2.59078,-0.02141 2.69572,1.31668 0.10308,1.314477 -1.3469,2.283301 -2.49697,1.668381 z m 8.82,-18.27 c -1.20466,-0.644109 -1.30848,-2.203395 -0.19875,-2.985061 1.07883,-0.759896 2.59078,-0.02141 2.69572,1.316679 0.10308,1.314478 -1.3469,2.283302 -2.49697,1.668382 z m 119.07,87.637271 0,-1.305 5.02657,0 c 3.34557,0 5.11917,-0.0323 5.30347,-0.0965 0.18498,-0.0645 0.30895,-0.18845 0.37343,-0.37343 0.13555,-0.38884 0.13644,-57.553353 9e-4,-57.909843 -0.0526,-0.138348 -0.14372,-0.282114 -0.2025,-0.319482 -0.0588,-0.03738 -5.36174,-0.06858 -11.78436,-0.06934 l -11.67751,-0.0014 0,-1.305 0,-1.305 -2.835,0 -2.835,0 0,3.195 0,3.195 2.835,0 2.835,0 0,-1.305 0,-1.305 11.295,0 11.295,0 0,28.215005 0,28.215 -4.815,0 -4.815,0 0,-1.305 0,-1.305 -2.835,0 -2.835,0 0,3.195 0,3.195 2.835,0 2.835,0 0,-1.305 z M 49.5,144.27 l 0,-4.59 17.22157,0 c 12.02542,0 17.30512,-0.0291 17.49847,-0.0965 0.18498,-0.0645 0.30895,-0.18845 0.37343,-0.37343 0.0678,-0.19458 0.0965,-7.91161 0.0965,-25.95847 l 0,-25.681568 3.555,0 c 3.1,0 3.555,0.01728 3.555,0.135 0,0.115609 0.265,0.135 1.845,0.135 l 1.845,0 0,-0.779523 0,-0.779524 -2.7675,0.05936 c -1.52212,0.03265 -4.15173,0.05944 -5.84357,0.05952 -2.67629,1.8e-4 -3.09445,0.01854 -3.2175,0.141587 -0.12792,0.127895 -0.14143,2.617187 -0.14143,26.054978 l 0,25.91357 -17.01,0 -17.01,0 0,-4.59 0,-4.59 -3.555,0 -3.555,0 0,4.59 0,4.59 -8.955,0 -8.955,0 0,-1.305 0,-1.305 -2.025,0 -2.025,0 0,3.195 0,3.195 2.025,0 2.025,0 0,-1.305 0,-1.305 8.955,0 8.955,0 0,4.59 0,4.59 3.555,0 3.555,0 0,-4.59 z m 45.00804,-9.56298 c 0.61598,-0.30137 1.27971,-0.95661 1.56907,-1.54902 0.35982,-0.73664 0.42144,-1.59744 0.38126,-5.326 -0.031,-2.8762 -0.0602,-3.47887 -0.18771,-3.86835 -0.30173,-0.92182 -1.17117,-1.8093 -2.07089,-2.11387 l -0.46477,-0.15734 -0.0231,-6.26122 -0.0231,-6.26122 2.77718,0 c 1.74455,0 2.88014,-0.0359 3.05408,-0.0965 0.18499,-0.0645 0.30895,-0.18846 0.37344,-0.37344 0.0655,-0.1878 0.0965,-2.50269 0.0965,-7.19347 0,-4.551044 0.0308,-6.916568 0.09,-6.916568 0.0571,0 0.09,-0.675 0.09,-1.845 l 0,-1.845 -0.765,0 -0.765,0 0,1.845 c 0,1.17 0.0329,1.845 0.09,1.845 0.0592,0 0.09,2.295 0.09,6.704998 l 0,6.705 -3.00858,0 c -2.61505,0 -3.02706,0.0185 -3.15,0.14143 -0.12603,0.12601 -0.14142,0.86979 -0.14142,6.8336 l 0,6.69218 -0.48184,0.14008 c -0.91627,0.26636 -1.82246,1.13923 -2.14167,2.06292 -0.14478,0.41896 -0.16061,0.85953 -0.16061,4.46977 0,3.61024 0.0158,4.05081 0.16061,4.46977 0.30585,0.88502 1.12827,1.70952 2.02374,2.02887 0.70663,0.252 1.93101,0.18973 2.58781,-0.13162 z M 92.34,129.93772 c -1.20466,-0.6441 -1.30847,-2.20338 -0.19875,-2.98505 1.07883,-0.7599 2.59078,-0.0214 2.69572,1.31667 0.10308,1.31449 -1.3469,2.28331 -2.49697,1.66838 z m 11.16804,4.7693 c 0.61598,-0.30137 1.27971,-0.95661 1.56907,-1.54902 0.35983,-0.73664 0.42144,-1.59744 0.38126,-5.326 -0.041,-3.8057 -0.062,-3.95569 -0.66871,-4.77569 -0.41365,-0.55907 -1.11575,-1.08456 -1.63449,-1.2233 l -0.39768,-0.10636 0.0378,-16.31333 0.0378,-16.313318 -0.63811,0 -0.63811,0 0.0379,16.272108 0.0379,16.27211 -0.53386,0.14842 c -0.96133,0.26728 -1.87424,1.12851 -2.20222,2.07759 -0.14478,0.41896 -0.16061,0.85953 -0.16061,4.46977 0,3.61024 0.0158,4.05081 0.16061,4.46977 0.30585,0.88502 1.12827,1.70952 2.02374,2.02887 0.70663,0.252 1.93101,0.18973 2.58781,-0.13162 z m -2.16804,-4.7693 c -1.20466,-0.6441 -1.30847,-2.20338 -0.19875,-2.98505 1.07883,-0.7599 2.59078,-0.0214 2.69572,1.31667 0.10309,1.31449 -1.3469,2.28331 -2.49697,1.66838 z m 11.16804,4.7693 c 0.61598,-0.30137 1.27971,-0.95661 1.56907,-1.54902 0.35983,-0.73664 0.42144,-1.59744 0.38126,-5.326 -0.031,-2.8762 -0.0602,-3.47887 -0.18771,-3.86835 -0.30176,-0.92191 -1.17136,-1.80949 -2.07089,-2.11374 l -0.46477,-0.1572 -0.0506,-2.18886 c -0.0278,-1.20386 -0.0582,-2.19609 -0.0675,-2.20492 -0.009,-0.009 -0.0805,-0.0797 -0.15831,-0.1575 C 111.33598,117.01883 110.93887,117 108.47612,117 l -2.84102,0 0.0427,-13.95 0.0427,-13.949998 -0.64504,0 -0.64503,0 0.0342,14.242498 c 0.0188,7.83337 0.0522,14.32957 0.0742,14.43601 0.0717,0.34629 0.45206,0.39149 3.29459,0.39149 l 2.68657,0 0,1.74861 0,1.74862 -0.48184,0.14008 c -0.91627,0.26636 -1.82246,1.13923 -2.14167,2.06292 -0.14478,0.41896 -0.16061,0.85953 -0.16061,4.46977 0,3.61024 0.0158,4.05081 0.16061,4.46977 0.30585,0.88502 1.12827,1.70952 2.02374,2.02887 0.70663,0.252 1.93101,0.18973 2.58781,-0.13162 z m -2.16804,-4.7693 c -1.20466,-0.6441 -1.30847,-2.20338 -0.19875,-2.98505 1.07883,-0.7599 2.59078,-0.0214 2.69572,1.31667 0.10309,1.31449 -1.3469,2.28331 -2.49697,1.66838 z m 11.16804,4.7693 c 0.61598,-0.30137 1.27971,-0.95661 1.56907,-1.54902 0.35983,-0.73664 0.42144,-1.59744 0.38126,-5.326 -0.031,-2.8762 -0.0602,-3.47887 -0.18771,-3.86835 -0.30174,-0.92186 -1.17126,-1.8094 -2.07089,-2.11381 l -0.46477,-0.15727 -0.0489,-3.31378 c -0.0269,-1.82259 -0.0573,-3.32103 -0.0675,-3.32986 -0.0102,-0.009 -0.0823,-0.0797 -0.16005,-0.1575 -0.12572,-0.12572 -0.80203,-0.14143 -6.08803,-0.14143 l -5.9466,0 0.0454,-12.825 0.0454,-12.824998 -0.64922,0 -0.64923,0 0.0365,13.117498 c 0.0201,7.21463 0.0544,13.20458 0.0763,13.31101 0.0242,0.11776 0.15093,0.23225 0.32374,0.2925 0.19513,0.068 2.09584,0.099 6.07554,0.099 l 5.79157,0 0,2.87361 0,2.87362 -0.48184,0.14008 c -0.91627,0.26636 -1.82246,1.13923 -2.14167,2.06292 -0.14478,0.41896 -0.16061,0.85953 -0.16061,4.46977 0,3.61024 0.0158,4.05081 0.16061,4.46977 0.30585,0.88502 1.12827,1.70952 2.02374,2.02887 0.70663,0.252 1.93101,0.18973 2.58781,-0.13162 z m -2.16804,-4.7693 c -1.20466,-0.6441 -1.30847,-2.20338 -0.19875,-2.98505 1.07883,-0.7599 2.59078,-0.0214 2.69572,1.31667 0.10309,1.31449 -1.3469,2.28331 -2.49697,1.66838 z m 11.16804,4.7693 c 0.61598,-0.30137 1.27971,-0.95661 1.56907,-1.54902 0.35982,-0.73664 0.42144,-1.59744 0.38126,-5.326 -0.031,-2.8762 -0.0602,-3.47887 -0.18771,-3.86835 -0.30173,-0.92183 -1.17122,-1.80936 -2.07089,-2.11384 l -0.46477,-0.1573 -0.0478,-4.66376 c -0.0263,-2.56506 -0.0567,-4.67099 -0.0675,-4.67982 -0.0108,-0.009 -0.0833,-0.0797 -0.1611,-0.1575 -0.12669,-0.12669 -1.08028,-0.14143 -9.14873,-0.14143 l -9.0073,0 0.0491,-11.475 0.0491,-11.474998 -0.65506,0 -0.65506,0 0.0398,11.767498 c 0.0219,6.47212 0.0575,11.85457 0.0792,11.96101 0.024,0.11793 0.15029,0.23216 0.32337,0.2925 0.19907,0.0694 2.93051,0.099 9.13554,0.099 l 8.85157,0 0,4.22361 0,4.22362 -0.48184,0.14007 c -0.91627,0.26637 -1.82246,1.13924 -2.14167,2.06293 -0.14478,0.41896 -0.16061,0.85953 -0.16061,4.46977 0,3.61024 0.0158,4.05081 0.16061,4.46977 0.30585,0.88502 1.12827,1.70952 2.02374,2.02887 0.70663,0.252 1.93101,0.18973 2.58781,-0.13162 z m -2.16804,-4.7693 c -1.20466,-0.6441 -1.30847,-2.20338 -0.19875,-2.98505 1.07883,-0.7599 2.59078,-0.0214 2.69572,1.31667 0.10308,1.31449 -1.3469,2.28331 -2.49697,1.66838 z m 11.16804,4.7693 c 0.61598,-0.30137 1.27971,-0.95661 1.56907,-1.54902 0.35982,-0.73664 0.42144,-1.59744 0.38126,-5.326 -0.031,-2.8762 -0.0602,-3.47887 -0.18771,-3.86835 -0.30173,-0.92182 -1.1712,-1.80933 -2.07089,-2.11386 l -0.46477,-0.15731 -0.0472,-6.01374 c -0.026,-3.30756 -0.0564,-6.02098 -0.0675,-6.02981 -0.0111,-0.009 -0.0839,-0.0797 -0.1617,-0.1575 -0.1272,-0.12717 -1.36264,-0.14143 -12.2544,-0.14143 l -12.11295,0 0.0532,-10.124998 0.0532,-10.125 -0.66195,0 -0.66194,0 0.0435,10.4175 c 0.0239,5.729618 0.0611,10.504568 0.0826,10.611008 0.0238,0.11811 0.14968,0.23207 0.32302,0.2925 0.201,0.0701 3.77745,0.099 12.24054,0.099 l 11.95657,0 0,5.57361 0,5.57362 -0.48184,0.14007 c -0.91627,0.26637 -1.82246,1.13924 -2.14167,2.06293 -0.14478,0.41896 -0.16061,0.85953 -0.16061,4.46977 0,3.61024 0.0158,4.05081 0.16061,4.46977 0.30585,0.88502 1.12827,1.70952 2.02374,2.02887 0.70663,0.252 1.93101,0.18973 2.58781,-0.13162 z m -2.16804,-4.7693 c -1.20466,-0.6441 -1.30847,-2.20338 -0.19875,-2.98505 1.07883,-0.7599 2.59078,-0.0214 2.69572,1.31667 0.10308,1.31449 -1.3469,2.28331 -2.49697,1.66838 z m 11.16804,4.7693 c 0.61598,-0.30137 1.27971,-0.95661 1.56907,-1.54902 0.35982,-0.73664 0.42144,-1.59744 0.38126,-5.326 -0.031,-2.8762 -0.0602,-3.47887 -0.18771,-3.86835 -0.30173,-0.92182 -1.17119,-1.80932 -2.07089,-2.11387 l -0.46477,-0.15731 -0.0468,-7.36374 c -0.0258,-4.05005 -0.0561,-7.37097 -0.0675,-7.3798 -0.0114,-0.009 -0.0843,-0.0797 -0.16209,-0.1575 -0.12745,-0.12745 -1.64082,-0.14143 -15.3148,-0.14143 l -15.17337,0 0.0578,-8.774998 0.0578,-8.775 -0.67014,0 -0.67013,0 0.0478,9.0675 c 0.0263,4.987118 0.0653,9.154568 0.0866,9.261008 0.0237,0.11825 0.14922,0.232 0.32275,0.2925 0.20212,0.0705 4.61212,0.099 15.30054,0.099 l 15.01657,0 0,6.92361 0,6.92362 -0.48184,0.14007 c -0.91627,0.26637 -1.82246,1.13924 -2.14167,2.06293 -0.14478,0.41896 -0.16061,0.85953 -0.16061,4.46977 0,3.61024 0.0158,4.05081 0.16061,4.46977 0.30585,0.88502 1.12827,1.70952 2.02374,2.02887 0.70663,0.252 1.93101,0.18973 2.58781,-0.13162 z m -2.16804,-4.7693 c -1.20466,-0.6441 -1.30847,-2.20338 -0.19875,-2.98505 1.07883,-0.7599 2.59078,-0.0214 2.69572,1.31667 0.10308,1.31449 -1.3469,2.28331 -2.49697,1.66838 z m 11.16804,4.7693 c 0.61598,-0.30137 1.27971,-0.95661 1.56907,-1.54902 0.35982,-0.73664 0.42144,-1.59744 0.38126,-5.326 -0.031,-2.8762 -0.0602,-3.47887 -0.18771,-3.86835 -0.30173,-0.92182 -1.17118,-1.80931 -2.07089,-2.11387 l -0.46477,-0.15732 -0.0466,-8.71373 c -0.0256,-4.79256 -0.056,-8.72097 -0.0675,-8.7298 -0.0115,-0.009 -0.0846,-0.0797 -0.16236,-0.1575 -0.12764,-0.12764 -1.92175,-0.14143 -18.405,-0.14143 l -18.26357,0 0,-4.679998 c 0,-3.06 0.0312,-4.68 0.09,-4.68 0.0571,0 0.09,-0.675 0.09,-1.845 l 0,-1.845 -0.765,0 -0.765,0 0,1.845 c 0,1.17 0.0329,1.845 0.09,1.845 0.0589,0 0.0905,1.748421 0.0914,5.0625 9e-4,2.784378 0.032,5.110588 0.0693,5.169368 0.0374,0.0588 0.18114,0.1499 0.31949,0.2025 0.17452,0.0664 5.80077,0.0956 18.38066,0.0956 l 18.12914,0 0,8.27361 0,8.27362 -0.48184,0.14008 c -0.91627,0.26636 -1.82246,1.13923 -2.14167,2.06292 -0.14478,0.41896 -0.16061,0.85953 -0.16061,4.46977 0,3.61024 0.0158,4.05081 0.16061,4.46977 0.30585,0.88502 1.12827,1.70952 2.02374,2.02887 0.70663,0.252 1.93101,0.18973 2.58781,-0.13162 z m -2.16804,-4.7693 c -1.20466,-0.6441 -1.30847,-2.20338 -0.19875,-2.98505 1.07883,-0.7599 2.59078,-0.0214 2.69572,1.31667 0.10308,1.31449 -1.3469,2.28331 -2.49697,1.66838 z m 11.16804,4.7693 c 0.61598,-0.30137 1.27971,-0.95661 1.56907,-1.54902 0.35982,-0.73664 0.42144,-1.59744 0.38126,-5.326 -0.031,-2.8762 -0.0602,-3.47887 -0.18771,-3.86835 -0.30173,-0.92182 -1.17118,-1.80931 -2.07089,-2.11387 l -0.46477,-0.15733 -0.0464,-10.06372 c -0.0255,-5.53506 -0.0559,-10.07097 -0.0675,-10.0798 -0.0116,-0.009 -0.0848,-0.0797 -0.16257,-0.1575 -0.12757,-0.12757 -1.79902,-0.14143 -17.055,-0.14143 l -16.91357,0 0,-3.014998 0,-3.015 1.845,0 1.845,0 0,1.305 0,1.305 2.835,0 2.835,0 0,-3.195 0,-3.195 -2.835,0 -2.835,0 0,1.305 0,1.305 -1.845,0 -1.845,0 0,-3.459141 c 0,-3.397482 -0.0344,-3.862453 -0.29813,-4.03015 -0.0588,-0.03737 -1.06875,-0.06857 -2.24437,-0.06933 -1.36409,-9e-4 -2.1375,-0.03394 -2.1375,-0.09138 0,-0.05707 -0.675,-0.09 -1.845,-0.09 l -1.845,0 0,0.765 0,0.765 1.845,0 c 1.17,0 1.845,-0.03293 1.845,-0.09 0,-0.05692 0.645,-0.09 1.755,-0.09 l 1.755,0 0.001,7.1775 c 9e-4,3.947625 0.032,7.225589 0.0693,7.284369 0.0374,0.0588 0.18113,0.1499 0.31948,0.2025 0.17428,0.0663 5.40377,0.0956 17.03066,0.0956 l 16.77914,0 0,9.62361 0,9.62362 -0.48184,0.14008 c -0.91627,0.26636 -1.82245,1.13923 -2.14167,2.06292 -0.14478,0.41896 -0.16061,0.85953 -0.16061,4.46977 0,3.61024 0.0158,4.05081 0.16061,4.46977 0.30585,0.88502 1.12827,1.70952 2.02374,2.02887 0.70663,0.252 1.93102,0.18973 2.58781,-0.13162 z m -2.16804,-4.7693 c -1.20466,-0.6441 -1.30847,-2.20338 -0.19875,-2.98505 1.07883,-0.7599 2.59078,-0.0214 2.69572,1.31667 0.10308,1.31449 -1.3469,2.28331 -2.49697,1.66838 z M 24.57,116.235 l 0,-1.215 4.26157,0 c 2.80108,0 4.35647,-0.0331 4.53847,-0.0965 0.18498,-0.0645 0.30895,-0.18845 0.37343,-0.37343 0.0633,-0.1815 0.0965,-1.69848 0.0965,-4.40347 l 0,-4.12657 4.275,0 4.275,0 0,4.59 0,4.59 3.555,0 3.555,0 0,-4.59 0,-4.59 15.42157,0 c 10.74426,0 15.50555,-0.0293 15.69847,-0.0965 0.18499,-0.0645 0.30895,-0.18845 0.37343,-0.37343 0.0665,-0.19078 0.0965,-3.44957 0.0965,-10.478466 l 0,-10.201572 8.1,0 8.1,0 0,-0.675 0,-0.675 -2.745,0 c -1.77,0 -2.745,0.03197 -2.745,0.09 0,0.05907 -1.99286,0.09 -5.79857,0.09 -5.15143,0 -5.81436,0.01578 -5.94,0.141429 -0.12695,0.126885 -0.14143,1.209874 -0.14143,10.574937 l 0,10.433572 -15.21,0 -15.21,0 0,-4.59 0,-4.589998 -3.555,0 -3.555,0 0,4.589998 0,4.59 -4.71857,0 c -4.16961,0 -4.73503,0.0165 -4.86,0.14143 -0.12468,0.12467 -0.14143,0.65766 -0.14143,4.5 l 0,4.35857 -4.05,0 -4.05,0 0,-1.395 0,-1.395 -2.025,0 -2.025,0 0,3.195 0,3.195 2.025,0 2.025,0 0,-1.215 z m 46.53,-16.02 0,-1.844998 2.14657,0 c 2.38799,0 2.64832,-0.04374 2.7969,-0.469962 0.0658,-0.188874 0.0965,-2.766186 0.0965,-8.107641 l 0,-7.830743 10.56997,0.05176 c 7.78751,0.03813 10.57885,0.02512 10.60371,-0.04944 0.0229,-0.0687 0.84097,0.06571 2.54752,0.418583 1.38259,0.28588 4.5793,0.937231 7.1038,1.447445 l 4.59,0.927663 7.6275,0.05841 7.6275,0.05841 0,-0.677241 0,-0.677242 -2.745,0 c -2.38,0 -2.745,0.01795 -2.745,0.135 0,0.118355 -0.59092,0.134563 -4.7925,0.131452 -4.29595,-0.0032 -4.8745,-0.02069 -5.58397,-0.16897 -0.43531,-0.09098 -0.81069,-0.184644 -0.83418,-0.208136 -0.0235,-0.02349 1.91216,-0.946529 4.30147,-2.051194 l 4.34418,-2.008479 1.2825,-0.195573 c 0.96039,-0.146452 1.2825,-0.168061 1.2825,-0.08603 0,0.138652 24.17359,0.0798 24.6303,-0.05996 0.20007,-0.06122 0.31434,-0.17061 0.3825,-0.366136 0.0647,-0.185649 0.0972,-1.823257 0.0972,-4.900396 l 0,-4.62157 1.305,0 1.305,0 0,-1.125 0,-1.125 3.96,0 3.96,0 0,1.17 0,1.17 3.195,0 3.195,0 0,-2.835 0,-2.835 -3.195,0 -3.195,0 0,1.08 0,1.08 -3.96,0 -3.96,0 0,-1.125 0,-1.125 -3.195,0 -3.195,0 0,2.835 0,2.835 1.305,0 1.305,0 0,4.423396 0,4.423395 -11.94394,-0.04733 c -6.56917,-0.02603 -12.00629,-0.01388 -12.0825,0.027 -0.0762,0.04088 -0.71204,0.153093 -1.41296,0.249356 l -1.2744,0.175024 -5.1156,2.357425 -5.1156,2.357425 -0.99,-0.194774 c -3.69871,-0.727687 -9.83416,-2.001109 -9.95215,-2.065581 -0.079,-0.04315 -5.0331,-0.05541 -11.14498,-0.02759 -9.32504,0.04245 -11.0223,0.06954 -11.13036,0.1776 -0.10811,0.108103 -0.12751,1.351998 -0.12751,8.176073 l 0,8.048571 -1.935,0 -1.935,0 0,-0.405 0,-0.405 -3.195,0 -3.195,0 0,0.63 0,0.63 -3.06,0 -3.06,0 0,-7.104141 c 0,-7.049017 -0.0174,-7.496637 -0.29813,-7.67515 -0.0588,-0.03737 -1.59368,-0.06857 -3.4109,-0.06933 l -3.30403,-0.0014 -0.10169,-0.3825 c -0.25145,-0.945866 -1.08991,-1.940608 -1.92534,-2.284196 l -0.40924,-0.168304 0.003,-1.755 0.003,-1.755 0.46644,-0.27 c 1.86401,-1.079042 1.69693,-3.842096 -0.28793,-4.760491 -0.39341,-0.182028 -0.5428,-0.189509 -3.78458,-0.189509 l -3.375,0 -0.51518,0.252986 c -0.60703,0.298085 -1.09694,0.833963 -1.30945,1.432313 l -0.15262,0.429701 -2.27388,0 -2.27387,0 0,-6.39 0,-6.39 21.915,0 21.915,0 0,7.688571 c 0,8.484073 -0.0401,7.916635 0.56539,8.008116 0.15929,0.02407 4.10673,0.06575 8.77211,0.09263 l 8.4825,0.04887 0,-0.673664 0,-0.673664 -8.325,0.05941 -8.325,0.05941 0,-7.56898 c 0,-7.515417 -0.0163,-7.960792 -0.29813,-8.139989 -0.0588,-0.03737 -7.71075,-0.06857 -17.00437,-0.06933 l -16.8975,-0.0014 0,-2.97 0,-2.97 1.08,0 1.08,0 0,-2.835 0,-2.835 -3.195,0 -3.195,0 0,2.835 0,2.835 1.53,0 1.53,0 0,2.97 0,2.97 -4.815,0 -4.815,0 0,-5.124141 c 0,-5.063699 -0.0239,-5.520796 -0.29813,-5.69515 -0.0588,-0.03737 -1.9395,-0.06857 -4.17937,-0.06933 l -4.0725,-0.0014 0,-1.305 0,-1.305 -2.835,0 -2.835,0 0,3.195 0,3.195 2.835,0 2.835,0 0,-1.305 0,-1.305 3.69,0 3.69,0 10e-4,12.2175 c 7.2e-4,6.719625 0.032,12.265591 0.0693,12.32437 0.16103,0.25325 0.6304,0.29813 3.11792,0.29813 l 2.54692,0 0.14949,0.391451 c 0.21777,0.570219 0.70712,1.091986 1.29478,1.380564 l 0.51516,0.252985 2.9025,0.02712 2.9025,0.02712 0,1.607471 0,1.607471 -0.3622,0.06119 c -0.97362,0.164492 -2.03927,1.018596 -2.5016,2.005002 -0.20575,0.43898 -0.2412,0.633968 -0.2412,1.326519 0,0.733655 0.0281,0.868993 0.29171,1.40445 0.35133,0.713638 0.99505,1.345638 1.71366,1.682452 0.43898,0.205749 0.63397,0.241205 1.32652,0.241205 0.73533,0 0.86834,-0.02779 1.41045,-0.29467 0.72937,-0.359064 1.40601,-1.064544 1.69898,-1.771374 l 0.2068,-0.498956 2.95344,0 2.95344,0 10e-4,7.2225 c 7.2e-4,3.972375 0.032,7.270587 0.0693,7.329366 0.16689,0.262494 0.6325,0.298134 3.89513,0.298134 l 3.32414,0 0,1.62 0,1.62 3.195,0 3.195,0 0,-1.845 z M 47.43,84.757729 c -1.20466,-0.644109 -1.30848,-2.203395 -0.19875,-2.985061 1.07883,-0.759896 2.59078,-0.02141 2.69572,1.31668 0.10308,1.314477 -1.3469,2.283301 -2.49697,1.668381 z m -2.61,-9.27 c -1.20466,-0.644109 -1.30848,-2.203395 -0.19875,-2.985061 1.07883,-0.759896 2.59078,-0.02141 2.69572,1.316679 0.10308,1.314478 -1.3469,2.283302 -2.49697,1.668382 z m -29.61,19.417273 0,-4.095 -1.08,0 -1.08,0 0,-7.605 0,-7.605 1.08,0 1.08,0 0,-4.095 0,-4.095 -0.585,0 -0.585,0 0,-7.56 0,-7.56 1.575,0 1.575,0 0,-3.195 0,-3.195 -1.575,0 -1.575,0 0,-6.838832 0,-6.838832 9.8968,-0.02367 c 9.35926,-0.02238 9.90553,-0.03239 10.0575,-0.184226 0.14485,-0.144721 0.16514,-0.423403 0.2057,-2.82517 l 0.045,-2.66461 0.37926,-0.111878 c 0.90621,-0.267329 1.7452,-1.008059 2.1713,-1.917021 0.20368,-0.434482 0.23944,-0.631729 0.23944,-1.320761 0,-0.689032 -0.0358,-0.886279 -0.23944,-1.320764 -0.42608,-0.908915 -1.26493,-1.649551 -2.1713,-1.917088 l -0.37926,-0.111945 -0.0239,-2.577602 -0.0239,-2.577601 24.70638,0 24.70638,0 0,11.86898 c 0,10.930261 0.0118,11.878749 0.14882,11.9925 0.12413,0.103032 2.09469,0.127417 11.88,0.147013 l 11.73118,0.02349 0,10.439009 c 0,6.899338 -0.0305,10.439007 -0.09,10.439007 -0.058,0 -0.09,0.975 -0.09,2.745 l 0,2.745 0.675,0 0.675,0 0,-2.745 c 0,-1.747869 -0.0323,-2.745 -0.0889,-2.745 -0.0579,0 -0.0971,-3.758261 -0.1125,-10.786182 -0.0196,-8.984223 -0.0442,-10.811045 -0.14709,-10.935 -0.11377,-0.137031 -1.05285,-0.148817 -11.85655,-0.148817 l -11.733,0 -0.0235,-11.86618 c -0.0196,-9.899748 -0.0439,-11.890842 -0.147,-12.015 -0.11436,-0.137784 -2.01057,-0.14882 -25.57148,-0.14882 -21.11981,0 -25.46493,0.02045 -25.54773,0.120217 -0.0674,0.08126 -0.10747,1.076967 -0.12352,3.072594 l -0.0237,2.952376 -0.37926,0.111954 c -0.90639,0.267559 -1.74522,1.008185 -2.1713,1.917095 -0.20368,0.434485 -0.23944,0.631732 -0.23944,1.320764 0,0.689032 0.0358,0.886279 0.23944,1.320763 0.42608,0.90892 1.26494,1.649565 2.1713,1.917082 l 0.37926,0.111941 0.024,2.352607 0.024,2.352607 -9.5865,0 -9.58649,0 0,-1.98 0,-1.98 1.125,0 1.125,0 0,-3.195 0,-3.195 -2.835,0 -2.835,0 0,3.195 0,3.195 1.125,0 1.125,0 0,9.315 0,9.315 -0.675,0 -0.675,0 0,3.195 0,3.195 0.675,0 0.675,0 0,7.56 0,7.56 -1.575,0 -1.575,0 0,4.095 0,4.095 1.08,0 1.08,0 0,7.605 0,7.605 -1.08,0 -1.08,0 0,4.095 0,4.095 2.745,0 2.745,0 0,-4.095 z M 32.94,24.727729 c -1.20466,-0.644109 -1.30848,-2.203395 -0.19875,-2.985061 1.07883,-0.759896 2.59078,-0.02141 2.69572,1.316679 0.10308,1.314478 -1.3469,2.283302 -2.49697,1.668382 z m 38.16,64.417273 0,-2.835 -1.305,0 -1.305,0 0,-3.69 0,-3.69 2.025,0 2.025,0 0,-3.195 0,-3.195 -2.835,0 -2.835,0 0,3.195 0,3.195 0.225,0 0.225,0 0,3.69 0,3.69 -1.305,0 -1.305,0 0,2.835 0,2.835 3.195,0 3.195,0 0,-2.835 z m 107.3443,2.179287 c 0.15379,-0.153801 0.1607,-1.898352 0.1607,-40.553669 0,-34.10405 -0.0192,-40.416125 -0.12352,-40.541786 -0.11457,-0.138039 -3.06151,-0.148832 -40.6395,-0.148832 -31.39243,0 -40.5403,0.02432 -40.62398,0.108 -0.0805,0.08051 -0.108,1.054 -0.108,3.825 0,2.913131 -0.0243,3.71719 -0.1125,3.717879 -0.25241,0.002 -1.05255,0.450174 -1.3695,0.767121 -0.18623,0.186235 -0.43483,0.545247 -0.55242,0.797805 -0.21313,0.457707 -0.21383,0.470126 -0.21383,3.834195 l 0,3.375 0.21669,0.465381 c 0.28119,0.603933 0.83437,1.133839 1.45002,1.389012 l 0.49154,0.20373 0.001,3.470938 c 9e-4,1.909017 0.032,3.519031 0.0693,3.577809 0.17692,0.278243 0.62887,0.29813 6.77514,0.29813 l 6.20414,0 0,14.58 0,14.58 0.675,0 0.675,0 0,-2.745 c 0,-1.77 -0.032,-2.745 -0.09,-2.745 -0.0596,0 -0.09,-4.093047 -0.09,-12.099141 0,-8.323195 -0.0298,-12.177639 -0.0956,-12.350668 -0.0526,-0.13834 -0.14372,-0.282106 -0.2025,-0.319482 -0.0588,-0.03737 -2.95199,-0.06857 -6.42937,-0.06933 l -6.32255,-0.0014 0,-3.098402 0,-3.098403 0.48028,-0.219881 c 0.61458,-0.281362 1.10088,-0.769958 1.39894,-1.405531 l 0.23578,-0.502783 0,-3.285 0,-3.285 -0.23863,-0.508984 c -0.30275,-0.645788 -0.84646,-1.174964 -1.47484,-1.435409 l -0.49153,-0.20373 0,-3.313438 0,-3.313439 39.78,0 39.78,0 0,39.735 0,39.735 -7.605,0 -7.605,0 0,-2.012645 0,-2.012645 0.57195,-0.28157 c 0.69216,-0.340749 1.32917,-0.993733 1.66184,-1.703514 0.20576,-0.43898 0.24121,-0.633968 0.24121,-1.326519 0,-0.733655 -0.0281,-0.868993 -0.29172,-1.40445 -0.35132,-0.713638 -0.99504,-1.345638 -1.71365,-1.682452 -0.43871,-0.205619 -0.63413,-0.241205 -1.32463,-0.241205 -0.6905,0 -0.88592,0.03559 -1.32463,0.241205 -0.71861,0.336814 -1.36233,0.968814 -1.71365,1.682452 -0.26361,0.535457 -0.29172,0.670795 -0.29172,1.40445 0,0.692551 0.0355,0.887539 0.24121,1.326519 0.47217,1.00741 1.55589,1.861184 2.55208,2.010572 l 0.39876,0.0598 0.024,2.349892 0.024,2.349893 0.225,0.114552 c 0.17821,0.09073 1.92281,0.109989 8.38931,0.09261 7.70099,-0.0207 8.17342,-0.03106 8.325,-0.182655 z M 160.83,84.757729 c -1.20466,-0.644109 -1.30847,-2.203395 -0.19875,-2.985061 1.07883,-0.759896 2.59078,-0.02141 2.69572,1.31668 0.10308,1.314477 -1.3469,2.283301 -2.49697,1.668381 z m -63.99,-60.03 c -1.20466,-0.644109 -1.30847,-2.203395 -0.19875,-2.985061 1.07883,-0.759896 2.59078,-0.02141 2.69572,1.316679 0.10308,1.314478 -1.3469,2.283302 -2.49697,1.668382 z m 75.62613,61.508279 c 0.69823,-0.343735 1.33381,-0.994075 1.66766,-1.70638 0.20619,-0.43991 0.24121,-0.633428 0.24121,-1.332903 0,-0.767196 -0.0211,-0.859898 -0.33771,-1.485 l -0.33769,-0.666723 -0.0223,-33.533669 c -0.0188,-28.26624 -0.0417,-33.557048 -0.14581,-33.6825 -0.11449,-0.137954 -2.57478,-0.148831 -33.6645,-0.148831 -25.96743,0 -33.56537,0.02439 -33.64898,0.108 -0.0772,0.07724 -0.108,0.654 -0.108,2.025 0,1.473131 -0.026,1.917203 -0.1125,1.917879 -0.2524,0.002 -1.05255,0.450174 -1.3695,0.767121 -0.18623,0.186235 -0.43483,0.545247 -0.55242,0.797805 -0.21313,0.457707 -0.21382,0.470126 -0.21382,3.834195 l 0,3.375 0.21668,0.465381 c 0.28119,0.603933 0.83437,1.133839 1.45003,1.389012 l 0.49153,0.20373 0.001,2.120938 c 9e-4,1.166517 0.032,2.169031 0.0693,2.227809 0.16584,0.260817 0.63225,0.29813 3.72664,0.29813 l 3.15563,0 -0.0386,15.93 -0.0386,15.93 0.639,0 0.639,0 -0.0299,-16.0875 c -0.0164,-8.848125 -0.0504,-16.217823 -0.0754,-16.377107 -0.0915,-0.582048 0.0145,-0.565393 -3.5999,-0.565393 l -3.27858,0 0,-1.748402 0,-1.748403 0.48029,-0.219881 c 0.61457,-0.281362 1.10088,-0.769958 1.39893,-1.405531 l 0.23619,-0.502783 0,-3.285 0,-3.285 -0.23863,-0.508984 c -0.30275,-0.645788 -0.84646,-1.174964 -1.47483,-1.435409 l -0.49154,-0.20373 0,-1.513438 0,-1.513439 32.805,0 32.805,0 0,32.799939 0,32.79994 -0.4275,-0.196985 c -0.65788,-0.30314 -1.86655,-0.282708 -2.56213,0.04331 -0.71861,0.336814 -1.36233,0.968813 -1.71365,1.682452 -0.26361,0.535457 -0.29172,0.670795 -0.29172,1.40445 0,0.691081 0.0356,0.887895 0.23944,1.322656 0.4224,0.901063 1.23544,1.623375 2.1713,1.928995 0.23135,0.07555 0.649,0.11251 1.07094,0.09477 0.55713,-0.02343 0.80407,-0.08441 1.26945,-0.31352 z M 170.28,84.757729 c -1.20466,-0.644109 -1.30847,-2.203395 -0.19875,-2.985061 1.07883,-0.759896 2.59078,-0.02141 2.69572,1.31668 0.10308,1.314477 -1.3469,2.283301 -2.49697,1.668381 z m -64.44,-60.03 c -1.20466,-0.644109 -1.30847,-2.203395 -0.19875,-2.985061 1.07883,-0.759896 2.59078,-0.02141 2.69572,1.316679 0.10309,1.314478 -1.3469,2.283302 -2.49697,1.668382 z m 20.97,57.172273 c 0,-0.179154 0.06,-0.18 12.76657,-0.18 8.85455,0 12.85142,-0.02958 13.04347,-0.09653 0.18498,-0.06448 0.30895,-0.188446 0.37343,-0.373429 0.0622,-0.178465 0.0965,-1.503917 0.0965,-3.728472 l 0,-3.45157 7.95157,0 c 5.42745,0 8.03947,-0.03064 8.22847,-0.09653 0.18498,-0.06449 0.30895,-0.188446 0.37343,-0.373429 0.13488,-0.38691 0.13575,-26.055164 9e-4,-26.409852 -0.0526,-0.138339 -0.14372,-0.282105 -0.2025,-0.319481 -0.0588,-0.03737 -1.93949,-0.06857 -4.17936,-0.06933 l -4.07248,-0.0014 0,-9.128402 0,-9.128403 0.48028,-0.219881 c 0.61458,-0.281362 1.10088,-0.769958 1.39894,-1.405531 l 0.23578,-0.502783 0,-3.285 0,-3.285 -0.23578,-0.502783 c -0.49311,-1.051499 -1.36402,-1.610458 -2.50922,-1.610458 -1.12761,0 -2.01681,0.559788 -2.48442,1.564046 -0.21313,0.457707 -0.21383,0.470126 -0.21383,3.834195 l 0,3.375 0.21669,0.465381 c 0.28119,0.603933 0.83437,1.133839 1.45002,1.389012 l 0.49154,0.20373 10e-4,9.500938 c 9e-4,5.225517 0.032,9.549031 0.0693,9.607809 0.17018,0.267651 0.63281,0.29813 4.52514,0.29813 l 3.95414,0 0,12.465 0,12.465 -8.18357,0 c -7.31961,0 -8.1985,0.01493 -8.325,0.141429 -0.12396,0.123963 -0.14143,0.596248 -0.14143,3.824443 l 0,3.683016 -14.1075,0.0405 c -7.75912,0.02228 -14.64412,0.06528 -15.3,0.09556 l -1.1925,0.05506 0,0.669996 0,0.669997 2.745,0 c 2.685,0 2.745,-0.0039 2.745,-0.18 z m 33.03,-57.172273 c -1.20466,-0.644109 -1.30847,-2.203395 -0.19875,-2.985061 1.07883,-0.759896 2.59078,-0.02141 2.69572,1.316679 0.10308,1.314478 -1.3469,2.283302 -2.49697,1.668382 z m -26.5797,48.610955 c 0.19978,-0.06155 0.31443,-0.171467 0.3825,-0.366716 0.0677,-0.194199 0.0972,-3.880506 0.0972,-12.145396 l 0,-11.86657 8.85157,0 c 6.06804,0 8.93865,-0.03036 9.12847,-0.09653 0.18498,-0.06448 0.30895,-0.188446 0.37343,-0.373429 0.0664,-0.190551 0.0965,-3.343902 0.0965,-10.111875 l 0,-9.834972 0.48028,-0.219881 c 0.61458,-0.281362 1.10088,-0.769958 1.39894,-1.405531 l 0.23581,-0.502782 0,-3.285 0,-3.285 -0.23578,-0.502783 c -0.49311,-1.051499 -1.36402,-1.610458 -2.50922,-1.610458 -1.12761,0 -2.01681,0.559788 -2.48442,1.564046 -0.21313,0.457707 -0.21383,0.470126 -0.21383,3.834195 l 0,3.375 0.21669,0.465381 c 0.28119,0.603933 0.83437,1.133839 1.45002,1.389012 l 0.49154,0.20373 0,9.613438 0,9.613439 -9.08357,0 c -8.1378,0 -9.0983,0.01473 -9.225,0.141429 -0.12717,0.12717 -0.14143,1.362344 -0.14143,12.251502 l 0,12.110074 -5.625,-0.06693 -5.625,-0.06693 0,0.695105 0,0.695105 5.8275,-0.06139 c 3.34362,-0.03522 5.94911,-0.09885 6.1128,-0.149281 z M 150.84,24.727729 c -1.20466,-0.644109 -1.30847,-2.203395 -0.19875,-2.985061 1.07883,-0.759896 2.59078,-0.02141 2.69572,1.316679 0.10308,1.314478 -1.3469,2.283302 -2.49697,1.668382 z m -53.55,45.325936 0,-0.686337 -5.4,0.06693 -5.4,0.06693 0,-7.879732 c 0,-7.827257 -0.0157,-8.271128 -0.29813,-8.45074 -0.0588,-0.03737 -6.7995,-0.06857 -14.97937,-0.06933 l -14.8725,-0.0014 0,-9.309141 c 0,-9.262047 -0.0132,-9.698964 -0.29813,-9.88015 -0.0588,-0.03737 -2.7495,-0.06857 -5.97937,-0.06933 l -5.8725,-0.0014 0,-2.648402 0,-2.648403 0.48028,-0.219881 c 0.61458,-0.281362 1.10088,-0.769958 1.39894,-1.405531 l 0.23578,-0.502783 0,-3.285 0,-3.285 -0.23578,-0.502783 C 45.57611,18.290683 44.70521,17.731724 43.56,17.731724 c -1.12761,0 -2.01681,0.559788 -2.48443,1.564046 -0.21312,0.457707 -0.21381,0.470126 -0.21381,3.834195 l 0,3.375 0.21668,0.465381 c 0.28119,0.603933 0.83437,1.133839 1.45003,1.389012 l 0.49153,0.20373 10e-4,3.020938 c 7.2e-4,1.661517 0.032,3.069031 0.0693,3.127809 0.17596,0.276726 0.63006,0.29813 6.32515,0.29813 l 5.75414,0 10e-4,9.4275 c 7.2e-4,5.185125 0.032,9.475591 0.0693,9.53437 0.0374,0.05878 0.18114,0.149903 0.31948,0.2025 0.17385,0.06609 4.80826,0.09563 15.00567,0.09563 l 14.75414,0 0,8.003571 c 0,7.155974 0.015,8.018549 0.14143,8.145 0.0778,0.07779 0.14866,0.149695 0.1575,0.159796 0.0239,0.02736 5.83057,0.119498 8.94857,0.141992 l 2.72246,0.01964 0,-0.686337 z M 42.84,24.727729 c -1.20466,-0.644109 -1.30848,-2.203395 -0.19875,-2.985061 1.07883,-0.759896 2.59078,-0.02141 2.69572,1.316679 0.10308,1.314478 -1.3469,2.283302 -2.49697,1.668382 z m 87.2851,45.82398 c 0.17992,-0.06272 0.30448,-0.188398 0.36837,-0.371665 0.0669,-0.191772 0.0965,-3.994354 0.0965,-12.368472 l 0,-12.09157 5.92657,0 c 3.98615,0 6.01723,-0.0316 6.20347,-0.09653 0.18498,-0.06449 0.30895,-0.188446 0.37343,-0.373429 0.066,-0.189262 0.0965,-2.876944 0.0965,-8.491875 l 0,-8.214972 0.48028,-0.219881 c 0.61458,-0.281362 1.10088,-0.769958 1.39894,-1.405531 l 0.23584,-0.502782 0,-3.285 0,-3.285 -0.23578,-0.502783 c -0.49311,-1.051499 -1.36402,-1.610458 -2.50922,-1.610458 -1.12761,0 -2.01681,0.559788 -2.48442,1.564046 -0.21313,0.457707 -0.21383,0.470126 -0.21383,3.834195 l 0,3.375 0.21669,0.465381 c 0.28119,0.603933 0.83437,1.133839 1.45002,1.389012 l 0.49154,0.20373 0,7.993438 0,7.993439 -6.15857,0 c -5.4787,0 -6.17418,0.01561 -6.3,0.141429 -0.12719,0.127194 -0.14143,1.381643 -0.14143,12.463787 l 0,12.322359 -4.05,-0.05845 -4.05,-0.05845 0,0.704257 0,0.704256 4.26663,-0.06136 c 2.58854,-0.03722 4.37355,-0.09863 4.53847,-0.156119 z M 141.84,24.727729 c -1.20466,-0.644109 -1.30847,-2.203395 -0.19875,-2.985061 1.07883,-0.759896 2.59078,-0.02141 2.69572,1.316679 0.10308,1.314478 -1.3469,2.283302 -2.49697,1.668382 z m -46.35,42.457273 0,-0.765 -1.845,0 c -1.17,0 -1.845,0.03293 -1.845,0.09 0,0.05368 -0.345,0.09 -0.855,0.09 l -0.855,0 0,-8.004141 c 0,-7.952113 -0.0154,-8.395381 -0.29813,-8.57515 -0.0588,-0.03737 -7.002,-0.06857 -15.42937,-0.06933 l -15.3225,-0.0014 0,-9.309141 c 0,-9.262047 -0.0132,-9.698964 -0.29813,-9.88015 -0.0588,-0.03737 -1.332,-0.06857 -2.82937,-0.06933 l -2.7225,-0.0014 0,-1.073402 0,-1.073403 0.48028,-0.219881 c 0.61458,-0.281362 1.10088,-0.769958 1.39894,-1.405531 l 0.23578,-0.502783 0,-3.285 0,-3.285 -0.23578,-0.502783 C 54.57611,18.290678 53.70521,17.731719 52.56,17.731719 c -1.12761,0 -2.01681,0.559788 -2.48443,1.564046 -0.21312,0.457707 -0.21381,0.470126 -0.21381,3.834195 l 0,3.375 0.21668,0.465381 c 0.28119,0.603933 0.83438,1.133839 1.45003,1.389012 l 0.49153,0.20373 10e-4,1.445938 c 7.2e-4,0.795267 0.032,1.494031 0.0693,1.552809 0.16156,0.254086 0.63065,0.29813 3.17515,0.29813 l 2.60414,0 10e-4,9.4275 c 7.2e-4,5.185125 0.032,9.475592 0.0693,9.53437 0.0374,0.05878 0.18114,0.149903 0.31948,0.2025 0.17396,0.06614 4.9406,0.09563 15.45567,0.09563 l 15.20414,0 0.001,8.1225 c 7.2e-4,4.467375 0.032,8.170591 0.0693,8.22937 0.13792,0.216901 0.59842,0.29813 1.69015,0.29813 0.6861,0 1.11914,0.03482 1.11914,0.09 0,0.05707 0.675,0.09 1.845,0.09 l 1.845,0 0,-0.765 z M 51.84,24.727729 c -1.20466,-0.644109 -1.30848,-2.203395 -0.19875,-2.985061 1.07883,-0.759896 2.59078,-0.02141 2.69572,1.316679 0.10308,1.314478 -1.3469,2.283302 -2.49697,1.668382 z m 74.97,42.457273 0,-0.765 -0.585,0 -0.585,0 0,-11.835 0,-11.835 3.90157,0 c 2.54484,0 3.99786,-0.03357 4.17847,-0.09653 0.18498,-0.06449 0.30895,-0.188446 0.37343,-0.373429 0.0654,-0.187536 0.0965,-2.4489 0.0965,-7.006875 l 0,-6.729972 0.48028,-0.219881 c 0.61458,-0.281362 1.10088,-0.769958 1.39894,-1.405531 l 0.23581,-0.502782 0,-3.285 0,-3.285 -0.23578,-0.502783 c -0.49311,-1.051499 -1.36402,-1.610458 -2.50922,-1.610458 -1.12761,0 -2.01681,0.559788 -2.48442,1.564046 -0.21313,0.457707 -0.21383,0.470126 -0.21383,3.834195 l 0,3.375 0.21669,0.465381 c 0.28119,0.603933 0.83437,1.133839 1.45002,1.389012 l 0.49154,0.20373 0,6.508438 0,6.508439 -4.13357,0 c -3.6378,0 -4.15053,0.01696 -4.275,0.141429 -0.12719,0.127189 -0.14143,1.377662 -0.14143,12.42 l 0,12.278571 -0.675,0 -0.675,0 0,0.765 0,0.765 1.845,0 1.845,0 0,-0.765 z m 6.03,-42.457273 c -1.20466,-0.644109 -1.30847,-2.203395 -0.19875,-2.985061 1.07883,-0.759896 2.59078,-0.02141 2.69572,1.316679 0.10308,1.314478 -1.3469,2.283302 -2.49697,1.668382 z m -30.02591,30.104773 c -0.0237,-5.630625 -0.0629,-10.367823 -0.0871,-10.527107 -0.0936,-0.615167 1.30867,-0.565393 -15.92842,-0.565393 l -15.60857,0 0,-7.598402 0,-7.598403 0.48028,-0.219881 c 0.61458,-0.281362 1.10088,-0.769958 1.39894,-1.405531 l 0.23578,-0.502783 0,-3.285 0,-3.285 -0.23578,-0.502783 C 72.57611,18.29072 71.70521,17.731761 70.56,17.731761 c -1.12761,0 -2.01681,0.559788 -2.48443,1.564046 -0.21312,0.457707 -0.21381,0.470126 -0.21381,3.834195 l 0,3.375 0.21668,0.465381 c 0.28119,0.603933 0.83438,1.133839 1.45003,1.389012 l 0.49153,0.20373 0.001,7.970938 c 7.2e-4,4.384017 0.032,8.019031 0.0693,8.077809 0.0374,0.05878 0.18114,0.149903 0.31948,0.2025 0.17402,0.06616 5.02423,0.09563 15.74006,0.09563 l 15.48853,0 -0.0534,10.08 -0.0534,10.08 0.66257,0 0.66257,0 -0.0431,-10.2375 z M 69.84,24.727729 c -1.20466,-0.644109 -1.30848,-2.203395 -0.19875,-2.985061 1.07883,-0.759896 2.59078,-0.02141 2.69572,1.316679 0.10308,1.314478 -1.3469,2.283302 -2.49697,1.668382 z m 35.85051,28.529773 c -0.0213,-6.496875 -0.0587,-11.942823 -0.0832,-12.102107 -0.094,-0.612846 0.98611,-0.565393 -12.86874,-0.565393 l -12.54857,0 0,-6.023402 0,-6.023403 0.48028,-0.219881 c 0.61458,-0.281362 1.10088,-0.769958 1.39894,-1.405531 l 0.23578,-0.502783 0,-3.285 0,-3.285 -0.23578,-0.502783 C 81.57611,18.29072 80.70521,17.731761 79.56,17.731761 c -1.12761,0 -2.01681,0.559788 -2.48443,1.564046 -0.21312,0.457707 -0.21381,0.470126 -0.21381,3.834195 l 0,3.375 0.21668,0.465381 c 0.28119,0.603933 0.83438,1.133839 1.45003,1.389012 l 0.49153,0.20373 0.001,6.395938 c 7.2e-4,3.517767 0.032,6.444031 0.0693,6.502809 0.0374,0.05878 0.18114,0.149903 0.31948,0.2025 0.17315,0.06583 4.12412,0.09563 12.6793,0.09563 l 12.42779,0 -0.0486,11.655 -0.0486,11.655 0.65452,0 0.65454,0 -0.0387,-11.8125 z M 78.84,24.727729 c -1.20466,-0.644109 -1.30848,-2.203395 -0.19875,-2.985061 1.07883,-0.759896 2.59078,-0.02141 2.69572,1.316679 0.10308,1.314478 -1.3469,2.283302 -2.49697,1.668382 z m 38.25,21.881741 0,-18.460532 0.36887,-0.357984 c 0.20289,-0.19689 0.47627,-0.587026 0.6075,-0.866968 l 0.23863,-0.508984 0,-3.285 0,-3.285 -0.23578,-0.502783 c -0.49311,-1.051499 -1.36402,-1.610458 -2.50922,-1.610458 -1.12761,0 -2.01681,0.559788 -2.48442,1.564046 -0.21313,0.457707 -0.21383,0.470126 -0.21383,3.834195 0,3.364069 9e-4,3.376488 0.21383,3.834195 0.43708,0.938704 1.3658,1.563293 2.32692,1.564926 l 0.5175,9e-4 0,15.525 c 0,10.289999 -0.0303,15.525 -0.09,15.525 -0.058,0 -0.09,0.974999 -0.09,2.745 l 0,2.745 0.675,0 0.675,0 0,-18.460532 z m -2.25,-21.881741 c -1.20466,-0.644109 -1.30847,-2.203395 -0.19875,-2.985061 1.07883,-0.759896 2.59078,-0.02141 2.69572,1.316679 0.10309,1.314478 -1.3469,2.283302 -2.49697,1.668382 z m -14.67,36.697273 c 0,-1.17 -0.0329,-1.845 -0.09,-1.845 -0.0591,0 -0.09,-2.083047 -0.09,-6.069141 0,-6.010909 -0.0203,-6.463502 -0.29813,-6.64015 -0.0588,-0.03737 -8.52075,-0.06857 -18.80437,-0.06933 l -18.6975,-0.0014 0,-9.128402 0,-9.128403 0.48028,-0.219881 c 0.61458,-0.281362 1.10088,-0.769958 1.39894,-1.405531 l 0.23578,-0.502783 0,-3.285 0,-3.285 -0.23578,-0.502783 C 63.57611,18.290699 62.70521,17.73174 61.56,17.73174 c -1.12761,0 -2.01681,0.559788 -2.48443,1.564046 -0.21312,0.457707 -0.21381,0.470126 -0.21381,3.834195 l 0,3.375 0.21668,0.465381 c 0.28119,0.603933 0.83438,1.133839 1.45003,1.389012 l 0.49153,0.20373 10e-4,9.500938 c 7.2e-4,5.225517 0.032,9.549031 0.0693,9.607809 0.0374,0.05878 0.18114,0.149903 0.31948,0.2025 0.17461,0.06639 5.93312,0.09563 18.83067,0.09563 l 18.57914,0 0,5.805 c 0,3.81 -0.0309,5.805 -0.09,5.805 -0.0571,0 -0.09,0.675 -0.09,1.845 l 0,1.845 0.765,0 0.765,0 0,-1.845 z M 60.84,24.727729 c -1.20466,-0.644109 -1.30848,-2.203395 -0.19875,-2.985061 1.07883,-0.759896 2.59078,-0.02141 2.69572,1.316679 0.10308,1.314478 -1.3469,2.283302 -2.49697,1.668382 z m 59.13,36.697273 c 0,-1.17 -0.0329,-1.845 -0.09,-1.845 -0.0596,0 -0.09,-4.23 -0.09,-12.51 l 0,-12.51 2.32657,0 c 1.42383,0 2.43401,-0.03745 2.60347,-0.09653 0.18498,-0.06448 0.30895,-0.188446 0.37343,-0.373429 0.0602,-0.172694 0.0965,-1.268536 0.0965,-2.911875 l 0,-2.634972 0.48028,-0.219881 c 0.61458,-0.281362 1.10088,-0.769958 1.39894,-1.405531 l 0.23581,-0.502782 0,-3.285 0,-3.285 -0.23578,-0.502783 c -0.49311,-1.051499 -1.36402,-1.610458 -2.50922,-1.610458 -1.12761,0 -2.01681,0.559788 -2.48442,1.564046 -0.21313,0.457707 -0.21383,0.470126 -0.21383,3.834195 l 0,3.375 0.21669,0.465381 c 0.28119,0.603933 0.83437,1.133839 1.45002,1.389012 l 0.49154,0.20373 0,2.413438 0,2.413439 -2.55857,0 c -2.20598,0 -2.57806,0.01949 -2.7,0.141429 -0.12726,0.127261 -0.14143,1.439026 -0.14143,13.095 0,8.575714 -0.0304,12.953571 -0.09,12.953571 -0.0571,0 -0.09,0.675 -0.09,1.845 l 0,1.845 0.765,0 0.765,0 0,-1.845 z m 3.87,-36.697273 c -1.20466,-0.644109 -1.30847,-2.203395 -0.19875,-2.985061 1.07883,-0.759896 2.59078,-0.02141 2.69572,1.316679 0.10309,1.314478 -1.3469,2.283302 -2.49697,1.668382 z m -34.14581,3.586699 c 0.59664,-0.27781 1.08111,-0.769913 1.37503,-1.396643 l 0.23578,-0.502783 0,-3.285 0,-3.285 -0.23863,-0.508984 c -0.3023,-0.644827 -0.84628,-1.174889 -1.47182,-1.434158 l -0.48851,-0.202479 -0.0255,-3.435965 c -0.0204,-2.751259 -0.0501,-3.465602 -0.14904,-3.584689 -0.11445,-0.137803 -2.53715,-0.148725 -32.9895,-0.148725 -25.44243,0 -32.89038,0.02439 -32.97398,0.108 -0.0814,0.08144 -0.108,1.354 -0.108,5.175 l 0,5.067 -1.17,0 -1.17,0 0,3.195 0,3.195 2.835,0 2.835,0 0,-3.195 0,-3.195 -1.17,0 -1.17,0 0,-4.68 0,-4.68 32.13,0 32.13,0 0,3.105 c 0,2.423531 -0.0247,3.105193 -0.1125,3.105879 -0.2524,0.002 -1.05255,0.450174 -1.3695,0.767121 -0.18624,0.186235 -0.43483,0.545247 -0.55243,0.797805 -0.21312,0.457707 -0.21381,0.470126 -0.21381,3.834195 0,3.364069 7.2e-4,3.376488 0.21381,3.834195 0.46762,1.004258 1.35682,1.564046 2.48443,1.564046 0.52173,0 0.77927,-0.04855 1.13419,-0.213815 z M 87.84,24.727729 c -1.20466,-0.644109 -1.30848,-2.203395 -0.19875,-2.985061 1.07883,-0.759896 2.59078,-0.02141 2.69572,1.316679 0.10308,1.314478 -1.3469,2.283302 -2.49697,1.668382 z"
       id="path3338" />
    <path
       style="fill:none;fill-rule:evenodd;stroke:#0000ff;stroke-width:1px;stroke-linecap:butt;stroke-linejoin:miter;stroke-opacity:1"
       d="m 5.6166103,160.07339 0,-155.5098943 177.2742597,0 0,155.1588543 z"
       id="path3344" />
    <ellipse
       ry="0.85769105"
       rx="0.82470292"
       cy="128.30165"
       cx="165.19138"
       id="path4232-2-0-4-46-85-2"
       style="fill:none;fill-opacity:1;stroke:#ff0000;stroke-width:0.37027922;stroke-miterlimit:4;stroke-dasharray:none;stroke-opacity:1" />
    <ellipse
       ry="0.85769105"
       rx="0.82470292"
       cy="128.39473"
       cx="156.1313"
       id="path4232-2-0-4-46-85-8"
       style="fill:none;fill-opacity:1;stroke:#ff0000;stroke-width:0.37027922;stroke-miterlimit:4;stroke-dasharray:none;stroke-opacity:1" />
    <ellipse
       ry="0.85769105"
       rx="0.82470292"
       cy="128.30164"
       cx="147.16429"
       id="path4232-2-0-4-46-85-6"
       style="fill:none;fill-opacity:1;stroke:#ff0000;stroke-width:0.37027922;stroke-miterlimit:4;stroke-dasharray:none;stroke-opacity:1" />
    <ellipse
       ry="0.85769105"
       rx="0.82470292"
       cy="128.42577"
       cx="138.10422"
       id="path4232-2-0-4-46-85-9"
       style="fill:none;fill-opacity:1;stroke:#ff0000;stroke-width:0.37027922;stroke-miterlimit:4;stroke-dasharray:none;stroke-opacity:1" />
    <ellipse
       ry="0.85769105"
       rx="0.82470292"
       cy="128.39473"
       cx="129.1217"
       id="path4232-2-0-4-46-85-3"
       style="fill:none;fill-opacity:1;stroke:#ff0000;stroke-width:0.37027922;stroke-miterlimit:4;stroke-dasharray:none;stroke-opacity:1" />
    <ellipse
       ry="0.85769105"
       rx="0.82470292"
       cy="128.41023"
       cx="120.12366"
       id="path4232-2-0-4-46-85-64"
       style="fill:none;fill-opacity:1;stroke:#ff0000;stroke-width:0.37027922;stroke-miterlimit:4;stroke-dasharray:none;stroke-opacity:1" />
    <ellipse
       ry="0.85769105"
       rx="0.82470292"
       cy="128.43607"
       cx="111.10357"
       id="path4232-2-0-4-46-85-5"
       style="fill:none;fill-opacity:1;stroke:#ff0000;stroke-width:0.37027922;stroke-miterlimit:4;stroke-dasharray:none;stroke-opacity:1" />
    <ellipse
       ry="0.85769105"
       rx="0.82470292"
       cy="128.37025"
       cx="102.1521"
       id="path4232-2-0-4-46-85-0"
       style="fill:none;fill-opacity:1;stroke:#ff0000;stroke-width:0.37027922;stroke-miterlimit:4;stroke-dasharray:none;stroke-opacity:1" />
    <ellipse
       ry="0.85769105"
       rx="0.82470292"
       cy="128.40317"
       cx="93.156754"
       id="path4232-2-0-4-46-85-83"
       style="fill:none;fill-opacity:1;stroke:#ff0000;stroke-width:0.37027922;stroke-miterlimit:4;stroke-dasharray:none;stroke-opacity:1" />
    <ellipse
       ry="0.85769105"
       rx="0.82470292"
       cy="83.140854"
       cx="171.0556"
       id="path4232-2-0-4-46-85-31"
       style="fill:none;fill-opacity:1;stroke:#ff0000;stroke-width:0.37027922;stroke-miterlimit:4;stroke-dasharray:none;stroke-opacity:1" />
    <ellipse
       ry="0.85769105"
       rx="0.82470292"
       cy="83.140854"
       cx="161.60768"
       id="path4232-2-0-4-46-85-24"
       style="fill:none;fill-opacity:1;stroke:#ff0000;stroke-width:0.37027922;stroke-miterlimit:4;stroke-dasharray:none;stroke-opacity:1" />
    <ellipse
       ry="0.85769105"
       rx="0.82470292"
       cy="83.174095"
       cx="48.223862"
       id="path4232-2-0-4-46-85-85"
       style="fill:none;fill-opacity:1;stroke:#ff0000;stroke-width:0.37027922;stroke-miterlimit:4;stroke-dasharray:none;stroke-opacity:1" />
    <ellipse
       ry="0.85769105"
       rx="0.82470292"
       cy="83.196037"
       cx="36.749306"
       id="path4232-2-0-4-46-85-99"
       style="fill:none;fill-opacity:1;stroke:#ff0000;stroke-width:0.37027922;stroke-miterlimit:4;stroke-dasharray:none;stroke-opacity:1" />
    <ellipse
       ry="0.85769105"
       rx="0.82470292"
       cy="73.87159"
       cx="45.623989"
       id="path4232-2-0-4-46-85-39"
       style="fill:none;fill-opacity:1;stroke:#ff0000;stroke-width:0.37027922;stroke-miterlimit:4;stroke-dasharray:none;stroke-opacity:1" />
    <ellipse
       ry="0.85769105"
       rx="0.82470292"
       cy="64.943115"
       cx="45.626205"
       id="path4232-2-0-4-46-85-7"
       style="fill:none;fill-opacity:1;stroke:#ff0000;stroke-width:0.37027922;stroke-miterlimit:4;stroke-dasharray:none;stroke-opacity:1" />
    <ellipse
       ry="0.85769105"
       rx="0.82470292"
       cy="23.148834"
       cx="33.758118"
       id="path4232-2-0-4-46-85-21"
       style="fill:none;fill-opacity:1;stroke:#ff0000;stroke-width:0.37027922;stroke-miterlimit:4;stroke-dasharray:none;stroke-opacity:1" />
    <ellipse
       ry="0.85769105"
       rx="0.82470292"
       cy="23.086779"
       cx="43.686977"
       id="path4232-2-0-4-46-85-80"
       style="fill:none;fill-opacity:1;stroke:#ff0000;stroke-width:0.37027922;stroke-miterlimit:4;stroke-dasharray:none;stroke-opacity:1" />
    <ellipse
       ry="0.85769105"
       rx="0.82470292"
       cy="23.195377"
       cx="52.653976"
       id="path4232-2-0-4-46-85-84"
       style="fill:none;fill-opacity:1;stroke:#ff0000;stroke-width:0.37027922;stroke-miterlimit:4;stroke-dasharray:none;stroke-opacity:1" />
    <ellipse
       ry="0.85769105"
       rx="0.82470292"
       cy="23.195375"
       cx="61.620975"
       id="path4232-2-0-4-46-85-1"
       style="fill:none;fill-opacity:1;stroke:#ff0000;stroke-width:0.37027922;stroke-miterlimit:4;stroke-dasharray:none;stroke-opacity:1" />
    <ellipse
       ry="0.85769105"
       rx="0.82470292"
       cy="23.226404"
       cx="70.665543"
       id="path4232-2-0-4-46-85-90"
       style="fill:none;fill-opacity:1;stroke:#ff0000;stroke-width:0.37027922;stroke-miterlimit:4;stroke-dasharray:none;stroke-opacity:1" />
    <ellipse
       ry="0.85769105"
       rx="0.82470292"
       cy="23.148834"
       cx="79.601517"
       id="path4232-2-0-4-46-85-59"
       style="fill:none;fill-opacity:1;stroke:#ff0000;stroke-width:0.37027922;stroke-miterlimit:4;stroke-dasharray:none;stroke-opacity:1" />
    <ellipse
       ry="0.85769105"
       rx="0.82470292"
       cy="23.133322"
       cx="88.599548"
       id="path4232-2-0-4-46-85-842"
       style="fill:none;fill-opacity:1;stroke:#ff0000;stroke-width:0.37027922;stroke-miterlimit:4;stroke-dasharray:none;stroke-opacity:1" />
    <ellipse
       ry="0.85769105"
       rx="0.82470292"
       cy="23.164349"
       cx="97.597572"
       id="path4232-2-0-4-46-85-51"
       style="fill:none;fill-opacity:1;stroke:#ff0000;stroke-width:0.37027922;stroke-miterlimit:4;stroke-dasharray:none;stroke-opacity:1" />
    <ellipse
       ry="0.85769105"
       rx="0.82470292"
       cy="23.13332"
       cx="106.61111"
       id="path4232-2-0-4-46-85-07"
       style="fill:none;fill-opacity:1;stroke:#ff0000;stroke-width:0.37027922;stroke-miterlimit:4;stroke-dasharray:none;stroke-opacity:1" />
    <ellipse
       ry="0.85769105"
       rx="0.82470292"
       cy="23.179861"
       cx="115.60914"
       id="path4232-2-0-4-46-85-13"
       style="fill:none;fill-opacity:1;stroke:#ff0000;stroke-width:0.37027922;stroke-miterlimit:4;stroke-dasharray:none;stroke-opacity:1" />
    <ellipse
       ry="0.85769105"
       rx="0.82470292"
       cy="23.226404"
       cx="124.70025"
       id="path4232-2-0-4-46-85-03"
       style="fill:none;fill-opacity:1;stroke:#ff0000;stroke-width:0.37027922;stroke-miterlimit:4;stroke-dasharray:none;stroke-opacity:1" />
    <ellipse
       ry="0.85769105"
       rx="0.82470292"
       cy="23.164347"
       cx="133.66725"
       id="path4232-2-0-4-46-85-851"
       style="fill:none;fill-opacity:1;stroke:#ff0000;stroke-width:0.37027922;stroke-miterlimit:4;stroke-dasharray:none;stroke-opacity:1" />
    <ellipse
       ry="0.85769105"
       rx="0.82470292"
       cy="23.164349"
       cx="142.61874"
       id="path4232-2-0-4-46-85-56"
       style="fill:none;fill-opacity:1;stroke:#ff0000;stroke-width:0.37027922;stroke-miterlimit:4;stroke-dasharray:none;stroke-opacity:1" />
    <ellipse
       ry="0.85769105"
       rx="0.82470292"
       cy="23.195375"
       cx="151.6478"
       id="path4232-2-0-4-46-85-395"
       style="fill:none;fill-opacity:1;stroke:#ff0000;stroke-width:0.37027922;stroke-miterlimit:4;stroke-dasharray:none;stroke-opacity:1" />
    <ellipse
       ry="0.85769105"
       rx="0.82470292"
       cy="23.195375"
       cx="160.61479"
       id="path4232-2-0-4-46-85-036"
       style="fill:none;fill-opacity:1;stroke:#ff0000;stroke-width:0.37027922;stroke-miterlimit:4;stroke-dasharray:none;stroke-opacity:1" />
  </g>
</svg>
