<?xml version="1.0" encoding="UTF-8" standalone="no"?>
<svg
   xmlns:dc="http://purl.org/dc/elements/1.1/"
   xmlns:cc="http://creativecommons.org/ns#"
   xmlns:rdf="http://www.w3.org/1999/02/22-rdf-syntax-ns#"
   xmlns:svg="http://www.w3.org/2000/svg"
   xmlns="http://www.w3.org/2000/svg"
   xmlns:sodipodi="http://sodipodi.sourceforge.net/DTD/sodipodi-0.dtd"
   xmlns:inkscape="http://www.inkscape.org/namespaces/inkscape"
   id="svg3355"
   version="1.1"
   width="209.506"
   height="186.521"
   viewBox="0 0 209.506 186.52099"
   inkscape:version="0.91 r"
   sodipodi:docname="satshakit_cnc.svg">
  <sodipodi:namedview
     pagecolor="#ffffff"
     bordercolor="#666666"
     borderopacity="1"
     objecttolerance="10"
     gridtolerance="10"
     guidetolerance="10"
     inkscape:pageopacity="0"
     inkscape:pageshadow="2"
     inkscape:window-width="1440"
     inkscape:window-height="699"
     id="namedview34"
     showgrid="false"
     units="px"
     inkscape:zoom="1.4313439"
     inkscape:cx="160.5459"
     inkscape:cy="74.938293"
     inkscape:window-x="-2"
     inkscape:window-y="-3"
     inkscape:window-maximized="1"
     inkscape:current-layer="svg3355" />
  <metadata
     id="metadata3361">
    <rdf:RDF>
      <cc:Work
         rdf:about="">
        <dc:format>image/svg+xml</dc:format>
        <dc:type
           rdf:resource="http://purl.org/dc/dcmitype/StillImage" />
        <dc:title></dc:title>
      </cc:Work>
    </rdf:RDF>
  </metadata>
  <defs
     id="defs3359" />
  <path
     style="fill:#000000;stroke-width:0;stroke-miterlimit:4;stroke-dasharray:none"
     d="m 0,-4.9e-4 0,12.72266 0,80.10547 0,80.9707 0,1.46875 0,11.25391 209.50586,0 0,-11.25391 0,-1.46875 0,-163.41211 0,-10.38672 L 0,-4.9e-4 Z m 69.869141,20.19922 c 25.40233,7e-4 46.234169,0.031 46.292969,0.0684 0.26793,0.17036 0.29883,0.6337 0.29883,4.56445 l 0,3.99219 0.47851,0.2207 c 0.61457,0.28136 1.10234,0.76873 1.40039,1.4043 l 0.23438,0.50391 0,3.28515 0,3.28516 -0.23438,0.50195 c -0.29391,0.62673 -0.77837,1.11868 -1.375,1.39649 -0.35493,0.16521 -0.61303,0.21484 -1.13476,0.21484 -1.12761,0 -2.01677,-0.56019 -2.48438,-1.56445 -0.21292,-0.4577 -0.21484,-0.46992 -0.21484,-3.83399 l 0,-3.375 0.2168,-0.46679 c 0.28119,-0.60393 0.83551,-1.13351 1.45117,-1.38868 l 0.49023,-0.20312 0,-3.71875 0,-3.71875 -45.359372,0 -45.359376,0 0,2.51953 0,2.52148 1.304688,0 1.304688,0 0,2.92383 0,2.92578 -3.195313,0 -3.195313,0 0,-2.92578 0,-2.92383 1.306641,0 1.304688,0 0,-2.96484 c 0,-2.57416 0.01778,-2.98067 0.140625,-3.10351 0.12821,-0.12825 4.459615,-0.14163 46.328125,-0.14063 z m 10.798828,4.05078 c 15.25483,7e-4 27.784951,0.031 27.843751,0.0684 0.28593,0.18181 0.29883,0.61467 0.29883,10.59961 l 0,10.0293 4.9707,0.002 c 2.73488,7e-4 5.02128,0.031 5.08008,0.0684 0.0588,0.0374 0.15052,0.18197 0.20312,0.32031 0.0661,0.17388 0.0957,4.84792 0.0957,15.14063 l 0,14.88867 -0.67578,0 -0.67383,0 0,-2.74414 c 0,-1.77 0.0318,-2.7461 0.0898,-2.74609 0.0595,-1e-5 0.0898,-4.01891 0.0898,-11.87891 l 0,-11.88086 -4.85546,0 c -4.79322,0 -5.25029,-0.0239 -5.42383,-0.29688 -0.0373,-0.0588 -0.0694,-4.67476 -0.0703,-10.25585 l 0,-10.14649 -26.910151,0 -26.910157,0 0,2.33984 c 10e-7,2.2123 0.0094,2.33985 0.166016,2.33985 0.33111,0 1.260178,0.55192 1.673828,0.99414 0.23214,0.24818 0.531403,0.68376 0.664063,0.9668 0.20561,0.4387 0.240234,0.63371 0.240234,1.32421 0,0.6905 -0.03461,0.88552 -0.240234,1.32422 -0.13266,0.28305 -0.431923,0.71862 -0.664063,0.9668 -0.41365,0.44222 -1.342718,0.99414 -1.673828,0.99414 -0.15252,0 -0.166016,0.0944 -0.166016,1.20117 0,1.40373 -0.0799,1.71535 -0.470703,1.85156 -0.19212,0.0669 -4.239986,0.0977 -13.222656,0.0977 l -12.947265,0 0,1.16992 0,1.16992 -0.855469,0 -0.853516,0 0,4.54493 0,4.54492 1.169922,0 1.169922,0 0,3.19531 0,3.19336 -1.169922,0 -1.169922,0 0,6.30078 c 0,5.54 0.01606,6.30078 0.134766,6.30078 0.118,0 0.134765,0.51375 0.134765,4.09375 l 0,4.09571 -1.080078,0 -1.080078,0 0,7.60546 0,7.60352 1.080078,0 1.080078,0 0,4.0957 0,4.09571 -2.746093,0 -2.744141,0 0,-4.09571 0,-4.09375 1.080078,0 1.080078,0 0,-7.60547 0,-7.60546 -1.080078,0 -1.080078,0 0,-4.09375 0,-4.09571 2.025391,0 2.02539,0 0,-6.30078 0,-6.29883 -1.169922,0 -1.169921,0 0,-3.19531 0,-3.19531 1.169921,0 1.169922,0 0,-4.54492 0,-4.54493 -1.755859,0 -1.75586,0 0,-2.92578 0,-2.92382 3.195313,0 3.195313,0 0,1.16992 0,1.16992 12.734374,0 12.736329,0 0,-0.99024 c 0,-0.90138 -0.01522,-0.99023 -0.166016,-0.99023 -0.3311,0 -1.262141,-0.55192 -1.675781,-0.99414 -0.23214,-0.24818 -0.52944,-0.68375 -0.66211,-0.9668 -0.2056,-0.4387 -0.242187,-0.63373 -0.242187,-1.32422 0,-0.6905 0.03658,-0.88551 0.242187,-1.32421 0.13267,-0.28304 0.42997,-0.71862 0.66211,-0.9668 0.41364,-0.44222 1.344681,-0.99414 1.675781,-0.99414 0.15763,0 0.166016,-0.14017 0.166016,-2.7832 0,-2.41052 0.01815,-2.80332 0.140625,-2.92579 0.12796,-0.12795 2.781163,-0.13967 27.876953,-0.13867 z m 0.0625,4.13867 c 1.14521,0 2.014702,0.55984 2.507812,1.61133 l 0.236328,0.50196 0,3.28515 0,3.28516 -0.236328,0.5039 c -0.29806,0.63557 -0.783867,1.12294 -1.398437,1.4043 l -0.480469,0.2207 0,9.39844 0,9.39844 14.439453,0 c 15.943852,0 14.664112,-0.0499 14.757812,0.56445 0.0243,0.15929 0.0633,3.60181 0.0859,7.64844 l 0.041,7.35742 -0.75781,0 -0.75586,0 0,-1.8457 c 0,-1.58 0.0192,-1.84571 0.13477,-1.8457 0.1185,-1e-5 0.13476,-0.65352 0.13476,-5.35352 l 0,-5.35547 -14.304684,0 c -9.87975,0 -14.380958,-0.0296 -14.554688,-0.0957 -0.13834,-0.0526 -0.282912,-0.14433 -0.320312,-0.20313 -0.0373,-0.0588 -0.06764,-4.50293 -0.06836,-9.87695 l -0.002,-9.77149 -0.490234,-0.20312 C 79.083472,38.76192 78.52914,38.23235 78.24795,37.62842 l -0.216797,-0.4668 0,-3.375 c 0,-3.36407 0.0017,-3.37627 0.214844,-3.83398 0.1176,-0.25256 0.366504,-0.61065 0.552734,-0.79688 0.52788,-0.52788 1.128531,-0.76758 1.931641,-0.76758 z m -18,0.002 c 1.14521,0 2.014702,0.55787 2.507812,1.60937 l 0.236328,0.50391 0,3.28515 0,3.28516 -0.236328,0.50195 c -0.29806,0.63557 -0.783857,1.12488 -1.398437,1.40625 l -0.480469,0.21875 0,2.42383 0,2.42383 2.273437,0 c 1.249871,7e-4 2.320107,0.0329 2.378907,0.0703 0.28653,0.18217 0.298828,0.61205 0.298828,11.04883 l 0,10.48047 14.421875,0 c 7.93237,7e-4 14.470497,0.0329 14.529297,0.0703 0.27974,0.17787 0.298828,0.62706 0.298828,7.2793 l 0,6.70898 5.173833,-0.0664 5.17578,-0.0684 0,0.6875 0,0.002 0,0.6875 -2.72266,-0.0195 c -2.96781,-0.0212 -8.4742,-0.11358 -8.5,-0.14258 -0.0088,-0.01 -0.07845,-0.0824 -0.15625,-0.16015 -0.12612,-0.12609 -0.142578,-0.88227 -0.142578,-6.97461 l 0,-6.83399 -14.302734,0 c -9.87974,0 -14.382911,-0.0296 -14.556641,-0.0957 -0.13834,-0.0526 -0.282913,-0.14433 -0.320313,-0.20313 -0.0373,-0.0588 -0.06764,-4.87449 -0.06836,-10.70312 l -0.002,-10.59766 -2.152344,0 c -2.09699,0 -2.569782,-0.0523 -2.726562,-0.29883 -0.0373,-0.0588 -0.06764,-1.36457 -0.06836,-2.90234 l -0.002,-2.79688 -0.490234,-0.20312 c -0.61565,-0.25518 -1.169982,-0.78473 -1.451172,-1.38867 l -0.216797,-0.46485 0,-3.375 c 0,-3.36407 0.0017,-3.37628 0.214844,-3.83398 0.46762,-1.00426 1.356765,-1.56445 2.484375,-1.56445 z m 9,0 c 1.14521,0 2.014702,0.55787 2.507812,1.60937 l 0.236328,0.50391 0,3.2832 0,3.28516 -0.236328,0.5039 c -0.29806,0.63557 -0.783867,1.12294 -1.398437,1.4043 l -0.480469,0.2207 0,11.19922 0,11.19727 14.197266,0.002 c 7.80862,7e-4 14.245889,0.031 14.304689,0.0684 0.28133,0.17885 0.29883,0.62563 0.29883,7.90039 l 0,7.33008 0.6289,0 c 0.36,0 0.63086,-0.0404 0.63086,-0.0918 0,-0.0571 0.6757,-0.0898 1.8457,-0.0898 l 1.84376,0 0,0.76562 0,0.76563 -1.84571,0 c -1.17,0 -1.84375,-0.0327 -1.84375,-0.0899 0,-0.054 -0.35843,-0.0898 -0.89453,-0.0898 -0.8851,0 -1.33331,-0.092 -1.46484,-0.29883 -0.0373,-0.0588 -0.06942,-3.45856 -0.07032,-7.55468 l 0,-7.44727 -14.080078,0 c -9.72091,0 -14.156408,-0.0297 -14.330078,-0.0957 -0.13834,-0.0526 -0.282912,-0.14235 -0.320312,-0.20118 -0.0373,-0.0588 -0.06764,-5.31371 -0.06836,-11.67773 l -0.002,-11.57227 -0.490234,-0.20312 c -0.61565,-0.25517 -1.169982,-0.78474 -1.451172,-1.38867 l -0.216797,-0.4668 0,-3.375 c 0,-3.36407 0.0017,-3.37627 0.214844,-3.83398 0.46762,-1.00426 1.356765,-1.5625 2.484375,-1.5625 z m 18,0 c 1.1452,0 2.014702,0.55787 2.507812,1.60937 l 0.236328,0.50391 0,3.2832 0,3.28516 -0.236328,0.5039 c -0.29806,0.63557 -0.783857,1.12294 -1.398437,1.4043 l -0.480469,0.2207 0,7.37305 0,7.37305 11.273435,0.002 c 6.19988,7e-4 11.32011,0.031 11.37891,0.0684 0.28203,0.1793 0.29883,0.62596 0.29883,8.2168 0,5.03609 0.0305,7.64257 0.0898,7.64258 0.058,-1e-5 0.0898,0.97609 0.0898,2.74609 l 0,2.74414 -0.67578,0 -0.67578,0 0,-10.125 0,-10.125 -11.15234,0 c -7.656106,0 -11.233602,-0.0301 -11.406252,-0.0957 -0.13834,-0.0526 -0.282912,-0.14238 -0.320312,-0.20118 -0.0373,-0.0588 -0.06764,-3.59324 -0.06836,-7.85351 l -0.002,-7.7461 -0.490234,-0.20312 C 88.083442,38.76205 87.52911,38.23248 87.24792,37.62855 l -0.216797,-0.4668 0,-3.375 c 0,-3.36407 0.0017,-3.37627 0.214844,-3.83398 0.46762,-1.00426 1.356765,-1.5625 2.484375,-1.5625 z m 9,0 c 1.1452,0 2.014701,0.55787 2.507811,1.60937 l 0.23633,0.50391 0,3.2832 0,3.28516 -0.23633,0.5039 c -0.29806,0.63557 -0.78386,1.12294 -1.398436,1.4043 l -0.480469,0.2207 0,5.12305 0,5.12305 8.347655,0.002 c 4.59113,7e-4 8.39628,0.031 8.45508,0.0684 0.0588,0.0374 0.15052,0.18197 0.20312,0.32031 0.1077,0.28303 0.13681,19.84277 0.0352,23.4375 l -0.0586,2.0918 -0.66211,0 -0.66016,0 0,-2.74414 c 0,-2.38 0.0177,-2.74414 0.13477,-2.74414 0.1192,0 0.13476,-1.13086 0.13476,-9.63086 l 0,-9.63086 -8.22851,0 c -8.177939,0 -8.620754,-0.0137 -8.800784,-0.29688 -0.0373,-0.0588 -0.06746,-2.58074 -0.06836,-5.60351 l -0.002,-5.4961 -0.490234,-0.20312 C 97.083552,38.76205 96.52922,38.23248 96.24803,37.62855 l -0.216797,-0.4668 0,-3.375 c 0,-3.36407 0.0017,-3.37627 0.214844,-3.83398 0.46761,-1.00426 1.356765,-1.5625 2.484375,-1.5625 z m 26.099611,0.44922 c 1.14521,0 2.01665,0.55788 2.50976,1.60937 l 0.23438,0.50391 0,3.28515 0,3.28516 -0.23438,0.50195 c -0.29806,0.63557 -0.78581,1.12489 -1.40039,1.40625 l -0.47851,0.21875 0,4.21094 c 0,2.76435 -0.0343,4.30451 -0.0977,4.48633 -0.13959,0.40046 -0.44612,0.4707 -2.07617,0.4707 l -1.42773,0 0,10.5293 c 0,6.96 0.0303,10.52929 0.0898,10.5293 0.058,-1e-5 0.0898,0.97609 0.0898,2.74609 l 0,2.74414 -0.67383,0 -0.67578,0 0,-13.71875 c 0,-12.35143 0.0152,-13.73205 0.14258,-13.85938 0.11834,-0.11833 0.41103,-0.14062 1.79883,-0.14062 l 1.6582,0 0,-3.99024 0,-3.98828 -0.49023,-0.20312 c -0.61565,-0.25517 -1.16998,-0.78474 -1.45117,-1.38867 l -0.2168,-0.46485 0,-3.375 c 0,-3.36407 0.002,-3.37627 0.21484,-3.83398 0.46761,-1.00426 1.35677,-1.56445 2.48438,-1.56445 z m 9,0 c 1.1452,0 2.01665,0.55788 2.50976,1.60937 l 0.23438,0.50391 0,3.28515 0,3.28516 -0.23438,0.50195 c -0.29806,0.63557 -0.78581,1.12489 -1.40039,1.40625 l -0.47851,0.21875 0,6.46094 c 0,4.36581 -0.0325,6.54919 -0.0977,6.73633 -0.0645,0.18498 -0.18807,0.30856 -0.37305,0.37304 -0.18231,0.0635 -1.76266,0.0977 -4.62695,0.0977 l -4.35156,0 -0.041,9.69727 c -0.0232,5.33362 -0.0663,10.29526 -0.0957,11.02539 l -0.0547,1.32617 -0.66992,0 -0.66992,0 0,-2.74414 c 0,-2.685 0.004,-2.7461 0.17969,-2.74609 0.179,0 0.17968,-0.0591 0.17968,-8.72266 0,-7.81052 0.014,-8.73862 0.14063,-8.86524 0.12487,-0.12483 0.67968,-0.14062 4.72656,-0.14062 l 4.58203,0 0,-6.24024 0,-6.23828 -0.49023,-0.20312 c -0.61565,-0.25517 -1.16998,-0.78474 -1.45117,-1.38867 l -0.2168,-0.46485 0,-3.375 c 0,-3.36407 0.002,-3.37627 0.21484,-3.83398 0.46761,-1.00426 1.35677,-1.56445 2.48438,-1.56445 z m 9,0 c 1.1452,0 2.01665,0.55788 2.50976,1.60937 l 0.23438,0.50391 0,3.28515 0,3.28516 -0.23438,0.50195 c -0.29806,0.63557 -0.78581,1.12489 -1.40039,1.40625 l -0.47851,0.21875 0,8.93555 c 0,6.1274 -0.0315,9.02105 -0.0977,9.21094 -0.0645,0.18498 -0.18807,0.3105 -0.37305,0.375 -0.18852,0.0657 -2.67213,0.0957 -7.77929,0.0957 l -7.5,0 0,8.55078 0,8.54883 -0.67578,0 -0.67578,0 0,-2.74414 c -3e-5,-1.77 0.0318,-2.7461 0.0898,-2.74609 0.0591,-1e-5 0.0898,-2.14234 0.0898,-6.24805 0,-5.56052 0.0167,-6.26478 0.14258,-6.39063 0.12637,-0.12633 0.96448,-0.14062 7.875,-0.14062 l 7.73242,0 0,-8.71289 0,-8.71485 -0.49023,-0.20312 c -0.61565,-0.25517 -1.16998,-0.78474 -1.45117,-1.38867 l -0.2168,-0.46485 0,-3.375 c 0,-3.36407 0.002,-3.37627 0.21484,-3.83398 0.46761,-1.00426 1.35677,-1.56445 2.48438,-1.56445 z m 9,0 c 1.1452,0 2.01665,0.55788 2.50976,1.60937 l 0.23438,0.50391 0,3.28515 0,3.28516 -0.23438,0.50195 c -0.29806,0.63557 -0.78581,1.12489 -1.40039,1.40625 l -0.47851,0.21875 0,11.41016 c 0,7.88899 -0.031,11.49605 -0.0977,11.6875 -0.0645,0.18498 -0.18807,0.30855 -0.37305,0.37305 -0.19105,0.0666 -3.57854,0.0957 -10.92773,0.0957 l -10.65234,0 0,3.33008 c 0,2.16 0.0314,3.33007 0.0898,3.33008 0.0571,-1e-5 0.0898,0.6757 0.0898,1.8457 l 0,1.8457 -0.76562,0 -0.76367,0 0,-1.8457 c 0,-1.17 0.0327,-1.8457 0.0898,-1.8457 0.0586,0 0.0898,-1.31773 0.0898,-3.77344 0,-3.31052 0.0165,-3.79 0.14063,-3.91406 0.12701,-0.12703 1.25123,-0.14258 11.02539,-0.14258 l 10.88281,0 0,-11.1875 0,-11.18946 -0.49023,-0.20312 c -0.61565,-0.25517 -1.16998,-0.78474 -1.45117,-1.38867 l -0.2168,-0.46485 0,-3.375 c 0,-3.36407 0.002,-3.37627 0.21484,-3.83398 0.46761,-1.00426 1.35677,-1.56445 2.48438,-1.56445 z m 9,0 c 1.1452,0 2.01665,0.55788 2.50976,1.60937 l 0.23438,0.50391 0,3.28515 0,3.28516 -0.23438,0.50195 c -0.29806,0.63557 -0.78581,1.12489 -1.40039,1.40625 l -0.48047,0.21875 0,13.66016 c 0,9.49044 -0.0286,13.74512 -0.0957,13.9375 -0.0645,0.18498 -0.18807,0.30855 -0.37305,0.37305 -0.18877,0.0658 -2.73659,0.0957 -8.0039,0.0957 l -7.72656,0 0,4.80273 c 0,3.18542 -0.0317,4.89443 -0.0957,5.07813 -0.0645,0.18498 -0.18806,0.30856 -0.37304,0.37304 -0.17894,0.0623 -1.53171,0.0977 -3.82032,0.0977 -2.30105,0 -3.54101,0.0314 -3.54101,0.0898 0,0.0571 -0.67375,0.0899 -1.84375,0.0899 l -1.84571,0 0,-0.76563 0,-0.76562 1.84571,0 c 1.17,0 1.84375,0.0347 1.84375,0.0918 0,0.0584 1.17008,0.0898 3.33008,0.0898 l 3.33007,0 0,-5.03516 c 0,-4.45598 0.0154,-5.04862 0.14063,-5.17382 0.12644,-0.12645 0.9865,-0.14258 8.10156,-0.14258 l 7.95703,0 0,-13.4375 0,-13.43946 -0.49023,-0.20312 c -0.61565,-0.25517 -1.16998,-0.78474 -1.45117,-1.38867 l -0.2168,-0.46485 0,-3.375 c 0,-3.36407 0.002,-3.37627 0.21484,-3.83398 0.46761,-1.00426 1.35677,-1.56445 2.48438,-1.56445 z m 9,0 c 1.1452,0 2.01665,0.55788 2.50976,1.60937 l 0.23438,0.50391 0,3.28515 0,3.28516 -0.23438,0.50195 c -0.29806,0.63557 -0.78581,1.12489 -1.40039,1.40625 l -0.47851,0.21875 0,15.68555 c 0,10.93174 -0.0304,15.76795 -0.0977,15.96094 -0.0645,0.18498 -0.18807,0.3105 -0.37305,0.375 -0.19017,0.0663 -3.1898,0.0957 -9.57812,0.0957 l -9.30273,0 0,4.17188 c 0,2.75492 -0.0315,4.26508 -0.0957,4.44921 -0.0683,0.19587 -0.18239,0.30639 -0.38281,0.36719 -0.16989,0.0516 -4.00826,0.10517 -9.48828,0.13477 l -9.20313,0.0508 0,-0.66992 0,-0.66797 9,0.0566 9,0.0566 0,-4.41797 c 0,-3.89666 0.0178,-4.43582 0.14258,-4.56055 0.12679,-0.12683 1.12695,-0.14062 9.67383,-0.14062 l 9.5332,0 0,-15.46289 0,-15.46485 -0.49023,-0.20312 c -0.61565,-0.25517 -1.16998,-0.78474 -1.45117,-1.38867 l -0.2168,-0.46485 0,-3.375 c 0,-3.36407 0.002,-3.37627 0.21484,-3.83398 0.46761,-1.00426 1.35677,-1.56445 2.48438,-1.56445 z m 9,0 c 1.1452,0 2.01665,0.55788 2.50976,1.60937 l 0.23438,0.50391 0,3.28515 0,3.28516 -0.23438,0.50195 c -0.29806,0.63557 -0.78581,1.12489 -1.40039,1.40625 l -0.47851,0.21875 0,17.93555 c 0,12.53319 -0.0302,18.01744 -0.0977,18.21094 -0.0645,0.18498 -0.18807,0.3105 -0.37305,0.375 -0.19092,0.0665 -3.51407,0.0957 -10.70312,0.0957 l -10.42773,0 0,3.36133 c 0,2.17492 -0.0328,3.46023 -0.0957,3.64062 -0.0681,0.19548 -0.1828,0.30589 -0.38281,0.36719 -0.17604,0.0539 -5.10259,0.10215 -12.86328,0.12695 l -12.57813,0.0391 0,-0.65039 0,-0.65235 12.375,0.0469 12.375,0.0469 0,-3.60742 c 0,-3.15894 0.0187,-3.62419 0.14258,-3.74805 0.12698,-0.12703 1.22922,-0.14062 10.79883,-0.14062 l 10.6582,0 0,-17.71289 0,-17.71485 -0.49023,-0.20312 c -0.61565,-0.25517 -1.16998,-0.78474 -1.45117,-1.38867 l -0.2168,-0.46485 0,-3.375 c 0,-3.36407 0.002,-3.37627 0.21484,-3.83398 0.46761,-1.00426 1.35677,-1.56445 2.48438,-1.56445 z m 9,0 c 1.14521,0 2.01665,0.55788 2.50976,1.60937 l 0.23438,0.50391 0,3.28515 0,3.28516 -0.23438,0.50195 c -0.29806,0.63557 -0.78581,1.12489 -1.40039,1.40625 l -0.47851,0.21875 0,25.90039 c 0,18.51248 -0.0293,25.97983 -0.0996,26.18164 -0.075,0.21498 -0.17718,0.30395 -0.42774,0.37305 -0.21696,0.0598 -9.81034,0.10015 -28.16015,0.11523 l -27.83399,0.0215 0,-0.62891 0,-0.63086 27.67578,0.0312 27.67383,0.0293 0,-25.68555 0,-25.6875 -0.49023,-0.20312 c -0.61565,-0.25517 -1.16997,-0.78474 -1.45117,-1.38867 l -0.2168,-0.46485 0,-3.375 c 0,-3.36407 0.002,-3.37627 0.21484,-3.83398 0.46761,-1.00426 1.35677,-1.56445 2.48438,-1.56445 z M 53.132812,31.646 c -0.295095,0.0167 -0.59162,0.11471 -0.861328,0.30468 -1.10973,0.78167 -1.005441,2.34028 0.199219,2.98438 1.15007,0.61492 2.599174,-0.35349 2.496094,-1.66797 -0.0787,-1.00356 -0.948696,-1.67125 -1.833985,-1.62109 z m 9.539063,0.45117 c -0.295095,0.0167 -0.591621,0.11276 -0.861328,0.30273 -1.10973,0.78167 -1.005441,2.34028 0.199219,2.98438 1.15007,0.61492 2.601127,-0.35349 2.498046,-1.66797 -0.0787,-1.00356 -0.950651,-1.6693 -1.835937,-1.61914 z m 9,0 c -0.295095,0.0167 -0.591623,0.11276 -0.861328,0.30273 -1.10974,0.78167 -1.005441,2.34028 0.199219,2.98438 1.15007,0.61492 2.601136,-0.35349 2.498046,-1.66797 -0.0787,-1.00356 -0.950652,-1.6693 -1.835937,-1.61914 z m 9,0 c -0.295095,0.0167 -0.591623,0.11276 -0.861328,0.30273 -1.10974,0.78167 -1.005441,2.34028 0.199219,2.98438 1.15007,0.61492 2.601136,-0.35349 2.498046,-1.66797 -0.0787,-1.00356 -0.950652,-1.6693 -1.835937,-1.61914 z m 9,0 c -0.295095,0.0167 -0.591621,0.11276 -0.861328,0.30273 -1.10973,0.78167 -1.005441,2.34028 0.199219,2.98438 1.15007,0.61492 2.601129,-0.35349 2.498046,-1.66797 -0.0787,-1.00356 -0.950651,-1.6693 -1.835937,-1.61914 z m 9,0 c -0.295095,0.0167 -0.591621,0.11276 -0.861328,0.30273 -1.10973,0.78167 -1.005441,2.34028 0.199219,2.98438 1.15007,0.61492 2.601134,-0.35349 2.498044,-1.66797 -0.0787,-1.00356 -0.950649,-1.6693 -1.835935,-1.61914 z m 17.101565,0.44922 c -0.2951,0.0167 -0.59162,0.11276 -0.86133,0.30273 -1.10972,0.78167 -1.00742,2.34223 0.19727,2.98633 1.15005,0.61492 2.60112,-0.35544 2.49804,-1.66992 -0.0787,-1.00356 -0.9487,-1.6693 -1.83398,-1.61914 z m 9,0 c -0.2951,0.0167 -0.59162,0.11276 -0.86133,0.30273 -1.10972,0.78167 -1.00742,2.34223 0.19727,2.98633 1.15005,0.61492 2.60112,-0.35544 2.49804,-1.66992 -0.0787,-1.00356 -0.9487,-1.6693 -1.83398,-1.61914 z m 9,0 c -0.2951,0.0167 -0.59162,0.11276 -0.86133,0.30273 -1.10972,0.78167 -1.00739,2.34223 0.19727,2.98633 1.15006,0.61492 2.60112,-0.35544 2.49804,-1.66992 -0.0787,-1.00356 -0.9487,-1.6693 -1.83398,-1.61914 z m 9,0 c -0.2951,0.0167 -0.59162,0.11276 -0.86133,0.30273 -1.10972,0.78167 -1.00739,2.34223 0.19727,2.98633 1.15006,0.61492 2.60112,-0.35544 2.49804,-1.66992 -0.0787,-1.00356 -0.9487,-1.6693 -1.83398,-1.61914 z m 9,0 c -0.2951,0.0167 -0.59162,0.11276 -0.86133,0.30273 -1.10972,0.78167 -1.00739,2.34223 0.19727,2.98633 1.15006,0.61492 2.60112,-0.35544 2.49804,-1.66992 -0.0787,-1.00356 -0.9487,-1.6693 -1.83398,-1.61914 z m 9,0 c -0.2951,0.0167 -0.59162,0.11276 -0.86133,0.30273 -1.10972,0.78167 -1.00739,2.34223 0.19727,2.98633 1.15006,0.61492 2.60112,-0.35544 2.49804,-1.66992 -0.0787,-1.00356 -0.9487,-1.6693 -1.83398,-1.61914 z m 9,0 c -0.2951,0.0167 -0.59162,0.11276 -0.86133,0.30273 -1.10972,0.78167 -1.00739,2.34223 0.19727,2.98633 1.15006,0.61492 2.60112,-0.35544 2.49804,-1.66992 -0.0787,-1.00356 -0.9487,-1.6693 -1.83398,-1.61914 z m 9,0 c -0.2951,0.0167 -0.59162,0.11276 -0.86133,0.30273 -1.10972,0.78167 -1.00739,2.34223 0.19727,2.98633 1.15006,0.61492 2.60112,-0.35544 2.49804,-1.66992 -0.0787,-1.00356 -0.9487,-1.6693 -1.83398,-1.61914 z m 9,0 c -0.2951,0.0167 -0.59162,0.11276 -0.86133,0.30273 -1.10972,0.78167 -1.00739,2.34223 0.19727,2.98633 1.15006,0.61492 2.60112,-0.35544 2.49804,-1.66992 -0.0787,-1.00356 -0.9487,-1.6693 -1.83398,-1.61914 z M 42.822266,45.3999 c 7.31009,7e-4 13.339637,0.031 13.398437,0.0684 0.23603,0.15008 0.298828,0.62426 0.298828,2.27539 l 0,1.70508 3.216797,0 c 1.76963,7e-4 3.265419,0.0329 3.324219,0.0703 0.28563,0.18163 0.298828,0.61598 0.298828,10.375 l 0,9.80274 15.097656,0.002 c 8.30362,7e-4 15.144325,0.031 15.203125,0.0684 0.27804,0.17677 0.298828,0.6308 0.298828,6.70117 l 0,6.12695 6.974606,-0.0625 c 6.27294,-0.0576 6.97461,-0.0515 6.97461,0.0742 0,0.12535 0.87676,0.14063 8.50977,0.14063 l 8.50976,0 1.36915,0.68555 c 0.75216,0.37682 1.54498,0.78825 1.76367,0.91601 0.26757,0.15631 0.94497,0.3526 2.07031,0.59961 l 1.67383,0.36719 16.3125,0.0312 16.3125,0.0332 0,-0.91211 0,-0.91015 3.19336,0 3.19531,0 0,1.16992 0,1.16992 2.65625,0 2.6543,0 0,-1.16992 0,-1.16992 3.19531,0 3.19531,0 0,2.92382 0,2.92578 -3.19531,0 -3.19531,0 0,-1.16992 0,-1.16992 -2.6543,0 -2.65625,0 0,1.16992 0,1.16992 -3.19531,0 -3.19336,0 0,-1.45117 0,-1.45117 -16.2461,0.0371 c -12.09157,0.0283 -16.24414,0.0117 -16.24414,-0.0645 0,-0.0597 -0.73886,-0.26446 -1.77734,-0.49219 -1.6732,-0.36691 -1.85206,-0.42545 -3.03125,-1.01172 -0.9272,-0.46098 -1.315,-0.61157 -1.49219,-0.57617 -0.13167,0.0263 -3.9818,1.08156 -8.55664,2.34375 -4.57486,1.26218 -8.51097,2.34199 -8.74609,2.40039 -0.25244,0.0627 -0.42774,0.15707 -0.42774,0.23047 0,0.10302 -0.46899,0.125 -2.74414,0.125 -1.77,0 -2.74609,-0.0318 -2.74609,-0.0899 0,-0.0593 -2.606489,-0.0898 -7.642579,-0.0898 -7.59084,0 -8.037497,-0.0169 -8.216797,-0.29883 -0.0373,-0.0588 -0.06764,-2.64777 -0.06836,-5.7539 l -0.002,-5.64844 -6.839843,0 -6.839844,0 0,1.48633 0,1.48437 0.226562,0 0.22461,0 0,3.19531 0,3.19532 -2.925782,0 -2.923828,0 0,-1.53125 0,-1.5293 -3.003906,0 -3.001953,0 -0.150391,0.39063 c -0.21777,0.57022 -0.707252,1.09227 -1.294922,1.38086 l -0.515625,0.2539 -3.330078,0 c -3.19602,0 -3.345191,-0.008 -3.738281,-0.18945 -1.01603,-0.47012 -1.570312,-1.3418 -1.570312,-2.4668 0,-0.55653 0.04296,-0.76395 0.25,-1.18555 0.284489,-0.57933 0.721522,-1.00223 1.320312,-1.27929 0.39309,-0.18151 0.542261,-0.18946 3.738281,-0.18946 l 3.330078,0 0.515625,0.25391 c 0.60703,0.29808 1.098037,0.83329 1.310547,1.43164 l 0.152344,0.42969 2.994141,0 2.99414,0 0,-1.08008 0,-1.08008 2.113282,0 2.115234,0 0,-1.92773 c 0,-1.63325 0.02281,-1.95054 0.142578,-2.07031 0.12638,-0.12635 0.956291,-0.14163 7.806641,-0.14063 4.21634,7e-4 7.714637,0.0329 7.773437,0.0703 0.27593,0.17542 0.298828,0.62887 0.298828,6.09766 l 0,5.5293 10.191406,0.0234 10.193355,0.0234 7.78516,-2.14062 c 4.28175,-1.177 7.90619,-2.17575 8.05469,-2.21875 0.15521,-0.0449 -6.2553,-0.0767 -15.07618,-0.0762 -15.614235,9.4e-4 -15.748252,-0.002 -15.949212,-0.31835 -0.0373,-0.0588 -0.06746,-2.91197 -0.06836,-6.33985 l -0.002,-6.23242 -14.978515,0 c -10.35624,0 -15.056569,-0.0296 -15.230469,-0.0957 -0.13834,-0.0526 -0.282912,-0.14238 -0.320312,-0.20118 -0.0373,-0.0588 -0.06764,-4.57191 -0.06836,-10.02929 l -0.002,-9.92383 -2.833984,0 -2.835938,0 0,1.62109 0,1.61914 1.304688,0 1.30664,0 0,2.92578 0,2.92383 -3.195312,0 -3.195313,0 0,-2.92383 0,-2.92578 1.304688,0 1.304687,0 0,-3.64453 0,-3.64453 -12.464843,0 -12.464844,0 0,8.18945 0,8.18946 4.523437,0.002 c 2.48738,7e-4 4.570107,0.031 4.628907,0.0684 0.26253,0.16691 0.296875,0.63385 0.296875,3.89648 l 0,3.32422 1.035156,0 1.035156,0 0,4.09375 0,4.09571 -1.035156,0 -1.035156,0 0,7.60546 0,7.60352 1.035156,0 1.035156,0 0,4.0957 0,4.09571 -1.035156,0 -1.035156,0 0,2.5957 c 0,1.616 -0.0356,2.70072 -0.0957,2.87305 -0.06448,0.18499 -0.188057,0.3105 -0.373047,0.375 -0.18922,0.0659 -2.865525,0.0957 -8.453125,0.0957 l -8.177735,0 0,2.02539 0,2.02539 0.63086,0 0.628906,0 0,3.28516 0,3.2832 -0.71875,0 -0.720703,0 0,13.86133 0,13.85937 0.90039,0 0.900391,0 0,3.28516 0,3.28516 -0.720703,0 -0.720703,0 0,5.98437 0,5.98633 82.845699,0 82.8457,0 0,-12.41992 0,-12.42188 -1.30468,0 -1.30664,0 0,-2.92383 0,-2.92578 3.19531,0 3.19531,0 0,2.92578 0,2.92383 -1.30469,0 -1.30468,0 0,12.63282 c 0,8.75846 -0.0308,12.7162 -0.0977,12.9082 -0.0645,0.18498 -0.18807,0.30856 -0.37305,0.37304 l -0.002,0.002 c -0.37191,0.12931 -166.872353,0.12575 -167.197263,-0.004 -0.12235,-0.0488 -0.253216,-0.13786 -0.291016,-0.19726 -0.0377,-0.0594 -0.06959,-2.97249 -0.07031,-6.47461 l 0,-6.36914 -0.720703,0 -0.720703,0 0,-3.28321 0,-3.28515 0.541015,0 0.539063,0 0,-13.86133 0,-13.85938 -0.71875,0 -0.720703,0 0,-3.28515 0,-3.28516 0.810546,0 0.810547,0 0,-2.46875 c 0,-2.12416 0.01892,-2.48768 0.140625,-2.60937 0.12655,-0.12653 1.026622,-0.14063 8.550782,-0.14063 l 8.408203,0 0,-2.38672 0,-2.38476 -1.125,0 -1.125,0 0,-4.09375 0,-4.09571 1.125,0 1.125,0 0,-7.60547 0,-7.60546 -1.125,0 -1.125,0 0,-4.09375 0,-4.09571 1.125,0 1.125,0 0,-3.06054 0,-3.0586 -4.404297,0 c -4.34262,0 -4.802588,-0.0283 -4.97461,-0.29883 -0.0373,-0.0588 -0.06959,-4.1642 -0.07031,-9.12304 -0.0012,-8.07762 0.01392,-9.02954 0.140625,-9.15625 0.12731,-0.12735 1.467671,-0.14163 13.431641,-0.14063 z m -10.962891,5.84766 2.925781,0 2.925782,0 0,1.30469 0,1.30468 4.701171,0.002 c 2.58637,7e-4 4.751747,0.031 4.810547,0.0684 0.28503,0.18126 0.296875,0.61829 0.296875,9.9707 l 0,9.39844 3.916016,0 3.914062,0 0,-1.84375 0,-1.84571 -1.304687,0 -1.304688,0 0,-2.92578 0,-2.92383 3.195313,0 3.195312,0 0,2.92383 0,2.92578 -1.30664,0 -1.304688,0 0,1.84571 0,1.84375 17.167969,0.002 c 9.44213,7e-4 17.214635,0.031 17.273438,0.0684 0.276639,0.17589 0.298828,0.63006 0.298828,6.29492 l 0,5.72461 8.326172,-0.0586 8.324222,-0.0606 0,0.67383 0,0.67383 -8.482426,-0.0488 c -4.66538,-0.0268 -8.612194,-0.0677 -8.771484,-0.0918 -0.59969,-0.0906 -0.566406,0.28183 -0.566406,-6.16406 l 0,-5.84375 -21.285156,0 -21.285157,0 0,8.64062 0,8.64063 1.644531,0 1.644532,0 0.152344,-0.42969 c 0.21251,-0.59835 0.701563,-1.1355 1.308593,-1.43359 l 0.515625,-0.25196 3.330078,0 3.330078,0 0.515626,0.25196 c 0.60703,0.29809 1.096083,0.83524 1.308593,1.43359 l 0.152344,0.42969 4.367187,0 c 2.401501,7e-4 4.413857,0.0329 4.472657,0.0703 0.28193,0.17924 0.298828,0.62423 0.298828,8.16992 l 0,7.59766 2.339844,0 2.339843,0 0,-1.16992 0,-1.16992 3.285157,0 3.285156,0 0,1.125 0,1.125 1.888672,0 1.890625,0 0,-8.09375 c 0,-6.8629 0.01925,-8.11267 0.126953,-8.22071 0.17849,-0.17848 22.086613,-0.29202 22.234373,-0.11523 0.076,0.091 5.4564,1.24326 9.94922,2.13086 l 0.94531,0.1875 5.15821,-2.35938 5.1582,-2.35742 1.27539,-0.17578 c 0.70211,-0.0964 1.34769,-0.21277 1.43359,-0.25977 0.0888,-0.0485 1.3235,-0.0859 2.85743,-0.0859 l 2.70117,0 0,0.67578 0,0.67383 -2.7461,0 c -2.23587,0 -2.74414,-0.0209 -2.74414,-0.11914 0,-0.0975 -0.24741,-0.0832 -1.2832,0.0742 l -1.28125,0.19336 -4.39062,2.01367 c -2.53455,1.16198 -4.3422,2.03862 -4.2754,2.07422 0.0636,0.034 0.48029,0.12849 0.92579,0.20899 1.14168,0.2062 10.30468,0.22189 10.30468,0.0176 0,-0.1111 1.39376,-0.12414 10.19336,-0.0859 5.60588,0.0243 10.27834,0.0626 10.38477,0.084 0.26007,0.0524 0.39258,0.46226 0.39258,1.22266 l 0,0.61719 5.75976,0 5.75977,0 0,-1.16992 0,-1.16993 3.19531,0 3.19531,0 0,1.16993 0,1.16992 2.6543,0 2.6543,0 0,-1.16992 0,-1.16993 3.19531,0 3.19531,0 0,2.92383 0,2.92578 -3.19531,0 -3.19531,0 0,-1.16992 0,-1.16992 -2.6543,0 -2.6543,0 0,1.16992 0,1.16992 -3.19531,0 -3.19531,0 0,-1.16992 0,-1.16992 -6.02344,0 c -5.96578,0 -6.41915,-0.0212 -6.5957,-0.29883 -0.0373,-0.0588 -0.0694,-0.43782 -0.0703,-0.84375 l 0,-0.73828 -14.69335,0.004 -14.69141,0.004 -2.61133,-0.50976 c -1.4355,-0.28079 -4.53352,-0.91479 -6.88476,-1.40821 l -4.27344,-0.89648 -10.914065,-0.0547 -10.912109,-0.0527 0,7.875 c 0,5.37241 -0.0298,7.96147 -0.0957,8.15039 -0.148149,0.42496 -0.411493,0.4707 -2.751953,0.4707 l -2.101562,0 0,1.21484 -0.002,0 0,1.21485 -3.285156,0 -3.285157,0 0,-1.16992 0,-1.16993 -2.603515,0 c -2.5445,0 -3.014222,-0.0447 -3.175782,-0.29882 -0.0373,-0.0588 -0.06764,-3.5796 -0.06836,-7.82422 l -0.002,-7.7168 -3.992188,0 -3.992187,0 -0.150391,0.39063 c -0.21777,0.57022 -0.707262,1.09225 -1.294922,1.38086 l -0.513672,0.2539 -3.330078,0 -3.330078,0 -0.515625,-0.2539 C 51.6818,94.40082 51.192308,93.87877 50.974538,93.30855 l -0.15039,-0.39063 -1.916016,0 c -1.86169,0 -2.334731,-0.0573 -2.488281,-0.29883 -0.0373,-0.0588 -0.06764,-8.54124 -0.06836,-18.84961 l -0.002,-18.74218 -4.320312,0 -4.318359,0 0,1.30468 0,1.30664 -2.925782,0 -2.925781,0 0,-3.19531 0,-3.19531 z m 45.541016,29.33984 2.923828,0 2.925781,0 0,3.19531 0,3.19532 -2.070312,0 -2.070313,0 0,4.09375 0,4.0957 1.351563,0 1.349609,0 0,2.92383 0,2.92578 -3.285156,0 -3.285157,0 0,-2.92578 0,-2.92383 1.34961,0 1.349609,0 0,-4.0957 0,-4.09375 -0.269531,0 -0.269531,0 0,-3.19532 0,-3.19531 z m -21.386719,1.00977 c -0.295096,0.0167 -0.593574,0.11276 -0.863281,0.30273 -1.10973,0.78167 -1.005442,2.34027 0.199218,2.98438 1.15007,0.61492 2.601127,-0.35349 2.498047,-1.66797 -0.0787,-1.00356 -0.948698,-1.6693 -1.833984,-1.61914 z m 0,9 c -0.295096,0.0167 -0.593574,0.11276 -0.863281,0.30273 -1.10973,0.78167 -1.005442,2.34027 0.199218,2.98438 1.15007,0.61492 2.601127,-0.35349 2.498047,-1.66797 -0.0787,-1.00356 -0.948698,-1.6693 -1.833984,-1.61914 z m 49.150388,3.2207 2.7461,0 0,0.67383 0,0.67578 -8.099613,0 -8.099609,0 0,10.20117 c 0,7.0289 -0.03116,10.28774 -0.09766,10.47852 -0.06448,0.18498 -0.188067,0.30856 -0.373047,0.37304 -0.19293,0.0672 -4.96785,0.0977 -15.74414,0.0977 l -15.466797,0 0,4.58984 0,4.58985 -3.554688,0 -3.554687,0 0,-4.58985 0,-4.58984 -9.134766,0 -9.134765,0 0,1.03516 0,1.0332 -2.025391,0 -2.025391,0 0,-3.2832 0,-3.28516 2.025391,0 2.025391,0 0,1.66406 0,1.66602 9.134765,0 9.134766,0 0,-4.5918 0,-4.58984 3.554687,0 3.554688,0 0,4.58984 0,4.5918 15.255859,0 15.253906,0 0,-10.43359 c 1e-6,-9.36506 0.01564,-10.44927 0.142579,-10.57618 0.12565,-0.12563 0.788023,-0.14062 5.939453,-0.14062 3.805709,0 5.798829,-0.0307 5.798829,-0.0899 0,-0.058 0.97414,-0.0898 2.74414,-0.0898 z m -0.89844,2.69922 1.84376,0 0,0.76562 0,0.76368 -1.84376,0 c -1.16997,0 -1.8457,-0.0328 -1.8457,-0.0899 0,-0.0573 -0.72047,-0.0898 -1.98047,-0.0898 l -1.980466,0 0,12.67773 c 0,8.79049 -0.0288,12.76111 -0.0957,12.95313 -0.06448,0.18498 -0.188067,0.30855 -0.373047,0.37305 -0.18943,0.066 -2.929994,0.0957 -8.677734,0.0957 l -8.402344,0 0,12.67773 c 0,8.79049 -0.03076,12.76111 -0.09766,12.95313 -0.06448,0.18498 -0.188057,0.30856 -0.373047,0.37304 -0.1907,0.0664 -3.41093,0.0977 -10.34375,0.0977 l -10.066406,0 0,4.54492 0,4.54492 -3.554688,0 -3.554687,0 0,-4.58984 0,-4.58984 -8.955078,0 -8.955078,0 0,1.34961 0,1.34961 -2.025391,0 -2.025391,0 0,-3.28516 0,-3.28516 2.025391,0 2.025391,0 0,1.34961 0,1.34961 8.955078,0 8.955078,0 0,-4.58984 0,-4.58984 3.554687,0 3.554688,0 0,4.63476 0,4.63672 9.855469,0 9.855468,0 0,-12.91016 c 0,-11.61506 0.01336,-12.92159 0.140625,-13.04882 0.12661,-0.12665 1.046691,-0.14258 8.775391,-0.14258 l 8.632812,0 0,-12.90821 c 10e-7,-11.61507 0.01533,-12.92162 0.142579,-13.04882 0.12157,-0.12153 0.481203,-0.14258 2.564453,-0.14258 1.555707,0 2.423827,-0.032 2.423827,-0.0898 0,-0.0571 0.6757,-0.0898 1.8457,-0.0898 z m 29.47461,0 1.84571,0 c 1.17,0 1.84375,0.0327 1.84375,0.0898 0,0.0575 0.77458,0.0909 2.13867,0.0918 1.17562,7e-4 2.18534,0.031 2.24414,0.0684 0.26413,0.16795 0.29688,0.63372 0.29688,4.07617 l 0,3.50391 1.80078,0 1.80078,0 0,-1.30469 0,-1.30469 2.92383,0 2.92578,0 0,3.19336 0,3.19532 -2.92578,0 -2.92383,0 0,-1.30469 0,-1.30469 -1.80078,0 -1.80078,0 0,3.24023 0,3.24024 16.91406,0 c 15.25598,0 16.92712,0.0131 17.05468,0.14062 0.0777,0.0778 0.15217,0.14921 0.16407,0.15821 0.0119,0.009 0.0412,7.98596 0.0664,17.72851 l 0.0469,17.71485 0.46484,0.15625 c 0.89972,0.30457 1.76859,1.19341 2.07031,2.11523 0.12752,0.38948 0.1565,0.99099 0.1875,3.86719 0.0402,3.72856 -0.021,4.58953 -0.38085,5.32617 -0.28936,0.59241 -0.95238,1.24746 -1.56836,1.54883 l -0.002,0 c -0.65679,0.32135 -1.88126,0.38481 -2.58789,0.13281 -0.89547,-0.31935 -1.71759,-1.14428 -2.02344,-2.0293 -0.14481,-0.41896 -0.16015,-0.86045 -0.16015,-4.4707 0,-3.61024 0.0154,-4.04979 0.16015,-4.46875 0.31923,-0.92369 1.22631,-1.79613 2.14258,-2.0625 l 0.48047,-0.14062 0,-17.27344 0,-17.27344 -16.77734,0 c -11.62689,0 -16.85697,-0.0294 -17.03125,-0.0957 -0.13835,-0.0526 -0.28291,-0.14433 -0.32031,-0.20313 -0.0373,-0.0588 -0.0675,-3.45858 -0.0684,-7.55468 l -0.002,-7.44727 -1.7539,0 c -1.11,0 -1.75586,0.0329 -1.75586,0.0898 0,0.0571 -0.67375,0.0899 -1.84375,0.0899 l -1.84571,0 0,-0.76368 0,-0.76562 z m -21.55859,2.88086 0.66797,0 0.66601,0 -0.0566,4.9707 c -0.0311,2.73487 -0.067,13.61259 -0.0801,24.17188 l -0.0234,19.19922 0.46484,0.15625 c 0.89974,0.3046 1.7686,1.19342 2.07031,2.11523 0.12754,0.38948 0.1565,0.99099 0.1875,3.86719 0.0402,3.72856 -0.021,4.58953 -0.38085,5.32617 -0.28936,0.59241 -0.95238,1.24746 -1.56836,1.54883 -0.6568,0.32135 -1.88126,0.38481 -2.58789,0.13281 -0.89547,-0.31935 -1.71954,-1.14428 -2.0254,-2.0293 -0.1448,-0.41896 -0.16015,-0.86045 -0.16015,-4.4707 0,-3.61024 0.0154,-4.04979 0.16015,-4.46875 0.31768,-0.91922 1.22521,-1.79727 2.13086,-2.06055 l 0.47266,-0.13672 0.0664,-5.95898 c 0.0366,-3.27758 0.0504,-14.15073 0.0312,-24.16211 l -0.0352,-18.20117 z m 2.88281,0 0.63086,0 0.62891,0 -0.0312,20.02539 -0.0332,20.02344 2.59765,0.002 c 1.42853,7e-4 2.64628,0.031 2.70508,0.0684 0.26663,0.16951 0.29688,0.63318 0.29688,4.37891 l 0,3.80859 0.43554,0.0566 c 0.92702,0.12298 1.95947,0.90206 2.40039,1.80859 0.33727,0.69348 0.40039,1.44983 0.40039,4.81641 0,3.36658 -0.0631,4.12488 -0.40039,4.81836 -0.28781,0.59175 -0.94975,1.24713 -1.5664,1.54883 l 0,0.002 c -0.6568,0.32134 -1.88126,0.38286 -2.58789,0.13086 -0.5917,-0.21101 -1.182,-0.66317 -1.59766,-1.22461 -0.59331,-0.80136 -0.60332,-0.90028 -0.57422,-5.4668 l 0.0254,-4.08203 0.24414,-0.49804 c 0.30882,-0.62879 0.9618,-1.28535 1.57617,-1.58594 l 0.47461,-0.23242 0,-3.58985 0,-3.58984 -2.46093,0 c -2.60863,0 -2.99712,-0.0488 -3.07032,-0.39063 -0.0228,-0.10644 -0.0544,-9.33709 -0.0684,-20.51171 l -0.0254,-20.31641 z m 2.78711,0 0.63282,0 0.63476,0 -0.0352,17.54883 -0.0352,17.55078 5.94336,0 c 5.28396,0 5.96021,0.0149 6.08593,0.14062 0.0778,0.0778 0.15091,0.14921 0.16211,0.15821 0.0112,0.009 0.0425,2.92345 0.0684,6.47851 l 0.0469,6.46485 0.46484,0.15625 c 0.89969,0.30454 1.76859,1.19341 2.07031,2.11523 0.12752,0.38948 0.1565,0.99099 0.1875,3.86719 0.0402,3.72856 -0.021,4.58953 -0.38085,5.32617 -0.28936,0.59241 -0.95238,1.24746 -1.56836,1.54883 -0.6568,0.32135 -1.88126,0.38481 -2.58789,0.13281 -0.89547,-0.31935 -1.71953,-1.14428 -2.0254,-2.0293 -0.1448,-0.41896 -0.16015,-0.86045 -0.16015,-4.4707 0,-3.61024 0.0154,-4.04979 0.16015,-4.46875 0.31921,-0.92369 1.22631,-1.79613 2.14258,-2.0625 l 0.48242,-0.14062 0,-6.02344 0,-6.02344 -5.79296,0 c -3.9797,0 -5.87909,-0.0316 -6.07422,-0.0996 -0.17196,-0.06 -0.30137,-0.1758 -0.32617,-0.29297 -0.0225,-0.10644 -0.0529,-8.22178 -0.0684,-18.03515 l -0.0273,-17.8418 z m 2.87305,0 0.64062,0 0.64258,0 -0.041,15.07422 -0.041,15.07422 9.00586,0 c 8.06679,0 9.0198,0.0159 9.14648,0.14258 0.0778,0.0778 0.15061,0.14726 0.16211,0.15624 0.0115,0.009 0.0428,4.03877 0.0684,8.95508 l 0.0469,8.93946 0.46484,0.15625 c 0.89971,0.30456 1.76859,1.19341 2.07031,2.11523 0.12752,0.38948 0.1565,0.99099 0.1875,3.86719 0.0402,3.72856 -0.021,4.58953 -0.38085,5.32617 -0.28936,0.59241 -0.95238,1.24746 -1.56836,1.54883 -0.6568,0.32135 -1.88126,0.38481 -2.58789,0.13281 -0.89547,-0.31935 -1.71759,-1.14428 -2.02344,-2.0293 -0.14481,-0.41896 -0.16211,-0.86045 -0.16211,-4.4707 0,-3.61024 0.0173,-4.04979 0.16211,-4.46875 0.31921,-0.92369 1.22435,-1.79613 2.14062,-2.0625 l 0.48242,-0.14062 0,-8.49805 0,-8.5 -8.85156,0 c -6.20503,0 -8.93765,-0.0283 -9.13672,-0.0977 -0.17238,-0.0601 -0.2997,-0.17551 -0.32422,-0.29297 -0.0222,-0.10644 -0.0547,-7.10842 -0.0723,-15.56054 l -0.0312,-15.36719 z m 2.78125,0 0.65039,0 0.64844,0 -0.0449,12.82422 -0.0449,12.82422 12.11133,0 c 10.89055,0 12.12478,0.0154 12.25195,0.14258 0.0778,0.0778 0.15237,0.14726 0.16407,0.15624 0.0117,0.009 0.041,5.05128 0.0664,11.20508 l 0.0469,11.18946 0.46484,0.15625 c 0.89972,0.30456 1.76859,1.19341 2.07031,2.11523 0.12752,0.38948 0.1565,0.99099 0.1875,3.86719 0.0402,3.72856 -0.021,4.58953 -0.38085,5.32617 -0.28936,0.59241 -0.95238,1.24746 -1.56836,1.54883 -0.6568,0.32135 -1.88126,0.38481 -2.58789,0.13281 -0.89547,-0.31935 -1.71955,-1.14428 -2.0254,-2.0293 -0.1448,-0.41896 -0.16015,-0.86045 -0.16015,-4.4707 0,-3.61024 0.0154,-4.04979 0.16015,-4.46875 0.31921,-0.92369 1.22631,-1.79613 2.14258,-2.0625 l 0.48242,-0.14062 0,-10.74805 0,-10.75 -11.95703,0 c -8.46309,0 -12.03924,-0.0276 -12.24023,-0.0977 -0.17281,-0.0602 -0.30002,-0.17521 -0.32422,-0.29297 -0.0219,-0.10643 -0.0561,-6.09591 -0.0762,-13.31054 l -0.0371,-13.11719 z m 2.85352,0 0.67578,0 0.67578,0 0,10.57422 0,10.57422 14.88672,0 c 16.44097,0 15.11194,-0.0484 15.21289,0.5664 0.0262,0.15929 0.066,5.97885 0.0898,12.9336 0.0238,6.95475 0.0692,12.87271 0.0996,13.15039 l 0.0547,0.50586 0.47656,0.10547 c 0.86189,0.19288 1.75388,0.91906 2.16602,1.76367 0.33641,0.68948 0.39843,1.44916 0.39843,4.81445 0,3.36658 -0.0631,4.12488 -0.40039,4.81836 -0.28781,0.59175 -0.94975,1.24713 -1.5664,1.54883 -0.6568,0.32135 -1.88126,0.38481 -2.58789,0.13281 -0.89547,-0.31935 -1.71955,-1.14428 -2.0254,-2.0293 -0.14481,-0.41896 -0.16015,-0.86045 -0.16015,-4.4707 0,-3.61024 0.0154,-4.04979 0.16015,-4.46875 0.29928,-0.86598 1.214,-1.78833 2.01172,-2.02734 l 0.35743,-0.10547 -0.0547,-0.54688 c -0.0298,-0.30036 -0.0777,-6.16507 -0.10547,-13.0332 l -0.0488,-12.48828 -14.74805,0 c -10.19207,0 -14.82421,-0.0296 -14.99804,-0.0957 -0.13835,-0.0526 -0.28096,-0.14238 -0.31836,-0.20118 -0.0373,-0.0588 -0.0694,-3.80343 -0.0703,-8.32031 -9e-4,-5.41409 -0.0325,-8.21289 -0.0918,-8.21289 -0.058,0 -0.0898,-0.97414 -0.0898,-2.74414 l 0,-2.74414 z m -17.18946,1.79883 0.76563,0 0.76367,0 0,1.8457 c 0,1.17 -0.0327,1.84375 -0.0898,1.84375 -0.0595,0 -0.0898,4.09076 -0.0898,12.0918 0,8.37412 -0.0288,12.17738 -0.0957,12.36914 -0.0645,0.18498 -0.18807,0.30856 -0.37305,0.37304 -0.17356,0.0605 -1.29736,0.0977 -3.00976,0.0977 l -2.73243,0 0.0234,8.96094 0.0234,8.96094 0.46484,0.15625 c 0.89972,0.30457 1.7686,1.19341 2.07031,2.11523 0.12754,0.38948 0.1565,0.99099 0.1875,3.86719 0.0402,3.72856 -0.021,4.58953 -0.38085,5.32617 -0.28936,0.59241 -0.95238,1.24746 -1.56836,1.54883 -0.6568,0.32135 -1.88126,0.38481 -2.58789,0.13281 -0.89547,-0.31935 -1.71954,-1.14428 -2.0254,-2.0293 -0.1448,-0.41896 -0.16015,-0.86045 -0.16015,-4.4707 0,-3.61024 0.0154,-4.04979 0.16015,-4.46875 0.31921,-0.92369 1.22631,-1.79613 2.14258,-2.0625 l 0.48242,-0.14062 0,-9.39258 c 0,-8.41836 0.0139,-9.40645 0.14063,-9.53321 0.12285,-0.12283 0.53131,-0.14062 3.10547,-0.14062 l 2.96289,0 0,-11.88086 c 0,-7.86 -0.0303,-11.88086 -0.0898,-11.88086 -0.0571,0 -0.0898,-0.67375 -0.0898,-1.84375 l 0,-1.8457 z m 19.89063,0 0.76367,0 0.76562,0 0,1.8457 c 0,1.17 -0.0327,1.84375 -0.0898,1.84375 -0.0591,0 -0.0898,1.99664 -0.0898,5.80664 l 0,5.80469 18.26367,0 c 16.48325,0 18.27665,0.013 18.40429,0.14062 0.0778,0.0778 0.15217,0.14921 0.16407,0.15821 0.0119,0.009 0.0412,6.97346 0.0664,15.47851 l 0.0469,15.46485 0.46484,0.15625 c 0.89972,0.30457 1.76859,1.19341 2.07031,2.11523 0.12752,0.38948 0.1565,0.99099 0.1875,3.86719 0.0402,3.72856 -0.021,4.58953 -0.38085,5.32617 -0.28936,0.59241 -0.95238,1.24746 -1.56836,1.54883 -0.6568,0.32135 -1.88126,0.38481 -2.58789,0.13281 -0.89547,-0.31935 -1.71955,-1.14428 -2.0254,-2.0293 -0.1448,-0.41896 -0.16015,-0.86045 -0.16015,-4.4707 0,-3.61024 0.0154,-4.04979 0.16015,-4.46875 0.31921,-0.92369 1.22631,-1.79613 2.14258,-2.0625 l 0.48242,-0.14062 0,-15.02344 0,-15.02344 -18.1289,0 c -12.57989,0 -18.20634,-0.0293 -18.38086,-0.0957 -0.13835,-0.0526 -0.28291,-0.14433 -0.32031,-0.20313 -0.0373,-0.0588 -0.0675,-2.89179 -0.0684,-6.29492 -9e-4,-4.06409 -0.0327,-6.1875 -0.0918,-6.1875 -0.0571,0 -0.0898,-0.67375 -0.0898,-1.84375 l 0,-1.8457 z m 26.72851,0.54101 2.92578,0 2.92578,0 0,1.30469 0,1.30469 13.88282,0.002 c 7.63537,7e-4 13.92948,0.031 13.98828,0.0684 0.28523,0.18139 0.29883,0.61753 0.29883,10.10547 l 0,9.5332 1.30468,0 1.30469,0 0,2.92578 0,2.92578 -3.19531,0 -3.19531,0 0,-2.92578 0,-2.92382 1.30664,0 1.30468,0 0,-9.27149 0,-9.26953 -13.5,0 -13.5,0 0,1.30469 0,1.30664 -2.92578,0 -2.92578,0 0,-3.19531 0,-3.19532 z m -52.16601,50.95899 c -0.2951,0.0167 -0.59162,0.11276 -0.86133,0.30273 -1.10972,0.78167 -1.00544,2.34028 0.19922,2.98438 1.15007,0.61493 2.59917,-0.35348 2.49609,-1.66797 -0.0787,-1.00355 -0.9487,-1.6693 -1.83398,-1.61914 z m 9,0 c -0.2951,0.0167 -0.59162,0.11276 -0.86133,0.30273 -1.10972,0.78167 -1.00544,2.34028 0.19922,2.98438 1.15007,0.61493 2.59917,-0.35348 2.49609,-1.66797 -0.0787,-1.00355 -0.9487,-1.6693 -1.83398,-1.61914 z m 9,0 c -0.2951,0.0167 -0.59162,0.11276 -0.86133,0.30273 -1.10972,0.78167 -1.00544,2.34028 0.19922,2.98438 1.15007,0.61493 2.59917,-0.35348 2.49609,-1.66797 -0.0787,-1.00355 -0.9487,-1.6693 -1.83398,-1.61914 z m 9,0 c -0.2951,0.0167 -0.59162,0.11276 -0.86133,0.30273 -1.10972,0.78167 -1.00544,2.34028 0.19922,2.98438 1.15007,0.61493 2.59917,-0.35348 2.49609,-1.66797 -0.0787,-1.00355 -0.9487,-1.6693 -1.83398,-1.61914 z m 9,0 c -0.2951,0.0167 -0.59162,0.11276 -0.86133,0.30273 -1.10972,0.78167 -1.00544,2.34028 0.19922,2.98438 1.15007,0.61493 2.59917,-0.35348 2.49609,-1.66797 -0.0787,-1.00355 -0.9487,-1.6693 -1.83398,-1.61914 z m 9,0 c -0.2951,0.0167 -0.59162,0.11276 -0.86133,0.30273 -1.10972,0.78167 -1.00544,2.34028 0.19922,2.98438 1.15007,0.61493 2.59917,-0.35348 2.49609,-1.66797 -0.0787,-1.00355 -0.9487,-1.6693 -1.83398,-1.61914 z m 9,0 c -0.2951,0.0167 -0.59162,0.11276 -0.86133,0.30273 -1.10972,0.78167 -1.00544,2.34028 0.19922,2.98438 1.15007,0.61493 2.59917,-0.35348 2.49609,-1.66797 -0.0787,-1.00355 -0.9487,-1.6693 -1.83398,-1.61914 z m 9,0 c -0.2951,0.0167 -0.59162,0.11276 -0.86133,0.30273 -1.10972,0.78167 -1.00544,2.34028 0.19922,2.98438 1.15007,0.61493 2.59917,-0.35348 2.49609,-1.66797 -0.0787,-1.00355 -0.9487,-1.6693 -1.83398,-1.61914 z m 9,0 c -0.2951,0.0167 -0.59162,0.11276 -0.86133,0.30273 -1.10972,0.78167 -1.00544,2.34028 0.19922,2.98438 1.15007,0.61493 2.59917,-0.35348 2.49609,-1.66797 -0.0787,-1.00355 -0.9487,-1.6693 -1.83398,-1.61914 z"
     id="path3365"
     inkscape:connector-curvature="0" />
  <text
     xml:space="preserve"
     style="font-style:normal;font-variant:normal;font-weight:normal;font-stretch:normal;font-size:13.75px;line-height:125%;font-family:sans-serif;-inkscape-font-specification:'sans-serif, Normal';text-align:start;letter-spacing:0px;word-spacing:0px;writing-mode:lr-tb;text-anchor:start;fill:#ffffff;fill-opacity:1;stroke:none;stroke-width:1px;stroke-linecap:butt;stroke-linejoin:miter;stroke-opacity:1"
     x="129.53415"
     y="25.04108"
     id="text3636"
     sodipodi:linespacing="125%"><tspan
       style="font-style:normal;font-variant:normal;font-weight:normal;font-stretch:normal;font-size:13.75px;line-height:125%;font-family:sans-serif;-inkscape-font-specification:'sans-serif, Normal';text-align:start;writing-mode:lr-tb;text-anchor:start"
       id="tspan3638"
       x="129.53415"
       y="25.04108">satshakit</tspan></text>
  <circle
     cy="33.379826"
     cx="53.238625"
     id="path3337-7"
     style="fill:#ffffff;fill-opacity:1;stroke:#ffffff;stroke-width:1.01343668;stroke-opacity:1"
     r="0.74328166" />
  <circle
     cy="33.793278"
     cx="62.83268"
     id="path3337-7-4"
     style="fill:#ffffff;fill-opacity:1;stroke:#ffffff;stroke-width:1.01343668;stroke-opacity:1"
     r="0.74328166" />
  <circle
     cy="33.824131"
     cx="71.817574"
     id="path3337-7-1"
     style="fill:#ffffff;fill-opacity:1;stroke:#ffffff;stroke-width:1.01343668;stroke-opacity:1"
     r="0.74328166" />
  <circle
     cy="33.793278"
     cx="80.771614"
     id="path3337-7-5"
     style="fill:#ffffff;fill-opacity:1;stroke:#ffffff;stroke-width:1.01343668;stroke-opacity:1"
     r="0.74328166" />
  <circle
     cy="33.885899"
     cx="89.787422"
     id="path3337-7-43"
     style="fill:#ffffff;fill-opacity:1;stroke:#ffffff;stroke-width:1.01343668;stroke-opacity:1"
     r="0.74328166" />
  <circle
     cy="33.824131"
     cx="98.772316"
     id="path3337-7-46"
     style="fill:#ffffff;fill-opacity:1;stroke:#ffffff;stroke-width:1.01343668;stroke-opacity:1"
     r="0.74328166" />
  <circle
     cy="34.279789"
     cx="115.88136"
     id="path3337-7-7"
     style="fill:#ffffff;fill-opacity:1;stroke:#ffffff;stroke-width:1.01343668;stroke-opacity:1"
     r="0.74328166" />
  <circle
     cy="34.277958"
     cx="124.87495"
     id="path3337-7-2"
     style="fill:#ffffff;fill-opacity:1;stroke:#ffffff;stroke-width:1.01343668;stroke-opacity:1"
     r="0.74328166" />
  <circle
     cy="34.277958"
     cx="133.89178"
     id="path3337-7-3"
     style="fill:#ffffff;fill-opacity:1;stroke:#ffffff;stroke-width:1.01343668;stroke-opacity:1"
     r="0.74328166" />
  <circle
     cy="34.277958"
     cx="142.86499"
     id="path3337-7-51"
     style="fill:#ffffff;fill-opacity:1;stroke:#ffffff;stroke-width:1.01343668;stroke-opacity:1"
     r="0.74328166" />
  <circle
     cy="34.299809"
     cx="151.88187"
     id="path3337-7-11"
     style="fill:#ffffff;fill-opacity:1;stroke:#ffffff;stroke-width:1.01343668;stroke-opacity:1"
     r="0.74328166" />
  <circle
     cy="34.299809"
     cx="160.89877"
     id="path3337-7-75"
     style="fill:#ffffff;fill-opacity:1;stroke:#ffffff;stroke-width:1.01343668;stroke-opacity:1"
     r="0.74328166" />
  <circle
     cy="34.256138"
     cx="169.8938"
     id="path3337-7-6"
     style="fill:#ffffff;fill-opacity:1;stroke:#ffffff;stroke-width:1.01343668;stroke-opacity:1"
     r="0.74328166" />
  <circle
     cy="34.299809"
     cx="178.88885"
     id="path3337-7-38"
     style="fill:#ffffff;fill-opacity:1;stroke:#ffffff;stroke-width:1.01343668;stroke-opacity:1"
     r="0.74328166" />
  <circle
     cy="34.277958"
     cx="187.88388"
     id="path3337-7-32"
     style="fill:#ffffff;fill-opacity:1;stroke:#ffffff;stroke-width:1.01343668;stroke-opacity:1"
     r="0.74328166" />
  <circle
     cy="83.395576"
     cx="56.117134"
     id="path3337-7-9"
     style="fill:#ffffff;fill-opacity:1;stroke:#ffffff;stroke-width:1.01343668;stroke-opacity:1"
     r="0.74328166" />
  <circle
     cy="92.365028"
     cx="56.148018"
     id="path3337-7-15"
     style="fill:#ffffff;fill-opacity:1;stroke:#ffffff;stroke-width:1.01343668;stroke-opacity:1"
     r="0.74328166" />
  <circle
     cy="154.4465"
     cx="103.71162"
     id="path3337-7-0"
     style="fill:#ffffff;fill-opacity:1;stroke:#ffffff;stroke-width:1.01343668;stroke-opacity:1"
     r="0.74328166" />
  <circle
     cy="154.45667"
     cx="112.74372"
     id="path3337-7-41"
     style="fill:#ffffff;fill-opacity:1;stroke:#ffffff;stroke-width:1.01343668;stroke-opacity:1"
     r="0.74328166" />
  <circle
     cy="154.45667"
     cx="121.74406"
     id="path3337-7-68"
     style="fill:#ffffff;fill-opacity:1;stroke:#ffffff;stroke-width:1.01343668;stroke-opacity:1"
     r="0.74328166" />
  <circle
     cy="154.41037"
     cx="130.74442"
     id="path3337-7-96"
     style="fill:#ffffff;fill-opacity:1;stroke:#ffffff;stroke-width:1.01343668;stroke-opacity:1"
     r="0.74328166" />
  <circle
     cy="154.44125"
     cx="139.72934"
     id="path3337-7-40"
     style="fill:#ffffff;fill-opacity:1;stroke:#ffffff;stroke-width:1.01343668;stroke-opacity:1"
     r="0.74328166" />
  <circle
     cy="154.44122"
     cx="148.74512"
     id="path3337-7-39"
     style="fill:#ffffff;fill-opacity:1;stroke:#ffffff;stroke-width:1.01343668;stroke-opacity:1"
     r="0.74328166" />
  <circle
     cy="154.45667"
     cx="157.73004"
     id="path3337-7-687"
     style="fill:#ffffff;fill-opacity:1;stroke:#ffffff;stroke-width:1.01343668;stroke-opacity:1"
     r="0.74328166" />
  <circle
     cy="154.42581"
     cx="166.73038"
     id="path3337-7-30"
     style="fill:#ffffff;fill-opacity:1;stroke:#ffffff;stroke-width:1.01343668;stroke-opacity:1"
     r="0.74328166" />
  <circle
     cy="154.42578"
     cx="175.73074"
     id="path3337-7-00"
     style="fill:#ffffff;fill-opacity:1;stroke:#ffffff;stroke-width:1.01343668;stroke-opacity:1"
     r="0.74328166" />
</svg>
