<?xml version="1.0" encoding="UTF-8" standalone="no"?>
<svg
   xmlns:dc="http://purl.org/dc/elements/1.1/"
   xmlns:cc="http://creativecommons.org/ns#"
   xmlns:rdf="http://www.w3.org/1999/02/22-rdf-syntax-ns#"
   xmlns:svg="http://www.w3.org/2000/svg"
   xmlns="http://www.w3.org/2000/svg"
   version="1.1"
   id="svg2"
   viewBox="0 0 174.643 152.727"
   height="152.72701"
   width="174.64301">
  <defs
     id="defs4">
    <pattern
       id="EMFhbasepattern"
       patternUnits="userSpaceOnUse"
       width="6"
       height="6"
       x="0"
       y="0" />
  </defs>
  <metadata
     id="metadata7">
    <rdf:RDF>
      <cc:Work
         rdf:about="">
        <dc:format>image/svg+xml</dc:format>
        <dc:type
           rdf:resource="http://purl.org/dc/dcmitype/StillImage" />
        <dc:title></dc:title>
      </cc:Work>
    </rdf:RDF>
  </metadata>
  <g
     transform="translate(0,-899.63519)"
     id="layer1">
    <path
       id="path3433"
       d="m 0,899.63564 0,152.72656 80.070312,0 94.572258,0 0,-152.72656 -174.64257,0 z m 50.128906,4.13671 32.833984,0 0.197266,0.20704 c 0.194287,0.20672 0.195312,0.23621 0.195312,3.81836 l 0,3.60937 0.261719,0.0586 c 0.393975,0.0865 1.069155,0.60515 1.408203,1.08203 0.471718,0.66345 0.50719,0.998 0.47461,4.5 -0.02866,3.0805 -0.03475,3.15905 -0.238282,3.57227 -0.264717,0.53742 -0.810823,1.08564 -1.335937,1.33984 -0.508914,0.24636 -1.452214,0.31068 -1.984375,0.13672 -0.798264,-0.26095 -1.550752,-1.02782 -1.791016,-1.82617 -0.179011,-0.59474 -0.180477,-6.38339 -0.002,-6.97656 0.248562,-0.8259 1.051252,-1.64786 1.789063,-1.83008 l 0.248046,-0.0606 0,-3.23047 0,-3.23047 -32.041015,0 -32.039063,0 0,4.76953 0,4.76953 1.169922,0 1.169922,0 0,3.19532 0,3.19531 -2.925781,0 -2.923828,0 0,-3.19531 0,-3.19532 1.169922,0 1.169921,0 0,-5.17383 c 0,-5.05499 0.0039,-5.17963 0.179688,-5.35546 0.17934,-0.17934 0.299365,-0.17969 33.013672,-0.17969 z m 2.896484,3.50977 c 24.533594,0 25.446213,0.005 25.589844,0.16406 0.1371,0.15149 0.150391,1.16268 0.150391,12.69141 l 0,12.52539 11.730468,0 c 11.250547,0 11.736057,0.006 11.878907,0.16406 0.13675,0.1511 0.15039,0.99522 0.15039,10.30469 0,6.70027 0.0303,10.14062 0.0898,10.14062 0.058,0 0.0898,0.97415 0.0898,2.74415 l 0,2.74609 -0.67578,0 -0.67383,0 0,-2.74609 c 0,-1.77 0.0319,-2.74415 0.0898,-2.74415 0.0595,0 0.0898,-3.33054 0.0898,-9.81054 l 0,-9.81055 -11.730463,0 c -11.250549,0 -11.738011,-0.006 -11.880859,-0.16406 -0.1371,-0.15149 -0.148438,-1.16072 -0.148438,-12.68945 l 0,-12.5254 -24.751953,0 -24.751953,0 0.02539,2.57813 0.02344,2.57617 0.378906,0.11328 c 0.906375,0.26753 1.745791,1.0071 2.171875,1.91602 0.203676,0.43448 0.238282,0.63128 0.238282,1.32031 0,0.68903 -0.0346,0.88779 -0.238282,1.32227 -0.426083,0.90892 -1.265496,1.64847 -2.171875,1.91601 l -0.378906,0.11328 -0.02344,2.6836 c -0.0208,2.3398 -0.04324,2.70552 -0.171875,2.84765 -0.14078,0.15508 -0.604879,0.16211 -10.078125,0.16211 l -9.9316406,0 0,4.41016 0,4.41016 1.619141,0 1.6210926,0 0,3.19531 0,3.19531 -1.169922,0 -1.1699206,0 0,6.30078 0,6.29883 1.7089836,0 1.710937,0 0,4.0957 0,4.09375 -1.080078,0 -1.080078,0 0,7.60547 0,7.60547 1.080078,0 1.080078,0 0,4.0957 0,4.09375 -2.7460926,0 -2.7441409,0 0,-4.09375 0,-4.0957 1.0800781,0 1.0800778,0 0,-7.60547 0,-7.60547 -1.0800778,0 -1.0800781,0 0,-4.09375 0,-4.0957 0.4492188,0 0.4511719,0 0,-6.29883 0,-6.30078 -1.1699219,0 -1.171875,0 0,-3.19531 0,-3.19531 0.7207031,0 0.7207031,0 0,-6.88477 0,-6.88477 -1.1699219,0 -1.1699218,0 0,-3.19531 0,-3.19531 2.9238281,0 2.9257811,0 0,3.19531 0,3.19531 -1.1699216,0 -1.169922,0 0,1.98047 0,1.98047 9.5859376,0 9.585937,0 -0.02344,-2.35351 -0.02344,-2.35157 -0.378906,-0.11328 c -0.90636,-0.26752 -1.74579,-1.00709 -2.171875,-1.91601 -0.203677,-0.43448 -0.240235,-0.63324 -0.240235,-1.32227 0,-0.68903 0.03656,-0.88583 0.240235,-1.32031 0.426081,-0.90892 1.265485,-1.64846 2.171875,-1.91602 l 0.378906,-0.11328 0.02344,-2.9082 c 0.02083,-2.54921 0.04248,-2.92928 0.171874,-3.07227 0.141943,-0.15718 1.135946,-0.16406 25.589844,-0.16406 z m -15.261718,4.08008 c 0.422471,-0.002 0.8434,0.0724 1.148437,0.22265 0.539304,0.26564 1.083969,0.81031 1.349609,1.34961 0.20353,0.41322 0.209622,0.49177 0.238282,3.57227 0.03258,3.502 -0.0029,3.83655 -0.47461,4.5 -0.33905,0.47688 -1.014226,0.99553 -1.408203,1.08203 l -0.261719,0.0566 0,3.99805 0,3.99804 5.878907,0 5.878906,0 0.195312,0.20899 0.197266,0.20898 0,9.4668 0,9.46484 14.878906,0 14.878907,0 0.195312,0.20899 0.195312,0.20898 0,6.59766 0,6.5957 5.400391,-0.0664 5.400391,-0.0664 0,0.68555 0,0.6875 -2.722656,-0.0215 c -9.647011,-0.0753 -8.812317,-0.0508 -9.041016,-0.26563 l -0.207031,-0.19531 0,-6.59961 0,-6.59765 -14.878907,0 -14.878906,0 -0.195312,-0.20899 -0.197266,-0.20898 0,-9.4668 0,-9.4668 -5.878906,0 -5.878906,0 -0.195313,-0.20703 c -0.195418,-0.20797 -0.195313,-0.2164 -0.195313,-4.58398 l 0,-4.37305 -0.261718,-0.0586 c -0.393977,-0.0865 -1.069152,-0.60515 -1.408203,-1.08203 -0.471719,-0.66345 -0.50719,-0.998 -0.47461,-4.5 0.02905,-3.12295 0.0299,-3.15255 0.246094,-3.5918 0.277593,-0.56402 0.756296,-1.04272 1.320313,-1.32031 0.31067,-0.15293 0.733777,-0.23059 1.15625,-0.23242 z m 9,0 c 0.422473,-0.002 0.8434,0.0724 1.148437,0.22265 0.539303,0.26564 1.083968,0.81031 1.349609,1.34961 0.20353,0.41322 0.209622,0.49177 0.238282,3.57227 0.03258,3.502 -0.0029,3.83655 -0.47461,4.5 -0.339051,0.47688 -1.014227,0.99553 -1.408203,1.08203 l -0.261719,0.0566 0,2.42383 0,2.42187 2.728516,0 2.730469,0 0.195312,0.20899 0.195313,0.20898 0,9.69141 0,9.6914 15.330078,0 15.328125,0 0.195312,0.20899 0.195313,0.20703 0,6.54297 0,6.54101 0.855469,0 c 0.510003,0 0.855468,-0.0361 0.855468,-0.0898 0,-0.0571 0.675705,-0.0898 1.845703,-0.0898 l 1.84375,0 0,0.76563 0,0.76367 -1.84375,0 c -1.17,0 -1.845703,-0.0327 -1.845703,-0.0898 0,-0.0557 -0.474595,-0.0898 -1.24414,-0.0898 -1.184292,0 -1.253198,-0.009 -1.439453,-0.20703 l -0.197266,-0.20898 0,-6.54102 0,-6.54297 -15.328125,0 -15.330078,0 -0.195313,-0.20703 -0.195312,-0.20898 0,-9.69141 0,-9.69141 -2.730469,0 -2.728515,0 -0.195313,-0.20898 c -0.192288,-0.20465 -0.195313,-0.25732 -0.195313,-3.00781 l 0,-2.79883 -0.261718,-0.0586 c -0.393977,-0.0865 -1.069153,-0.60515 -1.408203,-1.08203 -0.471719,-0.66345 -0.50719,-0.998 -0.47461,-4.5 0.02905,-3.12295 0.0299,-3.15255 0.246094,-3.5918 0.277592,-0.56402 0.756295,-1.04272 1.320313,-1.32031 0.31067,-0.15294 0.733775,-0.23059 1.15625,-0.23242 z m 9,0 c 0.422473,-0.002 0.843401,0.0724 1.148437,0.22265 0.539304,0.26564 1.083969,0.81031 1.349609,1.34961 0.20353,0.41322 0.209622,0.49177 0.238282,3.57227 0.03258,3.502 -0.0029,3.83655 -0.47461,4.5 -0.33905,0.47688 -1.014226,0.99553 -1.408203,1.08203 l -0.261719,0.0566 0,10.52344 0,10.52344 18.703125,0 18.705079,0 0.195312,0.20898 0.195312,0.20703 0,4.83203 c 0,3.16113 0.03096,4.83203 0.08984,4.83203 0.05707,0 0.08984,0.67375 0.08984,1.84375 l 0,0.002 0,1.84375 -0.763672,0 -0.765625,0 0,-1.84375 c 0,-1.17 0.03277,-1.8457 0.08984,-1.8457 0.05879,0 0.08984,-1.54508 0.08984,-4.45508 l 0,-4.45508 -18.703125,0 -18.705078,0 -0.195313,-0.20898 -0.195313,-0.20703 0,-10.90039 0,-10.89844 -0.261718,-0.0586 c -0.393977,-0.0865 -1.069152,-0.60515 -1.408203,-1.08203 -0.471719,-0.66345 -0.50719,-0.998 -0.47461,-4.5 0.02905,-3.12295 0.0299,-3.15255 0.246094,-3.5918 0.277593,-0.56402 0.756296,-1.04272 1.320313,-1.32031 0.31067,-0.15293 0.733775,-0.23059 1.15625,-0.23242 z m 9,0 c 0.422471,-0.002 0.8434,0.0724 1.148437,0.22265 0.539303,0.26564 1.083968,0.81031 1.349609,1.34961 0.20353,0.41322 0.209622,0.49177 0.238282,3.57227 0.03258,3.502 -0.0029,3.83655 -0.47461,4.5 -0.339051,0.47688 -1.014226,0.99553 -1.408203,1.08203 l -0.261719,0.0566 0,8.94922 0,8.94726 15.59961,0 15.597656,0 0.185547,0.20313 c 0.182169,0.20038 0.183458,0.29763 0.236328,9.35937 l 0.05469,9.15821 -0.669921,0 -0.669922,0 0.05664,-8.77539 0.05859,-8.77539 -15.615234,0 -15.613281,0 -0.195313,-0.20703 -0.195313,-0.20899 0,-9.32422 0,-9.32422 -0.261718,-0.0586 c -0.393977,-0.0865 -1.069153,-0.60515 -1.408203,-1.08203 -0.471719,-0.66345 -0.50719,-0.998 -0.47461,-4.5 0.02905,-3.12295 0.0299,-3.15254 0.246094,-3.59179 0.277592,-0.56402 0.756293,-1.04273 1.320313,-1.32032 0.31067,-0.15293 0.733777,-0.23059 1.15625,-0.23242 z m 9,0 c 0.422471,-0.002 0.8434,0.0724 1.148437,0.22265 0.539298,0.26564 1.083965,0.81031 1.349609,1.34961 0.203539,0.41322 0.209622,0.49177 0.238282,3.57227 0.03258,3.502 -0.0029,3.83655 -0.47461,4.5 -0.339048,0.47688 -1.014228,0.99553 -1.408203,1.08203 l -0.261719,0.0566 0,7.14844 0,7.14844 12.539063,0 12.539063,0 0.18359,0.20312 c 0.18346,0.20124 0.18492,0.26911 0.23243,11.1582 l 0,0.002 0.0488,10.95703 -0.66015,0 -0.658206,0 0.05078,-10.57617 0.05273,-10.57422 -12.554687,0 -12.552734,0 -0.195313,-0.20898 -0.195313,-0.20703 0,-7.52539 0,-7.52344 -0.261718,-0.0586 c -0.393975,-0.0865 -1.069157,-0.60515 -1.408203,-1.08203 -0.471719,-0.66345 -0.50719,-0.998 -0.47461,-4.5 0.02905,-3.12295 0.0299,-3.15255 0.246094,-3.5918 0.277593,-0.56402 0.756292,-1.04272 1.320313,-1.32031 0.31067,-0.15293 0.733776,-0.23059 1.15625,-0.23242 z m 18,0 c 0.422471,-0.002 0.8434,0.0724 1.148437,0.22265 0.539298,0.26564 1.083965,0.81031 1.349609,1.34961 0.203539,0.41322 0.209622,0.49177 0.238282,3.57227 0.03258,3.502 -0.0029,3.83655 -0.47461,4.5 -0.339048,0.47688 -1.014228,0.99553 -1.408203,1.08203 l -0.261719,0.0566 0,3.54883 0,3.54687 6.328125,0 6.330077,0 0.19531,0.20899 0.19531,0.20898 0,11.80664 c 0,7.81113 0.0302,11.80664 0.0898,11.80664 0.058,0 0.0898,0.97414 0.0898,2.74414 l 0,2.7461 -0.67383,0 -0.67578,0 0,-14.17578 0,-14.17383 -6.32812,0 -6.330078,0 -0.195313,-0.20899 c -0.194697,-0.20729 -0.195313,-0.22725 -0.195313,-4.13281 l 0,-3.92383 -0.261718,-0.0586 c -0.393975,-0.0865 -1.069155,-0.60515 -1.408203,-1.08203 -0.471718,-0.66345 -0.50719,-0.998 -0.47461,-4.5 0.02905,-3.12295 0.0299,-3.15254 0.246094,-3.59179 0.277596,-0.56402 0.756292,-1.04273 1.320313,-1.32032 0.31067,-0.15293 0.733775,-0.23059 1.15625,-0.23242 z m 8.999998,0 c 0.42247,-0.002 0.84339,0.0724 1.14844,0.22265 0.53928,0.26564 1.08396,0.81031 1.3496,1.34961 0.20353,0.41322 0.20959,0.49177 0.23829,3.57227 0.0326,3.502 -0.003,3.83655 -0.47461,4.5 -0.33905,0.47688 -1.01424,0.99553 -1.40821,1.08203 l -0.26172,0.0566 0,1.74805 0,1.74804 3.26954,0 3.26757,0 0.1875,0.20313 0.18555,0.20312 0.0371,16.35743 0.0352,16.35742 -0.63868,0 -0.63867,0 0.0391,-15.97461 0.0391,-15.97656 -3.28125,0 -3.28125,0 -0.19532,-0.20704 c -0.18966,-0.20172 -0.19531,-0.27652 -0.19531,-2.33398 l 0,-2.12305 -0.261716,-0.0586 c -0.39398,-0.0865 -1.069149,-0.60515 -1.408199,-1.08203 -0.471716,-0.66345 -0.50719,-0.998 -0.47461,-4.5 0.02905,-3.12295 0.0299,-3.15254 0.246094,-3.59179 0.277601,-0.56402 0.756285,-1.04273 1.320315,-1.32032 0.31067,-0.15293 0.733776,-0.23059 1.156246,-0.23242 z m 9,0 c 0.42247,-0.002 0.84339,0.0724 1.14844,0.22265 0.53928,0.26564 1.08395,0.81031 1.3496,1.34961 0.20612,0.41911 0.20704,0.44955 0.20704,3.8418 0,3.4061 -7e-4,3.42267 -0.21094,3.84961 -0.11611,0.23577 -0.38827,0.60082 -0.60547,0.81055 l -0.39453,0.38086 -0.002,18.47265 -0.002,18.47266 -0.67383,0 -0.67578,0 0,-2.74609 c 0,-1.77 0.0318,-2.74415 0.0898,-2.74415 0.0597,0 0.0898,-5.23004 0.0898,-15.51171 l 0,-15.51368 -0.53906,-0.0488 c -0.96824,-0.0878 -1.82831,-0.68631 -2.26758,-1.57812 -0.20612,-0.41911 -0.20703,-0.4515 -0.20703,-3.84375 l 0,-3.41992 0.2168,-0.44141 c 0.27759,-0.56402 0.75433,-1.04272 1.31835,-1.32031 0.31067,-0.15294 0.73573,-0.23059 1.15821,-0.23242 z m 9,0 c 0.42247,-0.002 0.84339,0.0724 1.14844,0.22265 0.53928,0.26564 1.08396,0.81031 1.3496,1.34961 0.20353,0.41322 0.20959,0.49177 0.23829,3.57227 0.0326,3.502 -0.003,3.83655 -0.47461,4.5 -0.33905,0.47688 -1.01423,0.99553 -1.40821,1.08203 l -0.26172,0.0566 0,2.8125 0,2.8125 -0.20898,0.19531 c -0.20351,0.19069 -0.2648,0.19727 -2.69922,0.19727 l -2.49219,0 0,12.55469 c 0,8.31 0.0303,12.55468 0.0898,12.55468 0.0571,0 0.0898,0.67375 0.0898,1.84375 l 0,0.002 0,1.84375 -0.76562,0 -0.76368,0 0,-1.84375 c 0,-1.17 0.0328,-1.8457 0.0898,-1.8457 0.0596,0 0.0898,-4.38094 0.0898,-12.96094 0,-12.84 0.001,-12.96034 0.17969,-13.13867 0.17143,-0.171 0.29921,-0.17969 2.69922,-0.17969 l 2.52148,0 0,-2.42382 0,-2.42188 -0.26172,-0.0586 c -0.39398,-0.0865 -1.06915,-0.60515 -1.4082,-1.08203 -0.47132,-0.66345 -0.50721,-0.998 -0.47461,-4.5 0.029,-3.12295 0.0299,-3.15255 0.2461,-3.5918 0.27758,-0.56402 0.75629,-1.04272 1.32031,-1.32031 0.31067,-0.15293 0.73377,-0.23059 1.15625,-0.23242 z m 9,0 c 0.42247,-0.002 0.84339,0.0724 1.14844,0.22265 0.53929,0.26564 1.08396,0.81031 1.3496,1.34961 0.20353,0.41322 0.20959,0.49177 0.23829,3.57227 0.0326,3.502 -0.003,3.83655 -0.47461,4.5 -0.33905,0.47688 -1.01423,0.99553 -1.40821,1.08203 l -0.26172,0.0566 0,16.08789 0,16.08789 -0.20898,0.19531 c -0.20752,0.19497 -0.22388,0.19532 -4.27539,0.19532 l -4.06641,0 0,2.70117 0,2.69922 0.58594,0 0.58399,0 0,0.76562 0,0.76367 -1.84376,0 -1.8457,0 0,-0.76367 0,-0.76562 0.67383,0 0.67578,0 0,-3.10547 c 0,-2.985 0.007,-3.11212 0.17969,-3.28516 0.17472,-0.175 0.30039,-0.17969 4.27539,-0.17969 l 4.0957,0 0,-15.69726 0,-15.69727 -0.26172,-0.0586 c -0.39397,-0.0865 -1.06915,-0.60515 -1.4082,-1.08203 -0.47132,-0.66345 -0.50721,-0.998 -0.47461,-4.5 0.029,-3.12295 0.0299,-3.15254 0.2461,-3.59179 0.27758,-0.56402 0.75629,-1.04273 1.32031,-1.32032 0.31067,-0.15293 0.73377,-0.23059 1.15625,-0.23242 z m 9,0 c 0.42247,-0.002 0.84339,0.0724 1.14844,0.22265 0.53929,0.26564 1.08396,0.81031 1.3496,1.34961 0.20353,0.41322 0.20959,0.49177 0.23829,3.57227 0.0326,3.502 -0.003,3.83655 -0.47461,4.5 -0.33905,0.47688 -1.01423,0.99553 -1.40821,1.08203 l -0.26172,0.0566 0,17.4375 0,17.4375 -0.20898,0.19531 -0.20898,0.19727 -6.0918,0 -6.0918,0 0,3.22265 0,3.22461 -0.20312,0.19141 0,0.002 c -0.20084,0.1887 -0.27939,0.19181 -4.63477,0.25391 l -4.43164,0.0645 0,-0.70508 0,-0.70313 4.05078,0.0566 4.04883,0.0586 0,-3.23828 c 0,-3.11879 0.008,-3.24464 0.18164,-3.41797 0.17648,-0.176 0.29883,-0.17968 6.29883,-0.17968 l 6.12109,0 0,-17.04883 0,-17.04688 -0.26172,-0.0586 c -0.39397,-0.0865 -1.06915,-0.60515 -1.4082,-1.08203 -0.47132,-0.66345 -0.50721,-0.998 -0.47461,-4.5 0.029,-3.12295 0.0299,-3.15255 0.2461,-3.5918 0.27758,-0.56402 0.75629,-1.04272 1.32031,-1.32031 0.31067,-0.15293 0.73377,-0.23059 1.15625,-0.23242 z m 9,0 c 0.42247,-0.002 0.8434,0.0724 1.14844,0.22265 0.53929,0.26564 1.08395,0.81031 1.3496,1.34961 0.20353,0.41322 0.20959,0.49177 0.23829,3.57227 0.0326,3.502 -0.003,3.83655 -0.47461,4.5 -0.33905,0.47688 -1.01423,0.99553 -1.40821,1.08203 l -0.26172,0.0566 0,18.78906 0,18.78711 -0.20898,0.19531 -0.20898,0.19532 -8.56641,0 -8.56641,0 0,3.31445 0,3.31445 -0.20312,0.1836 c -0.1989,0.18149 -0.31747,0.18624 -6.66016,0.24804 l -6.45703,0.0625 0,-0.68945 0,-0.69141 6.07617,0.0664 6.07422,0.0664 0,-3.3418 c 0,-3.22285 0.006,-3.3499 0.17969,-3.52344 0.17749,-0.177 0.30039,-0.17969 8.77539,-0.17969 l 8.5957,0 0,-18.39844 0,-18.39648 -0.26172,-0.0586 c -0.39397,-0.0865 -1.06915,-0.60515 -1.4082,-1.08203 -0.47132,-0.66345 -0.50721,-0.998 -0.47461,-4.5 0.029,-3.12295 0.0299,-3.15255 0.2461,-3.5918 0.27759,-0.56402 0.75629,-1.04272 1.32031,-1.32031 0.31067,-0.15293 0.73377,-0.23059 1.15625,-0.23242 z m 9,0 c 0.42247,-0.002 0.8434,0.0724 1.14844,0.22265 0.53929,0.26564 1.08395,0.81031 1.3496,1.34961 0.20353,0.41322 0.20959,0.49177 0.23829,3.57227 0.0326,3.502 -0.003,3.83655 -0.47461,4.5 -0.33905,0.47688 -1.01423,0.99553 -1.40821,1.08203 l -0.26172,0.0566 0,15.24805 0,15.24804 7.00391,0 7.00391,0 0.19531,0.20899 0.19531,0.20898 0,11.07032 0,11.07031 -0.20117,0.18945 -0.20312,0.18945 -26.93165,0.0293 -26.93359,0.0293 0,-0.63085 0,-0.62891 26.55078,0.0293 26.54883,0.0312 0,-10.3125 0,-10.31445 -7.00391,0 -7.0039,0 -0.19532,-0.20704 -0.19531,-0.20898 0,-15.625 0,-15.62305 -0.26172,-0.0586 c -0.39397,-0.0865 -1.06915,-0.60515 -1.4082,-1.08203 -0.47132,-0.66345 -0.50721,-0.998 -0.47461,-4.5 0.029,-3.12295 0.0299,-3.15254 0.2461,-3.59179 0.2776,-0.56402 0.75629,-1.04273 1.32031,-1.32032 0.31067,-0.15293 0.73377,-0.23059 1.15625,-0.23242 z m -127.085936,3.67969 c -0.295095,0.0167 -0.591622,0.11276 -0.861328,0.30273 -1.109733,0.78166 -1.005441,2.34027 0.199219,2.98438 1.150071,0.61492 2.599179,-0.3535 2.496093,-1.66797 -0.0787,-1.00356 -0.948699,-1.6693 -1.833984,-1.61914 z m 9.990234,0 c -0.295095,0.0167 -0.591622,0.11276 -0.861328,0.30273 -1.109732,0.78166 -1.005441,2.34027 0.199219,2.98438 1.150071,0.61492 2.599179,-0.3535 2.496094,-1.66797 -0.0787,-1.00356 -0.948699,-1.6693 -1.833985,-1.61914 z m 9,0 c -0.295095,0.0167 -0.591622,0.11276 -0.861328,0.30273 -1.109733,0.78166 -1.005441,2.34027 0.199219,2.98438 1.150071,0.61492 2.599179,-0.3535 2.496094,-1.66797 -0.0787,-1.00356 -0.9487,-1.6693 -1.833985,-1.61914 z m 9,0 c -0.295095,0.0167 -0.591622,0.11276 -0.861328,0.30273 -1.109732,0.78166 -1.005441,2.34027 0.199219,2.98438 1.150072,0.61492 2.599179,-0.3535 2.496094,-1.66797 -0.0787,-1.00356 -0.948699,-1.6693 -1.833985,-1.61914 z m 9,0 c -0.295095,0.0167 -0.591622,0.11276 -0.861328,0.30273 -1.109733,0.78166 -1.005441,2.34027 0.199219,2.98438 1.150071,0.61492 2.599179,-0.3535 2.496094,-1.66797 -0.0787,-1.00356 -0.9487,-1.6693 -1.833985,-1.61914 z m 9,0 c -0.295095,0.0167 -0.59162,0.11276 -0.861328,0.30273 -1.10973,0.78166 -1.007393,2.34027 0.197266,2.98438 1.150074,0.61492 2.601133,-0.3535 2.498047,-1.66797 -0.0787,-1.00356 -0.948699,-1.6693 -1.833985,-1.61914 z m 9,0 c -0.295095,0.0167 -0.59162,0.11276 -0.861328,0.30273 -1.109727,0.78166 -1.007393,2.34027 0.197266,2.98438 1.150074,0.61492 2.601133,-0.3535 2.498047,-1.66797 -0.0787,-1.00356 -0.948699,-1.6693 -1.833985,-1.61914 z m 9,0 c -0.295095,0.0167 -0.59162,0.11276 -0.861328,0.30273 -1.109726,0.78166 -1.007392,2.34027 0.197266,2.98438 1.150074,0.61492 2.601133,-0.3535 2.498047,-1.66797 -0.0787,-1.00356 -0.948699,-1.6693 -1.833985,-1.61914 z m 8.999992,0 c -0.29509,0.0167 -0.59162,0.11276 -0.861316,0.30273 -1.109743,0.78166 -1.005436,2.34027 0.199206,2.98438 1.15007,0.61492 2.59919,-0.3535 2.4961,-1.66797 -0.0787,-1.00356 -0.9487,-1.6693 -1.83399,-1.61914 z m 9,0 c -0.29509,0.0167 -0.59162,0.11276 -0.86132,0.30273 -1.10973,0.78166 -1.00544,2.34027 0.19921,2.98438 1.15007,0.61492 2.59919,-0.3535 2.4961,-1.66797 -0.0787,-1.00356 -0.9487,-1.6693 -1.83399,-1.61914 z m 9,0 c -0.29509,0.0167 -0.59162,0.11276 -0.86132,0.30273 -1.10973,0.78166 -1.00544,2.34027 0.19921,2.98438 1.15007,0.61492 2.59919,-0.3535 2.4961,-1.66797 -0.0787,-1.00356 -0.9487,-1.6693 -1.83399,-1.61914 z m 9,0 c -0.29509,0.0167 -0.59162,0.11276 -0.86132,0.30273 -1.10973,0.78166 -1.00739,2.34027 0.19726,2.98438 1.15008,0.61492 2.60114,-0.3535 2.49805,-1.66797 -0.0787,-1.00356 -0.9487,-1.6693 -1.83399,-1.61914 z m 9,0 c -0.29509,0.0167 -0.59162,0.11276 -0.86132,0.30273 -1.10973,0.78166 -1.00739,2.34027 0.19726,2.98438 1.15008,0.61492 2.60114,-0.3535 2.49805,-1.66797 -0.0787,-1.00356 -0.9487,-1.6693 -1.83399,-1.61914 z m 9,0 c -0.29509,0.0167 -0.59162,0.11276 -0.86132,0.30273 -1.10973,0.78166 -1.0074,2.34027 0.19726,2.98438 1.15008,0.61492 2.60114,-0.3535 2.49805,-1.66797 -0.0787,-1.00356 -0.9487,-1.6693 -1.83399,-1.61914 z m 9,0 c -0.29509,0.0167 -0.59162,0.11276 -0.86132,0.30273 -1.10973,0.78166 -1.0074,2.34027 0.19726,2.98438 1.15008,0.61492 2.60114,-0.3535 2.49805,-1.66797 -0.0787,-1.00356 -0.9487,-1.6693 -1.83399,-1.61914 z m -131.179679,13.75 10.335937,0 0.195313,0.20898 c 0.187588,0.19967 0.195312,0.28401 0.195312,2.02539 l 0,1.81641 6.148438,0 6.150391,0 0.195312,0.20703 0.195312,0.20898 0,9.91602 0,9.91797 15.105469,0 15.103516,0 0.195312,0.20703 0.195313,0.20898 0,6.24219 0,6.24023 6.976562,-0.0644 c 6.272936,-0.0576 6.97461,-0.0495 6.97461,0.0762 0,0.12528 0.880981,0.13954 8.527346,0.14454 l 8.527336,0.008 0.63867,0.33007 c 3.11887,1.62182 2.94908,1.5513 4.58203,1.9043 l 1.5293,0.33203 16.35742,0.0254 16.35743,0.0273 0,-0.91015 0,-0.91211 3.19531,0 3.19531,0 0,1.16992 0,1.16992 2.6543,0 2.65625,0 0,-1.16992 0,-1.16992 3.19336,0 3.19531,0 0,2.92578 0,2.92383 -3.19531,0 -3.19336,0 0,-1.16993 0,-1.16992 -2.65625,0 -2.6543,0 0,1.16992 0,1.16993 -3.19531,0 -3.19531,0 0,-1.45118 0,-1.45117 -16.22266,0.0391 c -12.54798,0.0301 -16.2429,0.0151 -16.3125,-0.0684 -0.0495,-0.0594 -0.8785,-0.2793 -1.84375,-0.48828 -1.69335,-0.3666 -1.79699,-0.40242 -2.94336,-1.00391 l -1.18945,-0.62304 -8.81055,2.43359 c -4.846718,1.33851 -8.90016,2.43359 -9.005856,2.43359 -0.110827,0 -0.191406,0.0569 -0.191406,0.13477 0,0.1171 -0.366099,0.13477 -2.746094,0.13477 -1.770003,0 -2.744141,-0.0318 -2.744141,-0.0898 0,-0.0593 -2.649989,-0.0898 -7.769531,-0.0898 l -7.769531,0 -0.195313,-0.20703 -0.195312,-0.20899 0,-5.64258 0,-5.64062 -6.839844,0 -6.839844,0 0,1.48437 0,1.48438 0.22461,0 0.224609,0 0,3.19531 0,3.19531 -2.923828,0 -2.925781,0 0,-1.52929 0,-1.53125 -2.738282,0 -2.738281,0 -0.216797,0.47265 c -0.310772,0.67602 -0.626046,1.00852 -1.253906,1.32227 l -0.550781,0.27539 -3.308594,0 -3.308594,0 -0.566406,-0.29297 c -1.223091,-0.63316 -1.739447,-1.96627 -1.287109,-3.32813 0.212752,-0.64053 0.908597,-1.33156 1.572265,-1.5625 0.446358,-0.15535 0.775324,-0.17187 3.550782,-0.17187 3.4158,0 3.602626,0.0251 4.330078,0.57422 0.315759,0.23838 0.527453,0.50505 0.748047,0.9375 l 0.308593,0.60351 2.728516,0 2.730469,0 0,-1.08007 0,-1.08008 2.115234,0 2.115234,0 0,-1.88867 c 0,-1.77001 0.01112,-1.90175 0.179688,-2.07032 0.177171,-0.177 0.300141,-0.17969 7.814453,-0.17968 l 7.634766,0 0.195312,0.20703 0.195313,0.20898 0,5.64063 0,5.64062 10.283203,0.0234 10.28125,0.0234 7.964843,-2.18359 c 4.380746,-1.20151 8.005186,-2.19975 8.054686,-2.21875 0.0495,-0.019 -6.90662,-0.0342 -15.458982,-0.0312 l -15.548828,0.006 -0.22461,-0.20899 -0.222656,-0.20898 0,-6.24024 0,-6.23828 -15.103516,0 -15.103515,0 -0.197266,-0.20898 -0.195312,-0.20899 0,-9.91601 0,-9.91602 -2.789063,0 -2.791016,0 0,1.61914 0,1.6211 1.304688,0 1.306641,0 0,2.92383 0,2.92578 -3.195313,0 -3.195312,0 0,-2.92578 0,-2.92383 1.304687,0 1.304688,0 0,-1.6211 0,-1.61914 -2.773438,0 -2.775391,0 -0.195312,-0.20898 c -0.187588,-0.19967 -0.195312,-0.28401 -0.195312,-2.02539 l 0,-1.81641 -9.539063,0 -9.541016,0 0,8.18945 0,8.19141 7.003907,0 7.003906,0 0.197266,0.20703 c 0.193888,0.20636 0.195312,0.24182 0.195312,3.64649 0,2.99484 0.01712,3.43554 0.134766,3.43554 0.11802,0 0.134765,0.51571 0.134765,4.09571 l 0,4.09375 -1.080078,0 -1.080078,0 0,7.60547 0,7.60546 1.080078,0 1.080078,0 0,4.09571 0,4.09375 -1.080078,0 -1.080078,0 0,2.77539 0,2.77344 -0.208984,0.19531 -0.207032,0.19726 -9.871093,0 -9.8730468,0 0,2.02344 0,2.02539 0.6308593,0 0.6289063,0 0,3.28515 0,3.28511 -0.71875,0 -0.7207032,0 0,13.8594 0,13.8613 0.9003907,0 0.9003906,0 0,3.2852 0,3.2832 -0.7207031,0 -0.7207032,0 0,4.8613 0,4.8594 27.0449214,0 27.044922,0 0,-2.0703 c 0,-1.95 0.01208,-2.0804 0.181641,-2.25 0.179466,-0.1791 0.299682,-0.1797 40.679685,-0.1797 l 40.5,0 0,-1.3047 0,-1.3047 2.92383,0 2.92578,0 0,3.1953 0,3.1934 -2.92578,0 -2.92383,0 0,-1.3047 0,-1.3047 -40.0957,0 -40.093751,0 0,2.0547 c 0,2.031 -0.003,2.0566 -0.208984,2.25 l -0.208985,0.1953 -27.810547,0 -27.8105461,0 -0.1953125,-0.207 -0.1972656,-0.209 0,-5.2363 0,-5.2363 -0.71875,0 -0.7207032,0 0,-3.2852 0,-3.2852 0.5410157,0 0.5390625,0 0,-13.8613 0,-13.8594 -0.7207032,0 -0.71875,0 0,-3.28511 0,-3.28515 0.8085938,0 0.8105469,0 0,-2.42969 c 0,-2.31 0.00858,-2.43826 0.1796875,-2.60937 0.17782,-0.178 0.3000791,-0.17969 10.0800772,-0.17969 l 9.900391,0 0,-2.38476 0,-2.38672 -1.080078,0 -1.080078,0 0,-4.09375 0,-4.09571 1.080078,0 1.080078,0 0,-7.60546 0,-7.60352 -1.080078,0 -1.080078,0 0,-4.0957 0,-4.09571 2.025391,0 2.02539,0 0,-3.05859 0,-3.06055 -7.003906,0 -7.00586,0 -0.195312,-0.20898 -0.195312,-0.20703 0,-8.97266 c 0,-8.8517 0.0021,-8.97475 0.179687,-9.15234 0.17791,-0.178 0.299364,-0.17969 10.513672,-0.17969 z m -7.994141,5.85156 2.925782,0 2.925781,0 0,1.30469 0,1.30468 5.33789,0 5.339844,0 0.195313,0.20899 0.195312,0.20703 0,9.51172 0,9.51172 3.285156,0 3.285157,0 0,-1.84375 0,-1.84571 -1.304688,0 -1.304687,0 0,-2.92578 0,-2.92383 3.195312,0 3.195313,0 0,2.92383 0,2.92578 -1.306641,0 -1.304688,0 0,1.84571 0,1.84375 17.13086,0 17.128906,0 0.195313,0.20898 0.195312,0.20703 0,5.83789 0,5.83594 8.324219,-0.0586 8.326172,-0.0606 0,0.67383 0,0.67187 -8.707032,-0.0547 c -8.606166,-0.0543 -8.710014,-0.0564 -8.910156,-0.23828 l -0.203125,-0.18359 0,-5.83594 0,-5.83398 -20.609375,0 -20.611328,0 0,8.64257 0,8.64258 1.230469,-0.0254 1.230469,-0.0234 0.134765,-0.40429 c 0.190917,-0.57328 0.919873,-1.27723 1.548828,-1.4961 0.446358,-0.15535 0.775324,-0.16992 3.550782,-0.16992 3.4158,0 3.602626,0.0231 4.330078,0.57227 0.315759,0.23838 0.527453,0.50505 0.748047,0.9375 l 0.308593,0.60546 4.109375,0 4.107422,0 0.197266,0.20704 0.195312,0.20898 0,7.71094 0,7.71289 2.339844,0 2.339844,0 0,-1.16992 0,-1.16993 3.285156,0 3.285156,0 0,1.125 0,1.125 1.888672,0 1.890625,0 0,-8.05664 c 0,-7.935 0.0024,-8.05705 0.179688,-8.23437 0.17685,-0.17711 0.300543,-0.1796 7.042969,-0.17969 3.774375,-10e-5 8.715843,-0.0277 10.980468,-0.0606 3.620078,-0.0524 4.117188,-0.0421 4.117188,0.0762 0,0.14285 0.335169,0.21848 7.529296,1.68945 l 3.435546,0.70118 5.16601,-2.35938 5.16602,-2.36133 1.34375,-0.19336 c 0.73917,-0.10682 1.3585,-0.2345 1.375,-0.2832 0.0188,-0.0555 1.05198,-0.0898 2.76758,-0.0898 l 2.73633,0 0,0.67578 0,0.67578 -2.73633,0 c -1.79265,0 -2.74933,-0.0332 -2.76953,-0.0937 -0.0202,-0.0606 -0.44002,-0.0323 -1.21875,0.082 l -1.1875,0.17578 -3.98633,1.82032 c -2.1925,1.00192 -4.20822,1.92289 -4.48047,2.04687 l -0.49609,0.22656 0.76562,0.16211 c 0.68136,0.1441 1.3026,0.16202 5.69141,0.16602 4.10895,0.003 4.92773,-0.0166 4.92773,-0.11914 0,-0.1036 1.97381,-0.11678 12.5332,-0.0801 14.58563,0.0507 12.9375,-0.0965 12.9375,1.16406 l 0,0.74805 3.50977,0 3.50977,0 0,-1.16992 0,-1.16993 3.19531,0 3.19531,0 0,1.16993 0,1.16992 2.6543,0 2.65625,0 0,-1.16992 0,-1.16993 3.19336,0 3.19531,0 0,2.92579 0,2.92382 -3.19531,0 -3.19336,0 0,-1.16992 0,-1.16992 -2.65625,0 -2.6543,0 0,1.16992 0,1.16992 -3.19531,0 -3.19531,0 0,-1.16992 0,-1.16992 -3.89844,0 -3.90039,0 -0.19532,-0.20703 c -0.16799,-0.17877 -0.19531,-0.31243 -0.19531,-0.94336 l 0,-0.73633 -17.0332,0.008 -17.03125,0.008 -2.38672,-0.46875 c -1.31175,-0.25768 -4.40976,-0.89044 -6.884762,-1.4082 l -4.5,-0.94141 -10.822265,-0.0547 -10.822266,-0.0527 0,8.05274 0,8.05273 -0.208984,0.19531 c -0.202485,0.19069 -0.271204,0.19532 -2.47461,0.19532 l -2.265625,0 0,1.21484 0,0.002 0,1.21484 -3.285156,0 -3.285156,0 0,-1.16992 0,-1.16992 -2.730469,0 -2.728515,0 -0.195313,-0.20898 -0.195313,-0.20899 0,-7.71094 0,-7.71093 -3.728515,0 -3.728516,0 -0.216797,0.47265 c -0.310772,0.67602 -0.626046,1.00852 -1.253906,1.32227 l -0.550781,0.27344 -3.308594,0 -3.308594,0 -0.566406,-0.29297 c -0.606701,-0.31407 -1.158438,-0.92515 -1.308594,-1.44922 l -0.08203,-0.28125 -1.613281,-0.0254 c -1.508853,-0.0231 -1.625678,-0.0377 -1.818359,-0.21875 l -0.207032,-0.19336 0,-18.74805 0,-18.75 -4.949218,0 -4.949219,0 0,1.30469 0,1.30469 -2.925781,0 -2.925782,0 0,-3.19532 0,-3.19336 z m 45.451172,29.33789 2.923828,0 2.925782,0 0,3.19531 0,3.19531 -2.070313,0 -2.070313,0 0,4.09571 0,4.09375 1.351563,0 1.349609,0 0,2.92578 0,2.92578 -3.285156,0 -3.285156,0 0,-2.92578 0,-2.92578 1.349609,0 1.34961,0 0,-4.09375 0,-4.09571 -0.269532,0 -0.269531,0 0,-3.19531 0,-3.19531 z m -20.847656,1.00976 c -0.295095,0.0167 -0.591622,0.11276 -0.861328,0.30274 -1.109732,0.78166 -1.00544,2.34222 0.199218,2.98633 1.150071,0.61492 2.599179,-0.3535 2.496094,-1.66797 -0.0787,-1.00356 -0.948699,-1.67125 -1.833984,-1.6211 z m 0,9 c -0.295095,0.0167 -0.591622,0.11276 -0.861328,0.30274 -1.109732,0.78166 -1.00544,2.34222 0.199218,2.98633 1.150071,0.61492 2.599179,-0.3535 2.496094,-1.66797 -0.0787,-1.00356 -0.948699,-1.67125 -1.833984,-1.6211 z m 48.611328,3.22071 2.746094,0 0,0.67578 0,0.67383 -8.09961,0 -8.101562,0 0,10.38086 0,10.3789 -0.207031,0.19532 -0.208985,0.19531 -15.585937,0 -15.587891,0 0,4.58979 0,4.5899 -3.554687,0 -3.554688,0 0,-4.5899 0,-4.58979 -9.179687,0 -9.179688,0 0,1.03519 0,1.0351 -2.02539,0 -2.025391,0 0,-3.28514 0,-3.28515 2.025391,0 2.02539,0 0,1.66601 0,1.66407 9.179688,0 9.179687,0 0,-4.58985 0,-4.58984 3.554688,0 3.554687,0 0,4.58984 0,4.58985 15.210938,0 15.208984,0 0,-10.39454 c 0,-10.275 0.0037,-10.39825 0.181641,-10.57617 0.176247,-0.176 0.29945,-0.17968 5.939453,-0.17968 3.78,0 5.759765,-0.0307 5.759765,-0.0898 0,-0.058 0.974138,-0.0898 2.744141,-0.0898 z m -0.898438,2.70117 1.84375,0 0,0.76367 0,0.76563 -1.84375,0 c -1.17,0 -1.845703,-0.0327 -1.845703,-0.0898 0,-0.0585 -1.244684,-0.0898 -3.554687,-0.0898 l -3.554688,0 0,25.85932 0,25.8594 -0.208984,0.1953 -0.208984,0.1953 -17.386719,0 -17.386719,0 0,4.5899 0,4.5898 -3.554687,0 -3.554688,0 0,-4.5898 0,-4.5899 -9,0 -9,0 0,1.3497 0,1.3496 -2.025391,0 -2.023437,0 0,-3.2832 0,-3.2852 2.023437,0 2.025391,0 0,1.3496 0,1.3496 9,0 9,0 0,-4.5898 0,-4.5899 3.554688,0 3.554687,0 0,4.5899 0,4.5898 17.011719,0 17.009765,0 0,-25.875 c 0,-25.75497 5.25e-4,-25.8755 0.179688,-26.05466 0.174546,-0.175 0.298669,-0.17968 4.138672,-0.17968 2.580003,0 3.960937,-0.0312 3.960937,-0.0898 0,-0.0571 0.675705,-0.0898 1.845703,-0.0898 z m 29.474604,0 1.8457,0 c 1.16999,0 1.84374,0.0327 1.84376,0.0898 0,0.0575 0.77499,0.0898 2.14453,0.0898 2.12505,0 2.14591,6e-4 2.33984,0.20703 0.19468,0.20673 0.19531,0.23669 0.19531,3.82617 l 0,3.61524 1.80078,0 1.79883,0 0,-1.30469 0,-1.30469 2.92578,0 2.92578,0 0,3.19531 0,3.19532 -2.92578,0 -2.92578,0 0,-1.30469 0,-1.30469 -1.79883,0 -1.80078,0 0,3.23828 0,3.24024 16.9043,0 16.9043,0 0.19726,0.20898 0.19531,0.20899 0,11.40042 c 0,10.7987 0.007,11.4022 0.15625,11.4023 0.32487,2e-4 1.25407,0.5347 1.66211,0.957 0.23267,0.2408 0.53525,0.6816 0.67383,0.9786 l 0.25196,0.539 0,4.1406 0,4.1387 -0.25391,0.5508 c -0.31957,0.6915 -1.02015,1.3908 -1.70508,1.7031 -0.57892,0.264 -1.58049,0.3667 -2.1582,0.2207 -0.95037,-0.2401 -1.85838,-1.0063 -2.29102,-1.9336 l -0.25195,-0.541 0,-4.1387 0,-4.1406 0.2793,-0.584 c 0.15319,-0.3217 0.45576,-0.7646 0.67382,-0.9824 0.38937,-0.3889 1.3248,-0.9082 1.63477,-0.9082 0.1495,-1e-4 0.1582,-0.5854 0.1582,-11.0254 l 0,-11.02537 -16.90429,0 -16.9043,0 -0.19727,-0.20703 -0.19531,-0.20899 0,-7.4414 0,-7.44141 -1.75391,0 c -1.10999,0 -1.75585,0.0329 -1.75585,0.0898 -3e-5,0.0571 -0.67377,0.0898 -1.84376,0.0898 l -1.8457,0 0,-0.76562 0,-0.76368 z m -21.558588,2.87891 0.632813,0 0.634765,0 -0.03516,17.91011 c -0.02966,15.1098 -0.01599,17.9101 0.08789,17.9102 0.294696,2e-4 1.238741,0.5553 1.626953,0.957 0.23268,0.2408 0.535251,0.6815 0.673821,0.9785 l 0.25196,0.5391 0,4.1406 0,4.1387 -0.25391,0.5508 c -0.31956,0.6914 -1.020147,1.3908 -1.705074,1.7031 -0.578925,0.264 -1.580496,0.3666 -2.158203,0.2207 -0.950373,-0.2401 -1.858377,-1.0063 -2.291016,-1.9336 l -0.251953,-0.541 0,-4.1387 0,-4.1406 0.279297,-0.584 c 0.153189,-0.3217 0.455767,-0.7646 0.673828,-0.9824 0.418581,-0.4181 1.330695,-0.9082 1.689453,-0.9082 l 0.214844,0 -0.03516,-17.9102 -0.03516,-17.91011 z m 2.875,0 0.638672,0 0.63867,0 -0.0391,15.75 -0.0391,15.75001 2.607416,0 2.60547,0 0.19531,0.209 c 0.18769,0.2002 0.19531,0.2805 0.19531,2.1015 l 0,1.8946 0.49024,0.1 c 1.05864,0.2126 1.98596,0.9499 2.45312,1.9511 l 0.25196,0.5391 0,4.1406 0,4.1387 -0.25391,0.5508 c -0.31956,0.6914 -1.02016,1.3908 -1.70508,1.7031 -0.57893,0.264 -1.58049,0.3666 -2.1582,0.2207 -0.95038,-0.2401 -1.85838,-1.0064 -2.29102,-1.9336 l -0.25195,-0.541 0,-4.1387 0,-4.1406 0.27734,-0.584 c 0.33001,-0.695 0.94138,-1.3264 1.56641,-1.6191 l 0.45117,-0.2129 0,-1.6035 0,-1.6055 -2.59375,0 c -2.575176,0 -2.596306,-0 -2.781245,-0.2031 l -0.185547,-0.2012 -0.03711,-16.13281 -0.03516,-16.13281 z m 2.785148,0 0.64454,0 0.64257,0 -0.041,14.17578 -0.043,14.17383 5.9375,0 5.93555,0 0.19726,0.209 c 0.19369,0.2065 0.19531,0.2373 0.19531,3.7343 0,3.2988 0.009,3.5273 0.15625,3.5274 0.32486,10e-5 1.25407,0.5347 1.66211,0.957 0.23268,0.2408 0.53526,0.6815 0.67383,0.9785 l 0.25196,0.5391 0,4.1406 0,4.1387 -0.25391,0.5508 c -0.31956,0.6914 -1.02016,1.3908 -1.70508,1.7031 -0.57893,0.264 -1.58049,0.3666 -2.1582,0.2207 -0.95038,-0.2401 -1.85838,-1.0063 -2.29102,-1.9336 l -0.25195,-0.541 0,-4.1387 0,-4.1406 0.2793,-0.584 c 0.15319,-0.3217 0.45576,-0.7646 0.67382,-0.9824 0.38937,-0.3889 1.3248,-0.9082 1.63477,-0.9082 0.147,-10e-5 0.1582,-0.2104 0.1582,-3.1504 l 0,-3.1504 -5.92578,0 -5.92383,0 -0.18554,-0.2012 c -0.18584,-0.2024 -0.18551,-0.2026 -0.22461,-14.75972 l -0.0391,-14.55859 z m 2.87305,0 0.65039,0 0.65039,0 -0.0469,12.59961 -0.0449,12.5996 8.99804,0 8.9961,0 0.19726,0.209 0.19531,0.209 0,5.1015 c 0,4.7988 0.008,5.1015 0.15625,5.1016 0.32487,10e-5 1.25407,0.5347 1.66211,0.957 0.23268,0.2408 0.53526,0.6815 0.67383,0.9785 l 0.25196,0.5391 0,4.1406 0,4.1387 -0.25391,0.5508 c -0.31957,0.6914 -1.02015,1.3908 -1.70508,1.7031 -0.57892,0.264 -1.58049,0.3666 -2.1582,0.2207 -0.95038,-0.2401 -1.85838,-1.0063 -2.29102,-1.9336 l -0.25195,-0.541 0,-4.1387 0,-4.1406 0.2793,-0.584 c 0.15319,-0.3217 0.45576,-0.7646 0.67382,-0.9824 0.38937,-0.3889 1.32481,-0.9082 1.63477,-0.9082 0.1475,-10e-5 0.1582,-0.2846 0.1582,-4.7246 l 0,-4.7246 -8.98437,0 -8.98438,0 -0.18554,-0.2032 c -0.1848,-0.2019 -0.18612,-0.2346 -0.22852,-13.18549 l -0.043,-12.98242 z m 2.7832,0 0.65821,0 0.65625,0 -0.0508,11.02539 -0.0488,11.02542 12.10156,0 12.10352,0 0.19726,0.207 0.19531,0.209 0,6.6758 c 0,6.2987 0.008,6.6776 0.15625,6.6777 0.32487,10e-5 1.25407,0.5347 1.66211,0.957 0.23268,0.2408 0.53526,0.6815 0.67383,0.9785 l 0.25196,0.5391 0,4.1406 0,4.1387 -0.25391,0.5508 c -0.31957,0.6914 -1.02015,1.3908 -1.70508,1.7031 -0.57892,0.264 -1.58049,0.3666 -2.1582,0.2207 -0.95038,-0.2401 -1.85838,-1.0063 -2.29102,-1.9336 l -0.25195,-0.541 0,-4.1387 0,-4.1406 0.2793,-0.584 c 0.15319,-0.3217 0.45576,-0.7646 0.67382,-0.9824 0.38937,-0.3889 1.32481,-0.9082 1.63477,-0.9082 0.1485,-10e-5 0.1582,-0.3608 0.1582,-6.3008 l 0,-6.2988 -12.08984,0 -12.08985,0 -0.18359,-0.2031 c -0.18375,-0.2015 -0.18612,-0.2626 -0.23242,-11.60941 l -0.0469,-11.4082 z m 2.86133,0 0.67578,0 0.67578,0 0,9.44921 0,9.4512 14.87891,0 14.87891,0 0.19531,0.209 0.19531,0.207 0,8.1953 0,8.1934 0.49024,0.1 c 1.05864,0.2126 1.98596,0.9499 2.45312,1.9511 l 0.25196,0.5391 0,4.1406 0,4.1387 -0.25391,0.5508 c -0.31957,0.6914 -1.02015,1.3908 -1.70508,1.7031 -0.57892,0.264 -1.58049,0.3666 -2.1582,0.2207 -0.95037,-0.2401 -1.85838,-1.0064 -2.29102,-1.9336 l -0.25195,-0.541 0,-4.1387 0,-4.1406 0.27734,-0.584 c 0.33001,-0.695 0.94138,-1.3264 1.56641,-1.6191 l 0.45117,-0.2129 0,-7.9043 0,-7.9043 -14.87891,0 -14.8789,0 -0.19531,-0.209 -0.19727,-0.207 0,-7.08206 c 0,-4.66113 -0.0306,-7.08203 -0.0898,-7.08203 -0.058,0 -0.0898,-0.97414 -0.0898,-2.74414 l 0,-2.74609 z m -17.099603,1.80078 0.765625,0 0.763672,0 0,1.84375 c 0,1.17 -0.03277,1.8457 -0.08984,1.8457 -0.05947,0 -0.08984,3.4746 -0.08984,10.24414 l 0,10.24414 -0.207031,0.1953 c -0.205092,0.1927 -0.253938,0.1973 -3.15039,0.1973 l -2.941407,0 0,4.7246 c 0,4.44 0.0083,4.7245 0.15625,4.7246 0.324864,10e-5 1.254068,0.5347 1.66211,0.957 0.232676,0.2408 0.535255,0.6815 0.673828,0.9785 l 0.251953,0.5391 0,4.1406 0,4.1387 -0.253906,0.5508 c -0.319563,0.6914 -1.020151,1.3908 -1.705078,1.7031 -0.578925,0.264 -1.580496,0.3666 -2.158203,0.2207 -0.950373,-0.2401 -1.858377,-1.0063 -2.291016,-1.9336 l -0.251953,-0.541 0,-4.1387 0,-4.1406 0.279297,-0.584 c 0.153189,-0.3217 0.455767,-0.7646 0.673828,-0.9824 0.389367,-0.3889 1.324796,-0.9082 1.634765,-0.9082 0.1482,-10e-5 0.158205,-0.3052 0.158203,-5.1309 10e-7,-5.01 0.0039,-5.1328 0.179688,-5.3086 0.172728,-0.173 0.300389,-0.1816 3.150391,-0.1816 l 2.96875,0 0,-9.85351 c 0,-6.51 -0.03039,-9.85547 -0.08984,-9.85547 -0.05707,0 -0.08984,-0.67571 -0.08984,-1.8457 l 0,-1.84375 z m 19.800773,0 0.76368,0 0.76562,0 0,1.84375 c 0,1.17 -0.0327,1.8457 -0.0898,1.8457 -0.0589,0 -0.0898,1.77086 -0.0898,5.13086 l 0,5.12891 18.25391,0 18.25391,0 0.19726,0.20898 0.19531,0.20703 0,9.8281 c 0,9.2987 0.007,9.8261 0.15625,9.8262 0.32487,10e-5 1.25407,0.5347 1.66211,0.957 0.23268,0.2408 0.53526,0.6815 0.67383,0.9785 l 0.25196,0.5391 0,4.1406 0,4.1387 -0.25391,0.5508 c -0.31957,0.6914 -1.02015,1.3908 -1.70508,1.7031 -0.57892,0.264 -1.58049,0.3666 -2.1582,0.2207 -0.95037,-0.2401 -1.85838,-1.0063 -2.29102,-1.9336 l -0.25195,-0.541 0,-4.1387 0,-4.1406 0.2793,-0.584 c 0.15319,-0.3217 0.45576,-0.7646 0.67382,-0.9824 0.38937,-0.3889 1.3248,-0.9082 1.63477,-0.9082 0.1495,-10e-5 0.1582,-0.5093 0.1582,-9.4492 l 0,-9.45119 -18.25586,0 -18.2539,0 -0.19532,-0.20899 -0.19531,-0.20703 0,-5.50781 c 0,-3.61113 -0.0308,-5.50586 -0.0898,-5.50586 -0.0571,0 -0.0898,-0.67571 -0.0898,-1.8457 l 0,-1.84375 z m 26.72852,0.53906 2.92578,0 2.92578,0 0,1.30469 0,1.30468 11.63867,0 11.63868,0 0.19726,0.20899 0.19531,0.20898 0,26.95503 0,26.9571 -0.20898,0.1953 -0.20898,0.1953 -5.3711,0 -5.37109,0 0,1.3047 0,1.3047 -2.92578,0 -2.92383,0 0,-3.1934 0,-3.1953 2.92383,0 2.92578,0 0,1.3047 0,1.3047 4.99414,0 4.99609,0 0,-26.1895 0,-26.18942 -11.25,0 -11.25,0 0,1.30469 0,1.30468 -2.92578,0 -2.92578,0 0,-3.19531 0,-3.19531 z m -52.166012,38.35937 c -0.295095,0.017 -0.59162,0.1128 -0.861328,0.3027 -1.109727,0.7817 -1.007393,2.3423 0.197266,2.9864 1.150074,0.6149 2.601133,-0.3535 2.498047,-1.668 -0.0787,-1.0036 -0.948699,-1.6713 -1.833985,-1.6211 z m 9,0 c -0.295095,0.017 -0.59162,0.1128 -0.861328,0.3027 -1.109727,0.7817 -1.007393,2.3423 0.197266,2.9864 1.150074,0.6149 2.601133,-0.3535 2.498047,-1.668 -0.0787,-1.0036 -0.948699,-1.6713 -1.833985,-1.6211 z m 8.999992,0 c -0.29509,0.017 -0.59162,0.1128 -0.86132,0.3027 -1.10973,0.7817 -1.00544,2.3423 0.19921,2.9864 1.15007,0.6149 2.59919,-0.3535 2.4961,-1.668 -0.0787,-1.0036 -0.9487,-1.6713 -1.83399,-1.6211 z m 9,0 c -0.29509,0.017 -0.59162,0.1128 -0.86132,0.3027 -1.10973,0.7817 -1.00544,2.3423 0.19921,2.9864 1.15007,0.6149 2.59919,-0.3535 2.4961,-1.668 -0.0787,-1.0036 -0.9487,-1.6713 -1.83399,-1.6211 z m 9,0 c -0.29509,0.017 -0.59162,0.1128 -0.86132,0.3027 -1.10973,0.7817 -1.00739,2.3423 0.19726,2.9864 1.15008,0.6149 2.60114,-0.3535 2.49805,-1.668 -0.0787,-1.0036 -0.9487,-1.6713 -1.83399,-1.6211 z m 9,0 c -0.29509,0.017 -0.59162,0.1128 -0.86132,0.3027 -1.10973,0.7817 -1.00739,2.3423 0.19726,2.9864 1.15008,0.6149 2.60114,-0.3535 2.49805,-1.668 -0.0787,-1.0036 -0.9487,-1.6713 -1.83399,-1.6211 z m 9,0 c -0.29509,0.017 -0.59162,0.1128 -0.86132,0.3027 -1.10973,0.7817 -1.0074,2.3423 0.19726,2.9864 1.15008,0.6149 2.60114,-0.3535 2.49805,-1.668 -0.0787,-1.0036 -0.9487,-1.6713 -1.83399,-1.6211 z m 9,0 c -0.29509,0.017 -0.59162,0.1128 -0.86132,0.3027 -1.10973,0.7817 -1.0074,2.3423 0.19726,2.9864 1.15008,0.6149 2.60114,-0.3535 2.49805,-1.668 -0.0787,-1.0036 -0.9487,-1.6713 -1.83399,-1.6211 z m 9,0 c -0.29509,0.017 -0.59162,0.1128 -0.86132,0.3027 -1.10973,0.7817 -1.0074,2.3423 0.19726,2.9864 1.15008,0.6149 2.60114,-0.3535 2.49805,-1.668 -0.0787,-1.0036 -0.9487,-1.6713 -1.83399,-1.6211 z"
       style="fill:#000000" />
    <flowRoot
       transform="translate(280.00718,565.74104)"
       style="font-style:normal;font-variant:normal;font-weight:normal;font-stretch:normal;font-size:40px;line-height:125%;font-family:Purisa;-inkscape-font-specification:'Purisa, Normal';text-align:start;letter-spacing:0px;word-spacing:0px;writing-mode:lr-tb;text-anchor:start;fill:#000000;fill-opacity:1;stroke:none;stroke-width:1px;stroke-linecap:butt;stroke-linejoin:miter;stroke-opacity:1"
       id="flowRoot4706-6-1"
       xml:space="preserve"><flowRegion
         id="flowRegion4708-3-2"><rect
           style="font-style:normal;font-variant:normal;font-weight:normal;font-stretch:normal;font-size:40px;line-height:125%;font-family:Purisa;-inkscape-font-specification:'Purisa, Normal';text-align:start;writing-mode:lr-tb;text-anchor:start"
           y="-84.572792"
           x="163.64471"
           height="101.01526"
           width="184.85791"
           id="rect4710-7-4" /></flowRegion><flowPara
         style="font-style:normal;font-variant:normal;font-weight:normal;font-stretch:normal;font-size:43.33374786px;line-height:89.99999762%;font-family:monospace;-inkscape-font-specification:'monospace, Normal';text-align:center;writing-mode:lr-tb;text-anchor:middle"
         id="flowPara4742-4" /></flowRoot>    <flowRoot
       transform="translate(191.41694,457.15315)"
       style="font-style:normal;font-variant:normal;font-weight:normal;font-stretch:normal;font-size:40px;line-height:125%;font-family:Purisa;-inkscape-font-specification:'Purisa, Normal';text-align:start;letter-spacing:0px;word-spacing:0px;writing-mode:lr-tb;text-anchor:start;fill:#000000;fill-opacity:1;stroke:none;stroke-width:1px;stroke-linecap:butt;stroke-linejoin:miter;stroke-opacity:1"
       id="flowRoot4706-6-1-8"
       xml:space="preserve"><flowRegion
         id="flowRegion4708-3-2-0"><rect
           style="font-style:normal;font-variant:normal;font-weight:normal;font-stretch:normal;font-size:40px;line-height:125%;font-family:Purisa;-inkscape-font-specification:'Purisa, Normal';text-align:start;writing-mode:lr-tb;text-anchor:start"
           y="-84.572792"
           x="163.64471"
           height="101.01526"
           width="184.85791"
           id="rect4710-7-4-9" /></flowRegion><flowPara
         style="font-style:normal;font-variant:normal;font-weight:normal;font-stretch:normal;font-size:43.33374786px;line-height:89.99999762%;font-family:monospace;-inkscape-font-specification:'monospace, Normal';text-align:center;writing-mode:lr-tb;text-anchor:middle"
         id="flowPara4742-4-5" /></flowRoot>    <text
       id="text4243"
       y="530.58679"
       x="117.28183"
       style="font-style:normal;font-weight:normal;font-size:40px;line-height:125%;font-family:sans-serif;letter-spacing:0px;word-spacing:0px;fill:#000000;fill-opacity:1;stroke:none;stroke-width:1px;stroke-linecap:butt;stroke-linejoin:miter;stroke-opacity:1"
       xml:space="preserve"><tspan
         y="530.58679"
         x="117.28183"
         id="tspan4245" /></text>
    <rect
       y="588.73596"
       x="463.22394"
       height="123.11785"
       width="0"
       id="rect4835"
       style="fill:#ffffff;fill-opacity:1;stroke:none;stroke-width:0.35433072;stroke-miterlimit:4;stroke-dasharray:none;stroke-opacity:1" />
    <rect
       y="901.23883"
       x="1.3056467"
       height="148.94865"
       width="171.50992"
       id="rect3892"
       style="fill:none;fill-rule:evenodd;stroke:#0000ff;stroke-width:0.97990185px;stroke-linecap:butt;stroke-linejoin:miter;stroke-opacity:1" />
    <text
       transform="matrix(0,1.0063425,-0.99369747,0,0,0)"
       id="text4247-0-8-5"
       y="-163.7411"
       x="902.52618"
       style="font-style:normal;font-variant:normal;font-weight:normal;font-stretch:normal;font-size:6.96545219px;line-height:125%;font-family:monospace;-inkscape-font-specification:'monospace, Normal';text-align:start;letter-spacing:0px;word-spacing:0px;writing-mode:lr-tb;text-anchor:start;fill:#ffffff;fill-opacity:1;stroke:none;stroke-width:1px;stroke-linecap:butt;stroke-linejoin:miter;stroke-opacity:1"
       xml:space="preserve"><tspan
         y="-163.7411"
         x="902.52618"
         id="tspan4249-2-0-1">satshakit</tspan></text>
    <ellipse
       ry="0.85769105"
       rx="0.82470292"
       cy="916.71759"
       cx="27.788908"
       id="path4232-2-0-4-46-0"
       style="fill:none;fill-opacity:1;stroke:#ff0000;stroke-width:0.37027922;stroke-miterlimit:4;stroke-dasharray:none;stroke-opacity:1" />
    <ellipse
       ry="0.85769105"
       rx="0.82470292"
       cy="916.78461"
       cx="37.788906"
       id="path4232-2-0-4-46-04"
       style="fill:none;fill-opacity:1;stroke:#ff0000;stroke-width:0.37027922;stroke-miterlimit:4;stroke-dasharray:none;stroke-opacity:1" />
    <ellipse
       ry="0.85769105"
       rx="0.82470292"
       cy="916.80688"
       cx="46.85141"
       id="path4232-2-0-4-46-1"
       style="fill:none;fill-opacity:1;stroke:#ff0000;stroke-width:0.37027922;stroke-miterlimit:4;stroke-dasharray:none;stroke-opacity:1" />
    <ellipse
       ry="0.85769105"
       rx="0.82470292"
       cy="916.76227"
       cx="55.869267"
       id="path4232-2-0-4-46-9"
       style="fill:none;fill-opacity:1;stroke:#ff0000;stroke-width:0.37027922;stroke-miterlimit:4;stroke-dasharray:none;stroke-opacity:1" />
    <ellipse
       ry="0.85769105"
       rx="0.82470292"
       cy="916.76227"
       cx="64.775513"
       id="path4232-2-0-4-46-6"
       style="fill:none;fill-opacity:1;stroke:#ff0000;stroke-width:0.37027922;stroke-miterlimit:4;stroke-dasharray:none;stroke-opacity:1" />
    <ellipse
       ry="0.85769105"
       rx="0.82470292"
       cy="916.76227"
       cx="73.793373"
       id="path4232-2-0-4-46-05"
       style="fill:none;fill-opacity:1;stroke:#ff0000;stroke-width:0.37027922;stroke-miterlimit:4;stroke-dasharray:none;stroke-opacity:1" />
    <ellipse
       ry="0.85769105"
       rx="0.82470292"
       cy="916.76221"
       cx="82.78891"
       id="path4232-2-0-4-46-2"
       style="fill:none;fill-opacity:1;stroke:#ff0000;stroke-width:0.37027922;stroke-miterlimit:4;stroke-dasharray:none;stroke-opacity:1" />
    <ellipse
       ry="0.85769105"
       rx="0.82470292"
       cy="916.71759"
       cx="91.806763"
       id="path4232-2-0-4-46-91"
       style="fill:none;fill-opacity:1;stroke:#ff0000;stroke-width:0.37027922;stroke-miterlimit:4;stroke-dasharray:none;stroke-opacity:1" />
    <ellipse
       ry="0.85769105"
       rx="0.82470292"
       cy="916.73993"
       cx="100.82462"
       id="path4232-2-0-4-46-07"
       style="fill:none;fill-opacity:1;stroke:#ff0000;stroke-width:0.37027922;stroke-miterlimit:4;stroke-dasharray:none;stroke-opacity:1" />
    <ellipse
       ry="0.85769105"
       rx="0.82470292"
       cy="916.73993"
       cx="109.82017"
       id="path4232-2-0-4-46-01"
       style="fill:none;fill-opacity:1;stroke:#ff0000;stroke-width:0.37027922;stroke-miterlimit:4;stroke-dasharray:none;stroke-opacity:1" />
    <ellipse
       ry="0.85769105"
       rx="0.82470292"
       cy="916.78455"
       cx="118.79337"
       id="path4232-2-0-4-46-5"
       style="fill:none;fill-opacity:1;stroke:#ff0000;stroke-width:0.37027922;stroke-miterlimit:4;stroke-dasharray:none;stroke-opacity:1" />
    <ellipse
       ry="0.85769105"
       rx="0.82470292"
       cy="916.73993"
       cx="127.78893"
       id="path4232-2-0-4-46-69"
       style="fill:none;fill-opacity:1;stroke:#ff0000;stroke-width:0.37027922;stroke-miterlimit:4;stroke-dasharray:none;stroke-opacity:1" />
    <ellipse
       ry="0.85769105"
       rx="0.82470292"
       cy="916.80688"
       cx="136.8291"
       id="path4232-2-0-4-46-3"
       style="fill:none;fill-opacity:1;stroke:#ff0000;stroke-width:0.37027922;stroke-miterlimit:4;stroke-dasharray:none;stroke-opacity:1" />
    <ellipse
       ry="0.85769105"
       rx="0.82470292"
       cy="916.78455"
       cx="145.82463"
       id="path4232-2-0-4-46-18"
       style="fill:none;fill-opacity:1;stroke:#ff0000;stroke-width:0.37027922;stroke-miterlimit:4;stroke-dasharray:none;stroke-opacity:1" />
    <ellipse
       ry="0.85769105"
       rx="0.82470292"
       cy="916.71759"
       cx="154.82018"
       id="path4232-2-0-4-46-8"
       style="fill:none;fill-opacity:1;stroke:#ff0000;stroke-width:0.37027922;stroke-miterlimit:4;stroke-dasharray:none;stroke-opacity:1" />
    <ellipse
       ry="0.85769105"
       rx="0.82470292"
       cy="1025.2057"
       cx="87.300301"
       id="path4232-2-0-4-46-68"
       style="fill:none;fill-opacity:1;stroke:#ff0000;stroke-width:0.37027922;stroke-miterlimit:4;stroke-dasharray:none;stroke-opacity:1" />
    <ellipse
       ry="0.85769105"
       rx="0.82470292"
       cy="1025.2531"
       cx="96.265404"
       id="path4232-2-0-4-46-7"
       style="fill:none;fill-opacity:1;stroke:#ff0000;stroke-width:0.37027922;stroke-miterlimit:4;stroke-dasharray:none;stroke-opacity:1" />
    <ellipse
       ry="0.85769105"
       rx="0.82470292"
       cy="1025.1899"
       cx="105.3252"
       id="path4232-2-0-4-46-86"
       style="fill:none;fill-opacity:1;stroke:#ff0000;stroke-width:0.37027922;stroke-miterlimit:4;stroke-dasharray:none;stroke-opacity:1" />
    <ellipse
       ry="0.85769105"
       rx="0.82470292"
       cy="1025.1583"
       cx="114.30611"
       id="path4232-2-0-4-46-90"
       style="fill:none;fill-opacity:1;stroke:#ff0000;stroke-width:0.37027922;stroke-miterlimit:4;stroke-dasharray:none;stroke-opacity:1" />
    <ellipse
       ry="0.85769105"
       rx="0.82470292"
       cy="1025.1899"
       cx="123.33433"
       id="path4232-2-0-4-46-4"
       style="fill:none;fill-opacity:1;stroke:#ff0000;stroke-width:0.37027922;stroke-miterlimit:4;stroke-dasharray:none;stroke-opacity:1" />
    <ellipse
       ry="0.85769105"
       rx="0.82470292"
       cy="1025.1426"
       cx="132.26787"
       id="path4232-2-0-4-46-21"
       style="fill:none;fill-opacity:1;stroke:#ff0000;stroke-width:0.37027922;stroke-miterlimit:4;stroke-dasharray:none;stroke-opacity:1" />
    <ellipse
       ry="0.85769105"
       rx="0.82470292"
       cy="1025.1899"
       cx="141.29611"
       id="path4232-2-0-4-46-67"
       style="fill:none;fill-opacity:1;stroke:#ff0000;stroke-width:0.37027922;stroke-miterlimit:4;stroke-dasharray:none;stroke-opacity:1" />
    <ellipse
       ry="0.85769105"
       rx="0.82470292"
       cy="1025.1216"
       cx="150.25543"
       id="path4232-2-0-4-46-47"
       style="fill:none;fill-opacity:1;stroke:#ff0000;stroke-width:0.37027922;stroke-miterlimit:4;stroke-dasharray:none;stroke-opacity:1" />
    <ellipse
       ry="0.85769105"
       rx="0.82470292"
       cy="1025.1774"
       cx="159.32909"
       id="path4232-2-0-4-46-57"
       style="fill:none;fill-opacity:1;stroke:#ff0000;stroke-width:0.37027922;stroke-miterlimit:4;stroke-dasharray:none;stroke-opacity:1" />
    <ellipse
       ry="0.85769105"
       rx="0.82470292"
       cy="966.76221"
       cx="40.199623"
       id="path4232-2-0-4-46-40"
       style="fill:none;fill-opacity:1;stroke:#ff0000;stroke-width:0.37027922;stroke-miterlimit:4;stroke-dasharray:none;stroke-opacity:1" />
    <ellipse
       ry="0.85769105"
       rx="0.82470292"
       cy="975.73981"
       cx="40.265068"
       id="path4232-2-0-4-46-85"
       style="fill:none;fill-opacity:1;stroke:#ff0000;stroke-width:0.37027922;stroke-miterlimit:4;stroke-dasharray:none;stroke-opacity:1" />
  </g>
</svg>
