<?xml version="1.0" encoding="UTF-8" standalone="no"?>
<svg
   xmlns:dc="http://purl.org/dc/elements/1.1/"
   xmlns:cc="http://creativecommons.org/ns#"
   xmlns:rdf="http://www.w3.org/1999/02/22-rdf-syntax-ns#"
   xmlns:svg="http://www.w3.org/2000/svg"
   xmlns="http://www.w3.org/2000/svg"
   xmlns:sodipodi="http://sodipodi.sourceforge.net/DTD/sodipodi-0.dtd"
   xmlns:inkscape="http://www.inkscape.org/namespaces/inkscape"
   version="1.1"
   id="svg2"
   viewBox="0 0 174.643 152.727"
   height="152.72701"
   width="174.64301"
   inkscape:version="0.91 r"
   sodipodi:docname="satshakit_laser_pins.svg">
  <sodipodi:namedview
     pagecolor="#ffffff"
     bordercolor="#666666"
     borderopacity="1"
     objecttolerance="10"
     gridtolerance="10"
     guidetolerance="10"
     inkscape:pageopacity="0"
     inkscape:pageshadow="2"
     inkscape:window-width="1440"
     inkscape:window-height="845"
     id="namedview48"
     showgrid="false"
     inkscape:zoom="9.1624648"
     inkscape:cx="104.17201"
     inkscape:cy="139.16091"
     inkscape:window-x="-2"
     inkscape:window-y="-3"
     inkscape:window-maximized="1"
     inkscape:current-layer="svg2" />
  <defs
     id="defs4">
    <pattern
       id="EMFhbasepattern"
       patternUnits="userSpaceOnUse"
       width="6"
       height="6"
       x="0"
       y="0" />
  </defs>
  <metadata
     id="metadata7">
    <rdf:RDF>
      <cc:Work
         rdf:about="">
        <dc:format>image/svg+xml</dc:format>
        <dc:type
           rdf:resource="http://purl.org/dc/dcmitype/StillImage" />
        <dc:title></dc:title>
      </cc:Work>
    </rdf:RDF>
  </metadata>
  <path
     inkscape:connector-curvature="0"
     style="fill:#000000"
     d="M 0,4.3000488e-4 0,152.72701 l 80.070308,0 94.572252,0 0,-152.72657999512 -174.64256,0 z M 50.128898,4.13714 l 32.83399,0 0.19726,0.20704 c 0.19429,0.20672 0.19532,0.23621 0.19532,3.81836 l 0,3.60937 0.26171,0.0586 c 0.39398,0.0865 1.06916,0.60515 1.40821,1.08203 0.47172,0.66345 0.50719,0.998 0.47461,4.5 -0.0287,3.0805 -0.0348,3.15905 -0.23828,3.57227 -0.26472,0.53742 -0.81083,1.08564 -1.33594,1.33984 -0.50892,0.24636 -1.45222,0.31068 -1.98438,0.13672 -0.79826,-0.26095 -1.55075,-1.02782 -1.79101,-1.82617 -0.17901,-0.59474 -0.18048,-6.38339 -0.002,-6.97656 0.24856,-0.8259 1.05125,-1.64786 1.78906,-1.83008 l 0.24805,-0.0606 0,-3.23047 0,-3.23047 -32.04102,0 -32.039058,0 0,4.76953 0,4.76953 1.16992,0 1.16992,0 0,3.19532 0,3.19531 -2.92578,0 -2.92383,0 0,-3.19531 0,-3.19532 1.16993,0 1.16992,0 0,-5.17383 c 0,-5.05499 0.004,-5.17963 0.17968,-5.35546 C 17.29452,4.13745 17.41455,4.1371 50.128858,4.1371 Z m 2.89649,3.50977 c 24.53359,0 25.44621,0.005 25.58984,0.16406 0.1371,0.15149 0.15039,1.16268 0.15039,12.69141 l 0,12.525391 11.73047,0 c 11.250542,0 11.736052,0.006 11.878902,0.16406 0.13675,0.1511 0.15039,0.99522 0.15039,10.30469 0,6.700269 0.0303,10.140619 0.0898,10.140619 0.058,0 0.0898,0.97415 0.0898,2.74415 l 0,2.74609 -0.67578,0 -0.67383,0 0,-2.74609 c 0,-1.77 0.0319,-2.74415 0.0898,-2.74415 0.0595,0 0.0898,-3.33054 0.0898,-9.810539 l 0,-9.81055 -11.730462,0 c -11.25054,0 -11.73801,-0.006 -11.88085,-0.16406 -0.1371,-0.15149 -0.14844,-1.16072 -0.14844,-12.689451 l 0,-12.5254 -24.75196,0 -24.75195,0 0.0254,2.57813 0.0234,2.57617 0.37891,0.11328 c 0.90637,0.26753 1.74579,1.0071 2.17187,1.91602 0.20368,0.43448 0.23828,0.63128 0.23828,1.32031 0,0.68903 -0.0346,0.88779 -0.23828,1.32227 -0.42608,0.90892 -1.26549,1.64847 -2.17187,1.91601 l -0.37891,0.11328 -0.0234,2.6836 c -0.0208,2.3398 -0.0432,2.70552 -0.17187,2.84765 -0.14078,0.15508 -0.604878,0.16211 -10.078128,0.16211 l -9.93164,0 0,4.410161 0,4.41016 1.61914,0 1.62109,0 0,3.19531 0,3.19531 -1.16992,0 -1.16992,0 0,6.300779 0,6.29883 1.70899,0 1.71093,0 0,4.0957 0,4.09375 -1.08008,0 -1.08007,0 0,7.60547 0,7.60547 1.08007,0 1.08008,0 0,4.0957 0,4.09375 -2.74609,0 -2.74414,0 0,-4.09375 0,-4.0957 1.08008,0 1.08007,0 0,-7.60547 0,-7.60547 -1.08007,0 -1.08008,0 0,-4.09375 0,-4.0957 0.44922,0 0.45117,0 0,-6.29883 0,-6.300779 -1.16992,0 -1.17188,0 0,-3.19531 0,-3.19531 0.72071,0 0.7207,0 0,-6.88477 0,-6.884771 -1.16992,0 -1.16993,0 0,-3.19531 0,-3.19531 2.92383,0 2.92578,0 0,3.19531 0,3.19531 -1.16992,0 -1.16992,0 0,1.98047 0,1.98047 9.58594,0 9.58594,0 -0.0234,-2.35351 -0.0234,-2.35157 -0.37891,-0.11328 c -0.90636,-0.26752 -1.74579,-1.00709 -2.17188,-1.91601 -0.20367,-0.43448 -0.24023,-0.63324 -0.24023,-1.32227 0,-0.68903 0.0366,-0.88583 0.24023,-1.32031 0.42609,-0.90892 1.26549,-1.64846 2.17188,-1.91602 l 0.37891,-0.11328 0.0234,-2.9082 c 0.0208,-2.54921 0.0425,-2.92928 0.17187,-3.07227 0.14194,-0.15718 1.135948,-0.16406 25.589838,-0.16406 z m -15.26172,4.08008 c 0.42247,-0.002 0.8434,0.0724 1.14844,0.22265 0.5393,0.26564 1.08397,0.81031 1.34961,1.34961 0.20353,0.41322 0.20962,0.49177 0.23828,3.57227 0.0326,3.502 -0.003,3.83655 -0.47461,4.5 -0.33905,0.47688 -1.01423,0.99553 -1.40821,1.08203 l -0.26171,0.0566 0,3.99805 0,3.998041 5.8789,0 5.87891,0 0.19531,0.20899 0.19727,0.20898 0,9.4668 0,9.464839 14.8789,0 14.87891,0 0.19531,0.20899 0.19531,0.20898 0,6.59766 0,6.5957 5.40039,-0.0664 5.4004,-0.0664 0,0.68555 0,0.6875 -2.72266,-0.0215 c -9.64701,-0.0753 -8.81232,-0.0508 -9.04102,-0.26563 l -0.20703,-0.19531 0,-6.59961 0,-6.59765 -14.8789,0 -14.87891,0 -0.19531,-0.20899 -0.19727,-0.20898 0,-9.466799 0,-9.4668 -5.8789,0 -5.87891,0 -0.19531,-0.20703 c -0.19542,-0.20797 -0.19532,-0.2164 -0.19532,-4.583981 l 0,-4.37305 -0.26171,-0.0586 c -0.39398,-0.0865 -1.06916,-0.60515 -1.40821,-1.08203 -0.47172,-0.66345 -0.50719,-0.998 -0.47461,-4.5 0.029,-3.12295 0.0299,-3.15255 0.2461,-3.5918 0.27759,-0.56402 0.75629,-1.04272 1.32031,-1.32031 0.31067,-0.15293 0.73378,-0.23059 1.15625,-0.23242 z m 9,0 c 0.42247,-0.002 0.8434,0.0724 1.14844,0.22265 0.5393,0.26564 1.08396,0.81031 1.34961,1.34961 0.20353,0.41322 0.20962,0.49177 0.23828,3.57227 0.0326,3.502 -0.003,3.83655 -0.47461,4.5 -0.33905,0.47688 -1.01423,0.99553 -1.40821,1.08203 l -0.26171,0.0566 0,2.42383 0,2.421871 2.72851,0 2.73047,0 0.19531,0.20899 0.19532,0.20898 0,9.69141 0,9.691399 15.33007,0 15.32813,0 0.19531,0.20899 0.19531,0.20703 0,6.54297 0,6.54101 0.85547,0 c 0.51001,0 0.85547,-0.0361 0.85547,-0.0898 0,-0.0571 0.67571,-0.0898 1.8457,-0.0898 l 1.84375,0 0,0.76563 0,0.76367 -1.84375,0 c -1.17,0 -1.8457,-0.0327 -1.8457,-0.0898 0,-0.0557 -0.47459,-0.0898 -1.24414,-0.0898 -1.18429,0 -1.2532,-0.009 -1.43945,-0.20703 l -0.19727,-0.20898 0,-6.54102 0,-6.54297 -15.32812,0 -15.33008,0 -0.19531,-0.20703 -0.19532,-0.20898 0,-9.691409 0,-9.69141 -2.73047,0 -2.72851,0 -0.19531,-0.20898 c -0.19229,-0.20465 -0.19532,-0.25732 -0.19532,-3.007811 l 0,-2.79883 -0.26171,-0.0586 c -0.39398,-0.0865 -1.06916,-0.60515 -1.40821,-1.08203 -0.47172,-0.66345 -0.50719,-0.998 -0.47461,-4.5 0.029,-3.12295 0.0299,-3.15255 0.2461,-3.5918 0.27759,-0.56402 0.75629,-1.04272 1.32031,-1.32031 0.31067,-0.15294 0.73377,-0.23059 1.15625,-0.23242 z m 9,0 c 0.42247,-0.002 0.8434,0.0724 1.14844,0.22265 0.5393,0.26564 1.08397,0.81031 1.34961,1.34961 0.20353,0.41322 0.20962,0.49177 0.23828,3.57227 0.0326,3.502 -0.003,3.83655 -0.47461,4.5 -0.33905,0.47688 -1.01423,0.99553 -1.40821,1.08203 l -0.26171,0.0566 0,10.523441 0,10.52344 18.70312,0 18.70508,0 0.19531,0.20898 0.19531,0.20703 0,4.832029 c 0,3.16113 0.031,4.83203 0.0898,4.83203 0.0571,0 0.0898,0.67375 0.0898,1.84375 l 0,0.002 0,1.84375 -0.76367,0 -0.76562,0 0,-1.84375 c 0,-1.17 0.0328,-1.8457 0.0898,-1.8457 0.0588,0 0.0898,-1.54508 0.0898,-4.45508 l 0,-4.455079 -18.70313,0 -18.70508,0 -0.19531,-0.20898 -0.19531,-0.20703 0,-10.90039 0,-10.898441 -0.26172,-0.0586 c -0.39398,-0.0865 -1.06915,-0.60515 -1.4082,-1.08203 -0.47172,-0.66345 -0.50719,-0.998 -0.47461,-4.5 0.0291,-3.12295 0.0299,-3.15255 0.24609,-3.5918 0.27759,-0.56402 0.7563,-1.04272 1.32031,-1.32031 0.31067,-0.15293 0.73378,-0.23059 1.15625,-0.23242 z m 9,0 c 0.42247,-0.002 0.8434,0.0724 1.14844,0.22265 0.5393,0.26564 1.08396,0.81031 1.34961,1.34961 0.20353,0.41322 0.20962,0.49177 0.23828,3.57227 0.0326,3.502 -0.003,3.83655 -0.47461,4.5 -0.33905,0.47688 -1.01423,0.99553 -1.40821,1.08203 l -0.26171,0.0566 0,8.949221 0,8.94726 15.59961,0 15.59765,0 0.18555,0.20313 c 0.18217,0.20038 0.18346,0.29763 0.23633,9.359369 l 0.0547,9.15821 -0.66992,0 -0.66993,0 0.0566,-8.77539 0.0586,-8.775389 -15.61523,0 -15.61328,0 -0.19531,-0.20703 -0.19532,-0.20899 0,-9.32422 0,-9.324221 -0.26172,-0.0586 c -0.39397,-0.0865 -1.06915,-0.60515 -1.4082,-1.08203 -0.47172,-0.66345 -0.50719,-0.998 -0.47461,-4.5 0.029,-3.12295 0.0299,-3.15254 0.2461,-3.59179 0.27759,-0.56402 0.75629,-1.04273 1.32031,-1.32032 0.31067,-0.15293 0.73378,-0.23059 1.15625,-0.23242 z m 9,0 c 0.42247,-0.002 0.8434,0.0724 1.14844,0.22265 0.53929,0.26564 1.08396,0.81031 1.34961,1.34961 0.20353,0.41322 0.20962,0.49177 0.23828,3.57227 0.0326,3.502 -0.003,3.83655 -0.47461,4.5 -0.33905,0.47688 -1.01423,0.99553 -1.40821,1.08203 l -0.26171,0.0566 0,7.148441 0,7.14844 12.53906,0 12.53906,0 0.18359,0.20312 c 0.18346,0.20124 0.18492,0.26911 0.23243,11.158199 l 0,0.002 0.0488,10.95703 -0.66015,0 -0.6582,0 0.0508,-10.57617 0.0527,-10.574219 -12.55469,0 -12.55274,0 -0.19531,-0.20898 -0.19531,-0.20703 0,-7.52539 0,-7.523441 -0.26172,-0.0586 c -0.39397,-0.0865 -1.06916,-0.60515 -1.4082,-1.08203 -0.47172,-0.66345 -0.50719,-0.998 -0.47461,-4.5 0.0291,-3.12295 0.0299,-3.15255 0.24609,-3.5918 0.27759,-0.56402 0.75629,-1.04272 1.32031,-1.32031 0.31067,-0.15293 0.73378,-0.23059 1.15625,-0.23242 z m 18,0 c 0.42247,-0.002 0.8434,0.0724 1.14844,0.22265 0.53929,0.26564 1.08396,0.81031 1.34961,1.34961 0.20353,0.41322 0.20962,0.49177 0.23828,3.57227 0.0326,3.502 -0.003,3.83655 -0.47461,4.5 -0.33905,0.47688 -1.01423,0.99553 -1.40821,1.08203 l -0.26171,0.0566 0,3.54883 0,3.546871 6.32812,0 6.330082,0 0.1953,0.20899 0.19532,0.20898 0,11.80664 c 0,7.811129 0.0302,11.806639 0.0898,11.806639 0.058,0 0.0898,0.97414 0.0898,2.74414 l 0,2.7461 -0.67382,0 -0.67579,0 0,-14.175779 0,-14.17383 -6.328112,0 -6.33008,0 -0.19531,-0.20899 c -0.1947,-0.20729 -0.19532,-0.22725 -0.19532,-4.132811 l 0,-3.92383 -0.26171,-0.0586 c -0.39398,-0.0865 -1.06916,-0.60515 -1.40821,-1.08203 -0.47172,-0.66345 -0.50719,-0.998 -0.47461,-4.5 0.029,-3.12295 0.0299,-3.15254 0.2461,-3.59179 0.27759,-0.56402 0.75629,-1.04273 1.32031,-1.32032 0.31067,-0.15293 0.73377,-0.23059 1.15625,-0.23242 z m 9.000002,0 c 0.42246,-0.002 0.84339,0.0724 1.14843,0.22265 0.53929,0.26564 1.08397,0.81031 1.3496,1.34961 0.20353,0.41322 0.20959,0.49177 0.2383,3.57227 0.0326,3.502 -0.003,3.83655 -0.47461,4.5 -0.33905,0.47688 -1.01424,0.99553 -1.40821,1.08203 l -0.26173,0.0566 0,1.74805 0,1.74804 3.26955,0 3.26756,0 0.1875,0.20313 0.18555,0.20312 0.0371,16.357431 0.0352,16.357419 -0.63868,0 -0.63867,0 0.0391,-15.974609 0.0391,-15.97656 -3.28125,0 -3.28125,0 -0.19532,-0.20704 c -0.18966,-0.201721 -0.19531,-0.276521 -0.19531,-2.333981 l 0,-2.12305 -0.261712,-0.0586 c -0.39398,-0.0865 -1.06915,-0.60515 -1.4082,-1.08203 -0.47171,-0.66345 -0.50719,-0.998 -0.47461,-4.5 0.029,-3.12295 0.0299,-3.15254 0.2461,-3.59179 0.2776,-0.56402 0.75628,-1.04273 1.32031,-1.32032 0.31067,-0.15293 0.733772,-0.23059 1.156242,-0.23242 z m 9,0 c 0.42246,-0.002 0.84339,0.0724 1.14843,0.22265 0.53929,0.26564 1.08395,0.81031 1.3496,1.34961 0.20613,0.41911 0.20705,0.44955 0.20705,3.8418 0,3.4061 -7.1e-4,3.42267 -0.21095,3.84961 -0.1161,0.23577 -0.38826,0.60082 -0.60547,0.81055 l -0.39453,0.38086 -0.002,18.472651 -0.002,18.472659 -0.67383,0 -0.67578,0 0,-2.74609 c 0,-1.77 0.0318,-2.74415 0.0898,-2.74415 0.0597,0 0.0898,-5.23004 0.0898,-15.511709 l 0,-15.513681 -0.53906,-0.0488 c -0.96825,-0.0878 -1.82831,-0.68631 -2.26758,-1.57812 -0.20612,-0.41911 -0.20703,-0.4515 -0.20703,-3.84375 l 0,-3.41992 0.21679,-0.44141 c 0.2776,-0.56402 0.75434,-1.04272 1.31836,-1.32031 0.31066,-0.15294 0.73572,-0.23059 1.15821,-0.23242 z m 9,0 c 0.42247,-0.002 0.84339,0.0724 1.14844,0.22265 0.53928,0.26564 1.08396,0.81031 1.3496,1.34961 0.20353,0.41322 0.20959,0.49177 0.23829,3.57227 0.0326,3.502 -0.003,3.83655 -0.47461,4.5 -0.33905,0.47688 -1.01423,0.99553 -1.40821,1.08203 l -0.26172,0.0566 0,2.8125 0,2.812501 -0.20898,0.19531 c -0.20351,0.19069 -0.2648,0.19727 -2.69923,0.19727 l -2.49219,0 0,12.55469 c 0,8.309999 0.0303,12.554679 0.0898,12.554679 0.0571,0 0.0898,0.67375 0.0898,1.84375 l 0,0.002 0,1.84375 -0.76561,0 -0.76369,0 0,-1.84375 c 0,-1.17 0.0328,-1.8457 0.0898,-1.8457 0.0596,0 0.0898,-4.38094 0.0898,-12.960939 0,-12.84 9.9e-4,-12.96034 0.17968,-13.13867 0.17143,-0.171 0.29921,-0.17969 2.69922,-0.17969 l 2.52149,0 0,-2.423821 0,-2.42188 -0.26172,-0.0586 c -0.39399,-0.0865 -1.06916,-0.60515 -1.40821,-1.08203 -0.47132,-0.66345 -0.50721,-0.998 -0.47461,-4.5 0.029,-3.12295 0.0299,-3.15255 0.2461,-3.5918 0.27758,-0.56402 0.75629,-1.04272 1.32032,-1.32031 0.31067,-0.15293 0.73377,-0.23059 1.15625,-0.23242 z m 9,0 c 0.42247,-0.002 0.84339,0.0724 1.14844,0.22265 0.53929,0.26564 1.08396,0.81031 1.3496,1.34961 0.20353,0.41322 0.20959,0.49177 0.23829,3.57227 0.0326,3.502 -0.003,3.83655 -0.47461,4.5 -0.33905,0.47688 -1.01423,0.99553 -1.40821,1.08203 l -0.26172,0.0566 0,16.087891 0,16.087889 -0.20898,0.19531 c -0.20752,0.19497 -0.22388,0.19532 -4.27539,0.19532 l -4.06641,0 0,2.70117 0,2.69922 0.58594,0 0.58399,0 0,0.76562 0,0.76367 -1.84376,0 -1.8457,0 0,-0.76367 0,-0.76562 0.67383,0 0.67578,0 0,-3.10547 c 0,-2.985 0.007,-3.11212 0.17969,-3.28516 0.17472,-0.175 0.30039,-0.17969 4.27539,-0.17969 l 4.0957,0 0,-15.697259 0,-15.697271 -0.26172,-0.0586 c -0.39397,-0.0865 -1.06915,-0.60515 -1.4082,-1.08203 -0.47132,-0.66345 -0.50721,-0.998 -0.47461,-4.5 0.029,-3.12295 0.0299,-3.15254 0.2461,-3.59179 0.27758,-0.56402 0.75629,-1.04273 1.32031,-1.32032 0.31067,-0.15293 0.73377,-0.23059 1.15625,-0.23242 z m 9,0 c 0.42247,-0.002 0.84339,0.0724 1.14843,0.22265 0.53929,0.26564 1.08396,0.81031 1.3496,1.34961 0.20353,0.41322 0.20959,0.49177 0.23829,3.57227 0.0326,3.502 -0.003,3.83655 -0.47461,4.5 -0.33905,0.47688 -1.01423,0.99553 -1.4082,1.08203 l -0.26172,0.0566 0,17.437501 0,17.437499 -0.20898,0.19531 -0.20898,0.19727 -6.0918,0 -6.0918,0 0,3.22265 0,3.22461 -0.20312,0.19141 0,0.002 c -0.20084,0.1887 -0.27939,0.19181 -4.63477,0.25391 l -4.43165,0.0645 0,-0.70508 0,-0.70313 4.05079,0.0566 4.04883,0.0586 0,-3.23828 c 0,-3.11879 0.008,-3.24464 0.18164,-3.41797 0.17648,-0.176 0.29883,-0.17968 6.29883,-0.17968 l 6.12109,0 0,-17.048829 0,-17.046881 -0.26172,-0.0586 c -0.39397,-0.0865 -1.06915,-0.60515 -1.4082,-1.08203 -0.47132,-0.66345 -0.50721,-0.998 -0.47461,-4.5 0.029,-3.12295 0.0299,-3.15255 0.2461,-3.5918 0.27758,-0.56402 0.75629,-1.04272 1.32031,-1.32031 0.31067,-0.15293 0.73377,-0.23059 1.15625,-0.23242 z m 8.99999,0 c 0.42247,-0.002 0.8434,0.0724 1.14844,0.22265 0.53929,0.26564 1.08395,0.81031 1.3496,1.34961 0.20353,0.41322 0.20959,0.49177 0.23829,3.57227 0.0326,3.502 -0.003,3.83655 -0.47461,4.5 -0.33905,0.47688 -1.01423,0.99553 -1.40821,1.08203 l -0.26172,0.0566 0,18.789061 0,18.787109 -0.20898,0.19531 -0.20898,0.19532 -8.5664,0 -8.56641,0 0,3.31445 0,3.31445 -0.20312,0.1836 c -0.1989,0.18149 -0.31747,0.18624 -6.66016,0.24804 l -6.45704,0.0625 0,-0.68945 0,-0.69141 6.07618,0.0664 6.07422,0.0664 0,-3.3418 c 0,-3.22285 0.006,-3.3499 0.17969,-3.52344 0.17749,-0.177 0.30039,-0.17969 8.77539,-0.17969 l 8.59569,0 0,-18.398439 0,-18.396481 -0.26172,-0.0586 c -0.39397,-0.0865 -1.06915,-0.60515 -1.4082,-1.08203 -0.47132,-0.66345 -0.50721,-0.998 -0.47461,-4.5 0.029,-3.12295 0.0299,-3.15255 0.2461,-3.5918 0.27759,-0.56402 0.75629,-1.04272 1.32031,-1.32031 0.31067,-0.15293 0.73377,-0.23059 1.15625,-0.23242 z m 9,0 c 0.42247,-0.002 0.8434,0.0724 1.14844,0.22265 0.53929,0.26564 1.08395,0.81031 1.3496,1.34961 0.20353,0.41322 0.20959,0.49177 0.23829,3.57227 0.0326,3.502 -0.003,3.83655 -0.47461,4.5 -0.33905,0.47688 -1.01423,0.99553 -1.40821,1.08203 l -0.26172,0.0566 0,15.248051 0,15.248039 7.00391,0 7.00391,0 0.19531,0.20899 0.19531,0.20898 0,11.07032 0,11.07031 -0.20117,0.18945 -0.20312,0.18945 -26.93165,0.0293 -26.93359,0.0293 0,-0.63085 0,-0.62891 26.55078,0.0293 26.54883,0.0312 0,-10.3125 0,-10.31445 -7.00391,0 -7.0039,0 -0.19532,-0.20704 -0.19531,-0.20898 0,-15.624999 0,-15.623051 -0.26172,-0.0586 c -0.39397,-0.0865 -1.06915,-0.60515 -1.4082,-1.08203 -0.47132,-0.66345 -0.50721,-0.998 -0.47461,-4.5 0.029,-3.12295 0.0299,-3.15254 0.2461,-3.59179 0.2776,-0.56402 0.75629,-1.04273 1.32031,-1.32032 0.31067,-0.15293 0.73377,-0.23059 1.15625,-0.23242 z M 27.67773,15.40668 c -0.29509,0.0167 -0.59162,0.11276 -0.86133,0.30273 -1.10973,0.78166 -1.00544,2.34027 0.19922,2.98438 1.150068,0.61492 2.599178,-0.3535 2.496098,-1.66797 -0.0787,-1.00356 -0.9487,-1.6693 -1.833988,-1.61914 z m 9.990238,0 c -0.2951,0.0167 -0.59163,0.11276 -0.86133,0.30273 -1.10973,0.78166 -1.00544,2.34027 0.19922,2.98438 1.15007,0.61492 2.59918,-0.3535 2.49609,-1.66797 -0.0787,-1.00356 -0.9487,-1.6693 -1.83398,-1.61914 z m 9,0 c -0.2951,0.0167 -0.59163,0.11276 -0.86133,0.30273 -1.10974,0.78166 -1.00544,2.34027 0.19922,2.98438 1.15007,0.61492 2.59918,-0.3535 2.49609,-1.66797 -0.0787,-1.00356 -0.9487,-1.6693 -1.83398,-1.61914 z m 9,0 c -0.2951,0.0167 -0.59163,0.11276 -0.86133,0.30273 -1.10973,0.78166 -1.00544,2.34027 0.19922,2.98438 1.15007,0.61492 2.59918,-0.3535 2.49609,-1.66797 -0.0787,-1.00356 -0.9487,-1.6693 -1.83398,-1.61914 z m 9,0 c -0.2951,0.0167 -0.59163,0.11276 -0.86133,0.30273 -1.10974,0.78166 -1.00544,2.34027 0.19922,2.98438 1.15007,0.61492 2.59918,-0.3535 2.49609,-1.66797 -0.0787,-1.00356 -0.9487,-1.6693 -1.83398,-1.61914 z m 9,0 c -0.2951,0.0167 -0.59162,0.11276 -0.86133,0.30273 -1.10973,0.78166 -1.0074,2.34027 0.19726,2.98438 1.15008,0.61492 2.60114,-0.3535 2.49805,-1.66797 -0.0787,-1.00356 -0.9487,-1.6693 -1.83398,-1.61914 z m 9,0 c -0.2951,0.0167 -0.59162,0.11276 -0.86133,0.30273 -1.10973,0.78166 -1.0074,2.34027 0.19726,2.98438 1.15008,0.61492 2.60114,-0.3535 2.49805,-1.66797 -0.0787,-1.00356 -0.9487,-1.6693 -1.83398,-1.61914 z m 9,0 c -0.2951,0.0167 -0.59162,0.11276 -0.86133,0.30273 -1.10973,0.78166 -1.00739,2.34027 0.19726,2.98438 1.15008,0.61492 2.60114,-0.3535 2.49805,-1.66797 -0.0787,-1.00356 -0.9487,-1.6693 -1.83398,-1.61914 z m 8.999992,0 c -0.29509,0.0167 -0.59162,0.11276 -0.861322,0.30273 -1.10974,0.78166 -1.00543,2.34027 0.199212,2.98438 1.15007,0.61492 2.59919,-0.3535 2.4961,-1.66797 -0.0787,-1.00356 -0.9487,-1.6693 -1.83399,-1.61914 z m 9,0 c -0.29509,0.0167 -0.59162,0.11276 -0.86132,0.30273 -1.10973,0.78166 -1.00544,2.34027 0.19921,2.98438 1.15007,0.61492 2.59919,-0.3535 2.4961,-1.66797 -0.0787,-1.00356 -0.9487,-1.6693 -1.83399,-1.61914 z m 9,0 c -0.29509,0.0167 -0.59162,0.11276 -0.86132,0.30273 -1.10973,0.78166 -1.00544,2.34027 0.19921,2.98438 1.15007,0.61492 2.59919,-0.3535 2.4961,-1.66797 -0.0787,-1.00356 -0.9487,-1.6693 -1.83399,-1.61914 z m 9,0 c -0.29509,0.0167 -0.59162,0.11276 -0.86132,0.30273 -1.10973,0.78166 -1.00739,2.34027 0.19726,2.98438 1.15008,0.61492 2.60114,-0.3535 2.49805,-1.66797 -0.0787,-1.00356 -0.9487,-1.6693 -1.83399,-1.61914 z m 9,0 c -0.29509,0.0167 -0.59162,0.11276 -0.86132,0.30273 -1.10973,0.78166 -1.00739,2.34027 0.19726,2.98438 1.15008,0.61492 2.60113,-0.3535 2.49804,-1.66797 -0.0787,-1.00356 -0.94869,-1.6693 -1.83398,-1.61914 z m 8.99999,0 c -0.29509,0.0167 -0.59162,0.11276 -0.86132,0.30273 -1.10972,0.78166 -1.0074,2.34027 0.19726,2.98438 1.15008,0.61492 2.60115,-0.3535 2.49805,-1.66797 -0.0787,-1.00356 -0.9487,-1.6693 -1.83399,-1.61914 z m 9,0 c -0.29509,0.0167 -0.59162,0.11276 -0.86132,0.30273 -1.10972,0.78166 -1.0074,2.34027 0.19726,2.98438 1.15008,0.61492 2.60115,-0.3535 2.49805,-1.66797 -0.0787,-1.00356 -0.9487,-1.6693 -1.83399,-1.61914 z m -131.17967,13.750001 10.335938,0 0.19531,0.20898 c 0.18759,0.19967 0.19531,0.28401 0.19531,2.02539 l 0,1.81641 6.14844,0 6.15039,0 0.19531,0.20703 0.19531,0.20898 0,9.91602 0,9.917969 15.10547,0 15.10352,0 0.19531,0.20703 0.19531,0.20898 0,6.24219 0,6.24023 6.97657,-0.0644 c 6.27293,-0.0576 6.97461,-0.0495 6.97461,0.0762 0,0.12528 0.88098,0.13954 8.52734,0.14454 l 8.527342,0.008 0.63867,0.33007 c 3.11887,1.62182 2.94908,1.5513 4.58203,1.9043 l 1.5293,0.33203 16.35742,0.0254 16.35743,0.0273 0,-0.91015 0,-0.91211 3.1953,0 3.19531,0 0,1.16992 0,1.16992 2.65431,0 2.65625,0 0,-1.16992 0,-1.16992 3.19336,0 3.1953,0 0,2.92578 0,2.92383 -3.1953,0 -3.19336,0 0,-1.16993 0,-1.16992 -2.65625,0 -2.65431,0 0,1.16992 0,1.16993 -3.19531,0 -3.1953,0 0,-1.45118 0,-1.45117 -16.22266,0.0391 c -12.54798,0.0301 -16.2429,0.0151 -16.3125,-0.0684 -0.0495,-0.0594 -0.8785,-0.2793 -1.84375,-0.48828 -1.69335,-0.3666 -1.79699,-0.40242 -2.94336,-1.00391 l -1.18945,-0.62304 -8.81055,2.43359 c -4.846722,1.33851 -8.900162,2.43359 -9.005862,2.43359 -0.11083,0 -0.1914,0.0569 -0.1914,0.13477 0,0.1171 -0.3661,0.13477 -2.7461,0.13477 -1.77,0 -2.74414,-0.0318 -2.74414,-0.0898 0,-0.0593 -2.64999,-0.0898 -7.76953,-0.0898 l -7.76953,0 -0.19531,-0.20703 -0.19532,-0.20899 0,-5.64258 0,-5.64062 -6.83984,0 -6.83984,0 0,1.48437 0,1.48438 0.22461,0 0.2246,0 0,3.19531 0,3.19531 -2.92382,0 -2.92578,0 0,-1.52929 0,-1.53125 -2.73829,0 -2.73828,0 -0.21679,0.47265 c -0.31078,0.67602 -0.62605,1.00852 -1.25391,1.32227 l -0.55078,0.27539 -3.3086,0 -3.30859,0 -0.56641,-0.29297 c -1.22309,-0.63316 -1.73944,-1.96627 -1.2871,-3.32813 0.21275,-0.64053 0.90859,-1.33156 1.57226,-1.5625 0.44636,-0.15535 0.77532,-0.17187 3.55078,-0.17187 3.4158,0 3.60263,0.0251 4.33008,0.57422 0.31576,0.23838 0.52745,0.50505 0.74805,0.9375 l 0.30859,0.60351 2.72852,0 2.73047,0 0,-1.08007 0,-1.08008 2.11523,0 2.11523,0 0,-1.88867 c 0,-1.77001 0.0111,-1.90175 0.17969,-2.07032 0.17717,-0.177 0.30014,-0.17969 7.81445,-0.17968 l 7.63477,0 0.19531,0.20703 0.19532,0.20898 0,5.64063 0,5.64062 10.2832,0.0234 10.28125,0.0234 7.96484,-2.18359 c 4.380742,-1.20151 8.005182,-2.19975 8.054682,-2.21875 0.0495,-0.019 -6.90662,-0.0342 -15.458972,-0.0312 l -15.54883,0.006 -0.22461,-0.20899 -0.22266,-0.20898 0,-6.24024 0,-6.23828 -15.10351,0 -15.10352,0 -0.19727,-0.20898 -0.19531,-0.20899 0,-9.916009 0,-9.91602 -2.78906,0 -2.79102,0 0,1.61914 0,1.6211 1.30469,0 1.30664,0 0,2.92383 0,2.92578 -3.19531,0 -3.19531,0 0,-2.92578 0,-2.92383 1.30468,0 1.30469,0 0,-1.6211 0,-1.61914 -2.77344,0 -2.77539,0 -0.19531,-0.20898 c -0.18759,-0.19967 -0.19531,-0.28401 -0.19531,-2.02539 l 0,-1.81641 -9.539058,0 -9.54102,0 0,8.18945 0,8.19141 7.00391,0 7.003898,0 0.19727,0.207029 c 0.19389,0.20636 0.19531,0.24182 0.19531,3.64649 0,2.99484 0.0171,3.43554 0.13477,3.43554 0.11802,0 0.13476,0.51571 0.13476,4.09571 l 0,4.09375 -1.080078,0 -1.08007,0 0,7.60547 0,7.60546 1.08007,0 1.080078,0 0,4.09571 0,4.09375 -1.080078,0 -1.08007,0 0,2.77539 0,2.77344 -0.20899,0.19531 -0.20703,0.19726 -9.87109,0 -9.87305,0 0,2.02344 0,2.02539 0.63086,0 0.62891,0 0,3.28515 0,3.28511 -0.71875,0 -0.72071,0 0,13.8594 0,13.86131 0.90039,0 0.90039,0 0,3.2852 0,3.2832 -0.7207,0 -0.7207,0 0,4.86131 0,4.8594 27.044918,0 27.04492,0 0,-2.0703 c 0,-1.95 0.0121,-2.0804 0.18164,-2.25 0.17947,-0.1791 0.29968,-0.1797 40.679682,-0.1797 l 40.5,0 0,-1.3047 0,-1.3047 2.92383,0 2.92578,0 0,3.1953 0,3.1934 -2.92578,0 -2.92383,0 0,-1.3047 0,-1.3047 -40.0957,0 -40.093742,0 0,2.0547 c 0,2.031 -0.003,2.0566 -0.20899,2.25 l -0.20898,0.1953 -27.81055,0 -27.810548,0 -0.19531,-0.207 -0.19726,-0.209 0,-5.2363 0,-5.23631 -0.71875,0 -0.72071,0 0,-3.2852 0,-3.2852 0.54102,0 0.53906,0 0,-13.86131 0,-13.8594 -0.7207,0 -0.71875,0 0,-3.28511 0,-3.28515 0.80859,0 0.81055,0 0,-2.42969 c 0,-2.31 0.009,-2.43826 0.17969,-2.60937 0.17782,-0.178 0.30007,-0.17969 10.08007,-0.17969 l 9.90039,0 0,-2.38476 0,-2.38672 -1.08007,0 -1.08008,0 0,-4.09375 0,-4.09571 1.08008,0 1.08007,0 0,-7.60546 0,-7.60352 -1.08007,0 -1.08008,0 0,-4.0957 0,-4.09571 2.02539,0 2.02539,0 0,-3.05859 0,-3.06055 -7.00391,0 -7.00586,0 -0.19531,-0.20898 -0.19531,-0.20703 0,-8.972659 c 0,-8.8517 0.002,-8.97475 0.17969,-9.15234 0.17791,-0.178 0.29936,-0.17969 10.51367,-0.17969 z m -7.99414,5.85156 2.92578,0 2.92578,0 0,1.30469 0,1.30468 5.33789,0 5.339838,0 0.19532,0.20899 0.19531,0.20703 0,9.511719 0,9.51172 3.28516,0 3.28515,0 0,-1.84375 0,-1.84571 -1.30469,0 -1.30468,0 0,-2.92578 0,-2.92383 3.19531,0 3.19531,0 0,2.92383 0,2.92578 -1.30664,0 -1.30469,0 0,1.84571 0,1.84375 17.13086,0 17.12891,0 0.19531,0.20898 0.19531,0.20703 0,5.83789 0,5.83594 8.32422,-0.0586 8.32618,-0.0606 0,0.67383 0,0.67187 -8.70704,-0.0547 c -8.60616,-0.0543 -8.71001,-0.0564 -8.91015,-0.23828 l -0.20313,-0.18359 0,-5.83594 0,-5.83398 -20.60937,0 -20.61133,0 0,8.64257 0,8.64258 1.23047,-0.0254 1.23047,-0.0234 0.13476,-0.40429 c 0.19092,-0.57328 0.91988,-1.27723 1.54883,-1.4961 0.44636,-0.15535 0.77532,-0.16992 3.55078,-0.16992 3.4158,0 3.60263,0.0231 4.33008,0.57227 0.31576,0.23838 0.52745,0.50505 0.74805,0.9375 l 0.30859,0.60546 4.10938,0 4.10742,0 0.19726,0.20704 0.19532,0.20898 0,7.71094 0,7.71289 2.33984,0 2.33984,0 0,-1.16992 0,-1.16993 3.28516,0 3.28516,0 0,1.125 0,1.125 1.88867,0 1.89062,0 0,-8.05664 c 0,-7.935 0.002,-8.05705 0.17969,-8.23437 0.17685,-0.17711 0.30054,-0.1796 7.04297,-0.17969 3.77437,-1e-4 8.71584,-0.0277 10.98047,-0.0606 3.62008,-0.0524 4.11719,-0.0421 4.11719,0.0762 0,0.14285 0.33516,0.21848 7.52929,1.68945 l 3.435552,0.70118 5.16601,-2.35938 5.16602,-2.36133 1.34375,-0.19336 c 0.73917,-0.10682 1.3585,-0.2345 1.375,-0.2832 0.0188,-0.0555 1.05198,-0.0898 2.76758,-0.0898 l 2.73633,0 0,0.67578 0,0.67578 -2.73633,0 c -1.79265,0 -2.74933,-0.0332 -2.76953,-0.0937 -0.0202,-0.0606 -0.44002,-0.0323 -1.21875,0.082 l -1.1875,0.17578 -3.98633,1.82032 c -2.1925,1.00192 -4.20822,1.92289 -4.48047,2.04687 l -0.49609,0.22656 0.76562,0.16211 c 0.68136,0.1441 1.3026,0.16202 5.69141,0.16602 4.10895,0.003 4.92773,-0.0166 4.92773,-0.11914 0,-0.1036 1.97381,-0.11678 12.5332,-0.0801 14.58563,0.0507 12.9375,-0.0965 12.9375,1.16406 l 0,0.74805 3.50977,0 3.50977,0 0,-1.16992 0,-1.16993 3.19531,0 3.1953,0 0,1.16993 0,1.16992 2.65431,0 2.65625,0 0,-1.16992 0,-1.16993 3.19336,0 3.19531,0 0,2.92579 0,2.92382 -3.19531,0 -3.19336,0 0,-1.16992 0,-1.16992 -2.65625,0 -2.65431,0 0,1.16992 0,1.16992 -3.1953,0 -3.19531,0 0,-1.16992 0,-1.16992 -3.89844,0 -3.90039,0 -0.19532,-0.20703 c -0.16799,-0.17877 -0.19531,-0.31243 -0.19531,-0.94336 l 0,-0.73633 -17.0332,0.008 -17.03125,0.008 -2.38672,-0.46875 c -1.31175,-0.25768 -4.409762,-0.89044 -6.884762,-1.4082 l -4.5,-0.94141 -10.82227,-0.0547 -10.82227,-0.0527 0,8.05274 0,8.05273 -0.20898,0.19531 c -0.20248,0.19069 -0.2712,0.19532 -2.47461,0.19532 l -2.26562,0 0,1.21484 0,0.002 0,1.21484 -3.28516,0 -3.28516,0 0,-1.16992 0,-1.16992 -2.73047,0 -2.72851,0 -0.19531,-0.20898 -0.19532,-0.20899 0,-7.71094 0,-7.71093 -3.72851,0 -3.72852,0 -0.21679,0.47265 c -0.31078,0.67602 -0.62605,1.00852 -1.25391,1.32227 l -0.55078,0.27344 -3.3086,0 -3.30859,0 -0.56641,-0.29297 c -0.6067,-0.31407 -1.15843,-0.92515 -1.30859,-1.44922 l -0.082,-0.28125 -1.61328,-0.0254 c -1.50885,-0.0231 -1.62568,-0.0377 -1.81836,-0.21875 l -0.20703,-0.19336 0,-18.74805 0,-18.749999 -4.949218,0 -4.94922,0 0,1.30469 0,1.30469 -2.92578,0 -2.92578,0 0,-3.19532 0,-3.19336 z m 45.451168,29.337889 2.92383,0 2.92578,0 0,3.19531 0,3.19531 -2.07031,0 -2.07032,0 0,4.09571 0,4.09375 1.35157,0 1.34961,0 0,2.92578 0,2.92578 -3.28516,0 -3.28516,0 0,-2.92578 0,-2.92578 1.34961,0 1.34961,0 0,-4.09375 0,-4.09571 -0.26953,0 -0.26953,0 0,-3.19531 0,-3.19531 z m -20.84766,1.00976 c -0.29509,0.0167 -0.59162,0.11276 -0.86132,0.30274 -1.10974,0.78166 -1.00544,2.34222 0.19921,2.98633 1.15007,0.61492 2.59918,-0.3535 2.4961,-1.66797 -0.0787,-1.00356 -0.9487,-1.67125 -1.83399,-1.6211 z m 0,9 c -0.29509,0.0167 -0.59162,0.11276 -0.86132,0.30274 -1.10974,0.78166 -1.00544,2.34222 0.19921,2.98633 1.15007,0.61492 2.59918,-0.3535 2.4961,-1.66797 -0.0787,-1.00356 -0.9487,-1.67125 -1.83399,-1.6211 z m 48.61133,3.22071 2.7461,0 0,0.67578 0,0.67383 -8.09961,0 -8.10157,0 0,10.38086 0,10.3789 -0.20703,0.19532 -0.20898,0.19531 -15.58594,0 -15.58789,0 0,4.58979 0,4.5899 -3.55469,0 -3.55469,0 0,-4.5899 0,-4.58979 -9.179678,0 -9.17969,0 0,1.03519 0,1.0351 -2.02539,0 -2.02539,0 0,-3.28514 0,-3.28515 2.02539,0 2.02539,0 0,1.66601 0,1.66407 9.17969,0 9.179678,0 0,-4.58985 0,-4.58984 3.55469,0 3.55469,0 0,4.58984 0,4.58985 15.21094,0 15.20898,0 0,-10.39454 c 0,-10.275 0.004,-10.39825 0.18164,-10.57617 0.17625,-0.176 0.29945,-0.17968 5.93946,-0.17968 3.78,0 5.75976,-0.0307 5.75976,-0.0898 0,-0.058 0.97414,-0.0898 2.74414,-0.0898 z m -0.89844,2.70117 1.84375,0 0,0.76367 0,0.76563 -1.84375,0 c -1.17,0 -1.8457,-0.0327 -1.8457,-0.0898 0,-0.0585 -1.24468,-0.0898 -3.55469,-0.0898 l -3.55468,0 0,25.85932 0,25.85941 -0.20899,0.1953 -0.20898,0.1953 -17.38672,0 -17.38672,0 0,4.58991 0,4.5898 -3.55469,0 -3.55469,0 0,-4.5898 0,-4.58991 -8.999998,0 -9,0 0,1.3497 0,1.3496 -2.02539,0 -2.02343,0 0,-3.2832 0,-3.2852 2.02343,0 2.02539,0 0,1.3496 0,1.3496 9,0 8.999998,0 0,-4.58981 0,-4.5899 3.55469,0 3.55469,0 0,4.5899 0,4.58981 17.01172,0 17.00976,0 0,-25.87501 c 0,-25.75497 5.3e-4,-25.8755 0.17969,-26.05466 0.17455,-0.175 0.29867,-0.17968 4.13867,-0.17968 2.58001,0 3.96094,-0.0312 3.96094,-0.0898 0,-0.0571 0.67571,-0.0898 1.8457,-0.0898 z m 29.474612,0 1.8457,0 c 1.16999,0 1.84374,0.0327 1.84376,0.0898 0,0.0575 0.77499,0.0898 2.14453,0.0898 2.12505,0 2.14591,6e-4 2.33984,0.20703 0.19468,0.20673 0.19531,0.23669 0.19531,3.82617 l 0,3.61524 1.80078,0 1.79883,0 0,-1.30469 0,-1.30469 2.92578,0 2.92578,0 0,3.19531 0,3.19532 -2.92578,0 -2.92578,0 0,-1.30469 0,-1.30469 -1.79883,0 -1.80078,0 0,3.23828 0,3.24024 16.9043,0 16.90429,0 0.19726,0.20898 0.19531,0.20899 0,11.40042 c 0,10.7987 0.007,11.4022 0.15625,11.4023 0.32487,2e-4 1.25408,0.5347 1.66211,0.957 0.23267,0.2408 0.53525,0.6816 0.67383,0.9786 l 0.25196,0.539 0,4.1406 0,4.13871 -0.25391,0.5508 c -0.31957,0.6915 -1.02015,1.3908 -1.70508,1.7031 -0.57891,0.264 -1.58049,0.3667 -2.1582,0.2207 -0.95037,-0.2401 -1.85838,-1.0063 -2.29102,-1.9336 l -0.25195,-0.541 0,-4.13871 0,-4.1406 0.27931,-0.584 c 0.15318,-0.3217 0.45575,-0.7646 0.67381,-0.9824 0.38937,-0.3889 1.3248,-0.9082 1.63477,-0.9082 0.1495,-1e-4 0.15821,-0.5854 0.15821,-11.0254 l 0,-11.02537 -16.90429,0 -16.9043,0 -0.19727,-0.20703 -0.19531,-0.20899 0,-7.4414 0,-7.44141 -1.75391,0 c -1.10999,0 -1.75585,0.0329 -1.75585,0.0898 -3e-5,0.0571 -0.67377,0.0898 -1.84376,0.0898 l -1.8457,0 0,-0.76562 0,-0.76368 z m -21.558592,2.87891 0.63281,0 0.63477,0 -0.0352,17.91011 c -0.0297,15.1098 -0.016,17.9101 0.0879,17.9102 0.29469,2e-4 1.23874,0.5553 1.62695,0.957 0.23268,0.2408 0.53525,0.6815 0.67382,0.9785 l 0.25196,0.5391 0,4.1406 0,4.13871 -0.25391,0.5508 c -0.31956,0.6914 -1.02015,1.3908 -1.70507,1.7031 -0.57893,0.264 -1.5805,0.3666 -2.15821,0.2207 -0.95037,-0.2401 -1.85837,-1.0063 -2.29101,-1.9336 l -0.25195,-0.541 0,-4.13871 0,-4.1406 0.27929,-0.584 c 0.15319,-0.3217 0.45577,-0.7646 0.67383,-0.9824 0.41858,-0.4181 1.3307,-0.9082 1.68945,-0.9082 l 0.21485,0 -0.0352,-17.9102 -0.0352,-17.91011 z m 2.875,0 0.63867,0 0.63867,0 -0.0391,15.75 -0.0391,15.75001 2.607422,0 2.60547,0 0.19531,0.209 c 0.18769,0.2002 0.19531,0.2805 0.19531,2.1015 l 0,1.8946 0.49024,0.1 c 1.05864,0.2126 1.98596,0.9499 2.45312,1.9511 l 0.25196,0.5391 0,4.1406 0,4.13871 -0.25391,0.5508 c -0.31956,0.6914 -1.02016,1.3908 -1.70508,1.7031 -0.57893,0.264 -1.58049,0.3666 -2.1582,0.2207 -0.95038,-0.2401 -1.85838,-1.0064 -2.29102,-1.9336 l -0.25195,-0.541 0,-4.13871 0,-4.1406 0.27734,-0.584 c 0.33001,-0.695 0.94138,-1.3264 1.56641,-1.6191 l 0.45117,-0.2129 0,-1.6035 0,-1.6055 -2.59375,0 c -2.575182,0 -2.596312,0 -2.781252,-0.2031 l -0.18554,-0.2012 -0.0371,-16.13281 -0.0352,-16.13281 z m 2.785152,0 0.64454,0 0.64257,0 -0.041,14.17578 -0.043,14.17383 5.9375,0 5.93555,0 0.19726,0.209 c 0.19369,0.2065 0.19531,0.2373 0.19531,3.7343 0,3.2988 0.009,3.5273 0.15625,3.5274 0.32486,1e-4 1.25407,0.5347 1.66211,0.957 0.23268,0.2408 0.53526,0.6815 0.67383,0.9785 l 0.25196,0.5391 0,4.1406 0,4.13871 -0.25391,0.5508 c -0.31956,0.6914 -1.02016,1.3908 -1.70508,1.7031 -0.57893,0.264 -1.58049,0.3666 -2.1582,0.2207 -0.95038,-0.2401 -1.85838,-1.0063 -2.29102,-1.9336 l -0.25195,-0.541 0,-4.13871 0,-4.1406 0.2793,-0.584 c 0.15319,-0.3217 0.45576,-0.7646 0.67382,-0.9824 0.38936,-0.3889 1.3248,-0.9082 1.63477,-0.9082 0.147,-1e-4 0.1582,-0.2104 0.1582,-3.1504 l 0,-3.1504 -5.92578,0 -5.92383,0 -0.18554,-0.2012 c -0.18584,-0.2024 -0.18551,-0.2026 -0.22461,-14.75972 l -0.0391,-14.55859 z m 2.87305,0 0.65039,0 0.65039,0 -0.0469,12.59961 -0.0449,12.5996 8.99804,0 8.9961,0 0.19726,0.209 0.19531,0.209 0,5.1015 c 0,4.7988 0.008,5.1015 0.15625,5.1016 0.32487,1e-4 1.25407,0.5347 1.66211,0.957 0.23268,0.2408 0.53526,0.6815 0.67383,0.9785 l 0.25196,0.5391 0,4.1406 0,4.13871 -0.25391,0.5508 c -0.31957,0.6914 -1.02015,1.3908 -1.70508,1.7031 -0.57892,0.264 -1.58049,0.3666 -2.1582,0.2207 -0.95038,-0.2401 -1.85838,-1.0063 -2.29102,-1.9336 l -0.25195,-0.541 0,-4.13871 0,-4.1406 0.2793,-0.584 c 0.15319,-0.3217 0.45576,-0.7646 0.67382,-0.9824 0.38937,-0.3889 1.32481,-0.9082 1.63477,-0.9082 0.1475,-1e-4 0.1582,-0.2846 0.1582,-4.7246 l 0,-4.7246 -8.98437,0 -8.98438,0 -0.18554,-0.2032 c -0.1848,-0.2019 -0.18612,-0.2346 -0.22852,-13.18549 l -0.043,-12.98242 z m 2.7832,0 0.65821,0 0.65625,0 -0.0508,11.02539 -0.0488,11.02542 12.10156,0 12.10352,0 0.19726,0.207 0.19531,0.209 0,6.6758 c 0,6.2987 0.008,6.6776 0.15625,6.6777 0.32487,1e-4 1.25407,0.5347 1.66211,0.957 0.23268,0.2408 0.53526,0.6815 0.67383,0.9785 l 0.25196,0.5391 0,4.1406 0,4.13871 -0.25391,0.5508 c -0.31957,0.6914 -1.02015,1.3908 -1.70508,1.7031 -0.57892,0.264 -1.58049,0.3666 -2.1582,0.2207 -0.95038,-0.2401 -1.85838,-1.0063 -2.29102,-1.9336 l -0.25195,-0.541 0,-4.13871 0,-4.1406 0.2793,-0.584 c 0.15319,-0.3217 0.45576,-0.7646 0.67382,-0.9824 0.38937,-0.3889 1.32481,-0.9082 1.63477,-0.9082 0.1485,-1e-4 0.1582,-0.3608 0.1582,-6.3008 l 0,-6.2988 -12.08984,0 -12.08985,0 -0.18359,-0.2031 c -0.18375,-0.2015 -0.18612,-0.2626 -0.23242,-11.60941 l -0.0469,-11.4082 z m 2.86133,0 0.67578,0 0.67578,0 0,9.44921 0,9.4512 14.87891,0 14.8789,0 0.19531,0.209 0.19532,0.207 0,8.1953 0,8.1934 0.49024,0.1 c 1.05864,0.2126 1.98596,0.9499 2.45311,1.9511 l 0.25196,0.5391 0,4.1406 0,4.13871 -0.25391,0.5508 c -0.31957,0.6914 -1.02015,1.3908 -1.70508,1.7031 -0.57891,0.264 -1.58049,0.3666 -2.1582,0.2207 -0.95037,-0.2401 -1.85838,-1.0064 -2.29102,-1.9336 l -0.25195,-0.541 0,-4.13871 0,-4.1406 0.27735,-0.584 c 0.33,-0.695 0.94137,-1.3264 1.5664,-1.6191 l 0.45117,-0.2129 0,-7.9043 0,-7.9043 -14.8789,0 -14.8789,0 -0.19531,-0.209 -0.19727,-0.207 0,-7.08206 c 0,-4.66113 -0.0306,-7.08203 -0.0898,-7.08203 -0.058,0 -0.0898,-0.97414 -0.0898,-2.74414 l 0,-2.74609 z m -17.099612,1.80078 0.76563,0 0.76367,0 0,1.84375 c 0,1.17 -0.0328,1.8457 -0.0898,1.8457 -0.0595,0 -0.0898,3.4746 -0.0898,10.24414 l 0,10.24414 -0.20703,0.1953 c -0.20509,0.1927 -0.25394,0.1973 -3.15039,0.1973 l -2.94141,0 0,4.7246 c 0,4.44 0.008,4.7245 0.15625,4.7246 0.32487,1e-4 1.25407,0.5347 1.66211,0.957 0.23268,0.2408 0.53526,0.6815 0.67383,0.9785 l 0.25195,0.5391 0,4.1406 0,4.13871 -0.2539,0.5508 c -0.31956,0.6914 -1.02015,1.3908 -1.70508,1.7031 -0.57892,0.264 -1.5805,0.3666 -2.1582,0.2207 -0.95038,-0.2401 -1.85838,-1.0063 -2.29102,-1.9336 l -0.25195,-0.541 0,-4.13871 0,-4.1406 0.2793,-0.584 c 0.15318,-0.3217 0.45576,-0.7646 0.67382,-0.9824 0.38937,-0.3889 1.3248,-0.9082 1.63477,-0.9082 0.1482,-1e-4 0.1582,-0.3052 0.1582,-5.1309 0,-5.01 0.004,-5.1328 0.17969,-5.3086 0.17273,-0.173 0.30039,-0.1816 3.15039,-0.1816 l 2.96875,0 0,-9.85351 c 0,-6.51 -0.0304,-9.85547 -0.0898,-9.85547 -0.0571,0 -0.0898,-0.67571 -0.0898,-1.8457 l 0,-1.84375 z m 19.800782,0 0.76368,0 0.76562,0 0,1.84375 c 0,1.17 -0.0327,1.8457 -0.0898,1.8457 -0.0589,0 -0.0898,1.77086 -0.0898,5.13086 l 0,5.12891 18.25391,0 18.2539,0 0.19726,0.20898 0.19531,0.20703 0,9.8281 c 0,9.2987 0.007,9.8261 0.15625,9.8262 0.32487,1e-4 1.25408,0.5347 1.66211,0.957 0.23268,0.2408 0.53527,0.6815 0.67383,0.9785 l 0.25196,0.5391 0,4.1406 0,4.13871 -0.25391,0.5508 c -0.31957,0.6914 -1.02015,1.3908 -1.70508,1.7031 -0.57891,0.264 -1.58049,0.3666 -2.1582,0.2207 -0.95037,-0.2401 -1.85838,-1.0063 -2.29102,-1.9336 l -0.25195,-0.541 0,-4.13871 0,-4.1406 0.27931,-0.584 c 0.15318,-0.3217 0.45575,-0.7646 0.67381,-0.9824 0.38937,-0.3889 1.3248,-0.9082 1.63477,-0.9082 0.1495,-1e-4 0.15821,-0.5093 0.15821,-9.4492 l 0,-9.45119 -18.25586,0 -18.2539,0 -0.19532,-0.20899 -0.19531,-0.20703 0,-5.50781 c 0,-3.61113 -0.0308,-5.50586 -0.0898,-5.50586 -0.0571,0 -0.0898,-0.67571 -0.0898,-1.8457 l 0,-1.84375 z m 26.72851,0.53906 2.92578,0 2.92579,0 0,1.30469 0,1.30468 11.63866,0 11.63868,0 0.19726,0.20899 0.19531,0.20898 0,26.95503 0,26.95712 -0.20898,0.1953 -0.20897,0.1953 -5.37111,0 -5.37108,0 0,1.3047 0,1.3047 -2.92578,0 -2.92384,0 0,-3.1934 0,-3.1953 2.92384,0 2.92578,0 0,1.3047 0,1.3047 4.99413,0 4.9961,0 0,-26.18952 0,-26.18942 -11.25,0 -11.25,0 0,1.30469 0,1.30468 -2.92579,0 -2.92578,0 0,-3.19531 0,-3.19531 z m -52.166002,38.35937 c -0.2951,0.017 -0.59162,0.1128 -0.86133,0.3027 -1.10973,0.7817 -1.0074,2.3423 0.19726,2.9864 1.15008,0.6149 2.60114,-0.3535 2.49805,-1.668 -0.0787,-1.0036 -0.9487,-1.6713 -1.83398,-1.6211 z m 9,0 c -0.2951,0.017 -0.59162,0.1128 -0.86133,0.3027 -1.10973,0.7817 -1.0074,2.3423 0.19726,2.9864 1.15008,0.6149 2.60114,-0.3535 2.49805,-1.668 -0.0787,-1.0036 -0.9487,-1.6713 -1.83398,-1.6211 z m 8.999992,0 c -0.29509,0.017 -0.59162,0.1128 -0.86132,0.3027 -1.10973,0.7817 -1.00544,2.3423 0.19921,2.9864 1.15007,0.6149 2.59919,-0.3535 2.4961,-1.668 -0.0787,-1.0036 -0.9487,-1.6713 -1.83399,-1.6211 z m 9,0 c -0.29509,0.017 -0.59162,0.1128 -0.86132,0.3027 -1.10973,0.7817 -1.00544,2.3423 0.19921,2.9864 1.15007,0.6149 2.59919,-0.3535 2.4961,-1.668 -0.0787,-1.0036 -0.9487,-1.6713 -1.83399,-1.6211 z m 9,0 c -0.29509,0.017 -0.59162,0.1128 -0.86132,0.3027 -1.10973,0.7817 -1.00739,2.3423 0.19726,2.9864 1.15008,0.6149 2.60114,-0.3535 2.49805,-1.668 -0.0787,-1.0036 -0.9487,-1.6713 -1.83399,-1.6211 z m 9,0 c -0.29509,0.017 -0.59162,0.1128 -0.86132,0.3027 -1.10973,0.7817 -1.00739,2.3423 0.19726,2.9864 1.15008,0.6149 2.60114,-0.3535 2.49805,-1.668 -0.0787,-1.0036 -0.9487,-1.6713 -1.83399,-1.6211 z m 8.99999,0 c -0.29508,0.017 -0.59162,0.1128 -0.86132,0.3027 -1.10972,0.7817 -1.0074,2.3423 0.19726,2.9864 1.15008,0.6149 2.60115,-0.3535 2.49805,-1.668 -0.0787,-1.0036 -0.9487,-1.6713 -1.83399,-1.6211 z m 9,0 c -0.29508,0.017 -0.59162,0.1128 -0.86132,0.3027 -1.10972,0.7817 -1.0074,2.3423 0.19726,2.9864 1.15008,0.6149 2.60115,-0.3535 2.49805,-1.668 -0.0787,-1.0036 -0.9487,-1.6713 -1.83399,-1.6211 z m 9,0 c -0.29508,0.017 -0.59162,0.1128 -0.86132,0.3027 -1.10972,0.7817 -1.0074,2.3423 0.19726,2.9864 1.15008,0.6149 2.60115,-0.3535 2.49805,-1.668 -0.0787,-1.0036 -0.9487,-1.6713 -1.83399,-1.6211 z"
     id="path3433" />
  <flowRoot
     xml:space="preserve"
     id="flowRoot4706-6-1"
     style="font-style:normal;font-variant:normal;font-weight:normal;font-stretch:normal;font-size:40px;line-height:125%;font-family:Purisa;-inkscape-font-specification:'Purisa, Normal';text-align:start;letter-spacing:0px;word-spacing:0px;writing-mode:lr-tb;text-anchor:start;fill:#000000;fill-opacity:1;stroke:none;stroke-width:1px;stroke-linecap:butt;stroke-linejoin:miter;stroke-opacity:1"
     transform="translate(280.00718,-333.89415)"><flowRegion
       id="flowRegion4708-3-2"><rect
         id="rect4710-7-4"
         width="184.85791"
         height="101.01526"
         x="163.64471"
         y="-84.572792"
         style="font-style:normal;font-variant:normal;font-weight:normal;font-stretch:normal;font-size:40px;line-height:125%;font-family:Purisa;-inkscape-font-specification:'Purisa, Normal';text-align:start;writing-mode:lr-tb;text-anchor:start" /></flowRegion><flowPara
       id="flowPara4742-4"
       style="font-style:normal;font-variant:normal;font-weight:normal;font-stretch:normal;font-size:43.33374786px;line-height:89.99999762%;font-family:monospace;-inkscape-font-specification:'monospace, Normal';text-align:center;writing-mode:lr-tb;text-anchor:middle" /></flowRoot>  <flowRoot
     xml:space="preserve"
     id="flowRoot4706-6-1-8"
     style="font-style:normal;font-variant:normal;font-weight:normal;font-stretch:normal;font-size:40px;line-height:125%;font-family:Purisa;-inkscape-font-specification:'Purisa, Normal';text-align:start;letter-spacing:0px;word-spacing:0px;writing-mode:lr-tb;text-anchor:start;fill:#000000;fill-opacity:1;stroke:none;stroke-width:1px;stroke-linecap:butt;stroke-linejoin:miter;stroke-opacity:1"
     transform="translate(191.41694,-442.48204)"><flowRegion
       id="flowRegion4708-3-2-0"><rect
         id="rect4710-7-4-9"
         width="184.85791"
         height="101.01526"
         x="163.64471"
         y="-84.572792"
         style="font-style:normal;font-variant:normal;font-weight:normal;font-stretch:normal;font-size:40px;line-height:125%;font-family:Purisa;-inkscape-font-specification:'Purisa, Normal';text-align:start;writing-mode:lr-tb;text-anchor:start" /></flowRegion><flowPara
       id="flowPara4742-4-5"
       style="font-style:normal;font-variant:normal;font-weight:normal;font-stretch:normal;font-size:43.33374786px;line-height:89.99999762%;font-family:monospace;-inkscape-font-specification:'monospace, Normal';text-align:center;writing-mode:lr-tb;text-anchor:middle" /></flowRoot>  <text
     sodipodi:linespacing="125%"
     xml:space="preserve"
     style="font-style:normal;font-weight:normal;font-size:40px;line-height:125%;font-family:sans-serif;letter-spacing:0px;word-spacing:0px;fill:#000000;fill-opacity:1;stroke:none;stroke-width:1px;stroke-linecap:butt;stroke-linejoin:miter;stroke-opacity:1"
     x="117.28183"
     y="-369.0484"
     id="text4243"><tspan
       id="tspan4245"
       x="117.28183"
       y="-369.0484" /></text>
  <rect
     style="fill:#ffffff;fill-opacity:1;stroke:none;stroke-width:0.35433072;stroke-miterlimit:4;stroke-dasharray:none;stroke-opacity:1"
     id="rect4835"
     width="0"
     height="123.11785"
     x="463.22394"
     y="-310.89923" />
  <text
     xml:space="preserve"
     style="font-style:normal;font-weight:normal;font-size:40px;line-height:125%;font-family:sans-serif;letter-spacing:0px;word-spacing:0px;fill:#000000;fill-opacity:1;stroke:none;stroke-width:1px;stroke-linecap:butt;stroke-linejoin:miter;stroke-opacity:1"
     x="70.156258"
     y="10.9972"
     id="text3417"
     sodipodi:linespacing="125%"><tspan
       sodipodi:role="line"
       id="tspan3419"
       x="70.156258"
       y="10.9972"
       style="font-style:normal;font-variant:normal;font-weight:normal;font-stretch:normal;font-size:2.5px;line-height:125%;font-family:monospace;-inkscape-font-specification:'monospace, Normal';text-align:start;writing-mode:lr-tb;text-anchor:start;fill:#ffffff">0(RX)</tspan></text>
  <text
     xml:space="preserve"
     style="font-style:normal;font-weight:normal;font-size:40px;line-height:125%;font-family:sans-serif;letter-spacing:0px;word-spacing:0px;fill:#000000;fill-opacity:1;stroke:none;stroke-width:1px;stroke-linecap:butt;stroke-linejoin:miter;stroke-opacity:1"
     x="61.512478"
     y="10.9972"
     id="text3417-0"
     sodipodi:linespacing="125%"><tspan
       sodipodi:role="line"
       id="tspan3419-6"
       x="61.512478"
       y="10.9972"
       style="font-style:normal;font-variant:normal;font-weight:normal;font-stretch:normal;font-size:2.5px;line-height:125%;font-family:monospace;-inkscape-font-specification:'monospace, Normal';text-align:start;writing-mode:lr-tb;text-anchor:start;fill:#ffffff">1(TX)</tspan></text>
  <text
     xml:space="preserve"
     style="font-style:normal;font-weight:normal;font-size:40px;line-height:125%;font-family:sans-serif;letter-spacing:0px;word-spacing:0px;fill:#000000;fill-opacity:1;stroke:none;stroke-width:1px;stroke-linecap:butt;stroke-linejoin:miter;stroke-opacity:1"
     x="55.180069"
     y="11.141243"
     id="text3417-0-5"
     sodipodi:linespacing="125%"><tspan
       sodipodi:role="line"
       id="tspan3419-6-4"
       x="55.180069"
       y="11.141243"
       style="font-style:normal;font-variant:normal;font-weight:normal;font-stretch:normal;font-size:2.5px;line-height:125%;font-family:monospace;-inkscape-font-specification:'monospace, Normal';text-align:start;writing-mode:lr-tb;text-anchor:start;fill:#ffffff">2</tspan></text>
  <text
     xml:space="preserve"
     style="font-style:normal;font-weight:normal;font-size:40px;line-height:125%;font-family:sans-serif;letter-spacing:0px;word-spacing:0px;fill:#000000;fill-opacity:1;stroke:none;stroke-width:1px;stroke-linecap:butt;stroke-linejoin:miter;stroke-opacity:1"
     x="45.936367"
     y="11.123543"
     id="text3417-0-5-7"
     sodipodi:linespacing="125%"><tspan
       sodipodi:role="line"
       id="tspan3419-6-4-3"
       x="45.936367"
       y="11.123543"
       style="font-style:normal;font-variant:normal;font-weight:normal;font-stretch:normal;font-size:2.5px;line-height:125%;font-family:monospace;-inkscape-font-specification:'monospace, Normal';text-align:start;writing-mode:lr-tb;text-anchor:start;fill:#ffffff">3</tspan></text>
  <text
     xml:space="preserve"
     style="font-style:normal;font-weight:normal;font-size:40px;line-height:125%;font-family:sans-serif;letter-spacing:0px;word-spacing:0px;fill:#000000;fill-opacity:1;stroke:none;stroke-width:1px;stroke-linecap:butt;stroke-linejoin:miter;stroke-opacity:1"
     x="37.09586"
     y="11.124763"
     id="text3417-0-5-7-2"
     sodipodi:linespacing="125%"><tspan
       sodipodi:role="line"
       id="tspan3419-6-4-3-4"
       x="37.09586"
       y="11.124763"
       style="font-style:normal;font-variant:normal;font-weight:normal;font-stretch:normal;font-size:2.5px;line-height:125%;font-family:monospace;-inkscape-font-specification:'monospace, Normal';text-align:start;writing-mode:lr-tb;text-anchor:start;fill:#ffffff">4</tspan></text>
  <text
     xml:space="preserve"
     style="font-style:normal;font-weight:normal;font-size:40px;line-height:125%;font-family:sans-serif;letter-spacing:0px;word-spacing:0px;fill:#000000;fill-opacity:1;stroke:none;stroke-width:1px;stroke-linecap:butt;stroke-linejoin:miter;stroke-opacity:1"
     x="22.193409"
     y="13.382199"
     id="text3417-0-5-7-2-5"
     sodipodi:linespacing="125%"><tspan
       sodipodi:role="line"
       id="tspan3419-6-4-3-4-6"
       x="22.193409"
       y="13.382199"
       style="font-style:normal;font-variant:normal;font-weight:normal;font-stretch:normal;font-size:1.875px;line-height:125%;font-family:monospace;-inkscape-font-specification:'monospace, Normal';text-align:start;writing-mode:lr-tb;text-anchor:start;fill:#ffffff">RSTP</tspan></text>
  <text
     xml:space="preserve"
     style="font-style:normal;font-weight:normal;font-size:40px;line-height:125%;font-family:sans-serif;letter-spacing:0px;word-spacing:0px;fill:#000000;fill-opacity:1;stroke:none;stroke-width:1px;stroke-linecap:butt;stroke-linejoin:miter;stroke-opacity:1"
     x="83.673141"
     y="11.434492"
     id="text3417-0-5-7-2-4"
     sodipodi:linespacing="125%"><tspan
       sodipodi:role="line"
       id="tspan3419-6-4-3-4-7"
       x="83.673141"
       y="11.434492"
       style="font-style:normal;font-variant:normal;font-weight:normal;font-stretch:normal;font-size:1.875px;line-height:125%;font-family:monospace;-inkscape-font-specification:'monospace, Normal';text-align:start;writing-mode:lr-tb;text-anchor:start;fill:#ffffff">RSTF</tspan></text>
  <text
     xml:space="preserve"
     style="font-style:normal;font-weight:normal;font-size:40px;line-height:125%;font-family:sans-serif;letter-spacing:0px;word-spacing:0px;fill:#000000;fill-opacity:1;stroke:none;stroke-width:1px;stroke-linecap:butt;stroke-linejoin:miter;stroke-opacity:1"
     x="92.339745"
     y="8.1822853"
     id="text3417-0-8"
     sodipodi:linespacing="125%"><tspan
       sodipodi:role="line"
       id="tspan3419-6-5"
       x="92.339745"
       y="8.1822853"
       style="font-style:normal;font-variant:normal;font-weight:normal;font-stretch:normal;font-size:2.5px;line-height:125%;font-family:monospace;-inkscape-font-specification:'monospace, Normal';text-align:center;writing-mode:lr-tb;text-anchor:middle;fill:#ffffff">A5</tspan><tspan
       sodipodi:role="line"
       x="92.339745"
       y="11.307285"
       style="font-style:normal;font-variant:normal;font-weight:normal;font-stretch:normal;font-size:2.5px;line-height:125%;font-family:monospace;-inkscape-font-specification:'monospace, Normal';text-align:start;writing-mode:lr-tb;text-anchor:start;fill:#ffffff"
       id="tspan3766"><tspan
   style="text-align:center;text-anchor:middle"
   id="tspan3770">(SDA</tspan>)</tspan></text>
  <text
     xml:space="preserve"
     style="font-style:normal;font-weight:normal;font-size:40px;line-height:125%;font-family:sans-serif;letter-spacing:0px;word-spacing:0px;fill:#000000;fill-opacity:1;stroke:none;stroke-width:1px;stroke-linecap:butt;stroke-linejoin:miter;stroke-opacity:1"
     x="100.4939"
     y="8.1822853"
     id="text3417-0-8-5"
     sodipodi:linespacing="125%"><tspan
       sodipodi:role="line"
       id="tspan3419-6-5-2"
       x="100.4939"
       y="8.1822853"
       style="font-style:normal;font-variant:normal;font-weight:normal;font-stretch:normal;font-size:2.5px;line-height:125%;font-family:monospace;-inkscape-font-specification:'monospace, Normal';text-align:center;writing-mode:lr-tb;text-anchor:middle;fill:#ffffff">A4</tspan><tspan
       sodipodi:role="line"
       x="100.4939"
       y="11.307285"
       style="font-style:normal;font-variant:normal;font-weight:normal;font-stretch:normal;font-size:2.5px;line-height:125%;font-family:monospace;-inkscape-font-specification:'monospace, Normal';text-align:center;writing-mode:lr-tb;text-anchor:middle;fill:#ffffff"
       id="tspan3768">(SCL)</tspan></text>
  <text
     xml:space="preserve"
     style="font-style:normal;font-weight:normal;font-size:40px;line-height:125%;font-family:sans-serif;letter-spacing:0px;word-spacing:0px;fill:#000000;fill-opacity:1;stroke:none;stroke-width:1px;stroke-linecap:butt;stroke-linejoin:miter;stroke-opacity:1"
     x="108.42633"
     y="9.9083595"
     id="text3417-0-8-5-2"
     sodipodi:linespacing="125%"><tspan
       sodipodi:role="line"
       id="tspan3419-6-5-2-4"
       x="108.42633"
       y="9.9083595"
       style="font-style:normal;font-variant:normal;font-weight:normal;font-stretch:normal;font-size:2.5px;line-height:125%;font-family:monospace;-inkscape-font-specification:'monospace, Normal';text-align:start;writing-mode:lr-tb;text-anchor:start;fill:#ffffff">A3</tspan></text>
  <text
     xml:space="preserve"
     style="font-style:normal;font-weight:normal;font-size:40px;line-height:125%;font-family:sans-serif;letter-spacing:0px;word-spacing:0px;fill:#000000;fill-opacity:1;stroke:none;stroke-width:1px;stroke-linecap:butt;stroke-linejoin:miter;stroke-opacity:1"
     x="117.23772"
     y="9.9260597"
     id="text3417-0-8-5-2-4"
     sodipodi:linespacing="125%"><tspan
       sodipodi:role="line"
       id="tspan3419-6-5-2-4-9"
       x="117.23772"
       y="9.9260597"
       style="font-style:normal;font-variant:normal;font-weight:normal;font-stretch:normal;font-size:2.5px;line-height:125%;font-family:monospace;-inkscape-font-specification:'monospace, Normal';text-align:start;writing-mode:lr-tb;text-anchor:start;fill:#ffffff">A2</tspan></text>
  <text
     xml:space="preserve"
     style="font-style:normal;font-weight:normal;font-size:40px;line-height:125%;font-family:sans-serif;letter-spacing:0px;word-spacing:0px;fill:#000000;fill-opacity:1;stroke:none;stroke-width:1px;stroke-linecap:butt;stroke-linejoin:miter;stroke-opacity:1"
     x="125.97423"
     y="9.9095802"
     id="text3417-0-8-5-2-8"
     sodipodi:linespacing="125%"><tspan
       sodipodi:role="line"
       id="tspan3419-6-5-2-4-0"
       x="125.97423"
       y="9.9095802"
       style="font-style:normal;font-variant:normal;font-weight:normal;font-stretch:normal;font-size:2.5px;line-height:125%;font-family:monospace;-inkscape-font-specification:'monospace, Normal';text-align:start;writing-mode:lr-tb;text-anchor:start;fill:#ffffff">A1</tspan></text>
  <text
     xml:space="preserve"
     style="font-style:normal;font-weight:normal;font-size:40px;line-height:125%;font-family:sans-serif;letter-spacing:0px;word-spacing:0px;fill:#000000;fill-opacity:1;stroke:none;stroke-width:1px;stroke-linecap:butt;stroke-linejoin:miter;stroke-opacity:1"
     x="135.03429"
     y="9.9083595"
     id="text3417-0-8-5-2-41"
     sodipodi:linespacing="125%"><tspan
       sodipodi:role="line"
       id="tspan3419-6-5-2-4-03"
       x="135.03429"
       y="9.9083595"
       style="font-style:normal;font-variant:normal;font-weight:normal;font-stretch:normal;font-size:2.5px;line-height:125%;font-family:monospace;-inkscape-font-specification:'monospace, Normal';text-align:start;writing-mode:lr-tb;text-anchor:start;fill:#ffffff">A0</tspan></text>
  <text
     xml:space="preserve"
     style="font-style:normal;font-weight:normal;font-size:40px;line-height:125%;font-family:sans-serif;letter-spacing:0px;word-spacing:0px;fill:#000000;fill-opacity:1;stroke:none;stroke-width:1px;stroke-linecap:butt;stroke-linejoin:miter;stroke-opacity:1"
     x="141.30353"
     y="9.7820168"
     id="text3417-0-8-5-2-3"
     sodipodi:linespacing="125%"><tspan
       sodipodi:role="line"
       id="tspan3419-6-5-2-4-8"
       x="141.30353"
       y="9.7820168"
       style="font-style:normal;font-variant:normal;font-weight:normal;font-stretch:normal;font-size:2.5px;line-height:125%;font-family:monospace;-inkscape-font-specification:'monospace, Normal';text-align:start;writing-mode:lr-tb;text-anchor:start;fill:#ffffff">(ADC6)</tspan></text>
  <text
     xml:space="preserve"
     style="font-style:normal;font-weight:normal;font-size:40px;line-height:125%;font-family:sans-serif;letter-spacing:0px;word-spacing:0px;fill:#000000;fill-opacity:1;stroke:none;stroke-width:1px;stroke-linecap:butt;stroke-linejoin:miter;stroke-opacity:1"
     x="150.5882"
     y="9.7820168"
     id="text3417-0-8-5-2-84"
     sodipodi:linespacing="125%"><tspan
       sodipodi:role="line"
       id="tspan3419-6-5-2-4-1"
       x="150.5882"
       y="9.7820168"
       style="font-style:normal;font-variant:normal;font-weight:normal;font-stretch:normal;font-size:2.5px;line-height:125%;font-family:monospace;-inkscape-font-specification:'monospace, Normal';text-align:start;writing-mode:lr-tb;text-anchor:start;fill:#ffffff">(ADC7)</tspan></text>
  <text
     xml:space="preserve"
     style="font-style:normal;font-weight:normal;font-size:40px;line-height:125%;font-family:sans-serif;letter-spacing:0px;word-spacing:0px;fill:#000000;fill-opacity:1;stroke:none;stroke-width:1px;stroke-linecap:butt;stroke-linejoin:miter;stroke-opacity:1"
     x="86.246002"
     y="135.65457"
     id="text3417-0-5-7-2-0"
     sodipodi:linespacing="125%"><tspan
       sodipodi:role="line"
       id="tspan3419-6-4-3-4-2"
       x="86.246002"
       y="135.65457"
       style="font-style:normal;font-variant:normal;font-weight:normal;font-stretch:normal;font-size:2.5px;line-height:125%;font-family:monospace;-inkscape-font-specification:'monospace, Normal';text-align:start;writing-mode:lr-tb;text-anchor:start;fill:#ffffff">5</tspan></text>
  <text
     xml:space="preserve"
     style="font-style:normal;font-weight:normal;font-size:40px;line-height:125%;font-family:sans-serif;letter-spacing:0px;word-spacing:0px;fill:#000000;fill-opacity:1;stroke:none;stroke-width:1px;stroke-linecap:butt;stroke-linejoin:miter;stroke-opacity:1"
     x="95.34156"
     y="135.67105"
     id="text3417-0-5-7-2-0-7"
     sodipodi:linespacing="125%"><tspan
       sodipodi:role="line"
       id="tspan3419-6-4-3-4-2-6"
       x="95.34156"
       y="135.67105"
       style="font-style:normal;font-variant:normal;font-weight:normal;font-stretch:normal;font-size:2.5px;line-height:125%;font-family:monospace;-inkscape-font-specification:'monospace, Normal';text-align:start;writing-mode:lr-tb;text-anchor:start;fill:#ffffff">6</tspan></text>
  <text
     xml:space="preserve"
     style="font-style:normal;font-weight:normal;font-size:40px;line-height:125%;font-family:sans-serif;letter-spacing:0px;word-spacing:0px;fill:#000000;fill-opacity:1;stroke:none;stroke-width:1px;stroke-linecap:butt;stroke-linejoin:miter;stroke-opacity:1"
     x="104.56342"
     y="135.67227"
     id="text3417-0-5-7-2-0-0"
     sodipodi:linespacing="125%"><tspan
       sodipodi:role="line"
       id="tspan3419-6-4-3-4-2-2"
       x="104.56342"
       y="135.67227"
       style="font-style:normal;font-variant:normal;font-weight:normal;font-stretch:normal;font-size:2.5px;line-height:125%;font-family:monospace;-inkscape-font-specification:'monospace, Normal';text-align:start;writing-mode:lr-tb;text-anchor:start;fill:#ffffff">7</tspan></text>
  <text
     xml:space="preserve"
     style="font-style:normal;font-weight:normal;font-size:40px;line-height:125%;font-family:sans-serif;letter-spacing:0px;word-spacing:0px;fill:#000000;fill-opacity:1;stroke:none;stroke-width:1px;stroke-linecap:butt;stroke-linejoin:miter;stroke-opacity:1"
     x="113.62348"
     y="135.67105"
     id="text3417-0-5-7-2-0-9"
     sodipodi:linespacing="125%"><tspan
       sodipodi:role="line"
       id="tspan3419-6-4-3-4-2-68"
       x="113.62348"
       y="135.67105"
       style="font-style:normal;font-variant:normal;font-weight:normal;font-stretch:normal;font-size:2.5px;line-height:125%;font-family:monospace;-inkscape-font-specification:'monospace, Normal';text-align:start;writing-mode:lr-tb;text-anchor:start;fill:#ffffff">8</tspan></text>
  <text
     xml:space="preserve"
     style="font-style:normal;font-weight:normal;font-size:40px;line-height:125%;font-family:sans-serif;letter-spacing:0px;word-spacing:0px;fill:#000000;fill-opacity:1;stroke:none;stroke-width:1px;stroke-linecap:butt;stroke-linejoin:miter;stroke-opacity:1"
     x="122.64313"
     y="135.67105"
     id="text3417-0-5-7-2-0-5"
     sodipodi:linespacing="125%"><tspan
       sodipodi:role="line"
       id="tspan3419-6-4-3-4-2-3"
       x="122.64313"
       y="135.67105"
       style="font-style:normal;font-variant:normal;font-weight:normal;font-stretch:normal;font-size:2.5px;line-height:125%;font-family:monospace;-inkscape-font-specification:'monospace, Normal';text-align:start;writing-mode:lr-tb;text-anchor:start;fill:#ffffff">9</tspan></text>
  <text
     xml:space="preserve"
     style="font-style:normal;font-weight:normal;font-size:40px;line-height:125%;font-family:sans-serif;letter-spacing:0px;word-spacing:0px;fill:#000000;fill-opacity:1;stroke:none;stroke-width:1px;stroke-linecap:butt;stroke-linejoin:miter;stroke-opacity:1"
     x="130.69205"
     y="135.67105"
     id="text3417-0-5-7-2-0-55"
     sodipodi:linespacing="125%"><tspan
       sodipodi:role="line"
       id="tspan3419-6-4-3-4-2-8"
       x="130.69205"
       y="135.67105"
       style="font-style:normal;font-variant:normal;font-weight:normal;font-stretch:normal;font-size:2.5px;line-height:125%;font-family:monospace;-inkscape-font-specification:'monospace, Normal';text-align:start;writing-mode:lr-tb;text-anchor:start;fill:#ffffff">10</tspan></text>
  <text
     xml:space="preserve"
     style="font-style:normal;font-weight:normal;font-size:40px;line-height:125%;font-family:sans-serif;letter-spacing:0px;word-spacing:0px;fill:#000000;fill-opacity:1;stroke:none;stroke-width:1px;stroke-linecap:butt;stroke-linejoin:miter;stroke-opacity:1"
     x="140.98256"
     y="134.94423"
     id="text3417-0-5-7-2-0-3"
     sodipodi:linespacing="125%"><tspan
       sodipodi:role="line"
       id="tspan3419-6-4-3-4-2-7"
       x="140.98256"
       y="134.94423"
       style="font-style:normal;font-variant:normal;font-weight:normal;font-stretch:normal;font-size:2.5px;line-height:125%;font-family:monospace;-inkscape-font-specification:'monospace, Normal';text-align:center;writing-mode:lr-tb;text-anchor:middle;fill:#ffffff">11</tspan><tspan
       sodipodi:role="line"
       x="140.98256"
       y="138.06923"
       style="font-style:normal;font-variant:normal;font-weight:normal;font-stretch:normal;font-size:2.5px;line-height:125%;font-family:monospace;-inkscape-font-specification:'monospace, Normal';text-align:center;writing-mode:lr-tb;text-anchor:middle;fill:#ffffff"
       id="tspan3760">(MOSI)</tspan></text>
  <text
     xml:space="preserve"
     style="font-style:normal;font-weight:normal;font-size:40px;line-height:125%;font-family:sans-serif;text-align:center;letter-spacing:0px;word-spacing:0px;text-anchor:middle;fill:#000000;fill-opacity:1;stroke:none;stroke-width:1px;stroke-linecap:butt;stroke-linejoin:miter;stroke-opacity:1"
     x="150.06285"
     y="135.0416"
     id="text3417-0-5-7-2-0-2"
     sodipodi:linespacing="125%"><tspan
       sodipodi:role="line"
       id="tspan3419-6-4-3-4-2-9"
       x="150.06285"
       y="135.0416"
       style="font-style:normal;font-variant:normal;font-weight:normal;font-stretch:normal;font-size:2.5px;line-height:125%;font-family:monospace;-inkscape-font-specification:'monospace, Normal';text-align:center;writing-mode:lr-tb;text-anchor:middle;fill:#ffffff">12</tspan><tspan
       sodipodi:role="line"
       x="150.06285"
       y="138.1666"
       style="font-style:normal;font-variant:normal;font-weight:normal;font-stretch:normal;font-size:2.5px;line-height:125%;font-family:monospace;-inkscape-font-specification:'monospace, Normal';text-align:center;writing-mode:lr-tb;text-anchor:middle;fill:#ffffff"
       id="tspan3762">(MISO)</tspan></text>
  <text
     xml:space="preserve"
     style="font-style:normal;font-weight:normal;font-size:40px;line-height:125%;font-family:sans-serif;text-align:center;letter-spacing:0px;word-spacing:0px;text-anchor:middle;fill:#000000;fill-opacity:1;stroke:none;stroke-width:1px;stroke-linecap:butt;stroke-linejoin:miter;stroke-opacity:1"
     x="159.09903"
     y="134.78122"
     id="text3417-0-5-7-2-0-1"
     sodipodi:linespacing="125%"><tspan
       sodipodi:role="line"
       id="tspan3419-6-4-3-4-2-1"
       x="159.09903"
       y="134.78122"
       style="font-style:normal;font-variant:normal;font-weight:normal;font-stretch:normal;font-size:2.5px;line-height:125%;font-family:monospace;-inkscape-font-specification:'monospace, Normal';text-align:center;writing-mode:lr-tb;text-anchor:middle;fill:#ffffff">13</tspan><tspan
       sodipodi:role="line"
       x="159.09903"
       y="137.90622"
       style="font-style:normal;font-variant:normal;font-weight:normal;font-stretch:normal;font-size:2.5px;line-height:125%;font-family:monospace;-inkscape-font-specification:'monospace, Normal';text-align:center;writing-mode:lr-tb;text-anchor:middle;fill:#ffffff"
       id="tspan3764">(SCK)</tspan></text>
  <text
     xml:space="preserve"
     style="font-style:normal;font-weight:normal;font-size:40px;line-height:125%;font-family:sans-serif;letter-spacing:0px;word-spacing:0px;fill:#000000;fill-opacity:1;stroke:none;stroke-width:1px;stroke-linecap:butt;stroke-linejoin:miter;stroke-opacity:1"
     x="38.66098"
     y="81.490891"
     id="text3417-0-5-7-2-0-7-7"
     sodipodi:linespacing="125%"><tspan
       sodipodi:role="line"
       id="tspan3419-6-4-3-4-2-6-4"
       x="38.66098"
       y="81.490891"
       style="font-style:normal;font-variant:normal;font-weight:normal;font-stretch:normal;font-size:2.5px;line-height:125%;font-family:monospace;-inkscape-font-specification:'monospace, Normal';text-align:start;writing-mode:lr-tb;text-anchor:start;fill:#ffffff">5V</tspan></text>
  <text
     xml:space="preserve"
     style="font-style:normal;font-weight:normal;font-size:40px;line-height:125%;font-family:sans-serif;letter-spacing:0px;word-spacing:0px;fill:#000000;fill-opacity:1;stroke:none;stroke-width:1px;stroke-linecap:butt;stroke-linejoin:miter;stroke-opacity:1"
     x="37.976776"
     y="63.129574"
     id="text3417-0-5-7-2-0-7-5"
     sodipodi:linespacing="125%"><tspan
       sodipodi:role="line"
       id="tspan3419-6-4-3-4-2-6-0"
       x="37.976776"
       y="63.129574"
       style="font-style:normal;font-variant:normal;font-weight:normal;font-stretch:normal;font-size:2.5px;line-height:125%;font-family:monospace;-inkscape-font-specification:'monospace, Normal';text-align:start;writing-mode:lr-tb;text-anchor:start;fill:#ffffff">GND</tspan></text>
</svg>
