<?xml version="1.0" encoding="UTF-8" standalone="no"?>
<svg
   xmlns:dc="http://purl.org/dc/elements/1.1/"
   xmlns:cc="http://creativecommons.org/ns#"
   xmlns:rdf="http://www.w3.org/1999/02/22-rdf-syntax-ns#"
   xmlns:svg="http://www.w3.org/2000/svg"
   xmlns="http://www.w3.org/2000/svg"
   id="svg2"
   version="1.1"
   width="168.68401"
   height="123.12"
   viewBox="0 0 168.684 123.12">
  <metadata
     id="metadata8">
    <rdf:RDF>
      <cc:Work
         rdf:about="">
        <dc:format>image/svg+xml</dc:format>
        <dc:type
           rdf:resource="http://purl.org/dc/dcmitype/StillImage" />
        <dc:title></dc:title>
      </cc:Work>
    </rdf:RDF>
  </metadata>
  <defs
     id="defs6">
    <pattern
       id="EMFhbasepattern"
       patternUnits="userSpaceOnUse"
       width="6"
       height="6"
       x="0"
       y="0" />
  </defs>
  <path
     style="fill:#000000"
     d="M 0,8.5725342e-4 0,123.12 l 91.689454,0 76.994136,0 0,-123.11914274658 -76.994136,0 -91.689454,0 z M 111.66797,17.912966 c 1.1452,0 2.01665,0.557876 2.50976,1.609375 l 0.23633,0.503907 0,3.285156 0,3.285156 -0.23633,0.501953 c -0.49311,1.051499 -1.36457,1.611328 -2.50976,1.611328 -1.12762,0 -2.01677,-0.560195 -2.48438,-1.564453 -0.1965,-0.42189 -0.21394,-0.574611 -0.21484,-1.876953 l 0,-1.417969 -3.89454,0 -3.89257,0 -1.341796,1.34375 -1.3418,1.34375 0.0625,7.970703 0.06055,7.972657 -0.69141,0 -0.68945,0 0.05859,-4.117188 c 0.0328,-2.264625 0.0605,-5.980344 0.06055,-8.255859 l 0,-4.136719 1.64453,-1.644531 1.644526,-1.646484 4.16016,0 4.16016,0 0,-1.373047 c 8e-4,-1.254962 0.0193,-1.410209 0.21484,-1.830079 0.46761,-1.004257 1.35676,-1.564453 2.48438,-1.564453 z m 9,0 c 1.14521,0 2.01665,0.557876 2.50976,1.609375 l 0.23633,0.503907 0,3.285156 0,3.285156 -0.23633,0.501953 c -0.29875,0.637069 -0.78508,1.124717 -1.4043,1.408203 -0.42454,0.194383 -0.58575,0.218827 -1.28906,0.191407 l -0.80273,-0.0332 -1.14844,1.144532 c -0.63189,0.628663 -1.26299,1.184368 -1.40234,1.236328 -0.16922,0.06311 -2.67395,0.0957 -7.54297,0.0957 l -7.29102,0 -0.49805,0.470703 -0.5,0.472656 0.0664,5.197266 0.0684,5.199219 -0.69922,0 -0.69922,0 0.0664,-5.423828 c 0.0363,-2.982375 0.0932,-5.468801 0.125,-5.525391 0.0318,-0.05659 0.41082,-0.430749 0.84375,-0.832031 l 0.78711,-0.728516 7.40429,0 7.4043,0 1.01563,-1.019531 1.01562,-1.017578 -0.18555,-0.234375 c -0.10204,-0.129719 -0.26628,-0.411165 -0.36328,-0.625 -0.16514,-0.36388 -0.17674,-0.60492 -0.17773,-3.763672 -0.001,-3.365168 -3e-4,-3.376125 0.21289,-3.833985 0.46761,-1.004257 1.35676,-1.564453 2.48438,-1.564453 z m 9,0 c 1.14521,0 2.01665,0.557876 2.50976,1.609375 l 0.23633,0.503907 0,3.285156 0,3.285156 -0.23828,0.507813 c -0.30275,0.645788 -0.8482,1.175101 -1.47657,1.435546 l -0.49023,0.203126 0,1.013671 c 0,0.556919 -0.0436,1.126278 -0.0957,1.265625 -0.1267,0.339097 -1.58465,1.814709 -1.94922,1.972657 -0.24264,0.105124 -2.14731,0.125 -11.74805,0.125 l -11.45898,0 -0.38086,0.388671 -0.38086,0.388672 0.0605,4.291016 0.0625,4.292969 -0.68946,0 -0.68945,0 0,-1.830078 c 0,-1.006686 0.0252,-3.062921 0.0566,-4.56836 l 0.0566,-2.736328 0.69141,-0.697265 0.6914,-0.699219 11.60547,0 11.60742,0 0.69532,-0.699219 0.69531,-0.699219 0,-0.914062 0,-0.914063 -0.48047,-0.21875 c -0.60248,-0.275823 -1.09874,-0.766063 -1.375,-1.359375 -0.21292,-0.457707 -0.21289,-0.469915 -0.21289,-3.833984 0,-3.364069 -2.4e-4,-3.376278 0.21289,-3.833985 0.46761,-1.004258 1.35676,-1.564453 2.48438,-1.564453 z m 9,0 c 1.1452,0 2.01665,0.557876 2.50976,1.609375 l 0.23633,0.503907 0,3.285156 0,3.285156 -0.23633,0.501953 c -0.12968,0.276531 -0.38916,0.656738 -0.57617,0.84375 -0.3181,0.318094 -1.11825,0.765578 -1.37109,0.767578 -0.0865,6.76e-4 -0.11133,0.449609 -0.11133,1.939454 0,1.460024 -0.0323,2.008368 -0.12696,2.226562 -0.15896,0.366446 -2.08347,2.27413 -2.42187,2.400391 -0.17311,0.06459 -4.80786,0.09375 -14.63086,0.09375 l -14.375,0 -0.28906,0.296875 c -0.25526,0.263313 -0.28711,0.355212 -0.28711,0.810546 0,0.282269 0.0403,0.513672 0.0898,0.513672 0.0571,0 0.0898,0.675703 0.0898,1.845704 l 0,1.84375 -0.76563,0 -0.76367,0 0,-1.84375 c 0,-1.170001 0.0327,-1.845704 0.0898,-1.845704 0.0531,0 0.0898,-0.320905 0.0898,-0.78125 l 0,-0.779296 0.61328,-0.615235 0.61523,-0.615234 14.52734,0 14.5254,0 0.92382,-0.919922 0.92383,-0.921875 0,-1.845703 0,-1.847657 -0.40021,-0.164062 c -0.53141,-0.218527 -1.09174,-0.774829 -1.35937,-1.349609 l -0.2168,-0.464844 0,-3.375 c 0,-3.364069 -2.4e-4,-3.376278 0.21289,-3.833985 0.46761,-1.004257 1.35676,-1.564453 2.48438,-1.564453 z m -93.91211,0.177735 21.146484,0 21.14648,0 4.21094,4.207031 c 2.83533,2.832953 4.23582,4.293862 4.29102,4.476563 0.04506,0.149195 0.10652,3.743656 0.13672,7.988281 l 0.05468,7.71875 -0.67968,0 -0.67774,0 0.06055,-7.613281 0.0625,-7.611329 -3.9961,-3.998047 -3.99804,-3.998046 -20.609377,0 -20.611328,0 -3.802734,3.802734 -3.800782,3.802734 0,2.902344 c 0,2.758148 0.0067,2.902344 0.164063,2.902344 0.33111,0 1.262141,0.551924 1.675781,0.99414 0.23215,0.248183 0.531403,0.683753 0.664063,0.966797 0.20561,0.438701 0.240234,0.633721 0.240234,1.324219 0,0.690498 -0.03461,0.885518 -0.240234,1.324219 -0.13266,0.283044 -0.431913,0.718615 -0.664063,0.966797 -0.41364,0.442217 -1.344671,0.99414 -1.675781,0.99414 -0.15862,0 -0.164063,0.185294 -0.164063,4.320313 l 0,4.320312 1.304688,0 1.304687,0 0,2.833985 0,2.835937 -3.195312,0 -3.195313,0 0,-2.835937 0,-2.833985 1.304688,0 1.306641,0 0,-4.320312 c -10e-7,-4.135019 -0.0075,-4.320313 -0.166016,-4.320313 -0.33111,0 -1.262141,-0.551923 -1.675781,-0.99414 -0.23215,-0.248182 -0.52944,-0.683753 -0.66211,-0.966797 -0.2056,-0.438701 -0.242187,-0.633721 -0.242187,-1.324219 0,-0.690498 0.03657,-0.885518 0.242187,-1.324219 0.13267,-0.283044 0.42996,-0.718615 0.66211,-0.966797 0.41364,-0.442216 1.344671,-0.99414 1.675781,-0.99414 0.15763,0 0.166016,-0.152221 0.166016,-3.171875 l 0,-3.169922 4.117187,-4.119141 4.119141,-4.11914 z m 23.238281,2.964844 c 0.402214,-0.0061 0.801477,0.05576 1.091797,0.1875 0.38201,0.173324 0.616902,0.177734 8.896486,0.177734 l 8.50195,0 3.07422,3.02539 c 1.69092,1.664231 3.12048,3.133528 3.17578,3.263672 0.06937,0.163445 0.11826,2.483966 0.16016,7.503907 l 0.06054,7.267578 -0.68164,0 -0.68359,0 0.0625,-7.132813 0.0625,-7.132812 -2.85156,-2.8125 -2.84961,-2.8125 -7.74805,0 c -7.341788,0 -7.743194,0.0089 -7.683592,0.158203 0.17815,0.445993 0.239337,1.670608 0.210937,4.207031 -0.03126,2.789356 -0.03059,2.790302 -0.265625,3.292969 -0.49137,1.050842 -1.362343,1.609375 -2.507812,1.609375 -1.127612,0 -2.018709,-0.558242 -2.486329,-1.5625 -0.21292,-0.457707 -0.21289,-0.469915 -0.21289,-3.833984 0,-3.36407 -2.4e-4,-3.378231 0.21289,-3.835938 0.27225,-0.584687 0.766873,-1.077359 1.351563,-1.349609 0.302345,-0.140782 0.707161,-0.214566 1.109375,-0.220703 z m -17.974609,0.0078 c 1.145199,0 2.014712,0.557876 2.507812,1.609375 l 0.236328,0.503906 0,3.285157 0,3.283203 -0.238281,0.509765 c -0.30275,0.645788 -0.846239,1.175102 -1.474609,1.435547 l -0.492188,0.203125 0,1.988281 0,1.988282 0.878906,0.875 0.878906,0.875 9.19336,0 9.193359,0 4.589849,-4.544922 4.58789,-4.544922 2.5332,0 2.5332,0 1.00781,0.958984 c 0.55445,0.526664 1.05749,1.062194 1.11719,1.191407 0.0775,0.167965 0.10833,1.10175 0.11133,3.273437 0.0027,1.962293 0.0376,3.037109 0.0957,3.037109 0.0571,0 0.08985,0.675703 0.08985,1.845704 l 0,1.84375 -0.76563,0 -0.76562,0 0,-1.84375 c 0,-1.170001 0.03274,-1.845704 0.08984,-1.845704 0.0581,0 0.0918,-1.030798 0.0918,-2.910156 l 0,-2.908203 -0.75586,-0.736328 -0.75391,-0.736328 -2.07422,0 -2.07617,0 -4.49219,4.453125 c -2.470652,2.448641 -4.601894,4.493812 -4.736324,4.544922 -0.16241,0.06175 -3.398875,0.0918 -9.646485,0.0918 -7.80027,1e-6 -9.451136,-0.01987 -9.691406,-0.123046 -0.15929,-0.0684 -0.766036,-0.60911 -1.347656,-1.201172 l -1.056641,-1.076172 0,-2.257813 0,-2.257812 -0.480469,-0.220703 c -0.60247,-0.275823 -1.09873,-0.76411 -1.375,-1.357422 -0.2131,-0.457707 -0.21289,-0.469915 -0.21289,-3.833984 0,-3.36407 -2.3e-4,-3.378231 0.21289,-3.835938 0.46762,-1.004258 1.358718,-1.5625 2.486329,-1.5625 z m 9,0 c 1.145199,0 2.014712,0.557876 2.507812,1.609375 l 0.236328,0.503906 0,3.285157 0,3.283203 -0.236328,0.503906 c -0.29805,0.635573 -0.783866,1.122935 -1.398438,1.404297 l -0.480468,0.220703 0,1.007812 0,1.009766 0.564453,0.558594 0.566406,0.560547 4.199219,0 4.199219,0 5.037109,-4.994141 5.03516,-4.996094 3.13281,0 3.13281,0 2.14063,2.134766 c 1.39304,1.388634 2.17051,2.230565 2.22461,2.408203 0.04574,0.150174 0.10957,3.118328 0.14257,6.595703 l 0.06055,6.322266 -0.69141,0 -0.68945,0 0.06641,-6.21875 0.0664,-6.21875 -1.92578,-1.925781 -1.92578,-1.927735 -2.6289,0 -2.63086,0 -4.9375,4.902344 c -2.716338,2.695904 -5.050491,4.942791 -5.185551,4.994141 -0.15744,0.05986 -1.826474,0.09375 -4.652344,0.09375 -3.53732,-10e-7 -4.462861,-0.02379 -4.695313,-0.123047 -0.159289,-0.06802 -0.624833,-0.467736 -1.033203,-0.888672 l -0.742187,-0.765625 0,-1.253906 0,-1.25586 -0.492188,-0.203125 C 57.370678,31.435137 56.8183,30.905571 56.53711,30.301638 l -0.216797,-0.464843 0,-3.375 c 0,-3.36407 -2.3e-4,-3.378231 0.21289,-3.835938 0.46762,-1.004258 1.358718,-1.5625 2.486329,-1.5625 z m 52.591788,0.556641 c -0.29509,0.01672 -0.59162,0.11276 -0.86132,0.302734 -1.10973,0.781666 -1.00543,2.342219 0.19921,2.986328 1.15009,0.61492 2.59919,-0.353491 2.4961,-1.667969 -0.0787,-1.003566 -0.9487,-1.671252 -1.83399,-1.621093 z m 9,0 c -0.29509,0.01672 -0.59162,0.11276 -0.86132,0.302734 -1.10973,0.781666 -1.00544,2.342219 0.19921,2.986328 1.15008,0.61492 2.59919,-0.353491 2.4961,-1.667969 -0.0787,-1.003566 -0.9487,-1.671252 -1.83399,-1.621093 z m 9,0 c -0.29509,0.01672 -0.59162,0.11276 -0.86132,0.302734 -1.10973,0.781666 -1.00544,2.342219 0.19921,2.986328 1.15008,0.61492 2.59919,-0.353491 2.4961,-1.667969 -0.0787,-1.003566 -0.9487,-1.671252 -1.83399,-1.621093 z m 9,0 c -0.29509,0.01672 -0.59162,0.11276 -0.86132,0.302734 -1.10973,0.781666 -1.00544,2.342219 0.19921,2.986328 1.15009,0.61492 2.59919,-0.353491 2.4961,-1.667969 -0.0787,-1.003566 -0.9487,-1.671252 -1.83399,-1.621093 z m -88.650382,3.15039 c -0.295096,0.01672 -0.591621,0.112761 -0.861328,0.302735 -1.10973,0.781666 -1.005442,2.342219 0.199218,2.986328 1.15007,0.61492 2.599174,-0.355444 2.496094,-1.669922 -0.0787,-1.003567 -0.948698,-1.6693 -1.833984,-1.619141 z m 9,0 c -0.295096,0.01672 -0.591621,0.112761 -0.861328,0.302735 -1.10973,0.781666 -1.005442,2.342219 0.199218,2.986328 1.15007,0.61492 2.599174,-0.355444 2.496094,-1.669922 -0.0787,-1.003567 -0.948698,-1.6693 -1.833984,-1.619141 z m 9,0 c -0.295095,0.01672 -0.591621,0.112761 -0.861328,0.302735 -1.10973,0.781666 -1.005442,2.342219 0.199218,2.986328 1.15007,0.61492 2.599184,-0.355444 2.496094,-1.669922 -0.0787,-1.003567 -0.948701,-1.6693 -1.833984,-1.619141 z m -30.958985,9.449231 c -0.295095,0.01672 -0.59162,0.114714 -0.861328,0.304688 -1.10973,0.781666 -1.007394,2.340265 0.197266,2.984374 1.15007,0.614921 2.601127,-0.35349 2.498047,-1.667968 -0.0787,-1.003567 -0.948698,-1.671253 -1.833985,-1.621094 z m 92.937497,2.412109 c 1.14521,0 2.0147,0.55983 2.50781,1.611329 l 0.23633,0.501953 0,3.285156 0,3.285156 -0.23633,0.503906 c -0.29391,0.62673 -0.77837,1.118675 -1.375,1.396485 -0.35493,0.165265 -0.61108,0.21289 -1.13281,0.21289 -0.80311,0 -1.40571,-0.237747 -1.93359,-0.765625 -0.31694,-0.316947 -0.76363,-1.116737 -0.76563,-1.36914 -7.1e-4,-0.08897 -1.38566,-0.113282 -6.61719,-0.113281 -4.34999,0 -6.61523,0.03066 -6.61523,0.08984 0,0.05707 -0.67375,0.08984 -1.84375,0.08984 l -1.8457,0 0,-0.763672 0,-0.765625 1.8457,0 c 1.17,0 1.84375,0.03277 1.84375,0.08984 0,0.05918 2.26524,0.08984 6.61523,0.08984 l 6.61524,0 0.002,-2.677735 c 8.6e-4,-2.628887 0.005,-2.685862 0.21484,-3.136719 0.46761,-1.004257 1.35677,-1.564453 2.48438,-1.564453 z m 9,0 c 1.14521,0 2.0147,0.55983 2.50781,1.611329 l 0.23633,0.501953 0,3.285156 0,3.285156 -0.23633,0.503906 c -0.44739,0.954008 -1.37672,1.609528 -2.28515,1.611329 l -0.45118,0 -0.98828,1 c -0.54365,0.549666 -1.12,1.05592 -1.27929,1.125 -0.23856,0.103469 -1.33214,0.12384 -6.20899,0.11914 -3.64808,-0.0035 -6.00783,-0.03928 -6.14648,-0.09375 -0.12375,-0.04861 -0.57625,-0.436936 -1.00586,-0.863281 l -0.78125,-0.775391 -6.89063,0.06445 -6.89062,0.06445 0,-0.695312 0,-0.695312 4.11718,0.06055 c 2.26463,0.03277 5.48846,0.06049 7.16602,0.06055 l 3.05078,0 0.8711,0.853516 0.86914,0.855469 5.66406,0 5.66211,0 0.73828,-0.734375 0.74023,-0.736329 -0.36328,-0.351562 c -0.19929,-0.193412 -0.45894,-0.560447 -0.57812,-0.816406 l -0.2168,-0.466797 0,-3.375 c 0,-3.364069 0.002,-3.376278 0.21484,-3.833985 0.46761,-1.004257 1.35677,-1.564453 2.48438,-1.564453 z m -88.855465,3.689453 7.041015,0 7.041016,0 1.802734,1.84375 1.800782,1.845704 5.615234,0 c 3.683098,0 5.613278,-0.0308 5.613278,-0.08984 0,-0.05707 0.67571,-0.08984 1.84571,-0.08984 l 1.8457,0 0,0.765625 0,0.763672 -1.8457,0 c -1.17,0 -1.84571,-0.03277 -1.84571,-0.08984 0,-0.05905 -1.96288,-0.08984 -5.708981,-0.08984 -3.73537,0 -5.793978,-0.0325 -5.955078,-0.09375 -0.13543,-0.05149 -1.012119,-0.882125 -1.949219,-1.845704 l -1.705078,-1.751953 -6.582032,0.02344 -6.583984,0.02344 -0.02539,0.779297 -0.02734,0.779297 0.484375,0.220703 c 0.6178,0.282834 1.103803,0.771591 1.402343,1.408203 l 0.236329,0.501953 0,3.285157 0,3.285156 -0.236329,0.501953 c -0.293909,0.626731 -0.778368,1.120627 -1.375,1.398437 -0.354929,0.165265 -0.613045,0.212891 -1.134765,0.212891 -1.12761,0 -2.016765,-0.560195 -2.484375,-1.564453 -0.2131,-0.457707 -0.212891,-0.469915 -0.212891,-3.833984 l 0,-3.375 0.216797,-0.464844 c 0.28119,-0.603933 0.833569,-1.133499 1.449219,-1.388672 l 0.492187,-0.205078 0,-0.984375 0,-0.986328 0.392578,-0.392578 0.392579,-0.392579 z m 79.796875,0.01953 c -0.2951,0.01672 -0.59162,0.11276 -0.86133,0.302734 -1.10973,0.781666 -1.00544,2.340266 0.19922,2.984375 1.15008,0.61492 2.59918,-0.353491 2.49609,-1.667969 -0.0787,-1.003566 -0.9487,-1.669299 -1.83398,-1.61914 z m 9,0 c -0.2951,0.01672 -0.59162,0.11276 -0.86133,0.302734 -1.10973,0.781666 -1.00544,2.340266 0.19922,2.984375 1.15008,0.61492 2.59918,-0.353491 2.49609,-1.667969 -0.0787,-1.003566 -0.9487,-1.669299 -1.83398,-1.61914 z m -80.042969,2.771484 c 1.62245,0 2.618699,1.03615 2.755859,2.869141 l 0.0625,0.847656 11.416016,-0.05078 11.416018,-0.04883 0,0.65625 0,0.65625 -11.417971,-0.04883 -11.419922,-0.04883 -0.03711,1.925782 c -0.03649,1.836705 -0.04896,1.948313 -0.269532,2.427734 -0.28721,0.624287 -0.771883,1.119425 -1.371094,1.398437 -0.354918,0.165265 -0.613035,0.212891 -1.134765,0.212891 -1.12761,0 -2.016755,-0.560195 -2.484375,-1.564453 -0.21309,-0.457707 -0.212891,-0.469915 -0.212891,-3.833984 0,-3.364069 -2.29e-4,-3.376278 0.212891,-3.833985 0.46762,-1.004258 1.356765,-1.564453 2.484375,-1.564453 z m -9.056641,3.708984 c -0.295095,0.01672 -0.59162,0.112761 -0.861328,0.302735 -1.10973,0.781666 -1.005441,2.340266 0.199219,2.984375 1.15007,0.61492 2.599174,-0.353492 2.496094,-1.667969 -0.0787,-1.003567 -0.948698,-1.669299 -1.833985,-1.619141 z m 9,0 c -0.295095,0.01672 -0.59162,0.112761 -0.861328,0.302735 -1.10973,0.781666 -1.005441,2.340266 0.199219,2.984375 1.15007,0.61492 2.599174,-0.353492 2.496094,-1.667969 -0.0787,-1.003567 -0.948698,-1.669299 -1.833985,-1.619141 z m 49.73828,2.769532 2.74414,0 2.74414,0 0,0.675781 0,0.673828 -2.74414,0 -2.74414,0 0,-0.673828 0,-0.675781 z m -27.419916,0.07227 11.5332,0.002 6.7793,1.447266 c 6.772936,1.447317 6.777926,1.449219 7.941396,1.449219 0.77794,0 1.16406,-0.03234 1.16406,-0.09766 0,-0.07006 1.77389,-0.08051 6.25586,-0.0332 l 6.25586,0.06641 0,-0.373047 0,-0.373047 9.58399,0 9.58593,0 0,1.125 0,1.125 1.84571,0 1.84765,0 0.74024,0.6875 c 0.40727,0.378111 0.79001,0.792611 0.84961,0.921875 0.14418,0.312369 0.16461,15.168245 0.0215,15.552734 -0.0519,0.139348 -0.89877,1.062735 -1.88281,2.052735 l -1.78906,1.800781 -0.0312,2.609375 c -0.0302,2.593071 -0.0308,2.613758 -0.26367,3.113281 -0.48947,1.050126 -1.36205,1.609375 -2.50782,1.609375 -1.12761,0 -2.01676,-0.560195 -2.48437,-1.564453 -0.21292,-0.457708 -0.21485,-0.469915 -0.21485,-3.833984 0,-3.364068 0.002,-3.376277 0.21485,-3.833985 0.27225,-0.584687 0.76492,-1.077359 1.34961,-1.349609 0.64755,-0.301486 1.62233,-0.301203 2.27344,0.002 0.55347,0.257697 1.10433,0.798923 1.33593,1.3125 l 0.16602,0.371094 1.3789,-1.376953 1.37891,-1.376953 0,-7.294922 0,-7.292969 -0.47461,-0.470703 -0.47461,-0.46875 -1.64062,0 -1.63868,0 0,1.125 0,1.125 -9.58593,0 -9.58399,0 0,-1.902344 0,-1.904297 -6.25586,0.06641 c -4.48197,0.04732 -6.25586,0.03881 -6.25586,-0.03125 0,-0.06552 -0.39859,-0.09766 -1.21093,-0.09766 l -1.21289,0 -6.757816,-1.441406 -6.75781,-1.439453 -4.04492,0 c -3.58014,0 -4.04492,0.01609 -4.04492,0.138672 0,0.12401 -0.7587,0.132502 -7.27344,0.07617 l -7.275391,-0.06445 -0.691406,0.65625 -0.689453,0.65625 0,1.578126 0,1.578124 7.96484,-0.06055 7.96485,-0.06055 0,0.654297 0,0.652343 -29.082034,-0.0293 -29.083984,-0.0293 -0.66211,0.65625 -0.662109,0.658203 0,17.732422 0,17.732421 2.994141,2.992188 2.992187,2.992188 10.486328,0 10.486329,0 0.740234,-0.744141 0.742187,-0.744141 0,-0.964844 0,-0.966796 -1.710937,0 -1.710938,0 0,-3.195313 0,-3.195312 4.00586,0 4.005859,0 0,3.195312 0,3.195313 -1.710937,0 -1.708985,0 0,1.074218 c 0,0.590778 -0.0436,1.188778 -0.0957,1.328125 -0.12659,0.338931 -1.674052,1.904306 -2.039062,2.062506 -0.42524,0.18398 -21.62359,0.18052 -22.03125,-0.004 -0.1485,-0.0672 -1.696537,-1.555026 -3.441407,-3.306643 l -3.173828,-3.185546 0,-18.261719 0,-18.263672 0.972657,-0.970703 0.972656,-0.972656 20.80664,0 20.808594,0 0,-1.808594 0,-1.810547 0.955078,-0.912109 c 0.52528,-0.501992 1.014691,-0.948165 1.087891,-0.990235 0.07316,-0.04208 5.324043,-0.07653 11.667973,-0.07617 z m -2.10157,2.71875 2.7461,0 c 1.77,0 2.74414,0.03181 2.74414,0.08984 0,0.05817 1.04709,0.08984 2.95898,0.08984 l 2.95703,0 7.75782,1.394531 c 7.658876,1.37708 7.776636,1.394531 9.058586,1.394531 0.80574,0 1.29883,-0.034 1.29883,-0.08984 0,-0.05803 0.97414,-0.08984 2.74414,-0.08984 l 2.74414,0 0,0.675781 0,0.673828 -2.74414,0 c -1.77,0 -2.74414,-0.03181 -2.74414,-0.08984 0,-0.05596 -0.50599,-0.08984 -1.33789,-0.08984 -1.31467,0 -1.44398,-0.01779 -7.359376,-1.078125 -3.3108,-0.593461 -6.09404,-1.097211 -6.18555,-1.119141 -0.09149,-0.02194 -0.14263,-0.01761 -0.11523,0.0098 0.02738,0.02738 2.77057,1.583971 6.09766,3.458984 l 6.048826,3.408203 1.42578,0 c 0.8899,0 1.42578,-0.03363 1.42578,-0.08984 0,-0.106561 1.37427,-0.112452 6.79492,-0.03125 l 3.86914,0.05859 0.92188,0.902344 0.92382,0.904297 0,-0.556641 0,-0.55664 9.58399,0 9.58593,0 0,2.833984 0,2.835937 -4.77148,0 -4.76953,0 0,2.107422 0,2.109375 0.48047,0.21875 c 0.61457,0.281361 1.10039,0.770677 1.39844,1.40625 l 0.23632,0.501953 0,3.285157 0,3.285156 -0.23632,0.503906 c -0.29391,0.62673 -0.77837,1.118675 -1.375,1.396485 -0.35493,0.165265 -0.61109,0.21289 -1.13282,0.21289 -1.12761,0 -2.01676,-0.558242 -2.48437,-1.5625 -0.21292,-0.457707 -0.21485,-0.471868 -0.21485,-3.835937 l 0,-3.375 0.2168,-0.464844 c 0.2812,-0.603933 0.83356,-1.133499 1.44922,-1.388672 l 0.49219,-0.203125 0,-2.099609 0,-2.097657 -4.23047,0 -4.22852,0 0,-1.419921 0,-1.417969 -1.20312,-1.199219 -1.20313,-1.201172 -5.05273,0.06641 c -3.6633,0.04824 -5.05078,0.03878 -5.05078,-0.0332 0,-0.06826 -0.59907,-0.109049 -1.91406,-0.130859 l -1.91211,-0.03125 -6.511716,-1.367187 -6.51367,-1.365235 -3.58985,0 c -1.97459,0 -3.58984,0.02928 -3.58984,0.06641 0,0.03707 -9.9415,0.0545 -22.093752,0.03711 l -22.095704,-0.0332 0,2.080078 0,2.078125 -3.195312,0 -3.195313,0 0,-2.833985 0,-2.835937 3.195313,0 c 3.186,0 3.195312,8.38e-4 3.195312,0.189453 l 0,0.189453 22.095704,-0.03125 c 12.152252,-0.01739 22.093752,-0.002 22.093752,0.03516 0,0.03713 1.63852,0.06836 3.64062,0.06836 l 3.64063,0 5.24609,1.078125 c 2.88602,0.593549 5.322556,1.09729 5.414056,1.11914 0.0915,0.02184 0.14459,0.01761 0.11719,-0.0098 -0.0274,-0.02738 -2.772516,-1.583971 -6.099606,-3.458985 l -6.04883,-3.408203 -2.95507,0 c -1.9099,0 -2.95508,0.03167 -2.95508,0.08984 0,0.05803 -0.97414,0.08984 -2.74414,0.08984 l -2.7461,0 0,-0.675781 0,-0.673829 z m 29.521486,5.669922 2.74414,0 2.74414,0 0,0.673828 0,0.675782 -2.74414,0 -2.74414,0 0,-0.675782 0,-0.673828 z m -24.031246,2.759766 0,0.673828 0,0.673828 -14.781252,-0.03711 -14.783204,-0.03711 -4.814453,4.822266 -4.814453,4.824219 1.191406,0 1.191407,0 0,3.554687 0,3.554688 -2.833985,0 -2.835937,0 0,5.265625 0,5.263672 0.720703,0 0.720703,0 0,3.195312 0,3.195313 -2.025391,0 -2.02539,0 0,-3.195313 0,-3.195312 0.720703,0 0.71875,0 0,-5.263672 0,-5.265625 -6.34375,0 -6.345703,0 0,-3.554688 0,-3.554687 7.777344,0 7.77539,0 5.34961,-5.400391 5.349609,-5.40039 10.925781,0 c 6.00978,-6.1e-5 12.780292,-0.02583 15.044922,-0.05859 l 4.11719,-0.06055 z m -3.64453,2.820312 1.8457,0 0,0.763672 0,0.765625 -1.8457,0 c -1.17,0 -1.84571,-0.03277 -1.84571,-0.08984 0,-0.05388 -0.35413,-0.08984 -0.88281,-0.08984 l -0.88281,0 -3.414064,3.36914 -3.414063,3.371094 5.466797,0.0039 5.4668,0.0059 0,3.554687 0,3.554688 -7.06446,0 -7.064449,0 0,5.265625 0,5.263672 0.71875,0 0.720703,0 0,3.195312 0,3.195313 -2.025391,0 -2.025391,0 0,-3.195313 0,-3.195312 0.720704,0 0.720703,0 0,-5.263672 0,-5.265625 -2.115235,0 -2.115234,0 0,-3.554688 0,-3.554687 3.486328,0 3.486328,0 3.962891,-3.960938 3.964843,-3.958984 1.14453,0 c 0.70343,0 1.14453,-0.03456 1.14453,-0.08984 0,-0.05707 0.67571,-0.08984 1.84571,-0.08984 z m 29.474606,0 1.8457,0 c 1.17,0 1.84375,0.03277 1.84375,0.08984 0,0.05754 0.80444,0.08894 2.22851,0.08984 1.22513,7.6e-4 2.27519,0.03294 2.33399,0.07031 0.24778,0.157526 0.28199,0.680603 0.30859,4.705079 l 0.0273,4.179687 -0.23633,0.513672 c -0.32784,0.709501 -0.96555,1.36219 -1.66602,1.707031 -0.46538,0.22911 -0.71239,0.28907 -1.26953,0.3125 -0.42194,0.01774 -0.83895,-0.0182 -1.07031,-0.09375 -0.93585,-0.30562 -1.74947,-1.028624 -2.17188,-1.929687 -0.20384,-0.434761 -0.23828,-0.631185 -0.23828,-1.322266 0,-0.733655 0.0274,-0.86884 0.29102,-1.404297 0.35133,-0.713638 0.99622,-1.34678 1.71484,-1.683594 0.44028,-0.206355 0.63179,-0.240234 1.33399,-0.240234 0.76787,0 0.86253,0.02207 1.46289,0.330078 l 0.64257,0.328125 0,-2.152344 0,-2.15039 -1.8457,0 c -1.17,0 -1.8457,0.03278 -1.8457,0.08984 0,0.05707 -0.67375,0.08984 -1.84375,0.08984 l -1.8457,0 0,-0.765625 0,-0.763672 z m -21.611326,2.878907 0.6875,0 0.68554,0 -0.05859,6.863281 c -0.03194,3.774375 -0.09552,6.984048 -0.14062,7.132812 -0.0525,0.173293 -0.7918,0.98028 -2.06055,2.248047 l -1.98047,1.980469 0,2.070313 0,2.070312 0.40039,0.166016 c 0.54333,0.223433 1.09614,0.778869 1.38477,1.394531 l 0.23828,0.509765 0,3.285157 0,3.285156 -0.23633,0.501953 c -0.29366,0.626194 -0.77908,1.118552 -1.375,1.396484 -0.35398,0.164572 -0.61199,0.214844 -1.13281,0.214844 -1.12761,0 -2.01677,-0.560197 -2.48438,-1.564453 -0.21292,-0.457713 -0.21289,-0.469919 -0.21289,-3.833984 0,-3.364065 -2.4e-4,-3.376272 0.21289,-3.833985 0.11759,-0.252558 0.36651,-0.612593 0.55274,-0.798828 0.31695,-0.316947 1.11674,-0.765578 1.36914,-0.767578 0.0871,-6.8e-4 0.11328,-0.522482 0.11328,-2.3125 l 0,-2.314453 2.08398,-2.089844 2.08399,-2.091797 -0.06446,-6.755859 -0.0664,-6.755859 z m 2.91211,0 0.65625,0 0.65429,0 -0.04882,11.296875 -0.05079,11.294921 0.32618,-0.134765 c 0.19071,-0.07968 0.59894,-0.137259 0.98242,-0.136719 1.12491,0.0015 1.99907,0.56813 2.48828,1.611328 l 0.23633,0.503906 0,3.285157 0,3.285156 -0.23633,0.501953 c -0.29391,0.626733 -0.77837,1.118681 -1.375,1.396484 -0.35493,0.165262 -0.61108,0.214844 -1.13281,0.214844 -1.12761,0 -2.01677,-0.560197 -2.48438,-1.564453 -0.21269,-0.457407 -0.21394,-0.47296 -0.21484,-3.810547 -7.7e-4,-2.905263 0.01772,-3.398881 0.14648,-3.720703 0.1363,-0.340515 0.14555,-1.348129 0.10157,-12.197265 l -0.04883,-11.826172 z m 2.74023,0 0.68555,0 0.68359,0 -0.05469,9.589843 -0.05468,9.587891 0.34765,0.355469 0.34766,0.357422 3.17773,0 3.175786,0 0.375,0.33789 c 0.47407,0.427785 0.61523,0.769846 0.61523,1.486328 l 0,0.572266 0.49219,0.203122 c 0.62837,0.260445 1.17186,0.789761 1.47461,1.435547 l 0.23828,0.509765 0,3.285157 0,3.285156 -0.23633,0.501953 c -0.29391,0.626733 -0.77837,1.118681 -1.375,1.396484 -0.35493,0.165263 -0.61108,0.214844 -1.13281,0.214844 -1.12761,0 -2.01676,-0.560197 -2.48438,-1.564453 -0.21292,-0.457713 -0.21484,-0.469919 -0.21484,-3.833984 0,-3.364065 0.002,-3.376272 0.21484,-3.833985 0.27627,-0.593309 0.77057,-1.083552 1.37305,-1.359375 l 0.48047,-0.220703 0,-0.474609 c 0,-0.803911 0.13854,-0.771484 -3.361326,-0.771485 -2.35973,10e-7 -3.09893,-0.02758 -3.32422,-0.123046 -0.15929,-0.06749 -0.52202,-0.367887 -0.80664,-0.667969 l -0.51758,-0.546875 0,-5.744141 c -1e-4,-3.1593 -0.02776,-7.596703 -0.06054,-9.861328 l -0.0586,-4.117187 z m 2.91406,0 0.66993,0 0.66992,0 -0.01953,8.888672 -0.01954,8.886718 6.095706,0.04492 6.0957,0.04492 0.86524,0.855469 c 0.47644,0.47025 0.92318,0.985247 0.99218,1.144531 0.0842,0.194302 0.125,0.643137 0.125,1.365234 l 0,1.076172 0.48047,0.220703 c 0.61457,0.281362 1.10039,0.768726 1.39844,1.404297 l 0.23633,0.503906 0,3.285157 0,3.285156 -0.23633,0.501953 c -0.29391,0.626733 -0.77837,1.118681 -1.375,1.396484 -0.35493,0.165262 -0.61108,0.214844 -1.13281,0.214844 -1.12761,0 -2.01677,-0.560197 -2.48438,-1.564453 -0.21292,-0.457713 -0.21484,-0.469919 -0.21484,-3.833984 l 0,-3.375 0.21679,-0.466797 c 0.28121,-0.603932 0.83553,-1.133498 1.45118,-1.388671 l 0.49023,-0.203125 0,-0.953125 0,-0.953125 -0.69726,-0.693359 -0.69727,-0.69336 -6.00195,-0.02539 c -5.901136,-0.02399 -6.003686,-0.02651 -6.248046,-0.208985 -0.59998,-0.447797 -0.55316,0.315386 -0.60938,-9.691406 l -0.05078,-9.068359 z m 2.783206,0 0.67773,0 0.67774,0 -0.0605,7.740234 -0.0625,7.740234 7.99805,0 7.99804,0 2.15235,2.136719 c 1.18336,1.175625 2.20649,2.268451 2.27539,2.427735 0.0824,0.190534 0.12695,0.63666 0.12695,1.304687 l 0,1.015625 0.40039,0.166016 c 0.54333,0.223433 1.09614,0.778869 1.38477,1.394531 l 0.23828,0.509765 0,3.285157 0,3.285156 -0.23633,0.501953 c -0.29366,0.626194 -0.77908,1.118552 -1.375,1.396484 -0.35398,0.164572 -0.61199,0.214844 -1.13281,0.214844 -1.12761,0 -2.01676,-0.560197 -2.48438,-1.564453 -0.21292,-0.457713 -0.21484,-0.469919 -0.21484,-3.833984 0,-3.364065 0.002,-3.376272 0.21484,-3.833985 0.1176,-0.252558 0.36651,-0.612593 0.55274,-0.798828 0.31696,-0.316946 1.11673,-0.765578 1.36914,-0.767578 0.0823,-6.43e-4 0.11328,-0.236762 0.11328,-0.878906 l 0,-0.876953 -1.95899,-1.957031 -1.95898,-1.957032 -7.82813,0 c -7.27595,-1.31e-4 -7.85188,-0.01196 -8.13867,-0.158203 -0.66204,-0.337585 -0.61273,0.291475 -0.67383,-8.548828 l -0.0547,-7.943359 z m 2.85351,0 0.69532,0 0.69726,0 -0.0664,6.52539 c -0.0623,6.219077 -0.0574,6.533743 0.0977,6.705078 0.16006,0.176871 0.27988,0.179688 7.41406,0.179688 l 7.25196,0 4.72656,4.707031 4.72656,4.707031 0.48828,-0.251953 c 0.40947,-0.211172 0.59896,-0.252673 1.16992,-0.251953 1.15271,0.0015 2.0217,0.558072 2.51563,1.611328 l 0.23633,0.503906 0,3.285157 0,3.285156 -0.23633,0.501953 c -0.29391,0.626733 -0.77837,1.118681 -1.375,1.396484 -0.35493,0.165262 -0.61108,0.214844 -1.13281,0.214844 -1.12761,0 -2.01676,-0.560197 -2.48438,-1.564453 -0.21269,-0.457443 -0.21394,-0.471916 -0.21484,-3.814453 -7e-4,-2.664135 0.0236,-3.41829 0.12305,-3.65625 l 0.12695,-0.298828 -4.60352,-4.601563 -4.60351,-4.603515 -7.08985,0 c -5.74137,0 -7.14439,-0.02291 -7.3789,-0.121094 -0.15929,-0.06668 -0.44329,-0.290384 -0.62891,-0.496094 l -0.33594,-0.373047 0,-2.677734 c -1e-4,-1.472483 -0.0277,-4.530297 -0.0605,-6.794922 l -0.0586,-4.117187 z m -17.072256,1.800781 0.76562,0 0.76563,0 0,1.84375 c 0,1.17 -0.03275,1.845703 -0.08985,1.845703 -0.0577,0 -0.08984,0.83789 -0.08984,2.333984 0,1.357514 -0.0388,2.434823 -0.0918,2.574219 -0.05012,0.131825 -2.35948,2.488486 -5.13086,5.236328 l -5.03906,4.996094 0,0.875 0,0.876953 0.36719,0.166016 c 0.52033,0.234636 1.05255,0.784964 1.33008,1.376953 l 0.23828,0.509765 0,3.285157 0,3.285156 -0.23633,0.501953 c -0.29391,0.626733 -0.77837,1.118681 -1.375,1.396484 -0.35493,0.165263 -0.61108,0.214844 -1.13281,0.214844 -1.12761,0 -2.01676,-0.560197 -2.484378,-1.564453 -0.21292,-0.457713 -0.214844,-0.469919 -0.214844,-3.833984 0,-3.364065 0.0017,-3.376272 0.214844,-3.833985 0.1176,-0.252558 0.3665,-0.612593 0.552738,-0.798828 0.34151,-0.341502 1.12286,-0.765978 1.41406,-0.767578 0.1413,-7.88e-4 0.15625,-0.111208 0.15625,-1.085937 l 0,-1.087891 5.13086,-5.087891 5.13086,-5.089843 0,-2.238282 c 0,-1.433013 -0.0342,-2.240234 -0.0918,-2.240234 -0.0571,0 -0.08984,-0.675703 -0.08984,-1.845703 l 0,-1.84375 z m 19.800776,0 0.76562,0 0.76368,0 0,1.84375 c -1e-5,1.17 -0.0327,1.845703 -0.0898,1.845703 -0.0576,0 -0.0898,0.818135 -0.0898,2.275391 l 0,2.277343 0.43164,0.423828 0.42969,0.423829 6.65429,0 6.6543,0 3.875,3.86914 3.87305,3.871094 4.62109,0 4.62109,0 0.67578,0.652344 c 0.37238,0.358875 0.73299,0.782122 0.80079,0.941406 0.0769,0.180376 0.12304,0.627313 0.12304,1.185547 l 0,0.896484 0.48047,0.220703 c 0.61457,0.281362 1.10039,0.768726 1.39844,1.404297 l 0.23633,0.503906 0,3.285157 0,3.285156 -0.23633,0.501953 c -0.29391,0.626733 -0.77837,1.118681 -1.375,1.396484 -0.35493,0.165262 -0.61108,0.214844 -1.13281,0.214844 -1.12761,0 -2.01677,-0.560197 -2.48438,-1.564453 -0.21292,-0.457713 -0.21484,-0.469919 -0.21484,-3.833984 l 0,-3.375 0.21679,-0.466797 c 0.2812,-0.603933 0.83552,-1.133499 1.45118,-1.388672 l 0.49023,-0.203125 0,-0.773437 0,-0.775391 -0.47461,-0.46875 -0.47656,-0.46875 -4.47656,0 c -3.64059,0 -4.5321,-0.02448 -4.76758,-0.126953 -0.16259,-0.07076 -1.92677,-1.76721 -4.02344,-3.869141 l -3.73437,-3.744141 -6.50586,0 c -5.30414,0 -6.56077,-0.02263 -6.79688,-0.123046 -0.1593,-0.06774 -0.56235,-0.407666 -0.89648,-0.75586 l -0.60742,-0.634765 0,-2.527344 c 0,-1.625834 -0.0319,-2.529297 -0.0898,-2.529297 -0.0571,0 -0.0898,-0.675703 -0.0898,-1.845703 l 0,-1.84375 z m 9.8418,1.908203 c -0.2951,0.01672 -0.59163,0.114712 -0.86133,0.304688 -1.10973,0.781666 -1.00543,2.340265 0.19922,2.984374 1.15008,0.614921 2.60113,-0.353491 2.49804,-1.667968 -0.0787,-1.003568 -0.95065,-1.671253 -1.83593,-1.621094 z m 14.49023,5.041016 c -0.2951,0.01672 -0.59162,0.11276 -0.86133,0.302734 -1.10973,0.781666 -1.00544,2.340266 0.19922,2.984375 1.15008,0.61492 2.59918,-0.353491 2.49609,-1.667969 -0.0787,-1.003567 -0.9487,-1.669299 -1.83398,-1.61914 z m 9,0 c -0.2951,0.01672 -0.59162,0.11276 -0.86133,0.302734 -1.10973,0.781666 -1.00544,2.340266 0.19922,2.984375 1.15008,0.61492 2.59918,-0.353491 2.49609,-1.667969 -0.0787,-1.003567 -0.9487,-1.669299 -1.83398,-1.61914 z M 76.060544,92.539919 c -0.29509,0.01672 -0.59161,0.112761 -0.86133,0.302735 -1.10972,0.781668 -1.00544,2.342225 0.19922,2.986328 1.15007,0.614925 2.60114,-0.353483 2.49805,-1.667969 -0.0787,-1.003562 -0.95065,-1.671253 -1.83594,-1.621094 z m 9,0 c -0.29509,0.01672 -0.59161,0.112761 -0.86133,0.302735 -1.10972,0.781668 -1.00544,2.342225 0.19922,2.986328 1.15007,0.614925 2.60114,-0.353483 2.49805,-1.667969 -0.0787,-1.003562 -0.95065,-1.671253 -1.83594,-1.621094 z m 9,0 c -0.29509,0.01672 -0.59161,0.112761 -0.86133,0.302735 -1.10971,0.781668 -1.00543,2.342225 0.19922,2.986328 1.15008,0.614925 2.60114,-0.353483 2.49805,-1.667969 -0.0787,-1.003562 -0.95065,-1.671253 -1.83594,-1.621094 z m 8.999996,0 c -0.29509,0.01672 -0.59161,0.112761 -0.86133,0.302735 -1.10972,0.781668 -1.00543,2.342225 0.19922,2.986328 1.15008,0.614925 2.60114,-0.353483 2.49805,-1.667969 -0.0787,-1.003562 -0.95065,-1.671253 -1.83594,-1.621094 z m 9,0 c -0.29509,0.01672 -0.59161,0.112761 -0.86133,0.302735 -1.10973,0.781668 -1.00543,2.342225 0.19922,2.986328 1.15008,0.614925 2.60114,-0.353483 2.49805,-1.667969 -0.0787,-1.003562 -0.95065,-1.671253 -1.83594,-1.621094 z m 9,0 c -0.29509,0.01672 -0.59161,0.112761 -0.86133,0.302735 -1.10973,0.781668 -1.00544,2.342225 0.19922,2.986328 1.15008,0.614925 2.60114,-0.353483 2.49805,-1.667969 -0.0787,-1.003562 -0.95065,-1.671253 -1.83594,-1.621094 z m 9,0 c -0.29509,0.01672 -0.59161,0.112761 -0.86133,0.302735 -1.10973,0.781668 -1.00544,2.342225 0.19922,2.986328 1.15008,0.614925 2.60114,-0.353483 2.49805,-1.667969 -0.0787,-1.003562 -0.95065,-1.671253 -1.83594,-1.621094 z m 9,0 c -0.29509,0.01672 -0.59161,0.112761 -0.86133,0.302735 -1.10973,0.781668 -1.00544,2.342225 0.19922,2.986328 1.15008,0.614925 2.60114,-0.353483 2.49805,-1.667969 -0.0787,-1.003562 -0.95065,-1.671253 -1.83594,-1.621094 z"
     id="path3338" />
  <flowRoot
     xml:space="preserve"
     id="flowRoot3347"
     style="fill:black;stroke:none;stroke-opacity:1;stroke-width:1px;stroke-linejoin:miter;stroke-linecap:butt;fill-opacity:1;font-family:sans-serif;font-style:normal;font-weight:normal;font-size:40px;line-height:125%;letter-spacing:0px;word-spacing:0px"><flowRegion
       id="flowRegion3349"><rect
         id="rect3351"
         width="161.11745"
         height="52.042362"
         x="-163.25618"
         y="-60.810539" /></flowRegion><flowPara
       id="flowPara3353" /></flowRoot>  <text
     xml:space="preserve"
     style="font-style:normal;font-weight:normal;font-size:40px;line-height:125%;font-family:sans-serif;letter-spacing:0px;word-spacing:0px;fill:#ffffff;fill-opacity:1;stroke:none;stroke-width:1px;stroke-linecap:butt;stroke-linejoin:miter;stroke-opacity:1"
     x="-53.952148"
     y="31.087126"
     id="text3355"
     transform="matrix(0,-1,1,0,0,0)"><tspan
       id="tspan3357"
       x="-53.952148"
       y="31.087126"
       style="font-style:normal;font-variant:normal;font-weight:normal;font-stretch:normal;font-size:7.5px;line-height:125%;font-family:monospace;-inkscape-font-specification:'monospace, Normal';text-align:start;writing-mode:lr-tb;text-anchor:start;fill:#ffffff">satsha-µ</tspan></text>
  <flowRoot
     transform="translate(60.12954,-450.16753)"
     style="font-style:normal;font-variant:normal;font-weight:normal;font-stretch:normal;font-size:40px;line-height:125%;font-family:Purisa;-inkscape-font-specification:'Purisa, Normal';text-align:start;letter-spacing:0px;word-spacing:0px;writing-mode:lr-tb;text-anchor:start;fill:#000000;fill-opacity:1;stroke:none;stroke-width:1px;stroke-linecap:butt;stroke-linejoin:miter;stroke-opacity:1"
     id="flowRoot4706-6-1"
     xml:space="preserve"><flowRegion
       id="flowRegion4708-3-2"><rect
         style="font-style:normal;font-variant:normal;font-weight:normal;font-stretch:normal;font-size:40px;line-height:125%;font-family:Purisa;-inkscape-font-specification:'Purisa, Normal';text-align:start;writing-mode:lr-tb;text-anchor:start"
         y="-84.572792"
         x="163.64471"
         height="101.01526"
         width="184.85791"
         id="rect4710-7-4" /></flowRegion><flowPara
       style="font-style:normal;font-variant:normal;font-weight:normal;font-stretch:normal;font-size:43.33374786px;line-height:89.99999762%;font-family:monospace;-inkscape-font-specification:'monospace, Normal';text-align:center;writing-mode:lr-tb;text-anchor:middle"
       id="flowPara4742-4" /></flowRoot>  <flowRoot
     transform="translate(-28.4607,-558.75542)"
     style="font-style:normal;font-variant:normal;font-weight:normal;font-stretch:normal;font-size:40px;line-height:125%;font-family:Purisa;-inkscape-font-specification:'Purisa, Normal';text-align:start;letter-spacing:0px;word-spacing:0px;writing-mode:lr-tb;text-anchor:start;fill:#000000;fill-opacity:1;stroke:none;stroke-width:1px;stroke-linecap:butt;stroke-linejoin:miter;stroke-opacity:1"
     id="flowRoot4706-6-1-8"
     xml:space="preserve"><flowRegion
       id="flowRegion4708-3-2-0"><rect
         style="font-style:normal;font-variant:normal;font-weight:normal;font-stretch:normal;font-size:40px;line-height:125%;font-family:Purisa;-inkscape-font-specification:'Purisa, Normal';text-align:start;writing-mode:lr-tb;text-anchor:start"
         y="-84.572792"
         x="163.64471"
         height="101.01526"
         width="184.85791"
         id="rect4710-7-4-9" /></flowRegion><flowPara
       style="font-style:normal;font-variant:normal;font-weight:normal;font-stretch:normal;font-size:43.33374786px;line-height:89.99999762%;font-family:monospace;-inkscape-font-specification:'monospace, Normal';text-align:center;writing-mode:lr-tb;text-anchor:middle"
       id="flowPara4742-4-5" /></flowRoot>  <text
     id="text4243"
     y="-485.32178"
     x="-102.59581"
     style="font-style:normal;font-weight:normal;font-size:40px;line-height:125%;font-family:sans-serif;letter-spacing:0px;word-spacing:0px;fill:#000000;fill-opacity:1;stroke:none;stroke-width:1px;stroke-linecap:butt;stroke-linejoin:miter;stroke-opacity:1"
     xml:space="preserve"><tspan
       y="-485.32178"
       x="-102.59581"
       id="tspan4245" /></text>
  <rect
     y="-427.17261"
     x="243.3463"
     height="123.11785"
     width="0"
     id="rect4835"
     style="fill:#ffffff;fill-opacity:1;stroke:none;stroke-width:0.35433072;stroke-miterlimit:4;stroke-dasharray:none;stroke-opacity:1" />
  <text
     id="text3417-0-5-7-2-0"
     y="104.39652"
     x="75.411751"
     style="font-style:normal;font-weight:normal;font-size:40px;line-height:125%;font-family:sans-serif;letter-spacing:0px;word-spacing:0px;fill:#000000;fill-opacity:1;stroke:none;stroke-width:1px;stroke-linecap:butt;stroke-linejoin:miter;stroke-opacity:1"
     xml:space="preserve"><tspan
       style="font-style:normal;font-variant:normal;font-weight:normal;font-stretch:normal;font-size:2.5px;line-height:125%;font-family:monospace;-inkscape-font-specification:'monospace, Normal';text-align:start;writing-mode:lr-tb;text-anchor:start;fill:#ffffff"
       y="104.39652"
       x="75.411751"
       id="tspan3419-6-4-3-4-2">5</tspan></text>
  <text
     id="text3417-0-5-7-2-0-7"
     y="104.413"
     x="84.616165"
     style="font-style:normal;font-weight:normal;font-size:40px;line-height:125%;font-family:sans-serif;letter-spacing:0px;word-spacing:0px;fill:#000000;fill-opacity:1;stroke:none;stroke-width:1px;stroke-linecap:butt;stroke-linejoin:miter;stroke-opacity:1"
     xml:space="preserve"><tspan
       style="font-style:normal;font-variant:normal;font-weight:normal;font-stretch:normal;font-size:2.5px;line-height:125%;font-family:monospace;-inkscape-font-specification:'monospace, Normal';text-align:start;writing-mode:lr-tb;text-anchor:start;fill:#ffffff"
       y="104.413"
       x="84.616165"
       id="tspan3419-6-4-3-4-2-6">6</tspan></text>
  <text
     id="text3417-0-5-7-2-0-0"
     y="104.41422"
     x="93.642395"
     style="font-style:normal;font-weight:normal;font-size:40px;line-height:125%;font-family:sans-serif;letter-spacing:0px;word-spacing:0px;fill:#000000;fill-opacity:1;stroke:none;stroke-width:1px;stroke-linecap:butt;stroke-linejoin:miter;stroke-opacity:1"
     xml:space="preserve"><tspan
       style="font-style:normal;font-variant:normal;font-weight:normal;font-stretch:normal;font-size:2.5px;line-height:125%;font-family:monospace;-inkscape-font-specification:'monospace, Normal';text-align:start;writing-mode:lr-tb;text-anchor:start;fill:#ffffff"
       y="104.41422"
       x="93.642395"
       id="tspan3419-6-4-3-4-2-2">7</tspan></text>
  <text
     id="text3417-0-5-7-2-0-9"
     y="104.413"
     x="102.70245"
     style="font-style:normal;font-weight:normal;font-size:40px;line-height:125%;font-family:sans-serif;letter-spacing:0px;word-spacing:0px;fill:#000000;fill-opacity:1;stroke:none;stroke-width:1px;stroke-linecap:butt;stroke-linejoin:miter;stroke-opacity:1"
     xml:space="preserve"><tspan
       style="font-style:normal;font-variant:normal;font-weight:normal;font-stretch:normal;font-size:2.5px;line-height:125%;font-family:monospace;-inkscape-font-specification:'monospace, Normal';text-align:start;writing-mode:lr-tb;text-anchor:start;fill:#ffffff"
       y="104.413"
       x="102.70245"
       id="tspan3419-6-4-3-4-2-68">8</tspan></text>
  <text
     id="text3417-0-5-7-2-0-5"
     y="104.413"
     x="111.65688"
     style="font-style:normal;font-weight:normal;font-size:40px;line-height:125%;font-family:sans-serif;letter-spacing:0px;word-spacing:0px;fill:#000000;fill-opacity:1;stroke:none;stroke-width:1px;stroke-linecap:butt;stroke-linejoin:miter;stroke-opacity:1"
     xml:space="preserve"><tspan
       style="font-style:normal;font-variant:normal;font-weight:normal;font-stretch:normal;font-size:2.5px;line-height:125%;font-family:monospace;-inkscape-font-specification:'monospace, Normal';text-align:start;writing-mode:lr-tb;text-anchor:start;fill:#ffffff"
       y="104.413"
       x="111.65688"
       id="tspan3419-6-4-3-4-2-3">9</tspan></text>
  <text
     id="text3417-0-5-7-2-0-55"
     y="104.413"
     x="119.7058"
     style="font-style:normal;font-weight:normal;font-size:40px;line-height:125%;font-family:sans-serif;letter-spacing:0px;word-spacing:0px;fill:#000000;fill-opacity:1;stroke:none;stroke-width:1px;stroke-linecap:butt;stroke-linejoin:miter;stroke-opacity:1"
     xml:space="preserve"><tspan
       style="font-style:normal;font-variant:normal;font-weight:normal;font-stretch:normal;font-size:2.5px;line-height:125%;font-family:monospace;-inkscape-font-specification:'monospace, Normal';text-align:start;writing-mode:lr-tb;text-anchor:start;fill:#ffffff"
       y="104.413"
       x="119.7058"
       id="tspan3419-6-4-3-4-2-8">10</tspan></text>
  <text
     id="text3417-0-5-7-2-0-3"
     y="102.68693"
     x="130.06152"
     style="font-style:normal;font-weight:normal;font-size:40px;line-height:125%;font-family:sans-serif;letter-spacing:0px;word-spacing:0px;fill:#000000;fill-opacity:1;stroke:none;stroke-width:1px;stroke-linecap:butt;stroke-linejoin:miter;stroke-opacity:1"
     xml:space="preserve"><tspan
       style="font-style:normal;font-variant:normal;font-weight:normal;font-stretch:normal;font-size:2.5px;line-height:125%;font-family:monospace;-inkscape-font-specification:'monospace, Normal';text-align:center;writing-mode:lr-tb;text-anchor:middle;fill:#ffffff"
       y="102.68693"
       x="130.06152"
       id="tspan3419-6-4-3-4-2-7">11</tspan><tspan
       id="tspan3760"
       style="font-style:normal;font-variant:normal;font-weight:normal;font-stretch:normal;font-size:2.5px;line-height:125%;font-family:monospace;-inkscape-font-specification:'monospace, Normal';text-align:center;writing-mode:lr-tb;text-anchor:middle;fill:#ffffff"
       y="105.81193"
       x="130.06152">(MOSI)</tspan></text>
  <text
     id="text3417-0-5-7-2-0-2"
     y="102.70341"
     x="139.20703"
     style="font-style:normal;font-weight:normal;font-size:40px;line-height:125%;font-family:sans-serif;text-align:center;letter-spacing:0px;word-spacing:0px;text-anchor:middle;fill:#000000;fill-opacity:1;stroke:none;stroke-width:1px;stroke-linecap:butt;stroke-linejoin:miter;stroke-opacity:1"
     xml:space="preserve"><tspan
       style="font-style:normal;font-variant:normal;font-weight:normal;font-stretch:normal;font-size:2.5px;line-height:125%;font-family:monospace;-inkscape-font-specification:'monospace, Normal';text-align:center;writing-mode:lr-tb;text-anchor:middle;fill:#ffffff"
       y="102.70341"
       x="139.20703"
       id="tspan3419-6-4-3-4-2-9">12</tspan><tspan
       id="tspan3762"
       style="font-style:normal;font-variant:normal;font-weight:normal;font-stretch:normal;font-size:2.5px;line-height:125%;font-family:monospace;-inkscape-font-specification:'monospace, Normal';text-align:center;writing-mode:lr-tb;text-anchor:middle;fill:#ffffff"
       y="105.82841"
       x="139.20703">(MISO)</tspan></text>
  <text
     transform="scale(1.0004947,0.99950553)"
     id="text3417-0-5-7-2-0-1"
     y="67.976768"
     x="110.17036"
     style="font-style:normal;font-weight:normal;font-size:28.71584702px;line-height:125%;font-family:sans-serif;text-align:center;letter-spacing:0px;word-spacing:0px;text-anchor:middle;fill:#000000;fill-opacity:1;stroke:none;stroke-width:1px;stroke-linecap:butt;stroke-linejoin:miter;stroke-opacity:1"
     xml:space="preserve"><tspan
       style="font-style:normal;font-variant:normal;font-weight:normal;font-stretch:normal;font-size:1.79474044px;line-height:125%;font-family:monospace;-inkscape-font-specification:'monospace, Normal';text-align:center;writing-mode:lr-tb;text-anchor:middle;fill:#ffffff"
       y="67.976768"
       x="110.17036"
       id="tspan3419-6-4-3-4-2-1">13</tspan><tspan
       id="tspan3764"
       style="font-style:normal;font-variant:normal;font-weight:normal;font-stretch:normal;font-size:1.79474044px;line-height:125%;font-family:monospace;-inkscape-font-specification:'monospace, Normal';text-align:center;writing-mode:lr-tb;text-anchor:middle;fill:#ffffff"
       y="70.220192"
       x="110.17036">(SCK)</tspan></text>
  <text
     id="text3417-0-5-7-2-5-5"
     y="33.331852"
     x="40.824848"
     style="font-style:normal;font-weight:normal;font-size:40px;line-height:125%;font-family:sans-serif;letter-spacing:0px;word-spacing:0px;fill:#000000;fill-opacity:1;stroke:none;stroke-width:1px;stroke-linecap:butt;stroke-linejoin:miter;stroke-opacity:1"
     xml:space="preserve"><tspan
       style="font-style:normal;font-variant:normal;font-weight:normal;font-stretch:normal;font-size:1.875px;line-height:125%;font-family:monospace;-inkscape-font-specification:'monospace, Normal';text-align:start;writing-mode:lr-tb;text-anchor:start;fill:#ffffff"
       y="33.331852"
       x="40.824848"
       id="tspan3419-6-4-3-4-6-2">RST</tspan></text>
  <text
     id="text3417-0-5-7-2-7"
     y="52.152267"
     x="62.500504"
     style="font-style:normal;font-weight:normal;font-size:40px;line-height:125%;font-family:sans-serif;letter-spacing:0px;word-spacing:0px;fill:#000000;fill-opacity:1;stroke:none;stroke-width:1px;stroke-linecap:butt;stroke-linejoin:miter;stroke-opacity:1"
     xml:space="preserve"><tspan
       style="font-style:normal;font-variant:normal;font-weight:normal;font-stretch:normal;font-size:2.5px;line-height:125%;font-family:monospace;-inkscape-font-specification:'monospace, Normal';text-align:start;writing-mode:lr-tb;text-anchor:start;fill:#ffffff"
       y="52.152267"
       x="62.500504"
       id="tspan3419-6-4-3-4-8">4</tspan></text>
  <text
     id="text3417-0-5-7"
     y="52.151047"
     x="53.383663"
     style="font-style:normal;font-weight:normal;font-size:40px;line-height:125%;font-family:sans-serif;letter-spacing:0px;word-spacing:0px;fill:#000000;fill-opacity:1;stroke:none;stroke-width:1px;stroke-linecap:butt;stroke-linejoin:miter;stroke-opacity:1"
     xml:space="preserve"><tspan
       style="font-style:normal;font-variant:normal;font-weight:normal;font-stretch:normal;font-size:2.5px;line-height:125%;font-family:monospace;-inkscape-font-specification:'monospace, Normal';text-align:start;writing-mode:lr-tb;text-anchor:start;fill:#ffffff"
       y="52.151047"
       x="53.383663"
       id="tspan3419-6-4-3">3</tspan></text>
  <text
     id="text3417-0-5-5"
     y="33.577061"
     x="53.102245"
     style="font-style:normal;font-weight:normal;font-size:40px;line-height:125%;font-family:sans-serif;letter-spacing:0px;word-spacing:0px;fill:#000000;fill-opacity:1;stroke:none;stroke-width:1px;stroke-linecap:butt;stroke-linejoin:miter;stroke-opacity:1"
     xml:space="preserve"><tspan
       style="font-style:normal;font-variant:normal;font-weight:normal;font-stretch:normal;font-size:2.5px;line-height:125%;font-family:monospace;-inkscape-font-specification:'monospace, Normal';text-align:start;writing-mode:lr-tb;text-anchor:start;fill:#ffffff"
       y="33.577061"
       x="53.102245"
       id="tspan3419-6-4-5">2</tspan></text>
  <text
     id="text3417-0-86"
     y="33.108414"
     x="60.523094"
     style="font-style:normal;font-weight:normal;font-size:23.43212891px;line-height:125%;font-family:sans-serif;letter-spacing:0px;word-spacing:0px;fill:#000000;fill-opacity:1;stroke:none;stroke-width:1px;stroke-linecap:butt;stroke-linejoin:miter;stroke-opacity:1"
     xml:space="preserve"><tspan
       style="font-style:normal;font-variant:normal;font-weight:normal;font-stretch:normal;font-size:1.46450806px;line-height:125%;font-family:monospace;-inkscape-font-specification:'monospace, Normal';text-align:start;writing-mode:lr-tb;text-anchor:start;fill:#ffffff"
       y="33.108414"
       x="60.523094"
       id="tspan3419-6-0">1(TX)</tspan></text>
  <text
     id="text3417-9"
     y="25.265814"
     x="71.669556"
     style="font-style:normal;font-weight:normal;font-size:24.7701683px;line-height:125%;font-family:sans-serif;letter-spacing:0px;word-spacing:0px;fill:#000000;fill-opacity:1;stroke:none;stroke-width:1px;stroke-linecap:butt;stroke-linejoin:miter;stroke-opacity:1"
     xml:space="preserve"><tspan
       style="font-style:normal;font-variant:normal;font-weight:normal;font-stretch:normal;font-size:1.54813552px;line-height:125%;font-family:monospace;-inkscape-font-specification:'monospace, Normal';text-align:start;writing-mode:lr-tb;text-anchor:start;fill:#ffffff"
       y="25.265814"
       x="71.669556"
       id="tspan3419-9">0(RX)</tspan></text>
  <text
     id="text3417-0-8-58"
     y="12.920153"
     x="111.77252"
     style="font-style:normal;font-weight:normal;font-size:40px;line-height:125%;font-family:sans-serif;letter-spacing:0px;word-spacing:0px;fill:#000000;fill-opacity:1;stroke:none;stroke-width:1px;stroke-linecap:butt;stroke-linejoin:miter;stroke-opacity:1"
     xml:space="preserve"><tspan
       style="font-style:normal;font-variant:normal;font-weight:normal;font-stretch:normal;font-size:2.5px;line-height:125%;font-family:monospace;-inkscape-font-specification:'monospace, Normal';text-align:center;writing-mode:lr-tb;text-anchor:middle;fill:#ffffff"
       y="12.920153"
       x="111.77252"
       id="tspan3419-6-5-1">A5</tspan><tspan
       id="tspan3766-3"
       style="font-style:normal;font-variant:normal;font-weight:normal;font-stretch:normal;font-size:2.5px;line-height:125%;font-family:monospace;-inkscape-font-specification:'monospace, Normal';text-align:start;writing-mode:lr-tb;text-anchor:start;fill:#ffffff"
       y="16.045153"
       x="111.77252"><tspan
   id="tspan3770-2"
   style="text-align:center;text-anchor:middle">(SDA</tspan>)</tspan></text>
  <text
     id="text3417-0-8-5-9"
     y="12.920153"
     x="120.60874"
     style="font-style:normal;font-weight:normal;font-size:40px;line-height:125%;font-family:sans-serif;letter-spacing:0px;word-spacing:0px;fill:#000000;fill-opacity:1;stroke:none;stroke-width:1px;stroke-linecap:butt;stroke-linejoin:miter;stroke-opacity:1"
     xml:space="preserve"><tspan
       style="font-style:normal;font-variant:normal;font-weight:normal;font-stretch:normal;font-size:2.5px;line-height:125%;font-family:monospace;-inkscape-font-specification:'monospace, Normal';text-align:center;writing-mode:lr-tb;text-anchor:middle;fill:#ffffff"
       y="12.920153"
       x="120.60874"
       id="tspan3419-6-5-2-7">A4</tspan><tspan
       id="tspan3768-2"
       style="font-style:normal;font-variant:normal;font-weight:normal;font-stretch:normal;font-size:2.5px;line-height:125%;font-family:monospace;-inkscape-font-specification:'monospace, Normal';text-align:center;writing-mode:lr-tb;text-anchor:middle;fill:#ffffff"
       y="16.045153"
       x="120.60874">(SCL)</tspan></text>
  <text
     id="text3417-0-8-5-2-0"
     y="14.646227"
     x="128.28876"
     style="font-style:normal;font-weight:normal;font-size:40px;line-height:125%;font-family:sans-serif;letter-spacing:0px;word-spacing:0px;fill:#000000;fill-opacity:1;stroke:none;stroke-width:1px;stroke-linecap:butt;stroke-linejoin:miter;stroke-opacity:1"
     xml:space="preserve"><tspan
       style="font-style:normal;font-variant:normal;font-weight:normal;font-stretch:normal;font-size:2.5px;line-height:125%;font-family:monospace;-inkscape-font-specification:'monospace, Normal';text-align:start;writing-mode:lr-tb;text-anchor:start;fill:#ffffff"
       y="14.646227"
       x="128.28876"
       id="tspan3419-6-5-2-4-7">A3</tspan></text>
  <text
     id="text3417-0-8-5-2-4-7"
     y="14.663927"
     x="137.10014"
     style="font-style:normal;font-weight:normal;font-size:40px;line-height:125%;font-family:sans-serif;letter-spacing:0px;word-spacing:0px;fill:#000000;fill-opacity:1;stroke:none;stroke-width:1px;stroke-linecap:butt;stroke-linejoin:miter;stroke-opacity:1"
     xml:space="preserve"><tspan
       style="font-style:normal;font-variant:normal;font-weight:normal;font-stretch:normal;font-size:2.5px;line-height:125%;font-family:monospace;-inkscape-font-specification:'monospace, Normal';text-align:start;writing-mode:lr-tb;text-anchor:start;fill:#ffffff"
       y="14.663927"
       x="137.10014"
       id="tspan3419-6-5-2-4-9-3">A2</tspan></text>
  <text
     id="text3417-0-8-5-2-8-8"
     y="38.661312"
     x="123.79523"
     style="font-style:normal;font-weight:normal;font-size:40px;line-height:125%;font-family:sans-serif;letter-spacing:0px;word-spacing:0px;fill:#000000;fill-opacity:1;stroke:none;stroke-width:1px;stroke-linecap:butt;stroke-linejoin:miter;stroke-opacity:1"
     xml:space="preserve"><tspan
       style="font-style:normal;font-variant:normal;font-weight:normal;font-stretch:normal;font-size:2.5px;line-height:125%;font-family:monospace;-inkscape-font-specification:'monospace, Normal';text-align:start;writing-mode:lr-tb;text-anchor:start;fill:#ffffff"
       y="38.661312"
       x="123.79523"
       id="tspan3419-6-5-2-4-0-3">A1</tspan></text>
  <text
     id="text3417-0-8-5-2-41-2"
     y="38.660091"
     x="143.73767"
     style="font-style:normal;font-weight:normal;font-size:40px;line-height:125%;font-family:sans-serif;letter-spacing:0px;word-spacing:0px;fill:#000000;fill-opacity:1;stroke:none;stroke-width:1px;stroke-linecap:butt;stroke-linejoin:miter;stroke-opacity:1"
     xml:space="preserve"><tspan
       style="font-style:normal;font-variant:normal;font-weight:normal;font-stretch:normal;font-size:2.5px;line-height:125%;font-family:monospace;-inkscape-font-specification:'monospace, Normal';text-align:start;writing-mode:lr-tb;text-anchor:start;fill:#ffffff"
       y="38.660091"
       x="143.73767"
       id="tspan3419-6-5-2-4-03-2">A0</tspan></text>
  <text
     id="text3417-0-5-7-2-0-7-7-0"
     y="76.743538"
     x="122.99199"
     style="font-style:normal;font-weight:normal;font-size:40px;line-height:125%;font-family:sans-serif;letter-spacing:0px;word-spacing:0px;fill:#000000;fill-opacity:1;stroke:none;stroke-width:1px;stroke-linecap:butt;stroke-linejoin:miter;stroke-opacity:1"
     xml:space="preserve"><tspan
       style="font-style:normal;font-variant:normal;font-weight:normal;font-stretch:normal;font-size:2.5px;line-height:125%;font-family:monospace;-inkscape-font-specification:'monospace, Normal';text-align:start;writing-mode:lr-tb;text-anchor:start;fill:#ffffff"
       y="76.743538"
       x="122.99199"
       id="tspan3419-6-4-3-4-2-6-4-8">5V</tspan></text>
  <text
     id="text3417-0-5-7-2-0-7-5-3"
     y="76.760017"
     x="143.43643"
     style="font-style:normal;font-weight:normal;font-size:40px;line-height:125%;font-family:sans-serif;letter-spacing:0px;word-spacing:0px;fill:#000000;fill-opacity:1;stroke:none;stroke-width:1px;stroke-linecap:butt;stroke-linejoin:miter;stroke-opacity:1"
     xml:space="preserve"><tspan
       style="font-style:normal;font-variant:normal;font-weight:normal;font-stretch:normal;font-size:2.5px;line-height:125%;font-family:monospace;-inkscape-font-specification:'monospace, Normal';text-align:start;writing-mode:lr-tb;text-anchor:start;fill:#ffffff"
       y="76.760017"
       x="143.43643"
       id="tspan3419-6-4-3-4-2-6-0-7">GND</tspan></text>
</svg>
